<svg width="63" height="63" viewBox="0 0 63 63" fill="none" xmlns="http://www.w3.org/2000/svg">
<g clip-path="url(#clip0_483_528)">
<path fill-rule="evenodd" clip-rule="evenodd" d="M61.7896 15.2401C63.0196 25.1601 63.0196 37.5601 61.7896 47.4701C60.6796 56.4701 56.4696 60.6701 47.4696 61.7901C37.5496 63.0201 25.1496 63.0201 15.2396 61.7901C6.23957 60.6801 2.03957 56.4701 0.91957 47.4701C-0.31043 37.5501 -0.31043 25.1501 0.91957 15.2401C2.02957 6.24006 6.23957 2.03006 15.2396 0.920059C25.1496 -0.309941 37.5496 -0.309941 47.4696 0.920059C56.4696 2.03006 60.6696 6.24006 61.7896 15.2401Z" fill="#E3A2A0"/>
<path fill-rule="evenodd" clip-rule="evenodd" d="M29.44 13.6701C29.44 8.30008 21.29 8.30008 21.29 13.6701C21.29 15.4001 23.97 15.4001 23.97 13.6701C23.97 11.8501 26.66 11.8501 26.66 13.6701C26.66 15.4001 29.43 15.4001 29.43 13.6701" fill="#F2D3C3"/>
<path fill-rule="evenodd" clip-rule="evenodd" d="M41.2291 13.6701C41.2291 8.30008 33.0791 8.30008 33.0791 13.6701C33.0791 15.4001 35.7691 15.4001 35.7691 13.6701C35.7691 11.8501 38.5391 11.8501 38.5391 13.6701C38.5391 15.4901 41.2291 15.4001 41.2291 13.6701Z" fill="#F2D3C3"/>
<path fill-rule="evenodd" clip-rule="evenodd" d="M18.7996 36.7701H44.0396C44.9796 36.7701 45.7396 37.5401 45.7396 38.4701C45.7396 39.4101 44.9696 40.1701 44.0396 40.1701H18.7996C17.8596 40.1701 17.0996 39.4001 17.0996 38.4701C17.0996 37.5301 17.8696 36.7701 18.7996 36.7701Z" fill="#F2D3C3"/>
<path fill-rule="evenodd" clip-rule="evenodd" d="M18.6092 45.6H43.8492C44.7892 45.6 45.5492 46.37 45.5492 47.3C45.5492 48.24 44.7792 49 43.8492 49H18.6092C17.6692 49 16.9092 48.23 16.9092 47.3C16.9092 46.36 17.6792 45.6 18.6092 45.6Z" fill="#F2D3C3"/>
<path fill-rule="evenodd" clip-rule="evenodd" d="M25.3997 26.8801C26.4897 26.8801 27.3697 25.9901 27.3697 24.9101C27.3697 23.8301 26.4797 22.9401 25.3997 22.9401C24.3197 22.9401 23.4297 23.8301 23.4297 24.9101C23.4297 25.9901 24.3197 26.8801 25.3997 26.8801Z" fill="#F2D3C3"/>
<path fill-rule="evenodd" clip-rule="evenodd" d="M37.2893 27.0201C38.3793 27.0201 39.2593 26.1301 39.2593 25.0501C39.2593 23.9701 38.3693 23.0801 37.2893 23.0801C36.2093 23.0801 35.3193 23.9701 35.3193 25.0501C35.3193 26.1301 36.2093 27.0201 37.2893 27.0201Z" fill="#F2D3C3"/>
</g>
<defs>
<clipPath id="clip0_483_528">
<rect width="62.71" height="62.71" fill="white"/>
</clipPath>
</defs>
</svg>
