<svg width="63" height="63" viewBox="0 0 63 63" fill="none" xmlns="http://www.w3.org/2000/svg">
<g clip-path="url(#clip0_483_549)">
<path fill-rule="evenodd" clip-rule="evenodd" d="M61.7896 15.2401C63.0196 25.1601 63.0196 37.5601 61.7896 47.4701C60.6796 56.4701 56.4696 60.6701 47.4696 61.7901C37.5496 63.0201 25.1496 63.0201 15.2396 61.7901C6.23957 60.6801 2.03957 56.4701 0.91957 47.4701C-0.31043 37.5501 -0.31043 25.1501 0.91957 15.2401C2.02957 6.24006 6.23957 2.03006 15.2396 0.920059C25.1496 -0.309941 37.5496 -0.309941 47.4696 0.920059C56.4696 2.03006 60.6696 6.24006 61.7896 15.2401Z" fill="#E3A2A0"/>
<path fill-rule="evenodd" clip-rule="evenodd" d="M44.3592 43.87C41.5892 30.26 22.0792 29.91 18.8692 43.44C18.4392 45.17 15.7492 44.5701 16.1792 42.8301C20.0792 26.4501 43.6592 26.88 47.0392 43.26C47.2092 44.04 46.6892 44.7301 45.9992 44.9101C45.2192 45.0801 44.5292 44.56 44.3492 43.87" fill="#F2D3C3"/>
<path fill-rule="evenodd" clip-rule="evenodd" d="M21.8199 19.4101L27.5799 22.7401C28.3899 23.2101 28.6699 24.2601 28.1999 25.0701C27.7299 25.8801 26.6799 26.1601 25.8699 25.6901L20.1099 22.3601C19.2999 21.8901 19.0199 20.8401 19.4899 20.0301C19.9599 19.2201 21.0099 18.9401 21.8199 19.4101Z" fill="#F2D3C3"/>
<path fill-rule="evenodd" clip-rule="evenodd" d="M41.2996 19.34L35.5396 22.67C34.7296 23.14 34.4496 24.19 34.9196 25C35.3896 25.81 36.4396 26.09 37.2496 25.62L43.0096 22.29C43.8196 21.82 44.0996 20.77 43.6296 19.96C43.1596 19.15 42.1096 18.87 41.2996 19.34Z" fill="#F2D3C3"/>
</g>
<defs>
<clipPath id="clip0_483_549">
<rect width="62.71" height="62.71" fill="white"/>
</clipPath>
</defs>
</svg>
