<svg width="106" height="67" viewBox="0 0 106 67" fill="none" xmlns="http://www.w3.org/2000/svg">
<path d="M33.5739 18.1883H35.0119V33.0719H38.1085V34.7784H35.0119V37.4223C35.0119 37.8489 35.1329 38.1649 35.3753 38.3755C35.6123 38.5915 35.9913 38.6967 36.5023 38.6967H37.3187V40.1189H27.7121V38.6967H29.287C29.903 38.6967 30.3191 38.5757 30.5351 38.3387C30.8248 38.0385 30.9668 37.575 30.9668 36.9537V34.7784H23.0352V32.6875L33.5739 18.1883ZM30.9668 24.2874L24.5784 33.0719H30.9668V24.2874Z" fill="#00C478"/>
<path d="M42.1911 45.5857L41.6854 44.6587C42.9494 43.9265 43.8395 43.2102 44.3716 42.5047C44.8982 41.7988 45.1616 41.1931 45.1616 40.6769C45.1616 40.3662 45.0351 40.2134 44.7769 40.2134L44.4821 40.2611C44.2661 40.3135 44.0555 40.3399 43.85 40.3399C43.1076 40.3399 42.4808 40.0765 41.9593 39.5552C41.438 39.0339 41.1797 38.3913 41.1797 37.6328C41.1797 36.9323 41.4485 36.3268 41.9805 35.8107C42.5177 35.2891 43.1654 35.0311 43.9291 35.0311C44.8245 35.0311 45.5987 35.3999 46.2569 36.1423C46.9154 36.8799 47.247 37.8173 47.247 38.9444C47.247 40.1766 46.8258 41.3827 45.983 42.5679C45.1403 43.7474 43.8763 44.7534 42.1911 45.5857Z" fill="#00C478"/>
<path d="M60.5143 29.8331L60.2669 30.0278C58.9292 31.1917 57.5334 31.7765 56.0903 31.7765C54.7209 31.7765 53.5096 31.3394 52.4563 30.4649C51.0871 29.3378 50.4023 27.7422 50.4023 25.6778C50.4023 24.1765 50.7079 22.8493 51.3187 21.6908C51.935 20.5374 52.7882 19.6524 53.8835 19.0416C54.9791 18.4307 56.2536 18.1251 57.7072 18.1251C59.9508 18.1251 61.71 18.915 62.9844 20.5005C64.5171 22.4175 65.2859 24.9878 65.2859 28.2162C65.2859 32.0344 64.3539 35.1208 62.4841 37.475C60.825 39.5553 58.7923 40.5928 56.3905 40.5928C54.8632 40.5928 53.5992 40.1926 52.5986 39.3867C51.5979 38.5811 51.0976 37.6856 51.0976 36.6955C51.0976 35.9318 51.3292 35.3051 51.7927 34.8152C52.2562 34.3254 52.8302 34.0833 53.5096 34.0833C54.1205 34.0833 54.6316 34.2938 55.0369 34.7151C55.4426 35.1417 55.6481 35.6634 55.6481 36.2952C55.6481 36.6322 55.5163 37.0747 55.2476 37.6065C55.095 37.9175 55.016 38.1649 55.016 38.3492C55.016 38.5757 55.1106 38.7599 55.2952 38.8917C55.5636 39.076 55.906 39.1709 56.3222 39.1709C57.0067 39.1709 57.6703 38.8864 58.3234 38.3123C58.9765 37.7437 59.4978 36.7796 59.893 35.421C60.2878 34.0621 60.4933 32.1977 60.5143 29.8331ZM57.6967 19.5473C56.8276 19.5473 56.1271 19.9526 55.5954 20.7639C55.0633 21.5749 54.7949 22.9812 54.7949 24.9824C54.7949 26.7152 55.0369 27.9475 55.5163 28.6692C55.9956 29.3906 56.6379 29.754 57.4438 29.754C58.3234 29.754 59.0712 29.3169 59.6875 28.4373C60.3037 27.5577 60.6093 26.2305 60.6093 24.4452C60.6093 22.6387 60.2615 21.3168 59.5715 20.4846C59.0556 19.8578 58.4289 19.5473 57.6967 19.5473Z" fill="#00C478"/>
<path d="M70.0937 18.2833H70.7255C71.2839 18.4939 71.9475 18.5991 72.7163 18.5991H83.334V19.9421C81.9227 22.7705 80.964 24.8614 80.4532 26.2095C79.9424 27.5631 79.5472 28.9325 79.2629 30.3124C78.9837 31.6974 78.7362 33.6408 78.5307 36.1532C78.4097 37.6224 78.2569 38.5967 78.0777 39.076C77.8989 39.5499 77.6092 39.9241 77.214 40.1926C76.8192 40.4613 76.3398 40.5928 75.7709 40.5928C75.0654 40.5928 74.5174 40.3876 74.1384 39.9766C73.7592 39.5658 73.5695 38.9654 73.5695 38.1754C73.5695 37.7329 73.6327 37.2275 73.7538 36.6535C73.9278 35.779 74.2016 34.868 74.5701 33.9252C75.0863 32.6034 75.7763 31.1129 76.6349 29.4592L80.5215 22.5177H72.9428C72.2214 22.5177 71.721 22.7229 71.4472 23.1339C71.168 23.5447 70.8415 24.5085 70.4727 26.0253H69.0508L70.0937 18.2833Z" fill="#00C478"/>
<path d="M43.0531 0.929504L46.9468 10.2767C47.0599 10.5387 47.1823 10.7167 47.317 10.8102C47.4491 10.904 47.6245 10.9522 47.8434 10.9522H48.2278V11.6011H43.3391V10.9522H43.7983C44.1589 10.9522 44.4064 10.9114 44.5433 10.832C44.6802 10.7527 44.7477 10.6469 44.7477 10.5146C44.7477 10.4114 44.7187 10.2912 44.6635 10.1566L43.8607 8.22638H39.9574L39.5849 9.10632C39.431 9.47402 39.3542 9.74552 39.3542 9.92352C39.3542 10.2286 39.4673 10.4763 39.6907 10.6662C39.9166 10.8561 40.2241 10.9522 40.6136 10.9522H40.9453V11.6011H36.9941V10.9522H37.22C37.4723 10.9522 37.6959 10.8729 37.8881 10.7119C38.1619 10.4882 38.3737 10.1974 38.5225 9.84637L42.2767 0.929504H43.0531ZM41.9187 3.56628L40.2482 7.53448H43.5724L41.9187 3.56628Z" fill="#391563"/>
<path d="M49.0176 1.18909H55.1152C56.1465 1.18909 56.9782 1.46551 57.6077 2.01831C58.235 2.57361 58.55 3.25138 58.55 4.05157C58.55 4.66217 58.3671 5.19558 58.0043 5.65228C57.6415 6.10898 57.1536 6.44092 56.5405 6.64752C55.9302 6.85422 55.3244 6.9577 54.7235 6.9577H52.7959V10.3584C52.7959 10.5483 52.8489 10.6926 52.9569 10.796C53.0652 10.8992 53.2047 10.9522 53.3728 10.9522H54.5698V11.6011H49.0176V10.9522H49.948C50.1546 10.9522 50.3108 10.8992 50.4165 10.796C50.5222 10.6926 50.5753 10.5483 50.5753 10.3609V2.41479C50.5753 2.23709 50.5222 2.09538 50.414 1.99188C50.306 1.88848 50.1739 1.83801 50.0174 1.83801H49.0176V1.18909ZM52.7959 6.30847H54.0794C54.529 6.30847 54.9279 6.2124 55.2765 6.0202C55.6249 5.8278 55.8749 5.59698 56.0215 5.32318C56.168 5.04908 56.2426 4.60462 56.2426 3.99152C56.2426 3.15042 56.0166 2.55692 55.5625 2.21082C55.2283 1.96302 54.6634 1.83801 53.8632 1.83801C53.3991 1.83801 53.106 1.87663 52.981 1.95343C52.8586 2.03053 52.7959 2.16261 52.7959 2.34991V6.30847Z" fill="#391563"/>
<path d="M59.9609 1.18909H66.0585C67.0897 1.18909 67.9214 1.46551 68.551 2.01831C69.1783 2.57361 69.4932 3.25138 69.4932 4.05157C69.4932 4.66217 69.3104 5.19558 68.9475 5.65228C68.5847 6.10898 68.0969 6.44092 67.4837 6.64752C66.8734 6.85422 66.2677 6.9577 65.6667 6.9577H63.7392V10.3584C63.7392 10.5483 63.7922 10.6926 63.9002 10.796C64.0085 10.8992 64.1479 10.9522 64.316 10.9522H65.5131V11.6011H59.9609V10.9522H60.8912C61.0978 10.9522 61.254 10.8992 61.3598 10.796C61.4655 10.6926 61.5185 10.5483 61.5185 10.3609V2.41479C61.5185 2.23709 61.4655 2.09538 61.3572 1.99188C61.2492 1.88848 61.1171 1.83801 60.9606 1.83801H59.9609V1.18909ZM63.7392 6.30847H65.0227C65.4723 6.30847 65.8711 6.2124 66.2198 6.0202C66.5681 5.8278 66.8182 5.59698 66.9647 5.32318C67.1113 5.04908 67.1858 4.60462 67.1858 3.99152C67.1858 3.15042 66.9599 2.55692 66.5058 2.21082C66.1716 1.96302 65.6066 1.83801 64.8064 1.83801C64.3424 1.83801 64.0493 1.87663 63.9243 1.95343C63.8018 2.03053 63.7392 2.16261 63.7392 2.34991V6.30847Z" fill="#391563"/>
<path d="M36.5293 49.8549H39.6877C40.2005 49.8549 40.6194 49.9207 40.9423 50.0533C41.2663 50.1846 41.5067 50.3649 41.6645 50.5911C41.8222 50.819 41.9018 51.0718 41.9018 51.3482C41.9018 51.7927 41.7034 52.1515 41.3054 52.4268C41.0024 52.6363 40.5369 52.7718 39.9071 52.8347C40.2243 52.8863 40.4672 52.9702 40.6376 53.0833C40.8082 53.1964 40.959 53.3656 41.0902 53.5904C41.262 53.8852 41.4018 54.2387 41.5106 54.6508C41.5778 54.9162 41.6379 55.0823 41.6895 55.1509C41.7414 55.2192 41.8 55.2529 41.8655 55.2529C42.0444 55.2529 42.1518 55.0126 42.187 54.5321H42.5473C42.5206 55.0406 42.4075 55.4066 42.208 55.6257C42.0095 55.8465 41.7286 55.9568 41.3655 55.9568C41.107 55.9568 40.8989 55.9038 40.7424 55.7977C40.586 55.6914 40.4658 55.535 40.3847 55.3312C40.336 55.2138 40.2674 54.9371 40.1795 54.504C40.0788 53.9955 39.9881 53.6548 39.9085 53.4801C39.8274 53.3055 39.7225 53.1754 39.5955 53.0918C39.4671 53.0065 39.3092 52.9645 39.1205 52.9645H38.6748V55.2011C38.6748 55.2988 38.7043 55.3743 38.7616 55.4275C38.8427 55.4959 38.939 55.5293 39.0479 55.5293H39.597V55.9066H36.5293V55.5293H37.0041C37.1257 55.5293 37.2193 55.4973 37.2822 55.4329C37.3451 55.3689 37.3757 55.2793 37.3757 55.1648V50.5967C37.3757 50.4712 37.3477 50.3788 37.2904 50.3201C37.2331 50.2614 37.1509 50.2322 37.0446 50.2322H36.5293V49.8549ZM38.6748 52.5957H39.1862C39.6389 52.5957 39.9964 52.4798 40.2577 52.2493C40.4547 52.0719 40.5525 51.7743 40.5525 51.3553C40.5525 50.9684 40.4561 50.686 40.262 50.5074C40.0692 50.33 39.7325 50.2404 39.256 50.2404C38.9991 50.2404 38.8384 50.2685 38.7726 50.3243C38.7072 50.3802 38.6748 50.5046 38.6748 50.6974V52.5957Z" fill="#391563"/>
<path d="M46.2796 49.7042L48.5425 55.1371C48.6082 55.2893 48.6794 55.3925 48.7576 55.4472C48.8345 55.5016 48.9365 55.5294 49.0635 55.5294H49.2871V55.9067H46.4457V55.5294H46.7124C46.9219 55.5294 47.0659 55.5059 47.1456 55.4597C47.2252 55.4135 47.2643 55.3522 47.2643 55.2751C47.2643 55.2153 47.2476 55.1453 47.2153 55.0671L46.7487 53.9454H44.4802L44.2636 54.4568C44.1743 54.6705 44.1295 54.8281 44.1295 54.9316C44.1295 55.109 44.1953 55.253 44.3251 55.3633C44.4563 55.4736 44.6352 55.5294 44.8614 55.5294H45.0545V55.9067H42.7578V55.5294H42.8891C43.0356 55.5294 43.1657 55.4835 43.2774 55.3899C43.4367 55.2598 43.5595 55.0909 43.6462 54.8868L45.8283 49.7042H46.2796ZM45.62 51.2366L44.6491 53.5432H46.5812L45.62 51.2366Z" fill="#391563"/>
<path d="M49.6458 49.855H54.9347L55.0691 52.1516H54.7003C54.6135 51.6584 54.499 51.2729 54.3607 50.9962C54.2209 50.7199 54.0616 50.5229 53.883 50.4069C53.7042 50.291 53.5086 50.2323 53.2963 50.2323C53.1732 50.2323 53.084 50.2572 53.0267 50.3077C52.9694 50.3593 52.94 50.4321 52.94 50.5271V55.2221C52.94 55.3117 52.968 55.3857 53.0239 55.4429C53.0797 55.5002 53.1466 55.5294 53.2263 55.5294H53.9122V55.9067H50.6768V55.5294H51.3307C51.4285 55.5294 51.5068 55.5016 51.564 55.4458C51.6213 55.3899 51.6491 55.3143 51.6491 55.2221V50.5521C51.6491 50.4432 51.6199 50.3621 51.5612 50.3105C51.5025 50.2587 51.4104 50.2323 51.2845 50.2323C50.5889 50.2323 50.1181 50.8721 49.8723 52.1516H49.5117L49.6458 49.855Z" fill="#391563"/>
<path d="M55.582 49.855H58.6833V50.2323H58.1218C58.0016 50.2323 57.9152 50.2561 57.8604 50.3035C57.806 50.3525 57.7782 50.4222 57.7782 50.5144V55.2054C57.7782 55.3157 57.8074 55.3925 57.8647 55.4387C57.9373 55.4988 58.045 55.5294 58.1833 55.5294H58.6833V55.9067H55.582V55.5294H56.057C56.222 55.5294 56.3365 55.5016 56.4034 55.4472C56.4706 55.3925 56.5041 55.3131 56.5041 55.2054V50.5676C56.5041 50.4528 56.4735 50.3692 56.4119 50.3148C56.3504 50.2601 56.2541 50.2323 56.1228 50.2323H55.582V49.855Z" fill="#391563"/>
<path d="M59.302 49.855H61.1756L64.4569 54.0055V51.1822C64.4569 50.9041 64.3786 50.6807 64.221 50.5129C64.0645 50.3454 63.8409 50.2519 63.5517 50.2323V49.855H65.7563V50.2323C65.4473 50.2643 65.2267 50.3565 65.0941 50.509C64.96 50.6598 64.8929 50.8846 64.8929 51.1822V55.9067H64.4191L60.6852 51.1346V54.4426C60.6852 54.8213 60.7719 55.0966 60.9451 55.2698C61.1183 55.4429 61.332 55.5294 61.5891 55.5294H61.6911V55.9067H59.252V55.5294H59.4209C59.6613 55.5294 59.8639 55.4344 60.0286 55.2445C60.1921 55.0532 60.2744 54.8086 60.2744 54.5098V50.6093C60.0916 50.3579 59.8568 50.2323 59.5733 50.2323H59.302V49.855Z" fill="#391563"/>
<path d="M71.3535 49.7041H71.6469L71.7892 52.1263H71.4289C71.2348 51.4015 70.9706 50.8777 70.6384 50.5548C70.3059 50.2336 69.9371 50.0729 69.5292 50.0729C69.2162 50.0729 68.9325 50.165 68.6768 50.351C68.4214 50.5366 68.2215 50.8272 68.0761 51.2212C67.931 51.6166 67.8581 52.1544 67.8581 52.8375C67.8581 53.6043 67.9182 54.1758 68.0384 54.5488C68.1586 54.9233 68.3432 55.2011 68.5889 55.3828C68.8347 55.5645 69.1184 55.6552 69.4382 55.6552C69.8588 55.6552 70.1885 55.5364 70.4258 55.2974C70.6647 55.0602 70.7835 54.7444 70.7835 54.3504V53.7959C70.7835 53.6953 70.7569 53.6199 70.7038 53.568C70.6508 53.5178 70.5726 53.4926 70.472 53.4926H69.8364V53.1156H72.7615V53.4926H72.3956C72.2643 53.4926 72.1708 53.5193 72.1121 53.5723C72.0534 53.6253 72.0239 53.7007 72.0239 53.7959V56.0325H71.7056L71.1957 55.0083C70.9666 55.3632 70.6996 55.6231 70.3952 55.7864C70.0907 55.95 69.7316 56.0325 69.3194 56.0325C68.7706 56.0325 68.2717 55.9009 67.8204 55.6399C67.3709 55.3771 67.0228 55.0196 66.777 54.5641C66.5312 54.1086 66.4082 53.5612 66.4082 52.924C66.4082 51.9826 66.6974 51.2113 67.277 50.6078C67.8556 50.0057 68.5651 49.7041 69.4033 49.7041C69.7148 49.7041 69.9915 49.7489 70.2344 49.8396C70.4776 49.9303 70.7359 50.0896 71.0083 50.3158L71.3535 49.7041Z" fill="#391563"/>
<path fill-rule="evenodd" clip-rule="evenodd" d="M7.48971 15.6775C7.25901 15.1965 6.9557 14.3684 6.9183 13.2932C6.8562 11.5337 7.5082 9.11324 10.3576 6.46744C10.3576 6.46744 12.8875 11.9328 8.19391 15.8084L8.19331 15.8095C8.06771 16.4362 7.9518 17.0628 7.8455 17.6927C7.7366 18.3395 7.63881 18.9877 7.55151 19.6371L7.54191 19.7105C7.67171 19.4177 7.839 19.1063 8.0538 18.7888C9.0012 17.3891 10.8752 15.8792 14.5843 15.437C14.5843 15.437 13.4184 21.2935 7.33671 21.4741C7.13261 23.5176 7.05351 25.4834 7.08331 27.3747C7.16631 26.8772 7.34491 26.221 7.72761 25.5214C8.53861 24.038 10.2615 22.3565 13.9116 21.5659C13.9116 21.5659 13.2945 27.6116 7.10621 28.2815C7.17201 30.162 7.3457 31.9659 7.6125 33.6931C7.6663 33.2801 7.7735 32.8021 7.9736 32.291C8.5902 30.7172 10.0866 28.8317 13.6069 27.5853C13.6069 27.5853 13.7577 33.5653 7.8475 35.0724C8.1916 36.9099 8.6406 38.6585 9.173 40.3205C9.1806 39.9772 9.21861 39.5951 9.30681 39.1858C9.66281 37.5326 10.8369 35.4316 14.1126 33.6373C14.1126 33.6373 15.2082 39.4524 9.71861 41.9106C10.3131 43.5372 10.9871 45.0741 11.7213 46.5277C11.6828 46.1462 11.6771 45.7059 11.7341 45.2224C11.9342 43.544 12.9068 41.3423 16.0002 39.2495C16.0002 39.2495 17.6284 44.9115 12.4351 47.8779C13.288 49.4259 14.2047 50.8674 15.1569 52.2053C15.0395 51.8113 14.9446 51.3398 14.9188 50.8018C14.8357 49.1132 15.4276 46.7798 18.1279 44.201C18.1279 44.201 20.6978 49.5532 15.9976 53.3477C17.0487 54.7327 18.1321 55.9974 19.2124 57.144C19.0735 56.8044 18.9508 56.4084 18.8691 55.9586C18.5681 54.2955 18.8527 51.9048 21.197 48.9973C21.197 48.9973 24.4092 53.9288 20.3219 58.2865C21.5252 59.4847 22.7067 60.5369 23.8156 61.4482C23.6124 61.0865 23.4139 60.6409 23.2688 60.114C22.8201 58.4843 22.8892 56.0779 24.9642 52.972C24.9642 52.972 28.6155 57.6093 24.9098 62.3216C28.1659 64.8459 30.5578 66.0374 30.5578 66.0374L30.8778 66.1966L30.5598 66.8372L30.2392 66.6776C30.2392 66.6776 27.7923 65.461 24.4659 62.8823C19.1968 66.2022 14.9593 61.843 14.9593 61.843C18.3116 60.1969 20.706 60.4458 22.2622 61.106C22.2894 61.1168 22.3161 61.1288 22.3427 61.1404C21.5286 60.4351 20.6864 59.659 19.8343 58.812C14.2776 61.6696 10.4375 56.9366 10.4375 56.9366C13.9241 55.5978 16.2868 56.0589 17.7772 56.856C17.9244 56.9351 18.063 57.0166 18.1936 57.1002C17.2628 56.082 16.3333 54.9776 15.4262 53.7845C9.59761 55.822 6.43211 50.68 6.43211 50.68C10.0619 49.803 12.3449 50.5671 13.7203 51.5504C13.7963 51.6043 13.87 51.6602 13.9403 51.7146C13.199 50.6199 12.4844 49.4608 11.8075 48.2357C5.6679 49.3279 3.38691 43.6852 3.38691 43.6852C7.11251 43.4272 9.23621 44.5608 10.4281 45.7596C10.5106 45.8427 10.5877 45.9256 10.6614 46.0078C10.0803 44.7946 9.54061 43.5236 9.05391 42.1942C2.87491 42.6764 1.14011 36.8733 1.14011 36.8733C4.87391 36.9646 6.88171 38.2925 7.95691 39.597C8.11081 39.7847 8.2463 39.9716 8.3642 40.1547C7.8758 38.5826 7.46251 36.9354 7.14081 35.2108C1.05711 34.6393 0.283203 28.6992 0.283203 28.6992C3.9535 29.3872 5.72321 31.0203 6.57471 32.4813C6.64191 32.5978 6.70451 32.7126 6.76101 32.826C6.56851 31.363 6.4409 29.8473 6.3876 28.2786C0.568704 26.8778 0.554207 20.9854 0.554207 20.9854C4.10741 22.1334 5.65601 23.9765 6.31621 25.5327C6.33521 25.5764 6.35221 25.62 6.36951 25.6631L6.37151 25.6035C6.38541 24.9269 6.41201 24.2508 6.45251 23.5753C6.49311 22.8802 6.54951 22.1859 6.61671 21.4928L6.6198 21.4604C0.788105 19.5716 1.342 13.5932 1.342 13.5932C4.771 15.072 6.1376 17.0545 6.647 18.6657C6.7403 18.9602 6.80491 19.2435 6.84801 19.5085L6.8551 19.4592C6.9401 18.8339 7.03451 18.2085 7.13881 17.5863C7.24031 16.9825 7.35231 16.3813 7.47131 15.7807L7.48971 15.6775Z" fill="#CC918E"/>
<path fill-rule="evenodd" clip-rule="evenodd" d="M98.1563 15.6775C98.387 15.1965 98.6903 14.3684 98.7277 13.2932C98.7898 11.5337 98.1378 9.11324 95.2884 6.46744C95.2884 6.46744 92.7585 11.9328 97.4527 15.8084V15.8095C97.5774 16.4362 97.6953 17.0628 97.8005 17.6927C97.9094 18.3395 98.0071 18.9877 98.0945 19.6371L98.1041 19.7105C97.9743 19.4177 97.807 19.1063 97.5927 18.7888C96.6448 17.3891 94.7706 15.8792 91.0623 15.437C91.0623 15.437 92.2276 21.2935 98.3088 21.4741C98.5129 23.5176 98.5919 25.4834 98.5622 27.3747C98.4791 26.8772 98.3005 26.221 97.9179 25.5214C97.1069 24.038 95.384 22.3565 91.7346 21.5659C91.7346 21.5659 92.3512 27.6116 98.5395 28.2815C98.4737 30.162 98.3 31.9659 98.0332 33.6931C97.9794 33.2801 97.8722 32.8021 97.6721 32.291C97.0556 30.7172 95.5591 28.8317 92.0388 27.5853C92.0388 27.5853 91.888 33.5653 97.7982 35.0724C97.4541 36.9099 97.0062 38.6585 96.4728 40.3205C96.4657 39.9772 96.4271 39.5951 96.339 39.1858C95.9835 37.5326 94.8088 35.4316 91.5331 33.6373C91.5331 33.6373 90.4375 39.4524 95.9271 41.9106C95.3327 43.5372 94.6586 45.0741 93.9244 46.5277C93.9624 46.1462 93.97 45.7059 93.9117 45.2224C93.7115 43.544 92.739 41.3423 89.6455 39.2495C89.6455 39.2495 88.0173 44.9115 93.2106 47.8779C92.3586 49.4259 91.441 50.8674 90.4888 52.2053C90.6062 51.8113 90.7011 51.3398 90.7269 50.8018C90.81 49.1132 90.2181 46.7798 87.5178 44.201C87.5178 44.201 84.9479 49.5532 89.6486 53.3477C88.597 54.7327 87.5127 55.9974 86.4339 57.144C86.5713 56.8044 86.6955 56.4084 86.7771 55.9586C87.0773 54.2955 86.793 51.9048 84.4479 48.9973C84.4479 48.9973 81.2363 53.9288 85.323 58.2865C84.1191 59.4847 82.9382 60.5369 81.8293 61.4482C82.0325 61.0865 82.2309 60.6409 82.3766 60.114C82.8245 58.4843 82.7548 56.0779 80.6804 52.972C80.6804 52.972 77.0296 57.6093 80.7348 62.3216C77.4786 64.8459 75.0876 66.0374 75.0876 66.0374L74.7676 66.1966L75.0856 66.8372L75.4062 66.6776C75.4062 66.6776 77.8531 65.461 81.1796 62.8823C86.4486 66.2022 90.6867 61.843 90.6867 61.843C87.3344 60.1969 84.94 60.4458 83.3832 61.106C83.3566 61.1168 83.3294 61.1288 83.3027 61.1404C84.1168 60.4351 84.959 59.659 85.8111 58.812C91.3684 61.6696 95.2079 56.9366 95.2079 56.9366C91.7219 55.5978 89.3586 56.0589 87.8682 56.856C87.7211 56.9351 87.583 57.0166 87.4532 57.1002C88.3841 56.082 89.3136 54.9776 90.2201 53.7845C96.0487 55.822 99.2141 50.68 99.2141 50.68C95.5844 49.803 93.3014 50.5671 91.926 51.5504C91.85 51.6043 91.7763 51.6602 91.706 51.7146C92.4473 50.6199 93.1627 49.4608 93.8388 48.2357C99.9784 49.3279 102.259 43.6852 102.259 43.6852C98.5338 43.4272 96.4107 44.5608 95.2181 45.7596C95.1357 45.8427 95.0586 45.9256 94.9849 46.0078C95.566 44.7946 96.1057 43.5236 96.5929 42.1942C102.771 42.6764 104.507 36.8733 104.507 36.8733C100.773 36.9646 98.7657 38.2925 97.6905 39.597C97.5366 39.7847 97.4011 39.9716 97.2832 40.1547C97.7716 38.5826 98.1849 36.9354 98.5072 35.2108C104.591 34.6393 105.365 28.6992 105.365 28.6992C101.694 29.3872 99.9254 31.0203 99.0738 32.4813C99.0061 32.5978 98.9434 32.7126 98.887 32.826C99.0803 31.363 99.2071 29.8473 99.2603 28.2786C105.079 26.8778 105.095 20.9854 105.095 20.9854C101.541 22.1334 99.9923 23.9765 99.3321 25.5327C99.3142 25.5764 99.2961 25.62 99.2788 25.6631L99.2776 25.6035C99.2637 24.9269 99.2371 24.2508 99.1971 23.5753C99.156 22.8802 99.0996 22.1859 99.0324 21.4928L99.0293 21.4604C104.86 19.5716 104.308 13.5932 104.308 13.5932C100.878 15.072 99.5121 17.0545 99.0018 18.6657C98.9086 18.9602 98.8439 19.2435 98.8009 19.5085L98.7946 19.4592C98.7096 18.8339 98.6146 18.2085 98.51 17.5863C98.4085 16.9825 98.2966 16.3813 98.1775 15.7807L98.1563 15.6775Z" fill="#CC918E"/>
</svg>
