<svg width="34" height="34" viewBox="0 0 34 34" fill="none" xmlns="http://www.w3.org/2000/svg">
<path fill-rule="evenodd" clip-rule="evenodd" d="M33.1127 8.32298C34.0501 13.0104 34.0501 20.5103 33.1127 25.1977C33.1127 29.885 30.3002 32.6976 25.6128 32.6976C20.9254 33.635 13.4255 33.635 8.73811 32.6976C4.05081 32.6976 1.23821 29.885 1.23821 25.1977C0.300806 20.5103 0.300806 13.0104 1.23821 8.32298C1.23821 3.63558 4.05081 0.823105 8.73811 0.823105C13.4255 -0.114296 20.9254 -0.114296 25.6128 0.823105C30.3002 0.823105 33.1127 3.63558 33.1127 8.32298Z" fill="#391563"/>
<path fill-rule="evenodd" clip-rule="evenodd" d="M21.7477 17.7881L26.4115 13.1245L23.7597 10.5195L19.294 14.9911H19.3405L19.3927 15.0376C19.4394 15.0376 19.4394 15.0841 19.4859 15.0841L19.5381 15.1365H19.5846V15.183H19.637L19.6835 15.2352H19.7359V15.2817L19.7824 15.3341H19.8349L19.8814 15.3806H19.9278V15.433H19.9803V15.4796L20.0268 15.526H20.0789C20.0789 15.526 20.0789 15.5786 20.1254 15.5786L20.1779 15.625V15.6774H20.2243V15.7239H20.2768L20.3233 15.776V15.8225H20.3698V15.875H20.4222C20.4222 15.9215 20.4222 15.9215 20.4687 15.9215V15.9679L20.5211 16.0204L20.5676 16.067V16.1194H20.6198V16.1658L20.6663 16.2182L20.7187 16.2647L20.7652 16.317L20.8117 16.4102L20.8641 16.4623V16.5089L20.9106 16.5612V16.6077L20.9631 16.6602L21.0095 16.7067V16.7531L21.062 16.8056V16.8521V16.9042L21.1085 16.951V17.0032L21.1606 17.0497V17.1021V17.1487L21.2071 17.1951V17.2475L21.2539 17.294V17.3464V17.3929L21.306 17.4451V17.4919V17.544V17.5905H21.3525V17.6371V17.6895V17.7359V17.7885H19.8814C18.8986 17.7885 17.9683 18.1313 17.2823 18.6722C16.5436 18.1313 15.6132 17.7885 14.6305 17.7885H13.1536V17.7359V17.6895V17.6371L13.2058 17.5905V17.544V17.4919C13.2058 17.4919 13.2058 17.4451 13.2525 17.4451V17.3929V17.3464V17.294L13.3047 17.2475V17.1951L13.3512 17.1487V17.1021V17.0497L13.4036 17.0032V16.951V16.9042L13.4501 16.8521V16.8056L13.5025 16.7531L13.549 16.6602L13.5955 16.6077V16.5612L13.648 16.5089V16.4623L13.6945 16.4102V16.3634L13.7466 16.317L13.7934 16.2647L13.8455 16.2182V16.1658L13.892 16.1194L13.9445 16.067L13.991 16.0204L14.0374 15.9679V15.9215L14.0899 15.875H14.1364V15.8225H14.1888V15.776L14.2353 15.7239H14.2875V15.6774H14.3342V15.625L14.3864 15.5786L14.4329 15.526H14.4794V15.4796H14.5318V15.433H14.5783V15.3806H14.6307L14.6772 15.3341H14.7297V15.2817H14.7762V15.2352H14.8226L14.8751 15.183H14.9216V15.1365H14.9737C14.9737 15.1365 15.0205 15.1365 15.0205 15.0841H15.0727V15.0376H15.1191L10.6999 10.5717L8.0541 13.1711L12.6655 17.7881H6.1875V21.5154H13.9912H14.0377H14.0899H14.1367H14.1888V21.5678C14.6307 21.6667 14.974 21.9573 15.1716 22.3005V22.3528L15.2181 22.3995V22.4516L15.2646 22.4981V22.5506V22.597H15.317V22.6495V22.696V22.7426L15.3635 22.795V22.8414V22.8936V22.9403C15.3635 22.9925 15.3635 22.9925 15.3635 23.039V23.0855V23.1379H15.4159H18.9513H19.0967H19.1432V23.0855C19.1432 22.353 19.6376 21.7133 20.3236 21.5157C20.3703 21.5157 20.469 21.5157 20.5214 21.5157H28.3252V21.4691V17.7881H21.8472H21.7477ZM19.0962 14.8922V8.60614H15.3629V14.8922H15.4154L15.4619 14.8398H15.5143L15.5608 14.7933C15.6129 14.7933 15.6129 14.7933 15.6597 14.7933V14.7408H15.7584H15.8048L15.8573 14.6943L15.9562 14.6422H16.0027H16.1016V14.5957H16.2006H16.2471L16.2992 14.549H16.3457H16.3981H16.4446H16.4971V14.4968H16.5436H16.59H16.6425H16.689H16.7414C16.7879 14.4968 16.7879 14.4968 16.8401 14.4968C16.8865 14.4503 16.8865 14.4503 16.939 14.4503C16.9855 14.4503 16.9855 14.4503 17.032 14.4503C17.0844 14.4503 17.1309 14.4503 17.1309 14.4503C17.1833 14.4503 17.2298 14.4503 17.2823 14.4503C17.2823 14.4503 17.3288 14.4503 17.3752 14.4503C17.3752 14.4503 17.4274 14.4503 17.4742 14.4503C17.5263 14.4503 17.5263 14.4503 17.5728 14.4503C17.6253 14.4503 17.6253 14.4503 17.6717 14.4968C17.7242 14.4968 17.7707 14.4968 17.7707 14.4968H17.8172H17.8696H17.9161C17.9161 14.4968 17.9683 14.4968 18.015 14.4968C18.015 14.5489 18.0672 14.549 18.1137 14.549C18.1661 14.549 18.1661 14.549 18.2126 14.549C18.2591 14.549 18.2591 14.5957 18.3115 14.5957C18.358 14.5957 18.358 14.5957 18.4105 14.5957C18.4569 14.6422 18.4569 14.6422 18.5091 14.6422C18.5559 14.6422 18.5559 14.6422 18.608 14.6943C18.6545 14.6943 18.6545 14.6943 18.701 14.6943C18.7534 14.7408 18.7534 14.7408 18.7999 14.7408C18.8524 14.7408 18.8524 14.7933 18.8989 14.7933L18.9978 14.8398H19.05L19.0962 14.8922Z" fill="#00C478"/>
</svg>
