<svg width="24" height="16" viewBox="0 0 24 16" fill="none" xmlns="http://www.w3.org/2000/svg">
    <path fill-rule="evenodd" clip-rule="evenodd"
        d="M20.8663 1.87103V0.518066H14.7793C13.6743 0.518066 12.6913 1.05105 12.0733 1.87305C11.4553 1.05105 10.4733 0.518066 9.36731 0.518066H3.2803V1.87103H0.529297V15.399H23.6163V1.87103H20.8663ZM14.7803 1.87103H19.5153V11.3401H14.7803C14.0193 11.3401 13.3163 11.5931 12.7513 12.0181V3.90009C12.7503 2.78109 13.6603 1.87103 14.7803 1.87103ZM7.33929 1.87103H8.69229V4.97308L8.0163 4.29706L7.3403 4.97308L7.33929 1.87103ZM4.63431 1.87103H5.9873V8.23907L8.0163 6.21008L10.0453 8.23907V1.98804C10.8323 2.26704 11.3983 3.01906 11.3983 3.90106V12.019C10.8323 11.594 10.1293 11.3411 9.36929 11.3411H4.63431V1.87103ZM1.8833 3.22406H3.28131V12.6931H9.36929C10.2513 12.6931 11.0023 13.2591 11.2823 14.0461H1.88431V3.22406H1.8833ZM22.2643 14.045H12.8663C13.1453 13.258 13.8973 12.6921 14.7793 12.6921H20.8663V3.22308H22.2643V14.045Z"
        fill="#E3A29F" />
</svg>