<svg width="19" height="18" viewBox="0 0 19 18" fill="none" xmlns="http://www.w3.org/2000/svg">
    <path opacity="0.9" fill-rule="evenodd" clip-rule="evenodd"
        d="M6.61673 9.823H3.82872V7.03497H6.61673V9.823ZM10.8257 7.03497H8.03772V9.823H10.8257V7.03497ZM15.0347 7.03497H12.2467V9.823H15.0347V7.03497ZM6.61673 11.191H3.82872V13.98H6.61673V11.191ZM10.8257 11.191H8.03772V13.98H10.8257V11.191ZM15.0347 11.191H12.2467V13.98H15.0347V11.191ZM18.0957 1.36603C18.0957 0.909028 17.7287 0.530029 17.2607 0.530029H1.59773C1.14073 0.530029 0.761719 0.909028 0.761719 1.36603V16.205C0.761719 16.673 1.14073 17.04 1.59773 17.04H17.2607C17.7287 17.04 18.0957 16.672 18.0957 16.205V1.36603ZM7.46773 2.53601H11.3887V3.65002H7.46773V2.53601ZM16.4247 5.64398H2.43272V15.369H16.4247V5.64398Z"
        fill="#E3A29F" />
</svg>