<svg width="63" height="63" viewBox="0 0 63 63" fill="none" xmlns="http://www.w3.org/2000/svg">
<g clip-path="url(#clip0_483_543)">
<path fill-rule="evenodd" clip-rule="evenodd" d="M61.7896 15.2401C63.0196 25.1601 63.0196 37.5601 61.7896 47.4701C60.6796 56.4701 56.4696 60.6701 47.4696 61.7901C37.5496 63.0201 25.1496 63.0201 15.2396 61.7901C6.23957 60.6801 2.03957 56.4701 0.91957 47.4701C-0.31043 37.5501 -0.31043 25.1501 0.91957 15.2401C2.02957 6.24006 6.23957 2.03006 15.2396 0.920059C25.1496 -0.309941 37.5496 -0.309941 47.4696 0.920059C56.4696 2.03006 60.6696 6.24006 61.7896 15.2401Z" fill="#E3A2A0"/>
<path fill-rule="evenodd" clip-rule="evenodd" d="M41.2291 23.87C41.2291 18.5 33.0791 18.5 33.0791 23.87C33.0791 25.6 35.7691 25.6 35.7691 23.87C35.7691 22.05 38.5391 22.05 38.5391 23.87C38.5391 25.69 41.2291 25.6 41.2291 23.87Z" fill="#F2D3C3"/>
<path fill-rule="evenodd" clip-rule="evenodd" d="M20.4898 44.5901L42.3498 31.9701C43.1598 31.5001 44.2098 31.7801 44.6798 32.5901C45.1498 33.4001 44.8698 34.4501 44.0598 34.9201L22.1998 47.5401C21.3898 48.0101 20.3398 47.7301 19.8698 46.9201C19.3998 46.1101 19.6798 45.0601 20.4898 44.5901Z" fill="#F2D3C3"/>
<path fill-rule="evenodd" clip-rule="evenodd" d="M25.2493 25.0001C26.3393 25.0001 27.2193 24.1101 27.2193 23.0301C27.2193 21.9501 26.3293 21.0601 25.2493 21.0601C24.1693 21.0601 23.2793 21.9501 23.2793 23.0301C23.2793 24.1101 24.1693 25.0001 25.2493 25.0001Z" fill="#F2D3C3"/>
</g>
<defs>
<clipPath id="clip0_483_543">
<rect width="62.71" height="62.71" fill="white"/>
</clipPath>
</defs>
</svg>
