<svg width="35" height="34" viewBox="0 0 35 34" fill="none" xmlns="http://www.w3.org/2000/svg">
<path fill-rule="evenodd" clip-rule="evenodd" d="M34.2676 7.9509C34.2676 13.9068 34.2676 19.8627 34.2676 25.8185C33.2749 30.7817 31.2895 32.7671 26.3263 33.7598C20.3704 33.7598 14.4145 33.7598 8.45874 33.7598C3.49554 32.7671 1.51015 30.7817 1.51015 25.8185C0.51745 19.8627 0.51745 13.9068 1.51015 7.9509C1.51015 2.9877 3.49554 1.00229 8.45874 1.00229C14.4145 0.00968933 20.3704 0.00968933 26.3263 1.00229C31.2895 1.00229 33.2749 2.9877 34.2676 7.9509Z" fill="#00C478"/>
<path d="M9.94543 26.4871C9.78193 26.3006 9.58433 26.0743 9.38533 25.8484C9.32043 25.7747 9.25293 25.7031 9.17583 25.6186C10.0642 24.7399 10.9398 23.8736 11.8761 22.9472C9.15263 21.5928 6.96853 19.7262 4.99023 17.5353C5.07243 17.4265 5.14273 17.3193 5.22713 17.2246C8.06243 14.0442 11.4464 11.7586 15.6759 10.8867C18.0738 10.3923 20.4379 10.5882 22.7441 11.4014C23.0761 11.5185 23.277 11.4799 23.5217 11.2254C24.4027 10.3092 25.3098 9.41797 26.2248 8.49927C26.5301 8.81277 26.815 9.10587 27.074 9.37177C21.39 15.0516 15.71 20.7271 9.94543 26.4871ZM6.71764 17.535C7.30954 18.0784 7.86512 18.6105 8.44482 19.1153C9.64922 20.1639 10.9605 21.0585 12.4039 21.7479C12.5561 21.8205 12.8302 21.8624 12.9314 21.7785C13.3884 21.3987 13.8031 20.9684 14.2172 20.5715C12.557 18.1238 13.1789 15.6395 14.476 14.2245C15.2244 13.4084 16.1397 12.8808 17.2307 12.6878C18.6492 12.4369 19.9492 12.7561 20.9906 13.5039C21.3988 13.1731 21.7545 12.8848 22.129 12.5809C16.8432 10.6724 10.8057 13.1187 6.71764 17.535ZM20.1085 14.5553C18.785 13.5456 16.7514 13.7559 15.5336 15.0244C14.3334 16.2747 14.1719 18.2978 15.1631 19.5085C16.8044 17.8644 18.4471 16.2192 20.1085 14.5553Z" fill="white"/>
<path d="M29.5495 17.5158C28.0621 15.968 26.447 14.6539 24.5733 13.6054C24.9069 13.2887 25.2156 12.9956 25.5521 12.6767C27.7197 13.9288 29.5824 15.5845 31.263 17.4506C27.9771 22.4804 19.6787 25.622 14.1953 23.7973C14.6024 23.4512 14.9338 23.1559 15.2833 22.884C15.3567 22.8267 15.5021 22.8287 15.6056 22.8486C19.5341 23.5978 23.0162 22.4738 26.248 20.311C27.4459 19.5094 28.5386 18.5813 29.5495 17.5158Z" fill="white"/>
<path d="M16.0527 21.9636C16.3932 21.6713 16.6837 21.3951 17.0049 21.1612C17.1171 21.0793 17.3133 21.0575 17.4576 21.0835C20.0618 21.5532 22.1588 19.222 21.6849 16.8523C21.6509 16.6822 21.76 16.4492 21.8697 16.2924C22.0599 16.0211 22.3026 15.7864 22.537 15.5208C23.3647 16.8222 23.2065 19.2371 21.8482 20.7601C20.4019 22.3815 18.0279 22.9288 16.0527 21.9636Z" fill="white"/>
</svg>
