<svg width="19" height="19" viewBox="0 0 19 19" fill="none" xmlns="http://www.w3.org/2000/svg">
    <path fill-rule="evenodd" clip-rule="evenodd"
        d="M18.6215 0.209015C18.5605 0.148015 18.4795 0.114014 18.3925 0.114014L15.0505 0.115997C14.9645 0.115997 14.8825 0.149999 14.8215 0.210999C14.7605 0.271999 14.7265 0.353002 14.7275 0.440002L14.7295 1.23401C14.7295 1.32101 14.7635 1.40201 14.8255 1.46301C14.8865 1.52301 14.9675 1.55701 15.0535 1.55701H15.0555L16.2615 1.55099L14.9135 2.89899C12.8035 1.29199 9.81949 1.48999 7.93549 3.37399C7.59049 3.71899 7.30446 4.1 7.07446 4.505C6.55346 4.34 6.01249 4.255 5.46649 4.255C2.53349 4.255 0.147461 6.64101 0.147461 9.57401C0.147461 12.238 2.11748 14.488 4.74548 14.843V16.316H3.89746C3.71946 16.316 3.57446 16.461 3.57446 16.639V17.434C3.57446 17.612 3.71946 17.757 3.89746 17.757H4.74646V18.67C4.74646 18.848 4.89146 18.993 5.06946 18.993H5.8645C6.0425 18.993 6.1875 18.848 6.1875 18.67V17.757H7.0365C7.2145 17.757 7.3595 17.612 7.3595 17.434V16.639C7.3595 16.461 7.2145 16.316 7.0365 16.316H6.1875V14.843C7.8325 14.62 9.26948 13.645 10.0895 12.203C10.6235 12.372 11.1695 12.456 11.7095 12.456C13.0935 12.456 14.4405 11.913 15.4585 10.895C17.3425 9.01099 17.5395 6.027 15.9325 3.918L17.2805 2.569L17.2745 3.77499C17.2745 3.86099 17.3075 3.943 17.3685 4.004C17.4295 4.065 17.5105 4.099 17.5975 4.099L18.3915 4.10101H18.3925C18.4785 4.10101 18.5595 4.06699 18.6205 4.00699C18.6815 3.94599 18.7155 3.86502 18.7155 3.77802L18.7175 0.436005C18.7165 0.351005 18.6825 0.270015 18.6215 0.209015ZM9.28851 9.57401C9.28851 9.73901 9.27752 9.90799 9.25452 10.076C9.16252 9.99899 9.07349 9.92001 8.99249 9.83801C8.24649 9.09201 7.84947 8.10099 7.87347 7.04599C7.87647 6.90599 7.88752 6.76799 7.90552 6.63199C8.78652 7.36199 9.28851 8.42401 9.28851 9.57401ZM15.5185 7.04599C15.5425 8.10099 15.1455 9.09201 14.3995 9.83801C13.4115 10.826 11.9785 11.193 10.6385 10.808C10.7355 10.403 10.7845 9.988 10.7845 9.57401C10.7845 7.79101 9.9035 6.147 8.4245 5.155C8.6125 4.845 8.84647 4.559 9.12347 4.306C10.5665 2.99 12.8265 2.99 14.2695 4.306C15.0505 5.019 15.4945 5.99199 15.5185 7.04599ZM7.93451 10.896C8.17751 11.139 8.44747 11.359 8.73547 11.552C8.00247 12.763 6.6805 13.466 5.2605 13.392C3.3235 13.291 1.73451 11.694 1.64551 9.75601C1.59651 8.69901 1.97049 7.69699 2.69849 6.93399C3.42749 6.17099 4.40948 5.75 5.46448 5.75C5.82448 5.75 6.1795 5.80099 6.5235 5.89999C6.1125 7.63699 6.58251 9.543 7.93451 10.896Z"
        fill="#E3A29F" />
</svg>