<?xml version="1.0" encoding="UTF-8"?>
<!DOCTYPE svg PUBLIC "-//W3C//DTD SVG 1.1//EN" "http://www.w3.org/Graphics/SVG/1.1/DTD/svg11.dtd">
<!-- Creator: CorelDRAW 2020 (64-Bit) -->
<svg xmlns="http://www.w3.org/2000/svg" xml:space="preserve" width="995px" height="196px" version="1.1" style="shape-rendering:geometricPrecision; text-rendering:geometricPrecision; image-rendering:optimizeQuality; fill-rule:evenodd; clip-rule:evenodd"
viewBox="0 0 413.31 81.25"
 xmlns:xlink="http://www.w3.org/1999/xlink"
 xmlns:xodm="http://www.corel.com/coreldraw/odm/2003">
 <defs>
  <style type="text/css">
   <![CDATA[
    .fil0 {fill:white}
    .fil1 {fill:white;fill-rule:nonzero}
   ]]>
  </style>
 </defs>
 <g id="Layer_x0020_1">
  <metadata id="CorelCorpID_0Corel-Layer"/>
  <path class="fil0" d="M74.44 43.91l22.31 -22.31 -12.68 -12.44 -21.37 21.37 0 0 0.24 0 0 0 0 0 0.23 0.23 0 0 0 0 0 0 0 0 0 0 0 0 0 0 0 0 0 0 0 0 0 0c0.24,0 0.24,0.24 0.47,0.24l0 0 0 0 0 0 0 0 0 0 0 0 0 0 0 0 0 0 0.24 0.23 0 0 0 0 0 0 0 0 0 0 0 0 0.23 0 0 0 0 0 0 0 0 0 0 0 0 0 0 0 0 0 0 0 0 0.24 0.24 0 0 0 0 0 0 0 0 0 0 0 0 0 0 0 0 0 0 0 0 0 0 0 0.23 0.23 0 0 0 0 0 0 0 0 0.24 0 0 0 0 0 0 0.24 0 0 0 0 0 0 0 0 0 0 0 0 0.23 0.23 0 0 0 0 0.24 0 0 0 0 0 0 0 0 0 0 0 0 0 0.23 0.24 0 0 0 0 0 0 0 0 0 0 0 0 0 0 0 0 0 0 0 0 0 0 0.24 0 0 0 0 0 0 0 0 0 0 0 0 0 0 0 0 0 0 0.23 0 0 0 0 0 0 0 0 0 0 0 0 0.23 0 0 0 0 0 0 0 0 0 0 0 0 0 0 0 0 0 0 0 0 0 0 0 0 0 0 0 0 0 0 0 0 0.24 0 0 0 0 0.24 0.23 0 0 0 0 0 0 0 0 0 0 0.23 0 0 0 0 0 0 0 0 0c0,0 0,0.24 0.23,0.24l0 0 0 0 0 0 0 0 0 0 0 0 0 0 0 0 0 0 0 0 0.24 0.23 0 0 0 0 0 0 0 0 0 0.24 0 0 0 0 0 0 0.23 0 0 0 0 0 0 0 0 0 0 0 0 0 0 0 0 0 0 0.23 0 0 0.24 0 0 0 0 0 0 0 0 0 0 0 0 0 0 0 0 0 0 0 0 0 0 0 0 0 0 0 0 0 0 0 0 0 0 0 0 0 0 0 0.23 0.24 0 0.23 0 0 0 0 0 0 0.24 0 0 0 0 0 0 0 0 0.24 0 0 0 0 0 0 0 0 0.23 0 0 0 0 0 0 0 0 0 0 0 0 0 0 0 0 0 0 0 0 0 0 0 0 0 0 0c0,0.23 0,0.23 0.24,0.23l0 0 0 0 0 0 0 0.24 0.23 0.23 0 0 0 0 0 0 0 0 0 0 0 0 0 0 0 0 0 0 0.24 0.23 0 0 0 0 0 0 0 0 0 0 0 0 0 0 0 0 0 0.24 0 0 0.23 0 0 0 0 0.23 0 0 0.24 0.24 0.23 0.23 0 0 0 0 0.24 0.24 0 0 0.23 0.47 0 0 0 0 0.24 0.23 0 0 0 0.24 0 0 0.23 0.23 0 0 0 0 0 0 0 0 0 0 0 0 0 0 0 0 0 0 0 0 0 0 0 0 0 0 0 0 0 0 0 0 0 0 0 0.24 0 0 0 0 0 0 0 0 0 0 0 0 0 0 0 0 0 0 0 0 0 0 0 0 0.24 0.23 0 0 0 0 0.23 0.24 0 0.23 0.24 0.24 0 0.23 0 0 0 0.24 0.23 0.23 0 0 0 0.24 0.24 0.23 0 0.24 0 0.23 0 0 0 0 0 0 0 0 0 0 0 0 0 0 0.23 0.24 0 0 0 0 0 0 0 0 0 0 0 0 0 0.23 0 0 0 0 0 0 0 0 0 0 0 0 0 0 0 0 0 0 0 0 0 0 0.24 0.24 0 0 0 0 0 0 0 0 0 0 0 0 0 0 0 0.23 0 0c0,0 0,0.23 0,0.23l0 0 0 0 0 0 0 0 0 0 0.23 0.24 0 0 0 0.23 0 0 0 0.24 0 0 0 0 0 0 0 0 0 0 0 0 0 0 0 0.23 0 0 0 0 0 0 0 0 0.24 0 0 0 0 0 0 0.24 0 0 0 0 0 0 0 0 0 0 0 0 0 0 0 0 0 0 0 0.23 0 0 0 0 0 0 0 0 0 0.24 0 0 0 0 0 0 0 0 0 0 0 0.23 -7.05 0c-4.7,0 -9.16,1.65 -12.45,4.23 -3.52,-2.58 -7.98,-4.23 -12.68,-4.23l-7.04 0 0 0 0 0 0 0c0,0 0,-0.23 0,-0.23l0 0 0 0 0 0 0 0 0 -0.24 0 0 0 -0.23 0 0 0.23 -0.24 0 0 0 0 0 0 0 0 0 0 0 0 0 0 0 -0.23 0 0 0 0 0 0 0 0 0 0 0 0 0 0 0 0 0 -0.24 0 0 0 0 0 0 0 0c0,0 0,-0.23 0.24,-0.23l0 0 0 0 0 -0.24 0 0 0 0 0 0 0 0 0 0 0 0 0 -0.23 0 0 0 0 0 0 0 0 0 0 0 0 0 -0.23 0.23 -0.24 0 -0.23 0 0 0.24 -0.24 0 -0.23 0 0 0 -0.24 0 0 0.23 -0.23 0 0 0 -0.24 0 0 0 -0.23 0 0 0.24 -0.24 0 -0.23 0 0 0.23 -0.24 0 0 0.24 -0.47 0 0 0 0 0 0 0 0 0 0 0 0 0 0 0 0 0 0 0 0 0 0 0 0 0.23 -0.23 0 0 0 0 0 0 0 0 0 0 0 0 0 0 0 0 0 -0.24 0.24 -0.23 0 -0.24 0 0 0 0 0 0 0 0 0.23 -0.23 0 0 0 0 0 0 0 0 0 0 0 0 0 0 0 0 0 0 0 0 0 -0.24 0 0 0.24 -0.23 0.23 -0.24 0 0 0 0 0 0 0.24 -0.23 0 -0.24 0.23 -0.23 0.23 -0.24 0 0 0 0 0 0 0.24 -0.23 0.23 -0.23 0 0 0 -0.24 0 0 0.24 -0.23 0 0 0 0 0.23 0 0 0 0 0 0 0 0 0 0 0 0 0 0 0 0 -0.24 0 0 0.24 0 0 0 0 0 0 0 0 0 0 0 0 0 0 0 0 0 0 0 0 -0.23 0.23 -0.24 0 0 0 0 0 0 0 0 0 0 0 0 0 0 0 0 0 0 0 0 0 0 0 0 0.24 0 0 0 0 0 0 -0.23 0 0 0 0 0 0 0 0 0 0 0 0 0 0 0 0 0 0 0 0 0 0 0 0 0 0 0.23 0 0 0 0 0 0 0 0 0 0 0 0 -0.24 0 0 0 0 0.24 -0.23 0 0 0 0 0 0 0 0 0 0 0 0 0 0 0 0 0 0 0 0 0 0 0 0 0.23 -0.24 0 0 0 0 0 0 0 0 0 0 0 0 0 0 0 0 0.24 0 0 0 0 0 0 0 0 0 0 0 0 0 0 0 0 0 0 0 0 -0.23 0.23 0 0 0 0 -0.24 0 0 0 0 0 0 0 0 0 0 0 0 0 0 0 0 0 0 0.24 0 0 -0.23 0 0 0 0 0 0 0 0 0 0 0.23 0 0 0 0 0 0 0 0 0 0 0 0 0 0 0 0 0 0 0 0 0 0.24 -0.24 0 0 0 0 0 0 0 0 0 0 0.23 0 0 0 0 0 0 0 0 0 0 0 0 0 0 0 0 0 0 -0.23 0 0 0 0 0.24 0 0 0 0 0 0 0 0 0 0 0 0 0 0 0 0 0 0 0 0 0 0 0 0 0 0 0 0 0 0 0 0 0 0 -0.24 0 0 0 0 0 0 0 0 0 0 0 0 0 0 0 0 0.23 0 0.24 -0.23 0 0 0 0 0 0 0 0 0 0 0 0 0 0 0 0 0 0 0 0 0 0 0 0 0 0 0 0 0 0 0.23 0 0 -0.24 0 0 0 0 0 0 0 0 0 0 0 0 0 0 0 0 0 0 0 0 0.24 0 0 0c0,0 0.23,0 0.23,-0.23l0 0 0 0 0 0 0 0 0 0 0 0 0 0 0.24 0 0 0 0 0 0 -0.24 0 0 0 0 0.23 0 0 0 0 0 0 0 0 0 0 0 0 0 0 0 0 0 0 0 0 0 0 0 0 0 0 0 0 0 0 0 0 0 0 0 0 0 0 0 0 0 0 0 0 0 0 0 0 0 -21.13 -21.37 -12.69 12.45 22.08 22.07 -31 0 0 17.85 37.34 0 0 0 0 0 0 0 0 0 0 0 0 0 0 0 0 0 0 0 0.23 0 0 0 0 0 0 0 0 0 0 0 0 0 0 0 0 0 0 0 0 0 0 0 0 0 0 0 0.24 0 0 0 0 0 0 0 0 0 0 0 0 0 0 0 0 0 0 0 0 0 0 0 0 0 0 0 0.23 0 0 0 0 0 0 0 0 0 0 0 0 0 0 0 0 0 0 0 0 0 0 0 0 0 0 0 0 0 0 0 0 0 0.24 0 0 0 0 0 0 0 0 0 0 0.24 0 0c2.11,0.47 3.76,1.88 4.7,3.52l0 0 0 0.23 0 0 0 0 0 0 0 0 0.23 0.24 0 0 0 0 0 0 0 0 0 0 0 0 0 0.23 0 0 0 0 0 0 0.23 0.24 0 0 0 0 0 0 0 0 0 0.23 0 0c0,0 0,0 0,0.24l0 0 0 0 0.24 0 0 0.23 0 0 0 0 0 0 0 0 0 0.24 0 0 0 0 0 0 0 0.23 0 0 0 0 0 0 0 0 0 0 0.23 0.24 0 0 0 0 0 0 0 0.23 0 0 0 0 0 0 0 0 0 0.24 0 0 0 0 0 0 0 0 0 0.23 0 0 0 0c0,0.24 0,0.24 0,0.47l0 0 0 0 0 0 0 0.24 0 0.23 0.24 0 0 0 16.91 0 0.7 0 0 0 0 0 0 0 0.24 0 0 0 0 0 0 -0.23c0,-3.53 2.35,-6.58 5.63,-7.52l0 0 0 0c0.24,0 0.71,0 0.94,0l37.34 0 0 -0.23 0 0 0 -17.62 -31 0 -0.47 0 0 0zm-12.68 -13.85l0 -30.06 -17.84 0 0 30.06 0 0 0 0 0.23 0 0 0 0 0 0 0 0 0 0.24 -0.24 0 0 0 0 0 0 0 0 0 0 0 0 0.23 0 0 0 0 0c0,0 0,0 0.24,-0.23l0 0 0 0 0 0 0 0 0 0 0 0 0 0c0.23,0 0.23,0 0.47,0l0 0 0 -0.24 0 0 0 0 0 0 0 0 0 0 0 0 0 0 0.46 0 0 0 0 0 0 0 0 0 0 0 0 0 0 0 0 0 0 0 0 0 0 0 0 0 0 0 0 0 0 0 0 0 0 0 0 0 0 0 0 0 0 0 0 0 0 0 0 0 0 0 0.24 0 0 0 0 0 0.23 -0.23 0 0 0 0 0 0 0 0 0 0 0 0 0 0 0 0 0 0 0 0 0 0 0.47 -0.24 0 0 0 0 0.24 0 0 0 0.47 0 0 0 0 -0.23 0 0 0.47 0 0.23 0 0.24 -0.23 0 0 0.23 0 0 0 0.24 0 0.23 0 0 0 0 0 0 0 0 0 0 0 0 0 0 0 0 0c0,0 0.24,0 0.24,0l0 0 0 0 0 0 0 -0.24 0 0 0 0 0.23 0 0 0c0,0 0.24,0 0.24,0l0 0 0 0 0 0 0.23 0 0 0 0 0 0 0 0.24 0 0 0 0 0 0 0 0 0 0 0 0 0 0 0 0 0 0.23 0 0 0 0 0 0 0 0 0 0 0 0 0 0 0 0 0 0 0c0.24,0 0.24,0 0.47,0l0 0 0 0 0 0 0 0 0 0 0 0 0 0 0 0c0.24,-0.23 0.24,-0.23 0.47,-0.23l0 0 0 0 0 0 0 0 0 0c0.24,0 0.24,0 0.47,0l0 0 0 0 0 0c0.23,0 0.47,0 0.47,0l0 0c0.23,0 0.47,0 0.7,0 0,0 0.24,0 0.47,0l0 0 0 0c0,0 0.24,0 0.47,0l0 0 0 0 0 0 0 0 0 0 0 0 0 0c0.24,0 0.24,0 0.47,0l0 0 0 0 0 0 0 0 0 0 0 0 0 0 0 0 0 0c0.24,0 0.24,0 0.47,0.23l0 0 0 0 0 0 0 0 0 0 0 0 0 0 0 0c0.24,0 0.47,0 0.47,0l0 0 0.24 0 0 0c0,0 0.23,0 0.23,0l0.24 0 0 0 0 0 0 0 0 0 0 0 0 0 0 0c0,0 0.23,0 0.47,0l0 0 0 0 0 0 0 0 0 0c0,0.24 0.23,0.24 0.47,0.24l0 0 0 0 0 0 0 0 0 0 0 0 0 0 0 0 0 0 0 0 0 0c0.23,0 0.23,0 0.47,0l0 0 0 0 0 0 0 0 0 0 0 0 0 0 0 0 0 0c0.23,0 0.23,0.23 0.47,0.23l0 0 0 0 0 0 0 0 0 0 0 0 0 0 0 0 0 0 0 0c0.23,0 0.23,0 0.47,0l0 0 0 0 0 0 0 0c0.23,0.23 0.23,0.23 0.46,0.23l0 0 0 0 0 0 0 0c0.24,0 0.24,0 0.47,0.24l0 0 0 0 0 0 0 0 0 0c0.24,0 0.24,0 0.47,0l0 0 0 0 0 0 0 0c0.24,0.23 0.24,0.23 0.47,0.23l0 0 0 0 0 0 0 0 0 0 0 0 0 0 0 0 0 0 0 0c0.24,0 0.24,0.24 0.47,0.24l0 0 0 0 0 0 0 0 0 0 0 0 0 0 0 0 0 0 0 0 0.47 0.23 0 0 0 0 0 0 0 0 0 0 0 0 0 0 0 0 0 0 0 0 0 0 0 0c0,0 0.24,0 0.24,0l0 0 0.23 0.24 0 0 0 0 0 0z"/>
  <path class="fil1" d="M122.59 77.5l0 -13.86c4.22,1.41 8.45,2.35 12.91,2.82 4.46,0.47 9.16,0.7 14.33,0.7 1.64,0 3.29,-0.23 4.93,-0.23 1.64,0 3.05,-0.24 4.46,-0.47 1.18,-0.24 2.35,-0.47 3.05,-0.71 0.71,-0.23 0.94,-0.7 0.71,-0.93 0,-0.47 -0.71,-0.71 -2.12,-0.71 -1.17,0 -2.81,0 -4.93,0 -2.11,0 -4.46,0.24 -6.81,0.24 -2.58,0.23 -5.16,0.23 -7.75,0.23 -2.81,-0.23 -5.16,-0.23 -7.75,-0.7 -2.58,-0.24 -4.69,-0.71 -6.81,-1.41 -1.88,-0.71 -3.52,-1.65 -4.69,-2.82 -1.18,-1.41 -1.65,-2.82 -1.65,-4.93 0,-1.41 0.47,-2.82 1.18,-4 0.94,-0.93 2.11,-2.11 3.75,-2.81 -1.64,-1.18 -3.05,-2.82 -3.99,-4.47 -0.94,-1.87 -1.41,-3.75 -1.41,-6.1 0,-2.58 0.47,-4.46 1.65,-6.34 0.94,-1.65 2.35,-3.05 4.22,-4.46 1.65,-1.18 3.53,-2.12 5.88,-2.82 2.34,-0.94 4.69,-1.41 7.28,-1.88 2.34,-0.47 4.93,-0.7 7.28,-0.94 2.58,-0.23 4.93,-0.23 7.04,-0.23l3.05 0 0 0c7.28,0 13.62,-0.24 18.79,-0.94 5.17,-0.71 9.16,-1.88 11.51,-3.29 -0.71,2.35 -1.65,4.46 -2.59,6.34 -0.94,1.64 -2.11,3.05 -3.52,3.99 1.65,1.41 2.82,2.82 3.76,4.46 0.94,1.65 1.41,3.76 1.41,6.11 0,2.35 -0.47,4.46 -1.41,6.1 -0.94,1.88 -2.35,3.29 -3.99,4.47 -1.65,1.41 -3.53,2.35 -5.64,3.05 -2.35,0.94 -4.46,1.41 -7.04,1.88 -2.35,0.47 -4.7,0.7 -7.28,0.94 -2.35,0.23 -4.7,0.23 -6.82,0.23 -1.64,0 -3.28,0 -5.16,0.24 -1.65,0 -3.52,0 -4.93,0 -1.65,0.23 -3.06,0.23 -4,0.47 -0.93,0 -1.4,0.47 -1.17,0.7 0,0.24 0.94,0.47 2.35,0.47 1.41,0 3.29,-0.23 5.64,-0.23 2.11,0 4.93,-0.24 7.74,-0.24 2.82,-0.23 5.88,-0.23 8.93,-0.23 3.05,0 5.87,0.23 8.69,0.47 3.05,0.47 5.4,0.94 7.75,1.64 2.35,0.94 3.99,1.88 5.4,3.29 1.41,1.41 2.11,3.05 2.11,5.16 0,1.88 -0.7,3.53 -1.88,5.17 -1.41,1.41 -3.05,2.82 -5.16,3.76 -2.12,1.17 -4.46,2.11 -7.28,2.82 -2.59,0.7 -5.17,1.41 -7.99,1.87 -2.82,0.47 -5.4,0.71 -7.98,0.94 -2.35,0 -4.7,0.24 -6.58,0.24 -4.93,0 -9.63,-0.24 -14.09,-0.71 -4.69,-0.23 -9.16,-1.17 -13.38,-2.34l0 0zm30.76 -35.7c1.17,0 2.58,-0.23 3.76,-0.23 1.41,-0.24 2.58,-0.47 3.75,-0.94 0.94,-0.24 1.88,-0.71 2.59,-1.41 0.7,-0.47 1.17,-1.18 1.17,-1.88 0,-0.94 -0.47,-1.64 -1.17,-2.11 -0.71,-0.47 -1.65,-0.94 -2.59,-1.41 -1.17,-0.24 -2.34,-0.47 -3.75,-0.71 -1.18,-0.23 -2.59,-0.23 -3.76,-0.23 -1.17,0 -2.58,0 -3.99,0.23 -1.41,0 -2.59,0.24 -3.76,0.71 -1.17,0.23 -2.35,0.7 -3.05,1.17 -0.94,0.7 -1.18,1.41 -1.18,2.35 0,0.7 0.24,1.41 1.18,2.11 0.7,0.47 1.64,0.94 2.82,1.41 1.17,0.24 2.58,0.47 3.99,0.71 1.41,0 2.82,0.23 3.99,0.23zm37.57 -33.35l20.43 0 0 38.99c0,0.94 0.24,1.64 0.94,1.88 0.47,0.47 1.41,0.47 3.06,0.47l3.28 0 0 14.09 -11.74 0c-2.35,0 -4.46,-0.24 -6.57,-0.94 -1.88,-0.71 -3.53,-1.41 -4.93,-2.59 -1.41,-1.17 -2.59,-2.35 -3.29,-3.99 -0.71,-1.64 -1.18,-3.29 -1.18,-5.4l0 -42.51 0 0zm30.77 34.29c0,-3.29 0.47,-5.87 1.64,-8.22 1.18,-2.35 2.58,-4.23 4.46,-5.87 2.12,-1.64 4.23,-3.05 6.81,-3.99 2.35,-0.94 4.94,-1.88 7.75,-2.35 2.82,-0.71 5.4,-0.94 8.22,-1.17 2.59,-0.24 5.17,-0.47 7.75,-0.47 2.35,0 4.93,0.23 7.52,0.47 2.81,0.23 5.4,0.46 8.22,1.17 2.58,0.47 5.16,1.17 7.51,2.35 2.35,0.94 4.46,2.35 6.34,3.76 1.88,1.64 3.52,3.75 4.46,6.1 1.18,2.11 1.65,4.93 1.65,8.22 0,3.05 -0.47,5.87 -1.65,8.22 -0.94,2.35 -2.58,4.23 -4.22,5.87 -1.88,1.64 -4,3.05 -6.58,3.99 -2.35,1.18 -4.93,1.88 -7.51,2.35 -2.59,0.71 -5.41,0.94 -8.22,1.18 -2.59,0.23 -5.17,0.46 -7.52,0.46 -2.58,0 -5.16,-0.23 -7.75,-0.46 -2.82,-0.24 -5.63,-0.47 -8.22,-1.18 -2.81,-0.47 -5.4,-1.17 -7.98,-2.35 -2.35,-0.94 -4.7,-2.35 -6.58,-3.99 -1.88,-1.64 -3.28,-3.52 -4.46,-5.87 -1.17,-2.35 -1.64,-5.17 -1.64,-8.22zm35.93 6.58c1.17,0 2.58,0 4.22,0 1.88,0 3.53,-0.24 5.17,-0.71 1.64,-0.47 3.05,-0.94 4.23,-1.88 0.94,-0.94 1.64,-2.35 1.64,-3.99 0,-1.88 -0.7,-3.05 -1.64,-3.99 -1.18,-0.94 -2.59,-1.65 -4.23,-2.12 -1.64,-0.23 -3.29,-0.47 -5.17,-0.47 -1.64,0 -3.05,0 -4.22,0 -1.41,0 -2.82,0 -4.46,0 -1.65,0 -3.29,0 -4.94,0.47 -1.4,0.47 -2.81,1.18 -3.75,1.88 -1.18,0.94 -1.65,2.35 -1.65,4.23 0,1.64 0.47,3.05 1.65,3.99 0.94,0.94 2.35,1.65 3.75,2.12 1.65,0.23 3.06,0.47 4.94,0.47 1.64,0 3.05,0 4.46,0zm41.56 -27.72l20.43 0 0 4.47c4.23,-1.41 8.22,-2.59 12.45,-3.29 4.23,-0.94 8.22,-1.41 12.21,-1.41l0 15.5c-2.58,0 -5.16,0 -7.28,0 -2.35,0 -4.46,0 -6.34,0 -1.88,0 -3.76,0.23 -5.63,0.47 -1.88,0.23 -3.53,0.7 -5.41,1.17l0 25.37 -20.43 0 0 -42.28 0 0zm114.13 0l0 42.28c0,2.58 -0.46,4.93 -1.64,7.28 -0.94,2.11 -2.58,3.99 -4.7,5.4 -1.87,1.41 -4.46,2.58 -7.51,3.52 -2.82,0.7 -6.11,1.17 -9.86,1.17l-32.65 0 0 -13.85 25.84 0c3.75,0 6.57,-0.47 7.98,-0.94 1.41,-0.71 2.11,-2.11 2.35,-3.76l0 -3.76c-5.17,1.65 -10.1,3.06 -14.56,4.23 -4.23,0.94 -8.22,1.64 -11.98,1.64 -5.63,-0.23 -10.1,-1.64 -13.15,-4.22 -3.29,-2.82 -4.7,-6.81 -4.7,-12.21l0 -27.01 20.44 0 0 23.72c0,2.11 0.7,3.29 1.87,4.23 1.18,0.7 2.82,1.17 4.94,1.17 2.34,0 4.93,-0.47 7.98,-1.17 3.05,-0.94 6.11,-1.88 9.16,-2.82l0 -24.9 20.19 0 0 0z"/>
 </g>
</svg>
