<?xml version="1.0" encoding="UTF-8"?>
<!DOCTYPE svg PUBLIC "-//W3C//DTD SVG 1.1//EN" "http://www.w3.org/Graphics/SVG/1.1/DTD/svg11.dtd">
<!-- Creator: CorelDRAW 2020 (64-Bit) -->
<svg xmlns="http://www.w3.org/2000/svg" xml:space="preserve" width="995px" height="196px" version="1.1" style="shape-rendering:geometricPrecision; text-rendering:geometricPrecision; image-rendering:optimizeQuality; fill-rule:evenodd; clip-rule:evenodd"
viewBox="0 0 6297.16 1237.96"
 xmlns:xlink="http://www.w3.org/1999/xlink"
 xmlns:xodm="http://www.corel.com/coreldraw/odm/2003">
 <defs>
  <style type="text/css">
   <![CDATA[
    .fil0 {fill:black}
    .fil1 {fill:black;fill-rule:nonzero}
   ]]>
  </style>
 </defs>
 <g id="Layer_x0020_1">
  <metadata id="CorelCorpID_0Corel-Layer"/>
  <path class="fil0" d="M1134.22 669.07l339.9 -339.9 -193.21 -189.63 -325.59 325.58 0 0 3.58 0 0 0 0 0 3.57 3.59 0 0 0 0 0 0 0 0 0 0 0 0 0 0 0 0 0 0 0 0 0 0c3.59,0 3.59,3.57 7.16,3.57l0 0 0 0 0 0 0 0 0 0 0 0 0 0 0 0 0 0 3.58 3.58 0 0 0 0 0 0 0 0 0 0 0 0 3.58 0 0 0 0 0 0 0 0 0 0 0 0 0 0 0 0 0 0 0 0 3.58 3.58 0 0 0 0 0 0 0 0 0 0 0 0 0 0 0 0 0 0 0 0 0 0 0 3.57 3.58 0 0 0 0 0 0 0 0 3.58 0 0 0 0 0 0 3.57 0 0 0 0 0 0 0 0 0 0 0 0 3.58 3.58 0 0 0 0 3.58 0 0 0 0 0 0 0 0 0 0 0 0 0 3.57 3.58 0 0 0 0 0 0 0 0 0 0 0 0 0 0 0 0 0 0 0 0 0 0 3.58 0 0 0 0 0 0 0 0 0 0 0 0 0 0 0 0 0 0 3.58 0 0 0 0 0 0 0 0 0 0 0 0 3.58 0 0 0 0 0 0 0 0 0 0 0 0 0 0 0 0 0 0 0 0 0 0 0 0 0 0 0 0 0 0 0 0 3.57 0 0 0 0 3.58 3.58 0 0 0 0 0 0 0 0 0 0 3.57 0 0 0 0 0 0 0 0 0c0,0 0,3.58 3.59,3.58l0 0 0 0 0 0 0 0 0 0 0 0 0 0 0 0 0 0 0 0 3.57 3.58 0 0 0 0 0 0 0 0 0 3.57 0 0 0 0 0 0 3.58 0 0 0 0 0 0 0 0 0 0 0 0 0 0 0 0 0 0 3.58 0 0 3.58 0 0 0 0 0 0 0 0 0 0 0 0 0 0 0 0 0 0 0 0 0 0 0 0 0 0 0 0 0 0 0 0 0 0 0 0 0 0 0 3.58 3.58 0 3.58 0 0 0 0 0 0 3.57 0 0 0 0 0 0 0 0 3.57 0 0 0 0 0 0 0 0 3.58 0 0 0 0 0 0 0 0 0 0 0 0 0 0 0 0 0 0 0 0 0 0 0 0 0 0 0c0,3.59 0,3.59 3.58,3.59l0 0 0 0 0 0 0 3.57 3.58 3.58 0 0 0 0 0 0 0 0 0 0 0 0 0 0 0 0 0 0 3.57 3.58 0 0 0 0 0 0 0 0 0 0 0 0 0 0 0 0 0 3.58 0 0 3.58 0 0 0 0 3.57 0 0 3.58 3.58 3.58 3.58 0 0 0 0 3.57 3.58 0 0 3.58 7.15 0 0 0 0 3.58 3.58 0 0 0 3.58 0 0 3.58 3.57 0 0 0 0 0 0 0 0 0 0 0 0 0 0 0 0 0 0 0 0 0 0 0 0 0 0 0 0 0 0 0 0 0 0 0 3.59 0 0 0 0 0 0 0 0 0 0 0 0 0 0 0 0 0 0 0 0 0 0 0 0 3.57 3.57 0 0 0 0 3.59 3.58 0 3.58 3.57 3.58 0 3.57 0 0 0 3.58 3.58 3.58 0 0 0 3.58 3.58 3.57 0 3.58 0 3.58 0 0 0 0 0 0 0 0 0 0 0 0 0 0 3.58 3.58 0 0 0 0 0 0 0 0 0 0 0 0 0 3.57 0 0 0 0 0 0 0 0 0 0 0 0 0 0 0 0 0 0 0 0 0 0 3.57 3.59 0 0 0 0 0 0 0 0 0 0 0 0 0 0 0 3.57 0 0c0,0 0,3.58 0,3.58l0 0 0 0 0 0 0 0 0 0 3.58 3.57 0 0 0 3.59 0 0 0 3.57 0 0 0 0 0 0 0 0 0 0 0 0 0 0 0 3.58 0 0 0 0 0 0 0 0 3.58 0 0 0 0 0 0 3.58 0 0 0 0 0 0 0 0 0 0 0 0 0 0 0 0 0 0 0 3.58 0 0 0 0 0 0 0 0 0 3.57 0 0 0 0 0 0 0 0 0 0 0 3.58 -107.34 0c-71.55,0 -139.54,25.04 -189.63,64.4 -53.67,-39.36 -121.65,-64.4 -193.21,-64.4l-107.34 0 0 0 0 0 0 0c0,0 0,-3.58 0,-3.58l0 0 0 0 0 0 0 0 0 -3.57 0 0 0 -3.58 0 0 3.58 -3.58 0 0 0 0 0 0 0 0 0 0 0 0 0 0 0 -3.58 0 0 0 0 0 0 0 0 0 0 0 0 0 0 0 0 0 -3.57 0 0 0 0 0 0 0 0c0,0 0,-3.59 3.58,-3.59l0 0 0 0 0 -3.57 0 0 0 0 0 0 0 0 0 0 0 0 0 -3.58 0 0 0 0 0 0 0 0 0 0 0 0 0 -3.57 3.58 -3.59 0 -3.57 0 0 3.57 -3.58 0 -3.58 0 0 0 -3.58 0 0 3.59 -3.57 0 0 0 -3.58 0 0 0 -3.58 0 0 3.57 -3.58 0 -3.57 0 0 3.58 -3.58 0 0 3.58 -7.16 0 0 0 0 0 0 0 0 0 0 0 0 0 0 0 0 0 0 0 0 0 0 0 0 3.58 -3.57 0 0 0 0 0 0 0 0 0 0 0 0 0 0 0 0 0 -3.59 3.57 -3.57 0 -3.58 0 0 0 0 0 0 0 0 3.58 -3.58 0 0 0 0 0 0 0 0 0 0 0 0 0 0 0 0 0 0 0 0 0 -3.58 0 0 3.58 -3.57 3.58 -3.58 0 0 0 0 0 0 3.57 -3.58 0 -3.58 3.58 -3.57 3.58 -3.58 0 0 0 0 0 0 3.58 -3.58 3.57 -3.58 0 0 0 -3.57 0 0 3.58 -3.59 0 0 0 0 3.58 0 0 0 0 0 0 0 0 0 0 0 0 0 0 0 0 -3.57 0 0 3.58 0 0 0 0 0 0 0 0 0 0 0 0 0 0 0 0 0 0 0 0 -3.58 3.57 -3.58 0 0 0 0 0 0 0 0 0 0 0 0 0 0 0 0 0 0 0 0 0 0 0 0 3.59 0 0 0 0 0 0 -3.58 0 0 0 0 0 0 0 0 0 0 0 0 0 0 0 0 0 0 0 0 0 0 0 0 0 0 3.57 0 0 0 0 0 0 0 0 0 0 0 0 -3.57 0 0 0 0 3.58 -3.58 0 0 0 0 0 0 0 0 0 0 0 0 0 0 0 0 0 0 0 0 0 0 0 0 3.58 -3.58 0 0 0 0 0 0 0 0 0 0 0 0 0 0 0 0 3.58 0 0 0 0 0 0 0 0 0 0 0 0 0 0 0 0 0 0 0 0 -3.58 3.57 0 0 0 0 -3.57 0 0 0 0 0 0 0 0 0 0 0 0 0 0 0 0 0 0 3.58 0 0 -3.58 0 0 0 0 0 0 0 0 0 0 3.58 0 0 0 0 0 0 0 0 0 0 0 0 0 0 0 0 0 0 0 0 0 3.57 -3.58 0 0 0 0 0 0 0 0 0 0 3.58 0 0 0 0 0 0 0 0 0 0 0 0 0 0 0 0 0 0 -3.58 0 0 0 0 3.58 0 0 0 0 0 0 0 0 0 0 0 0 0 0 0 0 0 0 0 0 0 0 0 0 0 0 0 0 0 0 0 0 0 0 -3.57 0 0 0 0 0 0 0 0 0 0 0 0 0 0 0 0 3.58 0 3.57 -3.58 0 0 0 0 0 0 0 0 0 0 0 0 0 0 0 0 0 0 0 0 0 0 0 0 0 0 0 0 0 0 3.58 0 0 -3.58 0 0 0 0 0 0 0 0 0 0 0 0 0 0 0 0 0 0 0 0 3.58 0 0 0c0,0 3.58,0 3.58,-3.58l0 0 0 0 0 0 0 0 0 0 0 0 0 0 3.57 0 0 0 0 0 0 -3.57 0 0 0 0 3.59 0 0 0 0 0 0 0 0 0 0 0 0 0 0 0 0 0 0 0 0 0 0 0 0 0 0 0 0 0 0 0 0 0 0 0 0 0 0 0 0 0 0 0 0 0 0 0 0 0 -322.02 -325.6 -193.21 189.63 336.33 336.33 -472.29 0 0 271.92 568.89 0 0 0 0 0 0 0 0 0 0 0 0 0 0 0 0 0 0 0 3.58 0 0 0 0 0 0 0 0 0 0 0 0 0 0 0 0 0 0 0 0 0 0 0 0 0 0 0 3.58 0 0 0 0 0 0 0 0 0 0 0 0 0 0 0 0 0 0 0 0 0 0 0 0 0 0 0 3.57 0 0 0 0 0 0 0 0 0 0 0 0 0 0 0 0 0 0 0 0 0 0 0 0 0 0 0 0 0 0 0 0 0 3.58 0 0 0 0 0 0 0 0 0 0 3.58 0 0c32.21,7.15 57.25,28.62 71.56,53.67l0 0 0 3.57 0 0 0 0 0 0 0 0 3.58 3.58 0 0 0 0 0 0 0 0 0 0 0 0 0 3.58 0 0 0 0 0 0 3.58 3.58 0 0 0 0 0 0 0 0 0 3.57 0 0c0,0 0,0 0,3.58l0 0 0 0 3.58 0 0 3.58 0 0 0 0 0 0 0 0 0 3.58 0 0 0 0 0 0 0 3.57 0 0 0 0 0 0 0 0 0 0 3.57 3.59 0 0 0 0 0 0 0 3.57 0 0 0 0 0 0 0 0 0 3.58 0 0 0 0 0 0 0 0 0 3.58 0 0 0 0c0,3.58 0,3.58 0,7.15l0 0 0 0 0 0 0 3.58 0 3.58 3.58 0 0 0 257.61 0 10.73 0 0 0 0 0 0 0 3.58 0 0 0 0 0 0 -3.58c0,-53.67 35.78,-100.18 85.87,-114.49l0 0 0 0c3.58,0 10.74,0 14.31,0l568.89 0 0 -3.58 0 0 0 -268.35 -472.28 0 -7.16 0 0.02 0.01zm-193.21 -211.1l0 -457.97 -271.92 0 0 457.97 0 0 0 0 3.58 0 0 0 0 0 0 0 0 0 3.57 -3.58 0 0 0 0 0 0 0 0 0 0 0 0 3.58 0 0 0 0 0c0,0 0,0 3.58,-3.58l0 0 0 0 0 0 0 0 0 0 0 0 0 0c3.58,0 3.58,0 7.15,0l0 0 0 -3.57 0 0 0 0 0 0 0 0 0 0 0 0 0 0 7.16 0 0 0 0 0 0 0 0 0 0 0 0 0 0 0 0 0 0 0 0 0 0 0 0 0 0 0 0 0 0 0 0 0 0 0 0 0 0 0 0 0 0 0 0 0 0 0 0 0 0 0 3.58 0 0 0 0 0 3.57 -3.58 0 0 0 0 0 0 0 0 0 0 0 0 0 0 0 0 0 0 0 0 0 0 7.16 -3.58 0 0 0 0 3.58 0 0 0 7.16 0 0 0 0 -3.58 0 0 7.15 0 3.58 0 3.58 -3.57 0 0 3.57 0 0 0 3.58 0 3.58 0 0 0 0 0 0 0 0 0 0 0 0 0 0 0 0 0c0,0 3.58,0 3.58,0l0 0 0 0 0 0 0 -3.58 0 0 0 0 3.57 0 0 0c0,0 3.58,0 3.58,0l0 0 0 0 0 0 3.58 0 0 0 0 0 0 0 3.58 0 0 0 0 0 0 0 0 0 0 0 0 0 0 0 0 0 3.57 0 0 0 0 0 0 0 0 0 0 0 0 0 0 0 0 0 0 0c3.59,0 3.59,0 7.16,0l0 0 0 0 0 0 0 0 0 0 0 0 0 0 0 0c3.58,-3.58 3.58,-3.58 7.16,-3.58l0 0 0 0 0 0 0 0 0 0c3.58,0 3.58,0 7.15,0l0 0 0 0 0 0c3.58,0 7.16,0 7.16,0l0 0c3.58,0 7.15,0 10.73,0 0,0 3.58,0 7.16,0l0 0 0 0c0,0 3.57,0 7.16,0l0 0 0 0 0 0 0 0 0 0 0 0 0 0c3.57,0 3.57,0 7.15,0l0 0 0 0 0 0 0 0 0 0 0 0 0 0 0 0 0 0c3.58,0 3.58,0 7.16,3.58l0 0 0 0 0 0 0 0 0 0 0 0 0 0 0 0c3.57,0 7.15,0 7.15,0l0 0 3.58 0 0 0c0,0 3.58,0 3.58,0l3.57 0 0 0 0 0 0 0 0 0 0 0 0 0 0 0c0,0 3.58,0 7.16,0l0 0 0 0 0 0 0 0 0 0c0,3.58 3.58,3.58 7.15,3.58l0 0 0 0 0 0 0 0 0 0 0 0 0 0 0 0 0 0 0 0 0 0c3.59,0 3.59,0 7.16,0l0 0 0 0 0 0 0 0 0 0 0 0 0 0 0 0 0 0c3.58,0 3.58,3.57 7.15,3.57l0 0 0 0 0 0 0 0 0 0 0 0 0 0 0 0 0 0 0 0c3.59,0 3.59,0 7.16,0l0 0 0 0 0 0 0 0c3.58,3.58 3.58,3.58 7.16,3.58l0 0 0 0 0 0 0 0c3.58,0 3.58,0 7.15,3.58l0 0 0 0 0 0 0 0 0 0c3.58,0 3.58,0 7.16,0l0 0 0 0 0 0 0 0c3.58,3.58 3.58,3.58 7.15,3.58l0 0 0 0 0 0 0 0 0 0 0 0 0 0 0 0 0 0 0 0c3.58,0 3.58,3.57 7.16,3.57l0 0 0 0 0 0 0 0 0 0 0 0 0 0 0 0 0 0 0 0 7.15 3.58 0 0 0 0 0 0 0 0 0 0 0 0 0 0 0 0 0 0 0 0 0 0 0 0c0,0 3.58,0 3.58,0l0 0 3.58 3.58 0 0 0 0 0.01 0z"/>
  <path class="fil1" d="M1867.69 1180.71l0 -211.09c64.41,21.46 128.81,35.77 196.79,42.93 67.97,7.15 139.54,10.74 218.25,10.74 25.05,0 50.09,-3.59 75.14,-3.59 25.04,0 46.51,-3.57 67.97,-7.15 17.9,-3.58 35.79,-7.16 46.52,-10.73 10.74,-3.58 14.31,-10.74 10.74,-14.31 0,-7.16 -10.74,-10.74 -32.21,-10.74 -17.89,0 -42.93,0 -75.14,0 -32.19,0 -67.97,3.58 -103.76,3.58 -39.35,3.58 -78.71,3.58 -118.07,3.58 -42.93,-3.58 -78.71,-3.58 -118.06,-10.73 -39.36,-3.58 -71.57,-10.74 -103.76,-21.47 -28.63,-10.74 -53.67,-25.05 -71.56,-42.94 -17.89,-21.47 -25.05,-42.94 -25.05,-75.13 0,-21.47 7.16,-42.94 17.89,-60.83 14.31,-14.31 32.2,-32.2 57.25,-42.93 -25.05,-17.9 -46.52,-42.94 -60.83,-67.98 -14.31,-28.63 -21.46,-57.25 -21.46,-93.03 0,-39.36 7.15,-67.98 25.04,-96.6 14.31,-25.05 35.78,-46.52 64.41,-67.99 25.04,-17.88 53.66,-32.2 89.44,-42.93 35.78,-14.31 71.56,-21.47 110.92,-28.62 35.78,-7.16 75.13,-10.74 110.91,-14.31 39.36,-3.58 75.14,-3.58 107.34,-3.58l46.52 0 0 0c110.91,0 207.51,-3.58 286.22,-14.32 78.72,-10.73 139.55,-28.62 175.33,-50.09 -10.74,35.78 -25.05,67.99 -39.36,96.61 -14.31,25.04 -32.21,46.52 -53.67,60.83 25.04,21.46 42.93,42.93 57.24,67.97 14.31,25.05 21.47,57.25 21.47,93.03 0,35.78 -7.16,67.98 -21.47,93.03 -14.31,28.62 -35.78,50.08 -60.82,67.98 -25.05,21.46 -53.67,35.78 -85.87,46.51 -35.78,14.31 -67.98,21.47 -107.34,28.63 -35.78,7.15 -71.55,10.73 -110.91,14.31 -35.78,3.57 -71.56,3.57 -103.76,3.57 -25.05,0 -50.09,0 -78.72,3.58 -25.04,0 -53.67,0 -75.13,0 -25.05,3.58 -46.52,3.58 -60.82,7.16 -14.31,0 -21.47,7.15 -17.9,10.73 0,3.58 14.32,7.15 35.78,7.15 21.47,0 50.09,-3.57 85.88,-3.57 32.19,0 75.13,-3.58 118.07,-3.58 42.93,-3.58 89.44,-3.58 135.96,-3.58 46.51,0 89.45,3.58 132.38,7.16 46.51,7.15 82.29,14.31 118.07,25.04 35.78,14.31 60.83,28.62 82.29,50.09 21.47,21.47 32.21,46.52 32.21,78.72 0,28.62 -10.74,53.66 -28.63,78.71 -21.47,21.47 -46.51,42.94 -78.71,57.25 -32.21,17.88 -67.98,32.2 -110.92,42.93 -39.35,10.74 -78.71,21.47 -121.65,28.62 -42.93,7.16 -82.29,10.74 -121.64,14.31 -35.79,0 -71.57,3.59 -100.19,3.59 -75.14,0 -146.69,-3.59 -214.67,-10.74 -71.56,-3.58 -139.54,-17.89 -203.94,-35.78l-0.01 0zm468.71 -543.84c17.89,0 39.35,-3.58 57.25,-3.58 21.46,-3.58 39.35,-7.16 57.24,-14.32 14.31,-3.57 28.62,-10.73 39.36,-21.46 10.73,-7.16 17.89,-17.89 17.89,-28.63 0,-14.31 -7.16,-25.04 -17.89,-32.2 -10.74,-7.15 -25.05,-14.3 -39.36,-21.46 -17.89,-3.58 -35.78,-7.15 -57.24,-10.74 -17.9,-3.57 -39.36,-3.57 -57.25,-3.57 -17.89,0 -39.36,0 -60.83,3.57 -21.46,0 -39.35,3.59 -57.24,10.74 -17.89,3.57 -35.79,10.73 -46.52,17.89 -14.31,10.73 -17.89,21.46 -17.89,35.77 0,10.74 3.58,21.47 17.89,32.21 10.73,7.15 25.05,14.31 42.94,21.47 17.89,3.57 39.36,7.15 60.82,10.73 21.47,0 42.94,3.58 60.83,3.58zm572.47 -508.07l311.27 0 0 593.93c0,14.32 3.58,25.05 14.31,28.63 7.16,7.16 21.47,7.16 46.52,7.16l50.09 0 0 214.67 -178.89 0c-35.78,0 -67.99,-3.57 -100.19,-14.31 -28.62,-10.73 -53.66,-21.47 -75.13,-39.35 -21.47,-17.9 -39.36,-35.79 -50.1,-60.83 -10.73,-25.04 -17.88,-50.09 -17.88,-82.29l0 -647.61 0 0zm468.7 522.38c0,-50.09 7.16,-89.45 25.04,-125.23 17.9,-35.78 39.36,-64.4 67.99,-89.45 32.2,-25.04 64.4,-46.51 103.76,-60.82 35.78,-14.31 75.13,-28.63 118.07,-35.78 42.93,-10.73 82.29,-14.31 125.23,-17.89 39.36,-3.58 78.71,-7.15 118.07,-7.15 35.78,0 75.13,3.57 114.49,7.15 42.93,3.58 82.29,7.16 125.23,17.89 39.36,7.15 78.71,17.89 114.49,35.78 35.78,14.31 67.98,35.78 96.6,57.25 28.62,25.04 53.67,57.24 67.98,93.02 17.89,32.2 25.04,75.14 25.04,125.23 0,46.51 -7.15,89.45 -25.04,125.23 -14.31,35.77 -39.36,64.4 -64.4,89.44 -28.63,25.05 -60.82,46.52 -100.18,60.83 -35.78,17.89 -75.13,28.62 -114.49,35.78 -39.36,10.73 -82.3,14.31 -125.23,17.88 -39.36,3.59 -78.71,7.16 -114.49,7.16 -39.36,0 -78.71,-3.57 -118.07,-7.16 -42.94,-3.57 -85.88,-7.15 -125.23,-17.88 -42.94,-7.16 -82.29,-17.89 -121.65,-35.78 -35.78,-14.31 -71.56,-35.78 -100.18,-60.83 -28.63,-25.04 -50.09,-53.67 -67.99,-89.44 -17.88,-35.78 -25.04,-78.72 -25.04,-125.23zm547.42 100.18c17.89,0 39.36,0 64.41,0 28.62,0 53.66,-3.58 78.71,-10.73 25.04,-7.16 46.52,-14.31 64.4,-28.63 14.31,-14.31 25.04,-35.77 25.04,-60.82 0,-28.62 -10.73,-46.52 -25.04,-60.83 -17.88,-14.3 -39.36,-25.04 -64.4,-32.2 -25.05,-3.58 -50.09,-7.15 -78.71,-7.15 -25.05,0 -46.52,0 -64.41,0 -21.46,0 -42.93,0 -67.97,0 -25.05,0 -50.09,0 -75.14,7.15 -21.47,7.16 -42.94,17.89 -57.25,28.63 -17.89,14.31 -25.05,35.78 -25.05,64.4 0,25.05 7.16,46.51 25.05,60.82 14.31,14.32 35.78,25.05 57.25,32.21 25.05,3.57 46.51,7.15 75.14,7.15 25.04,0 46.51,0 67.97,0zm633.29 -422.19l311.28 0 0 67.98c64.41,-21.47 125.23,-39.36 189.63,-50.1 64.41,-14.31 125.23,-21.46 186.06,-21.46l0 236.14c-39.36,0 -78.72,0 -110.92,0 -35.78,0 -67.98,0 -96.6,0 -28.63,0 -57.25,3.58 -85.87,7.15 -28.63,3.59 -53.67,10.74 -82.3,17.9l0 386.41 -311.28 0 0 -644.02 0 0zm1738.88 0l0 644.02c0,39.36 -7.16,75.14 -25.05,110.92 -14.31,32.2 -39.36,60.82 -71.56,82.29 -28.62,21.47 -67.98,39.36 -114.49,53.67 -42.94,10.73 -93.03,17.89 -150.28,17.89l-497.32 0 0 -211.1 393.56 0c57.25,0 100.19,-7.16 121.66,-14.31 21.46,-10.73 32.19,-32.21 35.78,-57.25l0 -57.24c-78.72,25.04 -153.85,46.51 -221.84,64.4 -64.4,14.31 -125.22,25.04 -182.47,25.04 -85.87,-3.57 -153.85,-25.04 -200.36,-64.4 -50.09,-42.93 -71.56,-103.76 -71.56,-186.05l0 -411.46 311.28 0 0 361.37c0,32.2 10.73,50.09 28.62,64.4 17.89,10.73 42.94,17.89 75.14,17.89 35.78,0 75.13,-7.16 121.65,-17.89 46.51,-14.31 93.02,-28.63 139.54,-42.94l0 -379.25 307.7 0 0 0z"/>
 </g>
</svg>
