<?xml version="1.0" encoding="UTF-8"?>
<!DOCTYPE svg PUBLIC "-//W3C//DTD SVG 1.1//EN" "http://www.w3.org/Graphics/SVG/1.1/DTD/svg11.dtd">
<!-- Creator: CorelDRAW 2020 (64-Bit) -->
<svg xmlns="http://www.w3.org/2000/svg" xml:space="preserve" width="560px" height="558px" version="1.1" style="shape-rendering:geometricPrecision; text-rendering:geometricPrecision; image-rendering:optimizeQuality; fill-rule:evenodd; clip-rule:evenodd"
viewBox="0 0 5590.42 5573.9"
 xmlns:xlink="http://www.w3.org/1999/xlink"
 xmlns:xodm="http://www.corel.com/coreldraw/odm/2003">
 <defs>
  <style type="text/css">
   <![CDATA[
    .fil1 {fill:#00C478}
    .fil0 {fill:#391563}
    .fil2 {fill:white;fill-rule:nonzero}
   ]]>
  </style>
 </defs>
 <g id="Layer_x0020_1">
  <metadata id="CorelCorpID_0Corel-Layer"/>
  <path class="fil0" d="M1297.67 78.05c498.5,-57.94 1000.72,-78.32 1500.62,-78.05 499.9,0.28 1001.53,20.35 1500.61,78.6 575.77,67.21 1147.48,639.42 1213.79,1215.23 58.39,507.05 77.99,1016.17 77.72,1524.06 -0.27,508.45 -19.92,1017.56 -78.28,1524.05 -66.34,575.81 -638.07,1123.25 -1213.23,1173.97 -499.6,44.06 -1000.76,58.25 -1500.61,57.98 -499.86,-0.27 -1001.58,-14.5 -1500.62,-58.52 -575.16,-50.75 -1149.02,-597.58 -1217.15,-1173.43 -59.92,-506.47 -80.78,-1015.61 -80.51,-1524.05 0.28,-507.9 20.04,-1017.1 80.51,-1524.06 68.71,-575.91 641.34,-1148.84 1217.15,-1215.78z"/>
  <path class="fil1" d="M3120.05 2369.66l347.44 -347.44 -197.49 -193.84 -332.81 332.82 0 0 3.65 0 0 0 0 0 3.66 3.65 0 0 0 0 0 0 0 0 0 0 0 0 0 0 0 0 0 0 0 0 0 0c3.66,0 3.66,3.66 7.32,3.66l0 0 0 0 0 0 0 0 0 0 0 0 0 0 0 0 0 0 3.65 3.66 0 0 0 0 0 0 0 0 0 0 0 0 3.66 0 0 0 0 0 0 0 0 0 0 0 0 0 0 0 0 0 0 0 0 3.66 3.66 0 0 0 0 0 0 0 0 0 0 0 0 0 0 0 0 0 0 0 0 0 0 0 3.66 3.65 0 0 0 0 0 0 0 0 3.65 0 0 0 0 0 0 3.66 0 0 0 0 0 0 0 0 0 0 0 0 3.66 3.66 0 0 0 0 3.65 0 0 0 0 0 0 0 0 0 0 0 0 0 3.66 3.66 0 0 0 0 0 0 0 0 0 0 0 0 0 0 0 0 0 0 0 0 0 0 3.65 0 0 0 0 0 0 0 0 0 0 0 0 0 0 0 0 0 0 3.65 0 0 0 0 0 0 0 0 0 0 0 0 3.66 0 0 0 0 0 0 0 0 0 0 0 0 0 0 0 0 0 0 0 0 0 0 0 0 0 0 0 0 0 0 0 0 3.65 0 0 0 0 3.66 3.66 0 0 0 0 0 0 0 0 0 0 3.66 0 0 0 0 0 0 0 0 0c0,0 0,3.66 3.65,3.66l0 0 0 0 0 0 0 0 0 0 0 0 0 0 0 0 0 0 0 0 3.66 3.65 0 0 0 0 0 0 0 0 0 3.66 0 0 0 0 0 0 3.66 0 0 0 0 0 0 0 0 0 0 0 0 0 0 0 0 0 0 3.66 0 0 3.66 0 0 0 0 0 0 0 0 0 0 0 0 0 0 0 0 0 0 0 0 0 0 0 0 0 0 0 0 0 0 0 0 0 0 0 0 0 0 0 3.66 3.66 0 3.65 0 0 0 0 0 0 3.65 0 0 0 0 0 0 0 0 3.66 0 0 0 0 0 0 0 0 3.66 0 0 0 0 0 0 0 0 0 0 0 0 0 0 0 0 0 0 0 0 0 0 0 0 0 0 0c0,3.66 0,3.66 3.66,3.66l0 0 0 0 0 0 0 3.66 3.66 3.65 0 0 0 0 0 0 0 0 0 0 0 0 0 0 0 0 0 0 3.65 3.66 0 0 0 0 0 0 0 0 0 0 0 0 0 0 0 0 0 3.66 0 0 3.66 0 0 0 0 3.66 0 0 3.66 3.65 3.66 3.66 0 0 0 0 3.65 3.66 0 0 3.66 7.32 0 0 0 0 3.65 3.65 0 0 0 3.65 0 0 3.66 3.66 0 0 0 0 0 0 0 0 0 0 0 0 0 0 0 0 0 0 0 0 0 0 0 0 0 0 0 0 0 0 0 0 0 0 0 3.65 0 0 0 0 0 0 0 0 0 0 0 0 0 0 0 0 0 0 0 0 0 0 0 0 3.65 3.66 0 0 0 0 3.66 3.66 0 3.66 3.66 3.65 0 3.66 0 0 0 3.66 3.66 3.66 0 0 0 3.66 3.65 3.65 0 3.66 0 3.66 0 0 0 0 0 0 0 0 0 0 0 0 0 0 3.66 3.66 0 0 0 0 0 0 0 0 0 0 0 0 0 3.65 0 0 0 0 0 0 0 0 0 0 0 0 0 0 0 0 0 0 0 0 0 0 3.66 3.66 0 0 0 0 0 0 0 0 0 0 0 0 0 0 0 3.66 0 0c0,0 0,3.66 0,3.66l0 0 0 0 0 0 0 0 0 0 3.66 3.65 0 0 0 3.66 0 0 0 3.65 0 0 0 0 0 0 0 0 0 0 0 0 0 0 0 3.66 0 0 0 0 0 0 0 0 3.65 0 0 0 0 0 0 3.65 0 0 0 0 0 0 0 0 0 0 0 0 0 0 0 0 0 0 0 3.66 0 0 0 0 0 0 0 0 0 3.66 0 0 0 0 0 0 0 0 0 0 0 3.66 -109.71 0c-73.15,0 -142.64,25.6 -193.84,65.83 -54.86,-40.23 -124.35,-65.83 -197.49,-65.83l-109.71 0 0 0 0 0 0 0c0,0 0,-3.66 0,-3.66l0 0 0 0 0 0 0 0 0 -3.66 0 0 0 -3.66 0 0 3.65 -3.65 0 0 0 0 0 0 0 0 0 0 0 0 0 0 0 -3.66 0 0 0 0 0 0 0 0 0 0 0 0 0 0 0 0 0 -3.65 0 0 0 0 0 0 0 0c0,0 0,-3.66 3.66,-3.66l0 0 0 0 0 -3.65 0 0 0 0 0 0 0 0 0 0 0 0 0 -3.66 0 0 0 0 0 0 0 0 0 0 0 0 0 -3.66 3.65 -3.66 0 -3.65 0 0 3.65 -3.66 0 -3.66 0 0 0 -3.66 0 0 3.66 -3.65 0 0 0 -3.66 0 0 0 -3.66 0 0 3.66 -3.66 0 -3.66 0 0 3.66 -3.65 0 0 3.65 -7.32 0 0 0 0 0 0 0 0 0 0 0 0 0 0 0 0 0 0 0 0 0 0 0 0 3.66 -3.66 0 0 0 0 0 0 0 0 0 0 0 0 0 0 0 0 0 -3.65 3.66 -3.66 0 -3.65 0 0 0 0 0 0 0 0 3.66 -3.65 0 0 0 0 0 0 0 0 0 0 0 0 0 0 0 0 0 0 0 0 0 -3.66 0 0 3.66 -3.66 3.65 -3.66 0 0 0 0 0 0 3.66 -3.66 0 -3.65 3.66 -3.66 3.66 -3.66 0 0 0 0 0 0 3.65 -3.66 3.66 -3.65 0 0 0 -3.66 0 0 3.66 -3.66 0 0 0 0 3.66 0 0 0 0 0 0 0 0 0 0 0 0 0 0 0 0 -3.66 0 0 3.65 0 0 0 0 0 0 0 0 0 0 0 0 0 0 0 0 0 0 0 0 -3.65 3.66 -3.66 0 0 0 0 0 0 0 0 0 0 0 0 0 0 0 0 0 0 0 0 0 0 0 0 3.66 0 0 0 0 0 0 -3.66 0 0 0 0 0 0 0 0 0 0 0 0 0 0 0 0 0 0 0 0 0 0 0 0 0 0 3.66 0 0 0 0 0 0 0 0 0 0 0 0 -3.66 0 0 0 0 3.64 -3.65 0 0 0 0 0 0 0 0 0 0 0 0 0 0 0 0 0 0 0 0 0 0 0 0 3.66 -3.66 0 0 0 0 0 0 0 0 0 0 0 0 0 0 0 0 3.66 0 0 0 0 0 0 0 0 0 0 0 0 0 0 0 0 0 0 0 0 -3.66 3.66 0 0 0 0 -3.65 0 0 0 0 0 0 0 0 0 0 0 0 0 0 0 0 0 0 3.65 0 0 -3.65 0 0 0 0 0 0 0 0 0 0 3.66 0 0 0 0 0 0 0 0 0 0 0 0 0 0 0 0 0 0 0 0 0 3.66 -3.66 0 0 0 0 0 0 0 0 0 0 3.66 0 0 0 0 0 0 0 0 0 0 0 0 0 0 0 0 0 0 -3.66 0 0 0 0 3.65 0 0 0 0 0 0 0 0 0 0 0 0 0 0 0 0 0 0 0 0 0 0 0 0 0 0 0 0 0 0 0 0 0 0 -3.66 0 0 0 0 0 0 0 0 0 0 0 0 0 0 0 0 3.66 0 3.66 -3.65 0 0 0 0 0 0 0 0 0 0 0 0 0 0 0 0 0 0 0 0 0 0 0 0 0 0 0 0 0 0 3.66 0 0 -3.66 0 0 0 0 0 0 0 0 0 0 0 0 0 0 0 0 0 0 0 0 3.66 0 0 0c0,0 3.65,0 3.65,-3.66l0 0 0 0 0 0 0 0 0 0 0 0 0 0 3.66 0 0 0 0 0 0 -3.66 0 0 0 0 3.66 0 0 0 0 0 0 0 0 0 0 0 0 0 0 0 0 0 0 0 0 0 0 0 0 0 0 0 0 0 0 0 0 0 0 0 0 0 0 0 0 0 0 0 0 0 0 0 0 0 -329.16 -332.81 -197.49 193.83 343.78 343.79 -482.76 0 0 277.95 581.5 0 0 0 0 0 0 0 0 0 0 0 0 0 0 0 0 0 0 0 3.66 0 0 0 0 0 0 0 0 0 0 0 0 0 0 0 0 0 0 0 0 0 0 0 0 0 0 0 3.66 0 0 0 0 0 0 0 0 0 0 0 0 0 0 0 0 0 0 0 0 0 0 0 0 0 0 0 3.65 0 0 0 0 0 0 0 0 0 0 0 0 0 0 0 0 0 0 0 0 0 0 0 0 0 0 0 0 0 0 0 0 0 3.66 0 0 0 0 0 0 0 0 0 0 3.65 0 0c32.92,7.32 58.53,29.26 73.16,54.87l0 0 0 3.66 0 0 0 0 0 0 0 0 3.64 3.65 0 0 0 0 0 0 0 0 0 0 0 0 0 3.66 0 0 0 0 0 0 3.66 3.66 0 0 0 0 0 0 0 0 0 3.66 0 0c0,0 0,0 0,3.65l0 0 0 0 3.66 0 0 3.65 0 0 0 0 0 0 0 0 0 3.66 0 0 0 0 0 0 0 3.66 0 0 0 0 0 0 0 0 0 0 3.65 3.65 0 0 0 0 0 0 0 3.66 0 0 0 0 0 0 0 0 0 3.66 0 0 0 0 0 0 0 0 0 3.66 0 0 0 0c0,3.65 0,3.65 0,7.31l0 0 0 0 0 0 0 3.66 0 3.66 3.66 0 0 0 263.33 0 10.97 0 0 0 0 0 0 0 3.66 0 0 0 0 0 0 -3.66c0,-54.85 36.57,-102.4 87.77,-117.03l0 0 0 0c3.66,0 10.98,0 14.63,0l581.5 0 0 -3.66 0 0 0 -274.29 -482.75 0 -7.32 0 0.02 0zm-197.49 -215.78l0 -468.13 -277.95 0 0 468.13 0 0 0 0 3.66 0 0 0 0 0 0 0 0 0 3.65 -3.66 0 0 0 0 0 0 0 0 0 0 0 0 3.66 0 0 0 0 0c0,0 0,0 3.66,-3.66l0 0 0 0 0 0 0 0 0 0 0 0 0 0c3.66,0 3.66,0 7.31,0l0 0 0 -3.65 0 0 0 0 0 0 0 0 0 0 0 0 0 0 7.31 0 0 0 0 0 0 0 0 0 0 0 0 0 0 0 0 0 0 0 0 0 0 0 0 0 0 0 0 0 0 0 0 0 0 0 0 0 0 0 0 0 0 0 0 0 0 0 0 0 0 0 3.66 0 0 0 0 0 3.65 -3.66 0 0 0 0 0 0 0 0 0 0 0 0 0 0 0 0 0 0 0 0 0 0 7.32 -3.66 0 0 0 0 3.66 0 0 0 7.31 0 0 0 0 -3.66 0 0 7.32 0 3.65 0 3.66 -3.65 0 0 3.66 0 0 0 3.66 0 3.66 0 0 0 0 0 0 0 0 0 0 0 0 0 0 0 0 0c0,0 3.65,0 3.65,0l0 0 0 0 0 0 0 -3.66 0 0 0 0 3.66 0 0 0c0,0 3.66,0 3.66,0l0 0 0 0 0 0 3.66 0 0 0 0 0 0 0 3.65 0 0 0 0 0 0 0 0 0 0 0 0 0 0 0 0 0 3.66 0 0 0 0 0 0 0 0 0 0 0 0 0 0 0 0 0 0 0c3.65,0 3.65,0 7.3,0l0 0 0 0 0 0 0 0 0 0 0 0 0 0 0 0c3.66,-3.66 3.66,-3.66 7.32,-3.66l0 0 0 0 0 0 0 0 0 0c3.66,0 3.66,0 7.32,0l0 0 0 0 0 0c3.65,0 7.31,0 7.31,0l0 0c3.66,0 7.32,0 10.97,0 0,0 3.66,0 7.32,0l0 0 0 0c0,0 3.66,0 7.31,0l0 0 0 0 0 0 0 0 0 0 0 0 0 0c3.66,0 3.66,0 7.32,0l0 0 0 0 0 0 0 0 0 0 0 0 0 0 0 0 0 0c3.66,0 3.66,0 7.31,3.66l0 0 0 0 0 0 0 0 0 0 0 0 0 0 0 0c3.66,0 7.32,0 7.32,0l0 0 3.65 0 0 0c0,0 3.65,0 3.65,0l3.66 0 0 0 0 0 0 0 0 0 0 0 0 0 0 0c0,0 3.66,0 7.32,0l0 0 0 0 0 0 0 0 0 0c0,3.66 3.65,3.66 7.31,3.66l0 0 0 0 0 0 0 0 0 0 0 0 0 0 0 0 0 0 0 0 0 0c3.66,0 3.66,0 7.32,0l0 0 0 0 0 0 0 0 0 0 0 0 0 0 0 0 0 0c3.66,0 3.66,3.65 7.31,3.65l0 0 0 0 0 0 0 0 0 0 0 0 0 0 0 0 0 0 0 0c3.66,0 3.66,0 7.32,0l0 0 0 0 0 0 0 0c3.66,3.66 3.66,3.66 7.31,3.66l0 0 0 0 0 0 0 0c3.66,0 3.66,0 7.32,3.66l0 0 0 0 0 0 0 0 0 0c3.66,0 3.66,0 7.31,0l0 0 0 0 0 0 0 0c3.66,3.66 3.66,3.66 7.32,3.66l0 0 0 0 0 0 0 0 0 0 0 0 0 0 0 0 0 0 0 0c3.65,0 3.65,3.65 7.3,3.65l0 0 0 0 0 0 0 0 0 0 0 0 0 0 0 0 0 0 0 0 7.32 3.66 0 0 0 0 0 0 0 0 0 0 0 0 0 0 0 0 0 0 0 0 0 0 0 0c0,0 3.66,0 3.66,0l0 0 3.65 3.66 0 0 0 0 0.02 0z"/>
  <path class="fil2" d="M742.78 3891.22l0 -196.6c59.98,19.98 119.96,33.32 183.28,39.98 63.31,6.67 129.95,10 203.27,10 23.32,0 46.66,-3.33 69.97,-3.33 23.33,0 43.33,-3.34 63.33,-6.67 16.66,-3.34 33.32,-6.66 43.31,-9.99 9.99,-3.34 13.33,-10.01 9.99,-13.33 0,-6.67 -9.99,-10 -29.99,-10 -16.66,0 -39.99,0 -69.97,0 -29.99,0 -63.32,3.33 -96.64,3.33 -36.66,3.33 -73.31,3.33 -109.97,3.33 -39.98,-3.33 -73.31,-3.33 -109.96,-10 -36.66,-3.32 -66.64,-9.99 -96.64,-19.98 -26.66,-10.01 -49.99,-23.33 -66.65,-39.99 -16.66,-20 -23.33,-40 -23.33,-69.98 0,-20 6.67,-39.99 16.66,-56.66 13.34,-13.32 30,-29.98 53.32,-39.98 -23.32,-16.66 -43.31,-39.99 -56.64,-63.32 -13.34,-26.65 -19.99,-53.32 -19.99,-86.64 0,-36.66 6.65,-63.31 23.31,-89.96 13.34,-23.33 33.34,-43.33 59.99,-63.32 23.33,-16.67 49.98,-29.99 83.31,-39.99 33.32,-13.33 66.64,-19.99 103.3,-26.66 33.32,-6.66 69.98,-9.99 103.3,-13.33 36.66,-3.33 69.98,-3.33 99.97,-3.33l43.33 0 0 0c103.3,0 193.26,-3.34 266.58,-13.33 73.31,-9.99 129.96,-26.65 163.28,-46.65 -10,33.33 -23.32,63.31 -36.65,89.97 -13.33,23.33 -29.99,43.32 -49.99,56.65 23.32,19.99 39.98,39.99 53.32,63.31 13.33,23.33 20,53.32 20,86.64 0,33.32 -6.67,63.32 -20,86.64 -13.34,26.67 -33.32,46.66 -56.65,63.32 -23.33,20 -49.99,33.33 -79.97,43.32 -33.33,13.33 -63.32,19.99 -99.98,26.66 -33.33,6.66 -66.65,10 -103.29,13.33 -33.34,3.33 -66.66,3.33 -96.65,3.33 -23.33,0 -46.65,0 -73.31,3.33 -23.32,0 -49.98,0 -69.98,0 -23.32,3.33 -43.32,3.33 -56.64,6.67 -13.33,0 -20,6.67 -16.66,9.99 0,3.33 13.32,6.67 33.32,6.67 20,0 46.65,-3.34 79.97,-3.34 29.99,0 69.98,-3.33 109.97,-3.33 40,-3.32 83.31,-3.32 126.63,-3.32 43.32,0 83.3,3.32 123.29,6.65 43.33,6.67 76.65,13.33 109.97,23.33 33.33,13.33 56.66,26.66 76.64,46.65 20,20 30,43.33 30,73.32 0,26.65 -10,49.98 -26.66,73.31 -20,19.98 -43.32,39.98 -73.32,53.32 -29.99,16.66 -63.31,29.99 -103.3,39.98 -36.66,10 -73.3,19.99 -113.29,26.66 -39.99,6.66 -76.64,10 -113.3,13.33 -33.32,0 -66.64,3.33 -93.31,3.33 -69.98,0 -136.62,-3.33 -199.93,-10 -66.65,-3.32 -129.97,-16.66 -189.95,-33.32l0 0zm436.53 -506.51c16.66,0 36.66,-3.34 53.32,-3.34 19.99,-3.33 36.65,-6.66 53.31,-13.32 13.33,-3.34 26.67,-10 36.66,-20 9.99,-6.67 16.66,-16.66 16.66,-26.66 0,-13.33 -6.67,-23.32 -16.66,-29.99 -9.99,-6.67 -23.33,-13.33 -36.66,-20 -16.66,-3.33 -33.32,-6.65 -53.31,-9.99 -16.66,-3.33 -36.66,-3.33 -53.32,-3.33 -16.66,0 -36.66,0 -56.64,3.33 -20,0 -36.66,3.34 -53.32,9.99 -16.66,3.34 -33.33,10.01 -43.33,16.66 -13.32,10.01 -16.66,20 -16.66,33.33 0,10 3.34,19.99 16.66,30 10,6.66 23.33,13.32 39.99,19.98 16.66,3.34 36.66,6.67 56.66,10 19.98,0 39.98,3.34 56.64,3.34zm533.17 -473.2l289.91 0 0 553.17c0,13.33 3.34,23.33 13.34,26.67 6.66,6.65 19.98,6.65 43.31,6.65l46.65 0 0 199.94 -166.61 0c-33.32,0 -63.31,-3.32 -93.31,-13.33 -26.65,-9.99 -49.98,-19.99 -69.97,-36.65 -19.99,-16.66 -36.65,-33.33 -46.66,-56.65 -9.99,-23.32 -16.66,-46.66 -16.66,-76.64l0 -603.16 0 0zm436.54 486.53c0,-46.65 6.66,-83.31 23.33,-116.63 16.66,-33.32 36.65,-59.99 63.31,-83.31 29.99,-23.33 59.98,-43.32 96.63,-56.65 33.33,-13.33 69.98,-26.67 109.97,-33.32 40,-10.01 76.64,-13.33 116.63,-16.67 36.66,-3.33 73.32,-6.66 109.97,-6.66 33.33,0 69.97,3.33 106.63,6.66 39.99,3.34 76.65,6.66 116.64,16.67 36.64,6.65 73.3,16.66 106.62,33.32 33.33,13.33 63.32,33.32 89.98,53.32 26.65,23.32 49.98,53.32 63.31,86.64 16.66,29.99 23.33,69.98 23.33,116.63 0,43.31 -6.67,83.3 -23.33,116.63 -13.33,33.32 -36.66,59.98 -59.98,83.3 -26.66,23.33 -56.65,43.33 -93.31,56.66 -33.32,16.66 -69.98,26.65 -106.62,33.32 -36.66,9.99 -76.65,13.32 -116.64,16.66 -36.66,3.33 -73.3,6.67 -106.63,6.67 -36.65,0 -73.31,-3.34 -109.97,-6.67 -39.99,-3.34 -79.97,-6.67 -116.63,-16.66 -39.99,-6.67 -76.65,-16.66 -113.3,-33.32 -33.32,-13.33 -66.65,-33.33 -93.3,-56.66 -26.67,-23.32 -46.65,-49.98 -63.31,-83.3 -16.67,-33.33 -23.33,-73.32 -23.33,-116.63zm509.84 93.31c16.66,0 36.66,0 59.99,0 26.65,0 49.98,-3.34 73.3,-10.01 23.33,-6.65 43.33,-13.32 59.99,-26.65 13.32,-13.34 23.33,-33.32 23.33,-56.65 0,-26.67 -10.01,-43.33 -23.33,-56.66 -16.66,-13.32 -36.66,-23.31 -59.99,-29.98 -23.32,-3.34 -46.65,-6.67 -73.3,-6.67 -23.33,0 -43.33,0 -59.99,0 -19.99,0 -39.99,0 -63.31,0 -23.33,0 -46.65,0 -69.98,6.67 -19.99,6.65 -39.99,16.66 -53.32,26.65 -16.66,13.34 -23.31,33.32 -23.31,59.99 0,23.33 6.65,43.31 23.31,56.65 13.33,13.33 33.33,23.32 53.32,29.99 23.33,3.33 43.32,6.67 69.98,6.67 23.32,0 43.32,0 63.31,0zm589.83 -393.23l289.91 0 0 63.32c59.97,-19.99 116.63,-36.65 176.61,-46.66 59.98,-13.32 116.63,-19.98 173.29,-19.98l0 219.93c-36.66,0 -73.32,0 -103.31,0 -33.32,0 -63.32,0 -89.97,0 -26.67,0 -53.32,3.32 -79.97,6.66 -26.67,3.33 -50,10 -76.65,16.66l0 359.89 -289.91 0 0 -599.82 0 0zm1619.51 0l0 599.82c0,36.66 -6.67,69.98 -23.33,103.3 -13.33,30 -36.66,56.66 -66.65,76.65 -26.66,20 -63.32,36.66 -106.63,49.99 -39.99,10 -86.64,16.66 -139.96,16.66l-463.19 0 0 -196.62 366.56 0c53.31,0 93.29,-6.65 113.29,-13.32 19.99,-9.99 29.99,-29.99 33.32,-53.32l0 -53.31c-73.3,23.32 -143.28,43.32 -206.6,59.98 -59.98,13.32 -116.63,23.33 -169.95,23.33 -79.97,-3.34 -143.28,-23.33 -186.61,-59.99 -46.65,-39.98 -66.64,-96.63 -66.64,-173.28l0 -383.21 289.91 0 0 336.56c0,29.99 9.99,46.65 26.65,59.99 16.66,9.99 40,16.66 69.98,16.66 33.34,0 69.98,-6.67 113.31,-16.66 43.31,-13.34 86.64,-26.67 129.95,-39.99l0 -353.24 286.59 0 0 0z"/>
 </g>
</svg>
