<?xml version="1.0" encoding="UTF-8"?>
<!DOCTYPE svg PUBLIC "-//W3C//DTD SVG 1.1//EN" "http://www.w3.org/Graphics/SVG/1.1/DTD/svg11.dtd">
<!-- Creator: CorelDRAW 2020 (64-Bit) -->
<svg xmlns="http://www.w3.org/2000/svg" xml:space="preserve" width="560px" height="558px" version="1.1" style="shape-rendering:geometricPrecision; text-rendering:geometricPrecision; image-rendering:optimizeQuality; fill-rule:evenodd; clip-rule:evenodd"
viewBox="0 0 11131.59 11098.72"
 xmlns:xlink="http://www.w3.org/1999/xlink"
 xmlns:xodm="http://www.corel.com/coreldraw/odm/2003">
 <defs>
  <style type="text/css">
   <![CDATA[
    .fil0 {fill:black}
   ]]>
  </style>
 </defs>
 <g id="Layer_x0020_1">
  <metadata id="CorelCorpID_0Corel-Layer"/>
  <path class="fil0" d="M2583.9 155.44c992.6,-115.38 1992.64,-155.96 2988,-155.42 995.39,0.57 1994.26,40.53 2988.02,156.52 1146.48,133.82 2284.85,1273.18 2416.89,2419.75 116.27,1009.63 155.29,2023.39 154.75,3034.68 -0.56,1012.42 -39.66,2026.14 -155.86,3034.66 -132.1,1146.57 -1270.52,2236.62 -2415.78,2337.62 -994.8,87.72 -1992.72,115.98 -2988.02,115.44 -995.32,-0.56 -1994.32,-28.87 -2988,-116.55 -1145.25,-101.02 -2287.9,-1189.89 -2423.58,-2336.51 -119.32,-1008.45 -160.84,-2022.26 -160.3,-3034.66 0.54,-1011.32 39.9,-2025.24 160.3,-3034.68 136.83,-1146.76 1277.04,-2287.57 2423.58,-2420.85zm3628.73 4563.02l691.77 -691.82 -393.21 -385.96 -662.72 662.67 0 0 7.28 0 0 0 0 0 7.33 7.33 0 0 0 0 0 0 0 0 0 0 0 0 0 0 0 0 0 0 0 0 0 0c7.26,0 7.26,7.24 14.52,7.24l0 0 0 0 0 0 0 0 0 0 0 0 0 0 0 0 0 0 7.31 7.28 0 0 0 0 0 0 0 0 0 0 0 0 7.26 0 0 0 0 0 0 0 0 0 0 0 0 0 0 0 0 0 0 0 0 7.31 7.28 0 0 0 0 0 0 0 0 0 0 0 0 0 0 0 0 0 0 0 0 0 0 0 7.31 7.26 0 0 0 0 0 0 0 0 7.26 0 0 0 0 0 0 7.3 0 0 0 0 0 0 0 0 0 0 0 0 7.31 7.26 0 0 0 0 7.26 0 0 0 0 0 0 0 0 0 0 0 0 0 7.28 7.31 0 0 0 0 0 0 0 0 0 0 0 0 0 0 0 0 0 0 0 0 0 0 7.28 0 0 0 0 0 0 0 0 0 0 0 0 0 0 0 0 0 0 7.28 0 0 0 0 0 0 0 0 0 0 0 0 7.31 0 0 0 0 0 0 0 0 0 0 0 0 0 0 0 0 0 0 0 0 0 0 0 0 0 0 0 0 0 0 0 0 7.24 0 0 0 0 7.26 7.3 0 0 0 0 0 0 0 0 0 0 7.28 0 0 0 0 0 0 0 0 0c0,0 0,7.29 7.31,7.29l0 0 0 0 0 0 0 0 0 0 0 0 0 0 0 0 0 0 0 0 7.26 7.28 0 0 0 0 0 0 0 0 0 7.28 0 0 0 0 0 0 7.28 0 0 0 0 0 0 0 0 0 0 0 0 0 0 0 0 0 0 7.31 0 0 7.26 0 0 0 0 0 0 0 0 0 0 0 0 0 0 0 0 0 0 0 0 0 0 0 0 0 0 0 0 0 0 0 0 0 0 0 0 0 0 0 7.31 7.26 0 7.26 0 0 0 0 0 0 7.28 0 0 0 0 0 0 0 0 7.31 0 0 0 0 0 0 0 0 7.26 0 0 0 0 0 0 0 0 0 0 0 0 0 0 0 0 0 0 0 0 0 0 0 0 0 0 0c0,7.28 0,7.28 7.28,7.28l0 0 0 0 0 0 0 7.28 7.31 7.28 0 0 0 0 0 0 0 0 0 0 0 0 0 0 0 0 0 0 7.28 7.26 0 0 0 0 0 0 0 0 0 0 0 0 0 0 0 0 0 7.29 0 0 7.24 0 0 0 0 7.33 0 0 7.33 7.23 7.26 7.26 0 0 0 0 7.26 7.33 0 0 7.33 14.52 0 0 0 0 7.26 7.33 0 0 0 7.29 0 0 7.28 7.26 0 0 0 0 0 0 0 0 0 0 0 0 0 0 0 0 0 0 0 0 0 0 0 0 0 0 0 0 0 0 0 0 0 0 0 7.25 0 0 0 0 0 0 0 0 0 0 0 0 0 0 0 0 0 0 0 0 0 0 0 0 7.28 7.33 0 0 0 0 7.26 7.26 0 7.31 7.31 7.28 0 7.24 0 0 0 7.31 7.31 7.28 0 0 0 7.28 7.26 7.29 0 7.28 0 7.26 0 0 0 0 0 0 0 0 0 0 0 0 0 0 7.28 7.31 0 0 0 0 0 0 0 0 0 0 0 0 0 7.28 0 0 0 0 0 0 0 0 0 0 0 0 0 0 0 0 0 0 0 0 0 0 7.31 7.26 0 0 0 0 0 0 0 0 0 0 0 0 0 0 0 7.3 0 0c0,0 0,7.29 0,7.29l0 0 0 0 0 0 0 0 0 0 7.25 7.28 0 0 0 7.26 0 0 0 7.28 0 0 0 0 0 0 0 0 0 0 0 0 0 0 0 7.29 0 0 0 0 0 0 0 0 7.26 0 0 0 0 0 0 7.28 0 0 0 0 0 0 0 0 0 0 0 0 0 0 0 0 0 0 0 7.28 0 0 0 0 0 0 0 0 0 7.29 0 0 0 0 0 0 0 0 0 0 0 7.28 -218.47 0c-145.59,0 -283.99,50.98 -385.93,131.1 -109.25,-80.12 -247.62,-131.1 -393.24,-131.1l-218.47 0 0 0 0 0 0 0c0,0 0,-7.28 0,-7.28l0 0 0 0 0 0 0 0 0 -7.29 0 0 0 -7.28 0 0 7.26 -7.28 0 0 0 0 0 0 0 0 0 0 0 0 0 0 0 -7.29 0 0 0 0 0 0 0 0 0 0 0 0 0 0 0 0 0 -7.28 0 0 0 0 0 0 0 0c0,0 0,-7.26 7.28,-7.26l0 0 0 0 0 -7.28 0 0 0 0 0 0 0 0 0 0 0 0 0 -7.29 0 0 0 0 0 0 0 0 0 0 0 0 0 -7.3 7.29 -7.26 0 -7.28 0 0 7.3 -7.31 0 -7.26 0 0 0 -7.28 0 0 7.26 -7.29 0 0 0 -7.28 0 0 0 -7.28 0 0 7.26 -7.31 0 -7.24 0 0 7.33 -7.28 0 0 7.26 -14.57 0 0 0 0 0 0 0 0 0 0 0 0 0 0 0 0 0 0 0 0 0 0 0 0 7.29 -7.33 0 0 0 0 0 0 0 0 0 0 0 0 0 0 0 0 0 -7.25 7.26 -7.26 0 -7.29 0 0 0 0 0 0 0 0 7.3 -7.33 0 0 0 0 0 0 0 0 0 0 0 0 0 0 0 0 0 0 0 0 0 -7.26 0 0 7.28 -7.26 7.29 -7.33 0 0 0 0 0 0 7.28 -7.26 0 -7.23 7.28 -7.33 7.29 -7.29 0 0 0 0 0 0 7.26 -7.26 7.3 -7.28 0 0 0 -7.28 0 0 7.26 -7.28 0 0 0 0 7.31 0 0 0 0 0 0 0 0 0 0 0 0 0 0 0 0 -7.31 0 0 7.26 0 0 0 0 0 0 0 0 0 0 0 0 0 0 0 0 0 0 0 0 -7.26 7.28 -7.26 0 0 0 0 0 0 0 0 0 0 0 0 0 0 0 0 0 0 0 0 0 0 0 0 7.29 0 0 0 0 0 0 -7.31 0 0 0 0 0 0 0 0 0 0 0 0 0 0 0 0 0 0 0 0 0 0 0 0 0 0 7.28 0 0 0 0 0 0 0 0 0 0 0 0 -7.28 0 0 0 0 7.31 -7.28 0 0 0 0 0 0 0 0 0 0 0 0 0 0 0 0 0 0 0 0 0 0 0 0 7.25 -7.29 0 0 0 0 0 0 0 0 0 0 0 0 0 0 0 0 7.31 0 0 0 0 0 0 0 0 0 0 0 0 0 0 0 0 0 0 0 0 -7.3 7.26 0 0 0 0 -7.24 0 0 0 0 0 0 0 0 0 0 0 0 0 0 0 0 0 0 7.28 0 0 -7.28 0 0 0 0 0 0 0 0 0 0 7.31 0 0 0 0 0 0 0 0 0 0 0 0 0 0 0 0 0 0 0 0 0 7.26 -7.31 0 0 0 0 0 0 0 0 0 0 7.31 0 0 0 0 0 0 0 0 0 0 0 0 0 0 0 0 0 0 -7.26 0 0 0 0 7.26 0 0 0 0 0 0 0 0 0 0 0 0 0 0 0 0 0 0 0 0 0 0 0 0 0 0 0 0 0 0 0 0 0 0 -7.3 0 0 0 0 0 0 0 0 0 0 0 0 0 0 0 0 7.28 0 7.26 -7.26 0 0 0 0 0 0 0 0 0 0 0 0 0 0 0 0 0 0 0 0 0 0 0 0 0 0 0 0 0 0 7.31 0 0 -7.31 0 0 0 0 0 0 0 0 0 0 0 0 0 0 0 0 0 0 0 0 7.28 0 0 0c0,0 7.26,0 7.26,-7.28l0 0 0 0 0 0 0 0 0 0 0 0 0 0 7.3 0 0 0 0 0 0 -7.24 0 0 0 0 7.29 0 0 0 0 0 0 0 0 0 0 0 0 0 0 0 0 0 0 0 0 0 0 0 0 0 0 0 0 0 0 0 0 0 0 0 0 0 0 0 0 0 0 0 0 0 0 0 0 0 -655.41 -662.72 -393.24 385.96 684.52 684.54 -961.26 0 0 553.45 1157.88 0 0 0 0 0 0 0 0 0 0 0 0 0 0 0 0 0 0 0 7.28 0 0 0 0 0 0 0 0 0 0 0 0 0 0 0 0 0 0 0 0 0 0 0 0 0 0 0 7.28 0 0 0 0 0 0 0 0 0 0 0 0 0 0 0 0 0 0 0 0 0 0 0 0 0 0 0 7.29 0 0 0 0 0 0 0 0 0 0 0 0 0 0 0 0 0 0 0 0 0 0 0 0 0 0 0 0 0 0 0 0 0 7.28 0 0 0 0 0 0 0 0 0 0 7.28 0 0c65.57,14.57 116.53,58.24 145.64,109.25l0 0 0 7.26 0 0 0 0 0 0 0 0 7.3 7.28 0 0 0 0 0 0 0 0 0 0 0 0 0 7.31 0 0 0 0 0 0 7.26 7.26 0 0 0 0 0 0 0 0 0 7.28 0 0c0,0 0,0 0,7.31l0 0 0 0 7.29 0 0 7.26 0 0 0 0 0 0 0 0 0 7.28 0 0 0 0 0 0 0 7.31 0 0 0 0 0 0 0 0 0 0 7.28 7.26 0 0 0 0 0 0 0 7.25 0 0 0 0 0 0 0 0 0 7.31 0 0 0 0 0 0 0 0 0 7.28 0 0 0 0c0,7.31 0,7.31 0,14.57l0 0 0 0 0 0 0 7.26 0 7.31 7.28 0 0 0 524.32 0 21.87 0 0 0 0 0 0 0 7.26 0 0 0 0 0 0 -7.31c0,-109.22 72.85,-203.88 174.82,-233.01l0 0 0 0c7.26,0 21.8,0 29.11,0l1157.87 0 0 -7.29 0 0 0 -546.16 -961.28 0 -14.56 0 0.07 0zm-393.27 -429.65l0 -932.15 -553.44 0 0 932.15 0 0 0 0 7.26 0 0 0 0 0 0 0 0 0 7.3 -7.29 0 0 0 0 0 0 0 0 0 0 0 0 7.29 0 0 0 0 0c0,0 0,0 7.26,-7.28l0 0 0 0 0 0 0 0 0 0 0 0 0 0c7.3,0 7.3,0 14.59,0l0 0 0 -7.28 0 0 0 0 0 0 0 0 0 0 0 0 0 0 14.51 0 0 0 0 0 0 0 0 0 0 0 0 0 0 0 0 0 0 0 0 0 0 0 0 0 0 0 0 0 0 0 0 0 0 0 0 0 0 0 0 0 0 0 0 0 0 0 0 0 0 0 7.34 0 0 0 0 0 7.25 -7.29 0 0 0 0 0 0 0 0 0 0 0 0 0 0 0 0 0 0 0 0 0 0 14.59 -7.28 0 0 0 0 7.26 0 0 0 14.57 0 0 0 0 -7.28 0 0 14.57 0 7.26 0 7.3 -7.28 0 0 7.29 0 0 0 7.26 0 7.3 0 0 0 0 0 0 0 0 0 0 0 0 0 0 0 0 0c0,0 7.26,0 7.26,0l0 0 0 0 0 0 0 -7.29 0 0 0 0 7.33 0 0 0c0,0 7.26,0 7.26,0l0 0 0 0 0 0 7.24 0 0 0 0 0 0 0 7.3 0 0 0 0 0 0 0 0 0 0 0 0 0 0 0 0 0 7.31 0 0 0 0 0 0 0 0 0 0 0 0 0 0 0 0 0 0 0c7.26,0 7.26,0 14.54,0l0 0 0 0 0 0 0 0 0 0 0 0 0 0 0 0c7.31,-7.26 7.31,-7.26 14.57,-7.26l0 0 0 0 0 0 0 0 0 0c7.28,0 7.28,0 14.54,0l0 0 0 0 0 0c7.33,0 14.59,0 14.59,0l0 0c7.26,0 14.57,0 21.85,0 0,0 7.28,0 14.54,0l0 0 0 0c0,0 7.31,0 14.59,0l0 0 0 0 0 0 0 0 0 0 0 0 0 0c7.26,0 7.26,0 14.57,0l0 0 0 0 0 0 0 0 0 0 0 0 0 0 0 0 0 0c7.26,0 7.26,0 14.57,7.26l0 0 0 0 0 0 0 0 0 0 0 0 0 0 0 0c7.28,0 14.52,0 14.52,0l0 0 7.33 0 0 0c0,0 7.25,0 7.25,0l7.29 0 0 0 0 0 0 0 0 0 0 0 0 0 0 0c0,0 7.28,0 14.59,0l0 0 0 0 0 0 0 0 0 0c0,7.29 7.26,7.29 14.52,7.29l0 0 0 0 0 0 0 0 0 0 0 0 0 0 0 0 0 0 0 0 0 0c7.33,0 7.33,0 14.59,0l0 0 0 0 0 0 0 0 0 0 0 0 0 0 0 0 0 0c7.26,0 7.26,7.28 14.54,7.28l0 0 0 0 0 0 0 0 0 0 0 0 0 0 0 0 0 0 0 0c7.28,0 7.28,0 14.57,0l0 0 0 0 0 0 0 0c7.3,7.28 7.3,7.28 14.59,7.28l0 0 0 0 0 0 0 0c7.25,0 7.25,0 14.56,7.28l0 0 0 0 0 0 0 0 0 0c7.26,0 7.26,0 14.54,0l0 0 0 0 0 0 0 0c7.29,7.29 7.29,7.29 14.59,7.29l0 0 0 0 0 0 0 0 0 0 0 0 0 0 0 0 0 0 0 0c7.26,0 7.26,7.28 14.55,7.28l0 0 0 0 0 0 0 0 0 0 0 0 0 0 0 0 0 0 0 0 14.54 7.28 0 0 0 0 0 0 0 0 0 0 0 0 0 0 0 0 0 0 0 0 0 0 0 0c0,0 7.35,0 7.35,0l0 0 7.24 7.29 0 0 0 0 0.02 0zm-4340.35 3459.35l0 -391.48c119.42,39.83 238.86,66.37 364.95,79.62 126.05,13.3 258.77,19.93 404.73,19.93 46.47,0 92.9,-6.63 139.37,-6.63 46.42,0 86.24,-6.65 126.07,-13.3 33.15,-6.62 66.34,-13.25 86.24,-19.89 19.88,-6.63 26.55,-19.9 19.88,-26.55 0,-13.25 -19.88,-19.88 -59.7,-19.88 -33.2,0 -79.62,0 -139.32,0 -59.74,0 -126.07,6.63 -192.44,6.63 -72.99,6.62 -145.99,6.62 -218.96,6.62 -79.62,-6.62 -145.97,-6.62 -218.96,-19.9 -73,-6.65 -132.7,-19.87 -192.44,-39.82 -53.07,-19.9 -99.52,-46.42 -132.69,-79.6 -33.18,-39.84 -46.43,-79.64 -46.43,-139.34 0,-39.82 13.25,-79.62 33.15,-112.82 26.55,-26.54 59.75,-59.72 106.17,-79.62 -46.42,-33.15 -86.27,-79.62 -112.82,-126.04 -26.5,-53.1 -39.8,-106.19 -39.8,-172.56 0,-72.98 13.3,-126.05 46.45,-179.15 26.55,-46.44 66.35,-86.22 119.44,-126.06 46.43,-33.18 99.52,-59.7 165.89,-79.6 66.33,-26.57 132.7,-39.82 205.69,-53.1 66.35,-13.27 139.32,-19.9 205.69,-26.57 73,-6.6 139.32,-6.6 199.07,-6.6l86.24 0 0 0c205.69,0 384.86,-6.67 530.82,-26.57 145.99,-19.88 258.81,-53.05 325.13,-92.87 -19.92,66.34 -46.44,126.04 -72.97,179.14 -26.55,46.47 -59.72,86.29 -99.56,112.82 46.47,39.79 79.62,79.62 106.19,126.06 26.55,46.45 39.82,106.17 39.82,172.5 0,66.37 -13.27,126.06 -39.82,172.56 -26.57,53.05 -66.35,92.89 -112.8,126.04 -46.44,39.83 -99.54,66.37 -159.26,86.27 -66.32,26.55 -126.07,39.8 -199.04,53.08 -66.37,13.27 -132.74,19.92 -205.71,26.52 -66.35,6.65 -132.7,6.65 -192.39,6.65 -46.5,0 -92.92,0 -146.02,6.65 -46.42,0 -99.52,0 -139.32,0 -46.45,6.67 -86.27,6.67 -112.79,13.27 -26.55,0 -39.8,13.28 -33.2,19.9 0,6.63 26.55,13.27 66.39,13.27 39.76,0 92.85,-6.64 159.22,-6.64 59.7,0 139.34,-6.63 218.97,-6.63 79.62,-6.62 165.89,-6.62 252.11,-6.62 86.29,0 165.91,6.62 245.56,13.25 86.24,13.25 152.59,26.54 218.91,46.47 66.4,26.5 112.82,53.07 152.62,92.87 39.82,39.82 59.74,86.24 59.74,145.97 0,53.09 -19.92,99.54 -53.09,145.99 -39.8,39.82 -86.25,79.62 -145.97,106.14 -59.72,33.18 -126.07,59.72 -205.69,79.62 -72.97,19.95 -145.99,39.85 -225.59,53.1 -79.66,13.3 -152.59,19.9 -225.61,26.52 -66.37,0 -132.69,6.68 -185.79,6.68 -139.34,0 -272.06,-6.68 -398.13,-19.9 -132.69,-6.65 -258.78,-33.22 -378.2,-66.4l0 0zm869.23 -1008.57c33.15,0 72.99,-6.6 106.14,-6.6 39.82,-6.67 72.97,-13.27 106.17,-26.57 26.53,-6.6 53.1,-19.88 73,-39.8 19.9,-13.27 33.17,-33.19 33.17,-53.09 0,-26.53 -13.27,-46.43 -33.17,-59.7 -19.9,-13.28 -46.47,-26.55 -73,-39.82 -33.2,-6.61 -66.35,-13.28 -106.17,-19.9 -33.15,-6.63 -72.99,-6.63 -106.14,-6.63 -33.18,0 -72.98,0 -112.8,6.63 -39.82,0 -72.99,6.62 -106.17,19.9 -33.19,6.62 -66.37,19.9 -86.27,33.19 -26.54,19.9 -33.17,39.8 -33.17,66.33 0,19.9 6.63,39.82 33.17,59.74 19.9,13.27 46.45,26.55 79.6,39.8 33.2,6.65 73.02,13.25 112.84,19.92 39.82,0 79.62,6.6 112.8,6.6zm1061.66 -942.19l577.25 0 0 1101.46c0,26.52 6.62,46.45 26.54,53.05 13.25,13.3 39.8,13.3 86.25,13.3l92.89 0 0 398.1 -331.75 0c-66.37,0 -126.09,-6.63 -185.82,-26.5 -53.04,-19.95 -99.49,-39.85 -139.29,-73.02 -39.82,-33.15 -73.02,-66.35 -92.9,-112.77 -19.89,-46.45 -33.17,-92.9 -33.17,-152.64l0 -1200.98 0 0zm869.2 968.74c0,-92.87 13.25,-165.86 46.43,-232.21 33.17,-66.37 73.02,-119.42 126.07,-165.89 59.74,-46.43 119.44,-86.27 192.43,-112.8 66.37,-26.52 139.35,-53.09 218.97,-66.34 79.62,-19.93 152.61,-26.55 232.21,-33.18 73,-6.67 146.02,-13.27 218.96,-13.27 66.37,0 139.37,6.6 212.34,13.27 79.65,6.63 152.64,13.25 232.24,33.18 73.02,13.25 145.97,33.17 212.34,66.34 66.34,26.53 126.04,66.37 179.16,106.15 53.1,46.45 99.5,106.17 126.07,172.54 33.17,59.72 46.42,139.34 46.42,232.21 0,86.27 -13.25,165.89 -46.42,232.24 -26.57,66.37 -73,119.44 -119.47,165.89 -53.05,46.47 -112.77,86.27 -185.76,112.82 -66.37,33.17 -139.32,53.07 -212.34,66.32 -72.97,19.9 -152.59,26.57 -232.24,33.2 -72.97,6.62 -145.97,13.25 -212.34,13.25 -72.94,0 -145.96,-6.63 -218.96,-13.25 -79.6,-6.63 -159.24,-13.3 -232.21,-33.2 -79.62,-13.25 -152.6,-33.15 -225.59,-66.32 -66.37,-26.55 -132.72,-66.35 -185.81,-112.82 -53.05,-46.45 -92.9,-99.52 -126.07,-165.89 -33.18,-66.35 -46.43,-145.97 -46.43,-232.24zm1015.2 185.77c33.17,0 72.99,0 119.42,0 53.12,0 99.54,-6.6 145.99,-19.88 46.45,-13.27 86.27,-26.52 119.44,-53.09 26.53,-26.53 46.42,-66.33 46.42,-112.8 0,-53.07 -19.89,-86.24 -46.42,-112.79 -33.17,-26.53 -72.99,-46.43 -119.44,-59.7 -46.45,-6.65 -92.87,-13.27 -145.99,-13.27 -46.43,0 -86.25,0 -119.42,0 -39.82,0 -79.62,0 -126.09,0 -46.43,0 -92.9,0 -139.32,13.27 -39.8,13.25 -79.62,33.17 -106.17,53.05 -33.15,26.57 -46.43,66.37 -46.43,119.44 0,46.47 13.28,86.27 46.43,112.8 26.55,26.54 66.37,46.44 106.17,59.76 46.42,6.61 86.27,13.21 139.32,13.21 46.47,0 86.27,0 126.09,0zm1174.43 -782.94l577.27 0 0 126.07c119.44,-39.8 232.24,-72.97 351.68,-92.89 119.44,-26.53 232.24,-39.8 345.06,-39.8l0 437.93c-73,0 -146,0 -205.72,0 -66.34,0 -126.07,0 -179.16,0 -53.05,0 -106.15,6.62 -159.24,13.25 -53.08,6.64 -99.52,19.9 -152.62,33.17l0 716.61 -577.27 0 0 -1194.36 0 0.02zm3224.77 0l0 1194.34c0,72.99 -13.27,139.36 -46.45,205.71 -26.54,59.72 -72.97,112.82 -132.71,152.64 -53.07,39.78 -126.05,72.95 -212.34,99.5 -79.6,19.9 -172.52,33.17 -278.68,33.17l-922.3 0 0 -391.48 729.9 0c106.17,0 185.79,-13.25 225.59,-26.55 39.82,-19.89 59.72,-59.69 66.35,-106.14l0 -106.17c-145.99,46.42 -285.33,86.27 -411.4,119.42 -119.42,26.57 -232.19,46.45 -338.38,46.45 -159.27,-6.63 -285.31,-46.45 -371.58,-119.45 -92.9,-79.62 -132.7,-192.41 -132.7,-345l0 -763.06 577.27 0 0 670.16c0,59.7 19.9,92.9 53.07,119.4 33.18,19.97 79.62,33.19 139.35,33.19 66.34,0 139.34,-13.22 225.58,-33.19 86.27,-26.5 172.57,-53.05 258.79,-79.6l0 -703.34 570.64 0 0 0z"/>
 </g>
</svg>
