<?xml version="1.0" encoding="UTF-8"?>
<!DOCTYPE svg PUBLIC "-//W3C//DTD SVG 1.1//EN" "http://www.w3.org/Graphics/SVG/1.1/DTD/svg11.dtd">
<!-- Creator: CorelDRAW 2020 (64-Bit) -->
<svg xmlns="http://www.w3.org/2000/svg" xml:space="preserve" width="560px" height="558px" version="1.1" style="shape-rendering:geometricPrecision; text-rendering:geometricPrecision; image-rendering:optimizeQuality; fill-rule:evenodd; clip-rule:evenodd"
viewBox="0 0 254.01 253.26"
 xmlns:xlink="http://www.w3.org/1999/xlink"
 xmlns:xodm="http://www.corel.com/coreldraw/odm/2003">
 <defs>
  <style type="text/css">
   <![CDATA[
    .fil0 {fill:none}
    .fil1 {fill:#391563}
    .fil2 {fill:#391563;fill-rule:nonzero}
   ]]>
  </style>
 </defs>
 <g id="Layer_x0020_1">
  <metadata id="CorelCorpID_0Corel-Layer"/>
  <path class="fil0" d="M58.96 3.55c22.65,-2.64 45.47,-3.56 68.18,-3.55 22.72,0.01 45.51,0.92 68.19,3.57 26.16,3.06 52.13,29.05 55.15,55.22 2.65,23.04 3.54,46.17 3.53,69.24 -0.02,23.11 -0.91,46.24 -3.56,69.25 -3.01,26.16 -28.99,51.04 -55.12,53.34 -22.7,2 -45.48,2.65 -68.19,2.64 -22.71,-0.02 -45.5,-0.66 -68.18,-2.66 -26.13,-2.31 -52.21,-27.15 -55.3,-53.32 -2.72,-23.01 -3.67,-46.14 -3.66,-69.25 0.01,-23.07 0.91,-46.21 3.66,-69.24 3.12,-26.17 29.14,-52.2 55.3,-55.24z"/>
  <path class="fil1" d="M141.76 107.67l15.79 -15.79 -8.97 -8.81 -15.13 15.13 0 0 0.17 0 0 0 0 0 0.17 0.16 0 0 0 0 0 0 0 0 0 0 0 0 0 0 0 0 0 0 0 0 0 0c0.16,0 0.16,0.17 0.33,0.17l0 0 0 0 0 0 0 0 0 0 0 0 0 0 0 0 0 0 0.17 0.17 0 0 0 0 0 0 0 0 0 0 0 0 0.16 0 0 0 0 0 0 0 0 0 0 0 0 0 0 0 0 0 0 0 0 0.16 0.17 0 0 0 0 0 0 0 0 0 0 0 0 0 0 0 0 0 0 0 0 0 0 0 0.16 0.17 0 0 0 0 0 0 0 0 0.17 0 0 0 0 0 0 0.16 0 0 0 0 0 0 0 0 0 0 0 0 0.17 0.17 0 0 0 0 0.16 0 0 0 0 0 0 0 0 0 0 0 0 0 0.17 0.17 0 0 0 0 0 0 0 0 0 0 0 0 0 0 0 0 0 0 0 0 0 0 0.16 0 0 0 0 0 0 0 0 0 0 0 0 0 0 0 0 0 0 0.16 0 0 0 0 0 0 0 0 0 0 0 0 0.17 0 0 0 0 0 0 0 0 0 0 0 0 0 0 0 0 0 0 0 0 0 0 0 0 0 0 0 0 0 0 0 0 0.17 0 0 0 0 0.17 0.16 0 0 0 0 0 0 0 0 0 0 0.16 0 0 0 0 0 0 0 0 0c0,0 0,0.17 0.17,0.17l0 0 0 0 0 0 0 0 0 0 0 0 0 0 0 0 0 0 0 0 0.17 0.17 0 0 0 0 0 0 0 0 0 0.16 0 0 0 0 0 0 0.16 0 0 0 0 0 0 0 0 0 0 0 0 0 0 0 0 0 0 0.17 0 0 0.17 0 0 0 0 0 0 0 0 0 0 0 0 0 0 0 0 0 0 0 0 0 0 0 0 0 0 0 0 0 0 0 0 0 0 0 0 0 0 0 0.16 0.16 0 0.17 0 0 0 0 0 0 0.17 0 0 0 0 0 0 0 0 0.17 0 0 0 0 0 0 0 0 0.17 0 0 0 0 0 0 0 0 0 0 0 0 0 0 0 0 0 0 0 0 0 0 0 0 0 0 0c0,0.16 0,0.16 0.16,0.16l0 0 0 0 0 0 0 0.17 0.17 0.17 0 0 0 0 0 0 0 0 0 0 0 0 0 0 0 0 0 0 0.16 0.16 0 0 0 0 0 0 0 0 0 0 0 0 0 0 0 0 0 0.17 0 0 0.17 0 0 0 0 0.16 0 0 0.17 0.17 0.16 0.17 0 0 0 0 0.17 0.16 0 0 0.17 0.34 0 0 0 0 0.16 0.16 0 0 0 0.17 0 0 0.17 0.16 0 0 0 0 0 0 0 0 0 0 0 0 0 0 0 0 0 0 0 0 0 0 0 0 0 0 0 0 0 0 0 0 0 0 0 0.17 0 0 0 0 0 0 0 0 0 0 0 0 0 0 0 0 0 0 0 0 0 0 0 0 0.16 0.17 0 0 0 0 0.17 0.16 0 0.17 0.17 0.16 0 0.17 0 0 0 0.17 0.16 0.16 0 0 0 0.17 0.17 0.17 0 0.16 0 0.17 0 0 0 0 0 0 0 0 0 0 0 0 0 0 0.16 0.16 0 0 0 0 0 0 0 0 0 0 0 0 0 0.17 0 0 0 0 0 0 0 0 0 0 0 0 0 0 0 0 0 0 0 0 0 0 0.17 0.17 0 0 0 0 0 0 0 0 0 0 0 0 0 0 0 0.16 0 0c0,0 0,0.17 0,0.17l0 0 0 0 0 0 0 0 0 0 0.17 0.16 0 0 0 0.17 0 0 0 0.17 0 0 0 0 0 0 0 0 0 0 0 0 0 0 0 0.16 0 0 0 0 0 0 0 0 0.16 0 0 0 0 0 0 0.17 0 0 0 0 0 0 0 0 0 0 0 0 0 0 0 0 0 0 0 0.17 0 0 0 0 0 0 0 0 0 0.16 0 0 0 0 0 0 0 0 0 0 0 0.17 -4.98 0c-3.33,0 -6.48,1.16 -8.81,2.99 -2.49,-1.83 -5.65,-2.99 -8.97,-2.99l-4.99 0 0 0 0 0 0 0c0,0 0,-0.17 0,-0.17l0 0 0 0 0 0 0 0 0 -0.16 0 0 0 -0.17 0 0 0.17 -0.17 0 0 0 0 0 0 0 0 0 0 0 0 0 0 0 -0.16 0 0 0 0 0 0 0 0 0 0 0 0 0 0 0 0 0 -0.17 0 0 0 0 0 0 0 0c0,0 0,-0.17 0.17,-0.17l0 0 0 0 0 -0.16 0 0 0 0 0 0 0 0 0 0 0 0 0 -0.17 0 0 0 0 0 0 0 0 0 0 0 0 0 -0.16 0.16 -0.17 0 -0.17 0 0 0.17 -0.16 0 -0.17 0 0 0 -0.16 0 0 0.16 -0.17 0 0 0 -0.17 0 0 0 -0.16 0 0 0.17 -0.17 0 -0.17 0 0 0.17 -0.16 0 0 0.16 -0.33 0 0 0 0 0 0 0 0 0 0 0 0 0 0 0 0 0 0 0 0 0 0 0 0 0.17 -0.17 0 0 0 0 0 0 0 0 0 0 0 0 0 0 0 0 0 -0.17 0.16 -0.16 0 -0.17 0 0 0 0 0 0 0 0 0.17 -0.16 0 0 0 0 0 0 0 0 0 0 0 0 0 0 0 0 0 0 0 0 0 -0.17 0 0 0.17 -0.17 0.16 -0.16 0 0 0 0 0 0 0.17 -0.17 0 -0.17 0.17 -0.16 0.16 -0.17 0 0 0 0 0 0 0.17 -0.16 0.16 -0.17 0 0 0 -0.17 0 0 0.17 -0.16 0 0 0 0 0.17 0 0 0 0 0 0 0 0 0 0 0 0 0 0 0 0 -0.17 0 0 0.16 0 0 0 0 0 0 0 0 0 0 0 0 0 0 0 0 0 0 0 0 -0.17 0.17 -0.16 0 0 0 0 0 0 0 0 0 0 0 0 0 0 0 0 0 0 0 0 0 0 0 0 0.16 0 0 0 0 0 0 -0.17 0 0 0 0 0 0 0 0 0 0 0 0 0 0 0 0 0 0 0 0 0 0 0 0 0 0 0.17 0 0 0 0 0 0 0 0 0 0 0 0 -0.16 0 0 0 0 0.17 -0.17 0 0 0 0 0 0 0 0 0 0 0 0 0 0 0 0 0 0 0 0 0 0 0 0 0.16 -0.17 0 0 0 0 0 0 0 0 0 0 0 0 0 0 0 0 0.17 0 0 0 0 0 0 0 0 0 0 0 0 0 0 0 0 0 0 0 0 -0.16 0.17 0 0 0 0 -0.17 0 0 0 0 0 0 0 0 0 0 0 0 0 0 0 0 0 0 0.16 0 0 -0.16 0 0 0 0 0 0 0 0 0 0 0.17 0 0 0 0 0 0 0 0 0 0 0 0 0 0 0 0 0 0 0 0 0 0.16 -0.17 0 0 0 0 0 0 0 0 0 0 0.17 0 0 0 0 0 0 0 0 0 0 0 0 0 0 0 0 0 0 -0.17 0 0 0 0 0.17 0 0 0 0 0 0 0 0 0 0 0 0 0 0 0 0 0 0 0 0 0 0 0 0 0 0 0 0 0 0 0 0 0 0 -0.16 0 0 0 0 0 0 0 0 0 0 0 0 0 0 0 0 0.16 0 0.17 -0.17 0 0 0 0 0 0 0 0 0 0 0 0 0 0 0 0 0 0 0 0 0 0 0 0 0 0 0 0 0 0 0.16 0 0 -0.16 0 0 0 0 0 0 0 0 0 0 0 0 0 0 0 0 0 0 0 0 0.17 0 0 0c0,0 0.17,0 0.17,-0.17l0 0 0 0 0 0 0 0 0 0 0 0 0 0 0.16 0 0 0 0 0 0 -0.17 0 0 0 0 0.17 0 0 0 0 0 0 0 0 0 0 0 0 0 0 0 0 0 0 0 0 0 0 0 0 0 0 0 0 0 0 0 0 0 0 0 0 0 0 0 0 0 0 0 0 0 0 0 0 0 -14.96 -15.12 -8.97 8.81 15.62 15.62 -21.93 0 0 12.63 26.42 0 0 0 0 0 0 0 0 0 0 0 0 0 0 0 0 0 0 0 0.16 0 0 0 0 0 0 0 0 0 0 0 0 0 0 0 0 0 0 0 0 0 0 0 0 0 0 0 0.17 0 0 0 0 0 0 0 0 0 0 0 0 0 0 0 0 0 0 0 0 0 0 0 0 0 0 0 0.17 0 0 0 0 0 0 0 0 0 0 0 0 0 0 0 0 0 0 0 0 0 0 0 0 0 0 0 0 0 0 0 0 0 0.16 0 0 0 0 0 0 0 0 0 0 0.16 0 0c1.5,0.34 2.66,1.33 3.33,2.5l0 0 0 0.16 0 0 0 0 0 0 0 0 0.16 0.17 0 0 0 0 0 0 0 0 0 0 0 0 0 0.16 0 0 0 0 0 0 0.17 0.17 0 0 0 0 0 0 0 0 0 0.17 0 0c0,0 0,0 0,0.16l0 0 0 0 0.16 0 0 0.17 0 0 0 0 0 0 0 0 0 0.17 0 0 0 0 0 0 0 0.16 0 0 0 0 0 0 0 0 0 0 0.17 0.17 0 0 0 0 0 0 0 0.16 0 0 0 0 0 0 0 0 0 0.17 0 0 0 0 0 0 0 0 0 0.17 0 0 0 0c0,0.16 0,0.16 0,0.33l0 0 0 0 0 0 0 0.16 0 0.17 0.17 0 0 0 11.96 0 0.5 0 0 0 0 0 0 0 0.17 0 0 0 0 0 0 -0.17c0,-2.49 1.66,-4.65 3.98,-5.31l0 0 0 0c0.17,0 0.5,0 0.67,0l26.42 0 0 -0.17 0 0 0 -12.46 -21.94 0 -0.33 0 0 0zm-8.97 -9.81l0 -21.27 -12.63 0 0 21.27 0 0 0 0 0.17 0 0 0 0 0 0 0 0 0 0.16 -0.16 0 0 0 0 0 0 0 0 0 0 0 0 0.17 0 0 0 0 0c0,0 0,0 0.17,-0.17l0 0 0 0 0 0 0 0 0 0 0 0 0 0c0.16,0 0.16,0 0.33,0l0 0 0 -0.16 0 0 0 0 0 0 0 0 0 0 0 0 0 0 0.33 0 0 0 0 0 0 0 0 0 0 0 0 0 0 0 0 0 0 0 0 0 0 0 0 0 0 0 0 0 0 0 0 0 0 0 0 0 0 0 0 0 0 0 0 0 0 0 0 0 0 0 0.17 0 0 0 0 0 0.16 -0.17 0 0 0 0 0 0 0 0 0 0 0 0 0 0 0 0 0 0 0 0 0 0 0.33 -0.17 0 0 0 0 0.17 0 0 0 0.33 0 0 0 0 -0.16 0 0 0.34 0 0.16 0 0.17 -0.17 0 0 0.16 0 0 0 0.17 0 0.17 0 0 0 0 0 0 0 0 0 0 0 0 0 0 0 0 0c0,0 0.16,0 0.16,0l0 0 0 0 0 0 0 -0.17 0 0 0 0 0.17 0 0 0c0,0 0.17,0 0.17,0l0 0 0 0 0 0 0.16 0 0 0 0 0 0 0 0.17 0 0 0 0 0 0 0 0 0 0 0 0 0 0 0 0 0 0.16 0 0 0 0 0 0 0 0 0 0 0 0 0 0 0 0 0 0 0c0.17,0 0.17,0 0.34,0l0 0 0 0 0 0 0 0 0 0 0 0 0 0 0 0c0.16,-0.16 0.16,-0.16 0.33,-0.16l0 0 0 0 0 0 0 0 0 0c0.16,0 0.16,0 0.33,0l0 0 0 0 0 0c0.17,0 0.33,0 0.33,0l0 0c0.17,0 0.34,0 0.5,0 0,0 0.17,0 0.33,0l0 0 0 0c0,0 0.17,0 0.34,0l0 0 0 0 0 0 0 0 0 0 0 0 0 0c0.16,0 0.16,0 0.33,0l0 0 0 0 0 0 0 0 0 0 0 0 0 0 0 0 0 0c0.16,0 0.16,0 0.33,0.16l0 0 0 0 0 0 0 0 0 0 0 0 0 0 0 0c0.17,0 0.33,0 0.33,0l0 0 0.17 0 0 0c0,0 0.17,0 0.17,0l0.16 0 0 0 0 0 0 0 0 0 0 0 0 0 0 0c0,0 0.17,0 0.33,0l0 0 0 0 0 0 0 0 0 0c0,0.17 0.17,0.17 0.34,0.17l0 0 0 0 0 0 0 0 0 0 0 0 0 0 0 0 0 0 0 0 0 0c0.16,0 0.16,0 0.33,0l0 0 0 0 0 0 0 0 0 0 0 0 0 0 0 0 0 0c0.16,0 0.16,0.17 0.33,0.17l0 0 0 0 0 0 0 0 0 0 0 0 0 0 0 0 0 0 0 0c0.17,0 0.17,0 0.33,0l0 0 0 0 0 0 0 0c0.17,0.16 0.17,0.16 0.34,0.16l0 0 0 0 0 0 0 0c0.16,0 0.16,0 0.33,0.17l0 0 0 0 0 0 0 0 0 0c0.16,0 0.16,0 0.33,0l0 0 0 0 0 0 0 0c0.17,0.17 0.17,0.17 0.33,0.17l0 0 0 0 0 0 0 0 0 0 0 0 0 0 0 0 0 0 0 0c0.17,0 0.17,0.16 0.33,0.16l0 0 0 0 0 0 0 0 0 0 0 0 0 0 0 0 0 0 0 0 0.34 0.17 0 0 0 0 0 0 0 0 0 0 0 0 0 0 0 0 0 0 0 0 0 0 0 0c0,0 0.16,0 0.16,0l0 0 0.17 0.16 0 0 0 0 0 0z"/>
  <path class="fil2" d="M33.75 176.8l0 -8.93c2.72,0.91 5.45,1.51 8.33,1.82 2.87,0.3 5.9,0.45 9.23,0.45 1.06,0 2.12,-0.15 3.18,-0.15 1.06,0 1.97,-0.15 2.88,-0.3 0.76,-0.16 1.51,-0.31 1.97,-0.46 0.45,-0.15 0.6,-0.45 0.45,-0.6 0,-0.31 -0.45,-0.46 -1.36,-0.46 -0.76,0 -1.82,0 -3.18,0 -1.36,0 -2.88,0.15 -4.39,0.15 -1.67,0.16 -3.33,0.16 -5,0.16 -1.82,-0.16 -3.33,-0.16 -4.99,-0.46 -1.67,-0.15 -3.03,-0.45 -4.4,-0.91 -1.21,-0.45 -2.27,-1.06 -3.02,-1.81 -0.76,-0.91 -1.06,-1.82 -1.06,-3.18 0,-0.91 0.3,-1.82 0.75,-2.58 0.61,-0.6 1.37,-1.36 2.43,-1.82 -1.06,-0.75 -1.97,-1.81 -2.58,-2.87 -0.6,-1.21 -0.91,-2.42 -0.91,-3.94 0,-1.66 0.31,-2.88 1.06,-4.09 0.61,-1.06 1.52,-1.96 2.73,-2.87 1.06,-0.76 2.27,-1.37 3.78,-1.82 1.52,-0.61 3.03,-0.91 4.7,-1.21 1.51,-0.3 3.18,-0.46 4.69,-0.61 1.67,-0.15 3.18,-0.15 4.54,-0.15l1.97 0 0 0c4.7,0 8.78,-0.15 12.11,-0.6 3.34,-0.46 5.91,-1.22 7.42,-2.12 -0.45,1.51 -1.06,2.87 -1.66,4.08 -0.61,1.06 -1.36,1.97 -2.27,2.58 1.06,0.91 1.81,1.82 2.42,2.87 0.6,1.06 0.91,2.43 0.91,3.94 0,1.52 -0.31,2.88 -0.91,3.94 -0.61,1.21 -1.51,2.12 -2.57,2.87 -1.06,0.91 -2.28,1.52 -3.64,1.97 -1.51,0.61 -2.87,0.91 -4.54,1.21 -1.51,0.31 -3.03,0.46 -4.69,0.61 -1.52,0.15 -3.03,0.15 -4.4,0.15 -1.06,0 -2.12,0 -3.33,0.15 -1.06,0 -2.27,0 -3.18,0 -1.06,0.15 -1.96,0.15 -2.57,0.31 -0.61,0 -0.91,0.3 -0.76,0.45 0,0.15 0.61,0.3 1.52,0.3 0.91,0 2.12,-0.15 3.63,-0.15 1.36,0 3.18,-0.15 5,-0.15 1.81,-0.15 3.78,-0.15 5.75,-0.15 1.97,0 3.79,0.15 5.6,0.3 1.97,0.3 3.49,0.61 5,1.06 1.51,0.61 2.57,1.21 3.48,2.12 0.91,0.91 1.36,1.97 1.36,3.33 0,1.21 -0.45,2.27 -1.21,3.33 -0.9,0.91 -1.96,1.82 -3.33,2.43 -1.36,0.75 -2.87,1.36 -4.69,1.81 -1.67,0.46 -3.33,0.91 -5.15,1.21 -1.82,0.31 -3.48,0.46 -5.15,0.61 -1.51,0 -3.02,0.15 -4.24,0.15 -3.18,0 -6.2,-0.15 -9.08,-0.45 -3.03,-0.15 -5.91,-0.76 -8.63,-1.52l0 0zm19.83 -23.01c0.76,0 1.67,-0.15 2.43,-0.15 0.9,-0.15 1.66,-0.31 2.42,-0.61 0.6,-0.15 1.21,-0.45 1.66,-0.91 0.46,-0.3 0.76,-0.75 0.76,-1.21 0,-0.6 -0.3,-1.06 -0.76,-1.36 -0.45,-0.3 -1.06,-0.61 -1.66,-0.91 -0.76,-0.15 -1.52,-0.3 -2.42,-0.45 -0.76,-0.16 -1.67,-0.16 -2.43,-0.16 -0.75,0 -1.66,0 -2.57,0.16 -0.91,0 -1.67,0.15 -2.42,0.45 -0.76,0.15 -1.52,0.45 -1.97,0.76 -0.61,0.45 -0.76,0.91 -0.76,1.51 0,0.46 0.15,0.91 0.76,1.36 0.45,0.31 1.06,0.61 1.82,0.91 0.75,0.15 1.66,0.31 2.57,0.46 0.91,0 1.82,0.15 2.57,0.15zm24.23 -21.5l13.17 0 0 25.13c0,0.61 0.15,1.06 0.61,1.21 0.3,0.31 0.91,0.31 1.97,0.31l2.12 0 0 9.08 -7.58 0c-1.51,0 -2.87,-0.15 -4.24,-0.61 -1.21,-0.45 -2.27,-0.9 -3.17,-1.66 -0.91,-0.76 -1.67,-1.51 -2.12,-2.57 -0.46,-1.06 -0.76,-2.12 -0.76,-3.49l0 -27.4 0 0zm19.83 22.1c0,-2.12 0.31,-3.78 1.06,-5.3 0.76,-1.51 1.67,-2.72 2.88,-3.78 1.36,-1.06 2.73,-1.97 4.39,-2.57 1.51,-0.61 3.18,-1.22 5,-1.52 1.81,-0.45 3.48,-0.6 5.3,-0.76 1.66,-0.15 3.33,-0.3 4.99,-0.3 1.52,0 3.18,0.15 4.85,0.3 1.81,0.16 3.48,0.31 5.3,0.76 1.66,0.3 3.33,0.76 4.84,1.52 1.52,0.6 2.88,1.51 4.09,2.42 1.21,1.06 2.27,2.42 2.88,3.93 0.75,1.37 1.06,3.18 1.06,5.3 0,1.97 -0.31,3.79 -1.06,5.3 -0.61,1.52 -1.67,2.73 -2.73,3.79 -1.21,1.06 -2.57,1.97 -4.24,2.57 -1.51,0.76 -3.18,1.21 -4.84,1.52 -1.67,0.45 -3.49,0.6 -5.3,0.75 -1.67,0.15 -3.33,0.31 -4.85,0.31 -1.66,0 -3.33,-0.16 -4.99,-0.31 -1.82,-0.15 -3.64,-0.3 -5.3,-0.75 -1.82,-0.31 -3.49,-0.76 -5.15,-1.52 -1.51,-0.6 -3.03,-1.51 -4.24,-2.57 -1.21,-1.06 -2.12,-2.27 -2.88,-3.79 -0.75,-1.51 -1.06,-3.33 -1.06,-5.3zm23.17 4.24c0.76,0 1.66,0 2.72,0 1.22,0 2.27,-0.15 3.33,-0.45 1.06,-0.3 1.97,-0.61 2.73,-1.21 0.61,-0.61 1.06,-1.52 1.06,-2.58 0,-1.21 -0.45,-1.96 -1.06,-2.57 -0.76,-0.61 -1.67,-1.06 -2.73,-1.36 -1.06,-0.15 -2.11,-0.31 -3.33,-0.31 -1.06,0 -1.96,0 -2.72,0 -0.91,0 -1.82,0 -2.88,0 -1.06,0 -2.12,0 -3.18,0.31 -0.91,0.3 -1.81,0.75 -2.42,1.21 -0.76,0.6 -1.06,1.51 -1.06,2.72 0,1.06 0.3,1.97 1.06,2.58 0.61,0.6 1.51,1.06 2.42,1.36 1.06,0.15 1.97,0.3 3.18,0.3 1.06,0 1.97,0 2.88,0zm26.8 -17.86l13.17 0 0 2.87c2.73,-0.9 5.3,-1.66 8.03,-2.12 2.72,-0.6 5.29,-0.9 7.87,-0.9l0 9.99c-1.67,0 -3.33,0 -4.7,0 -1.51,0 -2.87,0 -4.08,0 -1.21,0 -2.43,0.15 -3.64,0.3 -1.21,0.15 -2.27,0.46 -3.48,0.76l0 16.35 -13.17 0 0 -27.25 0 0zm73.58 0l0 27.25c0,1.67 -0.3,3.18 -1.06,4.69 -0.6,1.37 -1.66,2.58 -3.03,3.49 -1.21,0.91 -2.87,1.66 -4.84,2.27 -1.82,0.45 -3.94,0.75 -6.36,0.75l-21.05 0 0 -8.93 16.66 0c2.42,0 4.24,-0.3 5.15,-0.6 0.91,-0.46 1.36,-1.37 1.51,-2.43l0 -2.42c-3.33,1.06 -6.51,1.97 -9.39,2.73 -2.72,0.6 -5.3,1.06 -7.72,1.06 -3.63,-0.16 -6.51,-1.06 -8.48,-2.73 -2.12,-1.82 -3.02,-4.39 -3.02,-7.87l0 -17.41 13.17 0 0 15.29c0,1.36 0.45,2.12 1.21,2.72 0.76,0.46 1.82,0.76 3.18,0.76 1.51,0 3.18,-0.3 5.15,-0.76 1.96,-0.6 3.93,-1.21 5.9,-1.81l0 -16.05 13.02 0 0 0z"/>
 </g>
</svg>
