<?xml version="1.0" encoding="UTF-8"?>
<!DOCTYPE svg PUBLIC "-//W3C//DTD SVG 1.1//EN" "http://www.w3.org/Graphics/SVG/1.1/DTD/svg11.dtd">
<!-- Creator: CorelDRAW 2020 (64-Bit) -->
<svg xmlns="http://www.w3.org/2000/svg" xml:space="preserve" width="560px" height="558px" version="1.1" style="shape-rendering:geometricPrecision; text-rendering:geometricPrecision; image-rendering:optimizeQuality; fill-rule:evenodd; clip-rule:evenodd"
viewBox="0 0 244.87 244.14"
 xmlns:xlink="http://www.w3.org/1999/xlink"
 xmlns:xodm="http://www.corel.com/coreldraw/odm/2003">
 <defs>
  <style type="text/css">
   <![CDATA[
    .fil0 {fill:#00C478}
    .fil1 {fill:white}
    .fil2 {fill:#391563;fill-rule:nonzero}
   ]]>
  </style>
 </defs>
 <g id="Layer_x0020_1">
  <metadata id="CorelCorpID_0Corel-Layer"/>
  <path class="fil0" d="M56.84 3.42c21.83,-2.54 43.83,-3.43 65.73,-3.42 21.89,0.01 43.87,0.89 65.73,3.44 25.22,2.95 50.26,28.01 53.16,53.23 2.56,22.21 3.42,44.51 3.41,66.76 -0.02,22.27 -0.88,44.57 -3.43,66.75 -2.91,25.22 -27.95,49.2 -53.14,51.42 -21.89,1.93 -43.84,2.56 -65.73,2.54 -21.9,-0.01 -43.87,-0.63 -65.73,-2.56 -25.19,-2.22 -50.33,-26.17 -53.31,-51.4 -2.63,-22.18 -3.54,-44.48 -3.53,-66.75 0.01,-22.25 0.88,-44.55 3.53,-66.76 3.01,-25.22 28.09,-50.32 53.31,-53.25z"/>
  <path class="fil1" d="M136.66 103.79l15.22 -15.21 -8.65 -8.49 -14.58 14.57 0 0 0.16 0 0 0 0 0 0.16 0.16 0 0 0 0 0 0 0 0 0 0 0 0 0 0 0 0 0 0 0 0 0 0c0.16,0 0.16,0.16 0.32,0.16l0 0 0 0 0 0 0 0 0 0 0 0 0 0 0 0 0 0 0.16 0.16 0 0 0 0 0 0 0 0 0 0 0 0 0.16 0 0 0 0 0 0 0 0 0 0 0 0 0 0 0 0 0 0 0 0 0.16 0.16 0 0 0 0 0 0 0 0 0 0 0 0 0 0 0 0 0 0 0 0 0 0 0 0.16 0.16 0 0 0 0 0 0 0 0 0.16 0 0 0 0 0 0 0.16 0 0 0 0 0 0 0 0 0 0 0 0 0.16 0.16 0 0 0 0 0.16 0 0 0 0 0 0 0 0 0 0 0 0 0 0.16 0.16 0 0 0 0 0 0 0 0 0 0 0 0 0 0 0 0 0 0 0 0 0 0 0.16 0 0 0 0 0 0 0 0 0 0 0 0 0 0 0 0 0 0 0.17 0 0 0 0 0 0 0 0 0 0 0 0 0.17 0 0 0 0 0 0 0 0 0 0 0 0 0 0 0 0 0 0 0 0 0 0 0 0 0 0 0 0 0 0 0 0 0.16 0 0 0 0 0.15 0.16 0 0 0 0 0 0 0 0 0 0 0.17 0 0 0 0 0 0 0 0 0c0,0 0,0.16 0.16,0.16l0 0 0 0 0 0 0 0 0 0 0 0 0 0 0 0 0 0 0 0 0.16 0.16 0 0 0 0 0 0 0 0 0 0.16 0 0 0 0 0 0 0.16 0 0 0 0 0 0 0 0 0 0 0 0 0 0 0 0 0 0 0.16 0 0 0.16 0 0 0 0 0 0 0 0 0 0 0 0 0 0 0 0 0 0 0 0 0 0 0 0 0 0 0 0 0 0 0 0 0 0 0 0 0 0 0 0.16 0.16 0 0.16 0 0 0 0 0 0 0.16 0 0 0 0 0 0 0 0 0.16 0 0 0 0 0 0 0 0 0.16 0 0 0 0 0 0 0 0 0 0 0 0 0 0 0 0 0 0 0 0 0 0 0 0 0 0 0c0,0.16 0,0.16 0.16,0.16l0 0 0 0 0 0 0 0.16 0.16 0.16 0 0 0 0 0 0 0 0 0 0 0 0 0 0 0 0 0 0 0.16 0.16 0 0 0 0 0 0 0 0 0 0 0 0 0 0 0 0 0 0.16 0 0 0.16 0 0 0 0 0.16 0 0 0.16 0.16 0.16 0.16 0 0 0 0 0.16 0.16 0 0 0.16 0.32 0 0 0 0 0.16 0.16 0 0 0 0.16 0 0 0.16 0.16 0 0 0 0 0 0 0 0 0 0 0 0 0 0 0 0 0 0 0 0 0 0 0 0 0 0 0 0 0 0 0 0 0 0 0 0.16 0 0 0 0 0 0 0 0 0 0 0 0 0 0 0 0 0 0 0 0 0 0 0 0 0.16 0.16 0 0 0 0 0.16 0.16 0 0.16 0.16 0.16 0 0.16 0 0 0 0.16 0.16 0.16 0 0 0 0.16 0.16 0.16 0 0.16 0 0.16 0 0 0 0 0 0 0 0 0 0 0 0 0 0 0.16 0.16 0 0 0 0 0 0 0 0 0 0 0 0 0 0.16 0 0 0 0 0 0 0 0 0 0 0 0 0 0 0 0 0 0 0 0 0 0 0.16 0.16 0 0 0 0 0 0 0 0 0 0 0 0 0 0 0 0.16 0 0c0,0 0,0.16 0,0.16l0 0 0 0 0 0 0 0 0 0 0.16 0.16 0 0 0 0.16 0 0 0 0.16 0 0 0 0 0 0 0 0 0 0 0 0 0 0 0 0.16 0 0 0 0 0 0 0 0 0.16 0 0 0 0 0 0 0.16 0 0 0 0 0 0 0 0 0 0 0 0 0 0 0 0 0 0 0 0.16 0 0 0 0 0 0 0 0 0 0.16 0 0 0 0 0 0 0 0 0 0 0 0.16 -4.81 0c-3.2,0 -6.24,1.13 -8.49,2.89 -2.4,-1.76 -5.44,-2.89 -8.65,-2.89l-4.8 0 0 0 0 0 0 0c0,0 0,-0.16 0,-0.16l0 0 0 0 0 0 0 0 0 -0.16 0 0 0 -0.16 0 0 0.16 -0.16 0 0 0 0 0 0 0 0 0 0 0 0 0 0 0 -0.16 0 0 0 0 0 0 0 0 0 0 0 0 0 0 0 0 0 -0.16 0 0 0 0 0 0 0 0c0,0 0,-0.16 0.16,-0.16l0 0 0 0 0 -0.16 0 0 0 0 0 0 0 0 0 0 0 0 0 -0.16 0 0 0 0 0 0 0 0 0 0 0 0 0 -0.16 0.16 -0.16 0 -0.16 0 0 0.16 -0.16 0 -0.16 0 0 0 -0.16 0 0 0.16 -0.16 0 0 0 -0.16 0 0 0 -0.16 0 0 0.16 -0.16 0 -0.16 0 0 0.16 -0.16 0 0 0.16 -0.32 0 0 0 0 0 0 0 0 0 0 0 0 0 0 0 0 0 0 0 0 0 0 0 0 0.16 -0.16 0 0 0 0 0 0 0 0 0 0 0 0 0 0 0 0 0 -0.16 0.16 -0.16 0 -0.16 0 0 0 0 0 0 0 0 0.16 -0.16 0 0 0 0 0 0 0 0 0 0 0 0 0 0 0 0 0 0 0 0 0 -0.16 0 0 0.16 -0.16 0.16 -0.16 0 0 0 0 0 0 0.16 -0.16 0 -0.16 0.16 -0.16 0.16 -0.16 0 0 0 0 0 0 0.16 -0.16 0.16 -0.16 0 0 0 -0.16 0 0 0.16 -0.16 0 0 0 0 0.16 0 0 0 0 0 0 0 0 0 0 0 0 0 0 0 0 -0.16 0 0 0.16 0 0 0 0 0 0 0 0 0 0 0 0 0 0 0 0 0 0 0 0 -0.16 0.16 -0.16 0 0 0 0 0 0 0 0 0 0 0 0 0 0 0 0 0 0 0 0 0 0 0 0 0.16 0 0 0 0 0 0 -0.16 0 0 0 0 0 0 0 0 0 0 0 0 0 0 0 0 0 0 0 0 0 0 0 0 0 0 0.16 0 0 0 0 0 0 0 0 0 0 0 0 -0.16 0 0 0 0 0.16 -0.16 0 0 0 0 0 0 0 0 0 0 0 0 0 0 0 0 0 0 0 0 0 0 0 0 0.16 -0.16 0 0 0 0 0 0 0 0 0 0 0 0 0 0 0 0 0.16 0 0 0 0 0 0 0 0 0 0 0 0 0 0 0 0 0 0 0 0 -0.16 0.16 0 0 0 0 -0.16 0 0 0 0 0 0 0 0 0 0 0 0 0 0 0 0 0 0 0.16 0 0 -0.17 0 0 0 0 0 0 0 0 0 0 0.16 0 0 0 0 0 0 0 0 0 0 0 0 0 0 0 0 0 0 0 0 0 0.16 -0.16 0 0 0 0 0 0 0 0 0 0 0.16 0 0 0 0 0 0 0 0 0 0 0 0 0 0 0 0 0 0 -0.16 0 0 0 0 0.16 0 0 0 0 0 0 0 0 0 0 0 0 0 0 0 0 0 0 0 0 0 0 0 0 0 0 0 0 0 0 0 0 0 0 -0.16 0 0 0 0 0 0 0 0 0 0 0 0 0 0 0 0 0.16 0 0.16 -0.16 0 0 0 0 0 0 0 0 0 0 0 0 0 0 0 0 0 0 0 0 0 0 0 0 0 0 0 0 0 0 0.16 0 0 -0.16 0 0 0 0 0 0 0 0 0 0 0 0 0 0 0 0 0 0 0 0 0.16 0 0 0c0,0 0.16,0 0.16,-0.16l0 0 0 0 0 0 0 0 0 0 0 0 0 0 0.17 0 0 0 0 0 0 -0.16 0 0 0 0 0.16 0 0 0 0 0 0 0 0 0 0 0 0 0 0 0 0 0 0 0 0 0 0 0 0 0 0 0 0 0 0 0 0 0 0 0 0 0 0 0 0 0 0 0 0 0 0 0 0 0 -14.42 -14.57 -8.65 8.49 15.06 15.05 -21.15 0 0 12.18 25.47 0 0 0 0 0 0 0 0 0 0 0 0 0 0 0 0 0 0 0 0.16 0 0 0 0 0 0 0 0 0 0 0 0 0 0 0 0 0 0 0 0 0 0 0 0 0 0 0 0.16 0 0 0 0 0 0 0 0 0 0 0 0 0 0 0 0 0 0 0 0 0 0 0 0 0 0 0 0.16 0 0 0 0 0 0 0 0 0 0 0 0 0 0 0 0 0 0 0 0 0 0 0 0 0 0 0 0 0 0 0 0 0 0.16 0 0 0 0 0 0 0 0 0 0 0.16 0 0c1.44,0.32 2.56,1.28 3.21,2.4l0 0 0 0.16 0 0 0 0 0 0 0 0 0.16 0.16 0 0 0 0 0 0 0 0 0 0 0 0 0 0.16 0 0 0 0 0 0 0.16 0.16 0 0 0 0 0 0 0 0 0 0.16 0 0c0,0 0,0 0,0.16l0 0 0 0 0.16 0 0 0.16 0 0 0 0 0 0 0 0 0 0.16 0 0 0 0 0 0 0 0.16 0 0 0 0 0 0 0 0 0 0 0.16 0.16 0 0 0 0 0 0 0 0.16 0 0 0 0 0 0 0 0 0 0.16 0 0 0 0 0 0 0 0 0 0.16 0 0 0 0c0,0.16 0,0.16 0,0.33l0 0 0 0 0 0 0 0.15 0 0.17 0.16 0 0 0 11.53 0 0.48 0 0 0 0 0 0 0 0.16 0 0 0 0 0 0 -0.17c0,-2.4 1.6,-4.48 3.85,-5.12l0 0 0 0c0.16,0 0.48,0 0.64,0l25.47 0 0 -0.16 0 0 0 -12.02 -21.15 0 -0.32 0 0 0zm-8.65 -9.45l0 -20.5 -12.17 0 0 20.5 0 0 0 0 0.16 0 0 0 0 0 0 0 0 0 0.16 -0.16 0 0 0 0 0 0 0 0 0 0 0 0 0.16 0 0 0 0 0c0,0 0,0 0.16,-0.16l0 0 0 0 0 0 0 0 0 0 0 0 0 0c0.16,0 0.16,0 0.32,0l0 0 0 -0.16 0 0 0 0 0 0 0 0 0 0 0 0 0 0 0.32 0 0 0 0 0 0 0 0 0 0 0 0 0 0 0 0 0 0 0 0 0 0 0 0 0 0 0 0 0 0 0 0 0 0 0 0 0 0 0 0 0 0 0 0 0 0 0 0 0 0 0 0.16 0 0 0 0 0 0.16 -0.16 0 0 0 0 0 0 0 0 0 0 0 0 0 0 0 0 0 0 0 0 0 0 0.32 -0.16 0 0 0 0 0.16 0 0 0 0.32 0 0 0 0 -0.16 0 0 0.32 0 0.16 0 0.16 -0.16 0 0 0.16 0 0 0 0.16 0 0.16 0 0 0 0 0 0 0 0 0 0 0 0 0 0 0 0 0c0,0 0.16,0 0.16,0l0 0 0 0 0 0 0 -0.16 0 0 0 0 0.16 0 0 0c0,0 0.16,0 0.16,0l0 0 0 0 0 0 0.16 0 0 0 0 0 0 0 0.16 0 0 0 0 0 0 0 0 0 0 0 0 0 0 0 0 0 0.16 0 0 0 0 0 0 0 0 0 0 0 0 0 0 0 0 0 0 0c0.16,0 0.16,0 0.32,0l0 0 0 0 0 0 0 0 0 0 0 0 0 0 0 0c0.16,-0.16 0.16,-0.16 0.32,-0.16l0 0 0 0 0 0 0 0 0 0c0.16,0 0.16,0 0.32,0l0 0 0 0 0 0c0.16,0 0.32,0 0.32,0l0 0c0.16,0 0.32,0 0.48,0 0,0 0.16,0 0.32,0l0 0 0 0c0,0 0.16,0 0.32,0l0 0 0 0 0 0 0 0 0 0 0 0 0 0c0.17,0 0.17,0 0.33,0l0 0 0 0 0 0 0 0 0 0 0 0 0 0 0 0 0 0c0.16,0 0.16,0 0.32,0.16l0 0 0 0 0 0 0 0 0 0 0 0 0 0 0 0c0.16,0 0.32,0 0.32,0l0 0 0.16 0 0 0c0,0 0.16,0 0.16,0l0.16 0 0 0 0 0 0 0 0 0 0 0 0 0 0 0c0,0 0.16,0 0.32,0l0 0 0 0 0 0 0 0 0 0c0,0.16 0.16,0.16 0.32,0.16l0 0 0 0 0 0 0 0 0 0 0 0 0 0 0 0 0 0 0 0 0 0c0.16,0 0.16,0 0.32,0l0 0 0 0 0 0 0 0 0 0 0 0 0 0 0 0 0 0c0.16,0 0.16,0.16 0.32,0.16l0 0 0 0 0 0 0 0 0 0 0 0 0 0 0 0 0 0 0 0c0.16,0 0.16,0 0.32,0l0 0 0 0 0 0 0 0c0.16,0.16 0.16,0.16 0.32,0.16l0 0 0 0 0 0 0 0c0.16,0 0.16,0 0.32,0.16l0 0 0 0 0 0 0 0 0 0c0.16,0 0.16,0 0.32,0l0 0 0 0 0 0 0 0c0.16,0.16 0.16,0.16 0.32,0.16l0 0 0 0 0 0 0 0 0 0 0 0 0 0 0 0 0 0 0 0c0.16,0 0.16,0.16 0.32,0.16l0 0 0 0 0 0 0 0 0 0 0 0 0 0 0 0 0 0 0 0 0.32 0.16 0 0 0 0 0 0 0 0 0 0 0 0 0 0 0 0 0 0 0 0 0 0 0 0c0,0 0.16,0 0.16,0l0 0 0.16 0.16 0 0 0 0 0 0z"/>
  <path class="fil2" d="M32.53 170.44l0 -8.61c2.63,0.88 5.26,1.46 8.03,1.75 2.78,0.29 5.69,0.44 8.91,0.44 1.02,0 2.04,-0.15 3.06,-0.15 1.02,0 1.9,-0.14 2.77,-0.29 0.73,-0.15 1.46,-0.29 1.9,-0.44 0.44,-0.14 0.59,-0.43 0.44,-0.58 0,-0.29 -0.44,-0.44 -1.31,-0.44 -0.73,0 -1.76,0 -3.07,0 -1.31,0 -2.77,0.15 -4.23,0.15 -1.61,0.14 -3.21,0.14 -4.82,0.14 -1.75,-0.14 -3.21,-0.14 -4.82,-0.43 -1.6,-0.15 -2.91,-0.44 -4.23,-0.88 -1.17,-0.44 -2.19,-1.02 -2.92,-1.75 -0.73,-0.88 -1.02,-1.75 -1.02,-3.07 0,-0.87 0.29,-1.75 0.73,-2.48 0.58,-0.58 1.31,-1.31 2.34,-1.75 -1.03,-0.73 -1.9,-1.75 -2.49,-2.77 -0.58,-1.17 -0.87,-2.34 -0.87,-3.8 0,-1.6 0.29,-2.77 1.02,-3.94 0.58,-1.02 1.46,-1.9 2.63,-2.77 1.02,-0.73 2.19,-1.32 3.65,-1.75 1.46,-0.59 2.92,-0.88 4.52,-1.17 1.46,-0.29 3.07,-0.44 4.53,-0.59 1.6,-0.14 3.06,-0.14 4.37,-0.14l1.9 0 0 0c4.53,0 8.47,-0.15 11.68,-0.58 3.21,-0.44 5.69,-1.17 7.15,-2.05 -0.44,1.46 -1.02,2.77 -1.6,3.94 -0.59,1.02 -1.32,1.9 -2.19,2.48 1.02,0.88 1.75,1.76 2.33,2.78 0.59,1.02 0.88,2.33 0.88,3.79 0,1.46 -0.29,2.78 -0.88,3.8 -0.58,1.16 -1.46,2.04 -2.48,2.77 -1.02,0.88 -2.19,1.46 -3.5,1.9 -1.46,0.58 -2.78,0.87 -4.38,1.17 -1.46,0.29 -2.92,0.43 -4.53,0.58 -1.46,0.15 -2.92,0.15 -4.23,0.15 -1.02,0 -2.04,0 -3.21,0.14 -1.02,0 -2.19,0 -3.07,0 -1.02,0.15 -1.89,0.15 -2.48,0.29 -0.58,0 -0.87,0.29 -0.73,0.44 0,0.15 0.59,0.29 1.46,0.29 0.88,0 2.05,-0.14 3.51,-0.14 1.31,0 3.06,-0.15 4.81,-0.15 1.75,-0.15 3.65,-0.15 5.55,-0.15 1.9,0 3.65,0.15 5.4,0.3 1.9,0.29 3.36,0.58 4.82,1.02 1.46,0.58 2.48,1.17 3.35,2.04 0.88,0.88 1.32,1.9 1.32,3.21 0,1.17 -0.44,2.19 -1.17,3.21 -0.88,0.88 -1.9,1.76 -3.21,2.34 -1.31,0.73 -2.77,1.31 -4.53,1.75 -1.6,0.44 -3.21,0.88 -4.96,1.17 -1.75,0.29 -3.36,0.44 -4.96,0.58 -1.46,0 -2.92,0.15 -4.09,0.15 -3.06,0 -5.98,-0.15 -8.76,-0.44 -2.92,-0.15 -5.69,-0.73 -8.32,-1.46l0 0zm19.12 -22.19c0.73,0 1.61,-0.14 2.34,-0.14 0.88,-0.15 1.61,-0.29 2.34,-0.59 0.58,-0.14 1.16,-0.43 1.6,-0.87 0.44,-0.29 0.73,-0.73 0.73,-1.17 0,-0.58 -0.29,-1.02 -0.73,-1.31 -0.44,-0.29 -1.02,-0.59 -1.6,-0.88 -0.73,-0.14 -1.46,-0.29 -2.34,-0.44 -0.73,-0.14 -1.61,-0.14 -2.34,-0.14 -0.72,0 -1.6,0 -2.48,0.14 -0.87,0 -1.6,0.15 -2.33,0.44 -0.73,0.15 -1.46,0.44 -1.9,0.73 -0.58,0.44 -0.73,0.88 -0.73,1.46 0,0.44 0.15,0.88 0.73,1.32 0.44,0.29 1.02,0.58 1.75,0.87 0.73,0.15 1.61,0.29 2.48,0.44 0.88,0 1.76,0.14 2.48,0.14zm23.36 -20.72l12.7 0 0 24.23c0,0.58 0.14,1.02 0.58,1.17 0.29,0.29 0.88,0.29 1.9,0.29l2.04 0 0 8.75 -7.3 0c-1.46,0 -2.77,-0.14 -4.08,-0.58 -1.17,-0.44 -2.19,-0.87 -3.07,-1.6 -0.87,-0.73 -1.6,-1.46 -2.04,-2.49 -0.44,-1.02 -0.73,-2.04 -0.73,-3.35l0 -26.42 0 0zm19.12 21.31c0,-2.04 0.29,-3.65 1.02,-5.11 0.73,-1.46 1.61,-2.63 2.77,-3.65 1.32,-1.02 2.63,-1.9 4.24,-2.48 1.46,-0.58 3.06,-1.17 4.81,-1.46 1.76,-0.44 3.36,-0.58 5.11,-0.73 1.61,-0.15 3.21,-0.29 4.82,-0.29 1.46,0 3.06,0.14 4.67,0.29 1.75,0.15 3.36,0.29 5.11,0.73 1.6,0.29 3.21,0.73 4.67,1.46 1.46,0.58 2.77,1.46 3.94,2.34 1.17,1.02 2.19,2.33 2.77,3.79 0.73,1.31 1.02,3.07 1.02,5.11 0,1.9 -0.29,3.65 -1.02,5.11 -0.58,1.46 -1.6,2.62 -2.62,3.65 -1.17,1.02 -2.49,1.89 -4.09,2.48 -1.46,0.73 -3.07,1.17 -4.67,1.46 -1.61,0.43 -3.36,0.58 -5.11,0.73 -1.61,0.14 -3.21,0.29 -4.67,0.29 -1.61,0 -3.21,-0.15 -4.82,-0.29 -1.75,-0.15 -3.5,-0.3 -5.11,-0.73 -1.75,-0.29 -3.35,-0.73 -4.96,-1.46 -1.46,-0.59 -2.92,-1.46 -4.09,-2.48 -1.16,-1.03 -2.04,-2.19 -2.77,-3.65 -0.73,-1.46 -1.02,-3.21 -1.02,-5.11zm22.33 4.09c0.73,0 1.61,0 2.63,0 1.17,0 2.19,-0.15 3.21,-0.44 1.02,-0.29 1.9,-0.59 2.63,-1.17 0.58,-0.58 1.02,-1.46 1.02,-2.48 0,-1.17 -0.44,-1.9 -1.02,-2.48 -0.73,-0.59 -1.61,-1.02 -2.63,-1.32 -1.02,-0.14 -2.04,-0.29 -3.21,-0.29 -1.02,0 -1.9,0 -2.63,0 -0.87,0 -1.75,0 -2.77,0 -1.02,0 -2.05,0 -3.07,0.29 -0.87,0.3 -1.75,0.73 -2.33,1.17 -0.73,0.59 -1.02,1.46 -1.02,2.63 0,1.02 0.29,1.9 1.02,2.48 0.58,0.58 1.46,1.02 2.33,1.31 1.02,0.15 1.9,0.3 3.07,0.3 1.02,0 1.9,0 2.77,0zm25.84 -17.23l12.69 0 0 2.78c2.63,-0.88 5.11,-1.61 7.74,-2.05 2.63,-0.58 5.11,-0.87 7.59,-0.87l0 9.63c-1.6,0 -3.21,0 -4.52,0 -1.46,0 -2.78,0 -3.94,0 -1.17,0 -2.34,0.15 -3.51,0.29 -1.17,0.15 -2.19,0.44 -3.36,0.73l0 15.76 -12.69 0 0 -26.27 0 0zm70.93 0l0 26.27c0,1.61 -0.29,3.07 -1.02,4.53 -0.58,1.31 -1.6,2.48 -2.92,3.36 -1.17,0.87 -2.77,1.6 -4.67,2.19 -1.75,0.43 -3.79,0.73 -6.13,0.73l-20.29 0 0 -8.62 16.06 0c2.33,0 4.09,-0.29 4.96,-0.58 0.88,-0.44 1.31,-1.31 1.46,-2.33l0 -2.34c-3.21,1.02 -6.28,1.9 -9.05,2.63 -2.63,0.58 -5.11,1.02 -7.44,1.02 -3.51,-0.15 -6.28,-1.02 -8.18,-2.63 -2.04,-1.75 -2.92,-4.23 -2.92,-7.59l0 -16.78 12.7 0 0 14.74c0,1.31 0.44,2.04 1.17,2.63 0.73,0.43 1.75,0.73 3.07,0.73 1.46,0 3.06,-0.3 4.96,-0.73 1.9,-0.59 3.79,-1.17 5.69,-1.76l0 -15.47 12.55 0 0 0z"/>
 </g>
</svg>
