<?xml version="1.0" encoding="UTF-8"?>
<!DOCTYPE svg PUBLIC "-//W3C//DTD SVG 1.1//EN" "http://www.w3.org/Graphics/SVG/1.1/DTD/svg11.dtd">
<!-- Creator: CorelDRAW 2020 (64-Bit) -->
<svg xmlns="http://www.w3.org/2000/svg" xml:space="preserve" width="560px" height="558px" version="1.1" style="shape-rendering:geometricPrecision; text-rendering:geometricPrecision; image-rendering:optimizeQuality; fill-rule:evenodd; clip-rule:evenodd"
viewBox="0 0 266.07 265.29"
 xmlns:xlink="http://www.w3.org/1999/xlink"
 xmlns:xodm="http://www.corel.com/coreldraw/odm/2003">
 <defs>
  <style type="text/css">
   <![CDATA[
    .fil0 {fill:none}
   ]]>
  </style>
 </defs>
 <g id="Layer_x0020_1">
  <metadata id="CorelCorpID_0Corel-Layer"/>
  <path class="fil0" d="M61.76 3.72c23.73,-2.76 47.63,-3.73 71.42,-3.72 23.79,0.01 47.67,0.97 71.42,3.74 27.41,3.2 54.62,30.43 57.77,57.84 2.78,24.13 3.71,48.36 3.7,72.54 -0.01,24.19 -0.95,48.43 -3.72,72.53 -3.16,27.41 -30.37,53.46 -57.75,55.88 -23.78,2.09 -47.63,2.77 -71.42,2.76 -23.79,-0.02 -47.67,-0.69 -71.42,-2.79 -27.37,-2.42 -54.68,-28.44 -57.93,-55.85 -2.85,-24.1 -3.84,-48.34 -3.83,-72.53 0.01,-24.18 0.95,-48.41 3.83,-72.54 3.27,-27.41 30.53,-54.68 57.93,-57.86zm86.74 109.06l16.53 -16.53 -9.4 -9.23 -15.84 15.84 0 0 0.18 0 0 0 0 0 0.17 0.18 0 0 0 0 0 0 0 0 0 0 0 0 0 0 0 0 0 0 0 0 0 0c0.18,0 0.18,0.17 0.35,0.17l0 0 0 0 0 0 0 0 0 0 0 0 0 0 0 0 0 0 0.17 0.17 0 0 0 0 0 0 0 0 0 0 0 0 0.18 0 0 0 0 0 0 0 0 0 0 0 0 0 0 0 0 0 0 0 0 0.18 0.17 0 0 0 0 0 0 0 0 0 0 0 0 0 0 0 0 0 0 0 0 0 0 0 0.18 0.17 0 0 0 0 0 0 0 0 0.17 0 0 0 0 0 0 0.18 0 0 0 0 0 0 0 0 0 0 0 0 0.17 0.17 0 0 0 0 0.18 0 0 0 0 0 0 0 0 0 0 0 0 0 0.17 0.17 0 0 0 0 0 0 0 0 0 0 0 0 0 0 0 0 0 0 0 0 0 0 0.18 0 0 0 0 0 0 0 0 0 0 0 0 0 0 0 0 0 0 0.18 0 0 0 0 0 0 0 0 0 0 0 0 0.17 0 0 0 0 0 0 0 0 0 0 0 0 0 0 0 0 0 0 0 0 0 0 0 0 0 0 0 0 0 0 0 0 0.17 0 0 0 0 0.17 0.18 0 0 0 0 0 0 0 0 0 0 0.18 0 0 0 0 0 0 0 0 0c0,0 0,0.17 0.17,0.17l0 0 0 0 0 0 0 0 0 0 0 0 0 0 0 0 0 0 0 0 0.18 0.17 0 0 0 0 0 0 0 0 0 0.18 0 0 0 0 0 0 0.17 0 0 0 0 0 0 0 0 0 0 0 0 0 0 0 0 0 0 0.17 0 0 0.17 0 0 0 0 0 0 0 0 0 0 0 0 0 0 0 0 0 0 0 0 0 0 0 0 0 0 0 0 0 0 0 0 0 0 0 0 0 0 0 0.18 0.18 0 0.17 0 0 0 0 0 0 0.17 0 0 0 0 0 0 0 0 0.17 0 0 0 0 0 0 0 0 0.18 0 0 0 0 0 0 0 0 0 0 0 0 0 0 0 0 0 0 0 0 0 0 0 0 0 0 0c0,0.18 0,0.18 0.17,0.18l0 0 0 0 0 0 0 0.17 0.17 0.18 0 0 0 0 0 0 0 0 0 0 0 0 0 0 0 0 0 0 0.18 0.17 0 0 0 0 0 0 0 0 0 0 0 0 0 0 0 0 0 0.17 0 0 0.17 0 0 0 0 0.18 0 0 0.18 0.17 0.17 0.18 0 0 0 0 0.17 0.17 0 0 0.18 0.35 0 0 0 0 0.17 0.17 0 0 0 0.18 0 0 0.18 0.17 0 0 0 0 0 0 0 0 0 0 0 0 0 0 0 0 0 0 0 0 0 0 0 0 0 0 0 0 0 0 0 0 0 0 0 0.17 0 0 0 0 0 0 0 0 0 0 0 0 0 0 0 0 0 0 0 0 0 0 0 0 0.17 0.18 0 0 0 0 0.17 0.17 0 0.18 0.18 0.17 0 0.17 0 0 0 0.18 0.17 0.17 0 0 0 0.18 0.18 0.17 0 0.18 0 0.17 0 0 0 0 0 0 0 0 0 0 0 0 0 0 0.17 0.17 0 0 0 0 0 0 0 0 0 0 0 0 0 0.18 0 0 0 0 0 0 0 0 0 0 0 0 0 0 0 0 0 0 0 0 0 0 0.18 0.17 0 0 0 0 0 0 0 0 0 0 0 0 0 0 0 0.18 0 0c0,0 0,0.17 0,0.17l0 0 0 0 0 0 0 0 0 0 0.17 0.17 0 0 0 0.18 0 0 0 0.17 0 0 0 0 0 0 0 0 0 0 0 0 0 0 0 0.18 0 0 0 0 0 0 0 0 0.17 0 0 0 0 0 0 0.17 0 0 0 0 0 0 0 0 0 0 0 0 0 0 0 0 0 0 0 0.17 0 0 0 0 0 0 0 0 0 0.18 0 0 0 0 0 0 0 0 0 0 0 0.17 -5.22 0c-3.48,0 -6.79,1.22 -9.22,3.14 -2.61,-1.92 -5.92,-3.14 -9.4,-3.14l-5.22 0 0 0 0 0 0 0c0,0 0,-0.17 0,-0.17l0 0 0 0 0 0 0 0 0 -0.18 0 0 0 -0.17 0 0 0.17 -0.17 0 0 0 0 0 0 0 0 0 0 0 0 0 0 0 -0.18 0 0 0 0 0 0 0 0 0 0 0 0 0 0 0 0 0 -0.17 0 0 0 0 0 0 0 0c0,0 0,-0.18 0.17,-0.18l0 0 0 0 0 -0.17 0 0 0 0 0 0 0 0 0 0 0 0 0 -0.17 0 0 0 0 0 0 0 0 0 0 0 0 0 -0.18 0.18 -0.17 0 -0.18 0 0 0.17 -0.17 0 -0.17 0 0 0 -0.18 0 0 0.17 -0.17 0 0 0 -0.18 0 0 0 -0.17 0 0 0.18 -0.18 0 -0.17 0 0 0.17 -0.17 0 0 0.18 -0.35 0 0 0 0 0 0 0 0 0 0 0 0 0 0 0 0 0 0 0 0 0 0 0 0 0.17 -0.18 0 0 0 0 0 0 0 0 0 0 0 0 0 0 0 0 0 -0.17 0.17 -0.17 0 -0.18 0 0 0 0 0 0 0 0 0.18 -0.17 0 0 0 0 0 0 0 0 0 0 0 0 0 0 0 0 0 0 0 0 0 -0.18 0 0 0.17 -0.17 0.18 -0.17 0 0 0 0 0 0 0.17 -0.18 0 -0.17 0.18 -0.18 0.17 -0.17 0 0 0 0 0 0 0.17 -0.17 0.18 -0.18 0 0 0 -0.17 0 0 0.17 -0.18 0 0 0 0 0.18 0 0 0 0 0 0 0 0 0 0 0 0 0 0 0 0 -0.17 0 0 0.17 0 0 0 0 0 0 0 0 0 0 0 0 0 0 0 0 0 0 0 0 -0.17 0.17 -0.18 0 0 0 0 0 0 0 0 0 0 0 0 0 0 0 0 0 0 0 0 0 0 0 0 0.18 0 0 0 0 0 0 -0.17 0 0 0 0 0 0 0 0 0 0 0 0 0 0 0 0 0 0 0 0 0 0 0 0 0 0 0.17 0 0 0 0 0 0 0 0 0 0 0 0 -0.18 0 0 0 0 0.18 -0.17 0 0 0 0 0 0 0 0 0 0 0 0 0 0 0 0 0 0 0 0 0 0 0 0 0.17 -0.17 0 0 0 0 0 0 0 0 0 0 0 0 0 0 0 0 0.17 0 0 0 0 0 0 0 0 0 0 0 0 0 0 0 0 0 0 0 0 -0.18 0.18 0 0 0 0 -0.17 0 0 0 0 0 0 0 0 0 0 0 0 0 0 0 0 0 0 0.17 0 0 -0.18 0 0 0 0 0 0 0 0 0 0 0.18 0 0 0 0 0 0 0 0 0 0 0 0 0 0 0 0 0 0 0 0 0 0.17 -0.17 0 0 0 0 0 0 0 0 0 0 0.17 0 0 0 0 0 0 0 0 0 0 0 0 0 0 0 0 0 0 -0.17 0 0 0 0 0.18 0 0 0 0 0 0 0 0 0 0 0 0 0 0 0 0 0 0 0 0 0 0 0 0 0 0 0 0 0 0 0 0 0 0 -0.18 0 0 0 0 0 0 0 0 0 0 0 0 0 0 0 0 0.17 0 0.18 -0.17 0 0 0 0 0 0 0 0 0 0 0 0 0 0 0 0 0 0 0 0 0 0 0 0 0 0 0 0 0 0 0.17 0 0 -0.18 0 0 0 0 0 0 0 0 0 0 0 0 0 0 0 0 0 0 0 0 0.17 0 0 0c0,0 0.18,0 0.18,-0.17l0 0 0 0 0 0 0 0 0 0 0 0 0 0 0.17 0 0 0 0 0 0 -0.17 0 0 0 0 0.18 0 0 0 0 0 0 0 0 0 0 0 0 0 0 0 0 0 0 0 0 0 0 0 0 0 0 0 0 0 0 0 0 0 0 0 0 0 0 0 0 0 0 0 0 0 0 0 0 0 -15.67 -15.84 -9.4 9.22 16.36 16.36 -22.97 0 0 13.23 27.67 0 0 0 0 0 0 0 0 0 0 0 0 0 0 0 0 0 0 0 0.18 0 0 0 0 0 0 0 0 0 0 0 0 0 0 0 0 0 0 0 0 0 0 0 0 0 0 0 0.17 0 0 0 0 0 0 0 0 0 0 0 0 0 0 0 0 0 0 0 0 0 0 0 0 0 0 0 0.18 0 0 0 0 0 0 0 0 0 0 0 0 0 0 0 0 0 0 0 0 0 0 0 0 0 0 0 0 0 0 0 0 0 0.17 0 0 0 0 0 0 0 0 0 0 0.18 0 0c1.57,0.34 2.78,1.39 3.48,2.61l0 0 0 0.17 0 0 0 0 0 0 0 0 0.18 0.17 0 0 0 0 0 0 0 0 0 0 0 0 0 0.18 0 0 0 0 0 0 0.17 0.17 0 0 0 0 0 0 0 0 0 0.18 0 0c0,0 0,0 0,0.17l0 0 0 0 0.17 0 0 0.17 0 0 0 0 0 0 0 0 0 0.18 0 0 0 0 0 0 0 0.17 0 0 0 0 0 0 0 0 0 0 0.18 0.18 0 0 0 0 0 0 0 0.17 0 0 0 0 0 0 0 0 0 0.18 0 0 0 0 0 0 0 0 0 0.17 0 0 0 0c0,0.17 0,0.17 0,0.35l0 0 0 0 0 0 0 0.17 0 0.18 0.17 0 0 0 12.53 0 0.53 0 0 0 0 0 0 0 0.17 0 0 0 0 0 0 -0.18c0,-2.61 1.74,-4.87 4.18,-5.57l0 0 0 0c0.17,0 0.52,0 0.69,0l27.68 0 0 -0.17 0 0 0 -13.06 -22.98 0 -0.35 0 0.01 0zm-9.4 -10.27l0 -22.28 -13.23 0 0 22.28 0 0 0 0 0.17 0 0 0 0 0 0 0 0 0 0.18 -0.17 0 0 0 0 0 0 0 0 0 0 0 0 0.17 0 0 0 0 0c0,0 0,0 0.17,-0.18l0 0 0 0 0 0 0 0 0 0 0 0 0 0c0.18,0 0.18,0 0.35,0l0 0 0 -0.17 0 0 0 0 0 0 0 0 0 0 0 0 0 0 0.35 0 0 0 0 0 0 0 0 0 0 0 0 0 0 0 0 0 0 0 0 0 0 0 0 0 0 0 0 0 0 0 0 0 0 0 0 0 0 0 0 0 0 0 0 0 0 0 0 0 0 0 0.17 0 0 0 0 0 0.18 -0.17 0 0 0 0 0 0 0 0 0 0 0 0 0 0 0 0 0 0 0 0 0 0 0.35 -0.18 0 0 0 0 0.17 0 0 0 0.35 0 0 0 0 -0.17 0 0 0.35 0 0.17 0 0.18 -0.18 0 0 0.17 0 0 0 0.17 0 0.18 0 0 0 0 0 0 0 0 0 0 0 0 0 0 0 0 0c0,0 0.17,0 0.17,0l0 0 0 0 0 0 0 -0.17 0 0 0 0 0.18 0 0 0c0,0 0.17,0 0.17,0l0 0 0 0 0 0 0.17 0 0 0 0 0 0 0 0.18 0 0 0 0 0 0 0 0 0 0 0 0 0 0 0 0 0 0.17 0 0 0 0 0 0 0 0 0 0 0 0 0 0 0 0 0 0 0c0.18,0 0.18,0 0.35,0l0 0 0 0 0 0 0 0 0 0 0 0 0 0 0 0c0.17,-0.17 0.17,-0.17 0.35,-0.17l0 0 0 0 0 0 0 0 0 0c0.17,0 0.17,0 0.35,0l0 0 0 0 0 0c0.17,0 0.34,0 0.34,0l0 0c0.18,0 0.35,0 0.53,0 0,0 0.17,0 0.34,0l0 0 0 0c0,0 0.18,0 0.35,0l0 0 0 0 0 0 0 0 0 0 0 0 0 0c0.18,0 0.18,0 0.35,0l0 0 0 0 0 0 0 0 0 0 0 0 0 0 0 0 0 0c0.17,0 0.17,0 0.35,0.17l0 0 0 0 0 0 0 0 0 0 0 0 0 0 0 0c0.17,0 0.35,0 0.35,0l0 0 0.17 0 0 0c0,0 0.18,0 0.18,0l0.17 0 0 0 0 0 0 0 0 0 0 0 0 0 0 0c0,0 0.17,0 0.35,0l0 0 0 0 0 0 0 0 0 0c0,0.17 0.17,0.17 0.34,0.17l0 0 0 0 0 0 0 0 0 0 0 0 0 0 0 0 0 0 0 0 0 0c0.18,0 0.18,0 0.35,0l0 0 0 0 0 0 0 0 0 0 0 0 0 0 0 0 0 0c0.18,0 0.18,0.18 0.35,0.18l0 0 0 0 0 0 0 0 0 0 0 0 0 0 0 0 0 0 0 0c0.18,0 0.18,0 0.35,0l0 0 0 0 0 0 0 0c0.17,0.17 0.17,0.17 0.35,0.17l0 0 0 0 0 0 0 0c0.17,0 0.17,0 0.35,0.18l0 0 0 0 0 0 0 0 0 0c0.17,0 0.17,0 0.34,0l0 0 0 0 0 0 0 0c0.18,0.17 0.18,0.17 0.35,0.17l0 0 0 0 0 0 0 0 0 0 0 0 0 0 0 0 0 0 0 0c0.18,0 0.18,0.17 0.35,0.17l0 0 0 0 0 0 0 0 0 0 0 0 0 0 0 0 0 0 0 0 0.35 0.18 0 0 0 0 0 0 0 0 0 0 0 0 0 0 0 0 0 0 0 0 0 0 0 0c0,0 0.17,0 0.17,0l0 0 0.18 0.17 0 0 0 0 0 0zm-103.75 82.69l0 -9.36c2.86,0.95 5.71,1.59 8.73,1.91 3.01,0.31 6.18,0.47 9.67,0.47 1.11,0 2.22,-0.16 3.33,-0.16 1.11,0 2.06,-0.16 3.01,-0.31 0.8,-0.16 1.59,-0.32 2.07,-0.48 0.47,-0.16 0.63,-0.48 0.47,-0.63 0,-0.32 -0.47,-0.48 -1.43,-0.48 -0.79,0 -1.9,0 -3.33,0 -1.42,0 -3.01,0.16 -4.6,0.16 -1.74,0.16 -3.49,0.16 -5.23,0.16 -1.9,-0.16 -3.49,-0.16 -5.23,-0.48 -1.75,-0.16 -3.18,-0.47 -4.6,-0.95 -1.27,-0.48 -2.38,-1.11 -3.17,-1.9 -0.8,-0.96 -1.12,-1.91 -1.12,-3.33 0,-0.96 0.32,-1.91 0.8,-2.7 0.63,-0.63 1.43,-1.43 2.54,-1.9 -1.11,-0.8 -2.07,-1.91 -2.7,-3.02 -0.64,-1.27 -0.95,-2.53 -0.95,-4.12 0,-1.75 0.31,-3.01 1.11,-4.28 0.63,-1.11 1.58,-2.06 2.85,-3.02 1.11,-0.79 2.38,-1.42 3.97,-1.9 1.58,-0.63 3.17,-0.95 4.91,-1.27 1.59,-0.32 3.33,-0.47 4.92,-0.63 1.75,-0.16 3.33,-0.16 4.76,-0.16l2.06 0 0 0c4.92,0 9.2,-0.16 12.69,-0.64 3.49,-0.47 6.18,-1.26 7.77,-2.22 -0.48,1.59 -1.11,3.02 -1.74,4.29 -0.64,1.11 -1.43,2.06 -2.38,2.69 1.11,0.95 1.9,1.91 2.53,3.02 0.64,1.11 0.96,2.53 0.96,4.12 0,1.59 -0.32,3.01 -0.96,4.12 -0.63,1.27 -1.58,2.22 -2.69,3.02 -1.11,0.95 -2.38,1.58 -3.81,2.06 -1.58,0.63 -3.01,0.95 -4.76,1.27 -1.58,0.31 -3.17,0.47 -4.91,0.63 -1.59,0.16 -3.18,0.16 -4.6,0.16 -1.11,0 -2.22,0 -3.49,0.16 -1.11,0 -2.38,0 -3.33,0 -1.11,0.16 -2.06,0.16 -2.7,0.32 -0.63,0 -0.95,0.31 -0.79,0.47 0,0.16 0.63,0.32 1.58,0.32 0.96,0 2.22,-0.16 3.81,-0.16 1.43,0 3.33,-0.16 5.23,-0.16 1.91,-0.16 3.97,-0.16 6.03,-0.16 2.06,0 3.97,0.16 5.87,0.32 2.06,0.32 3.65,0.63 5.23,1.11 1.59,0.63 2.7,1.27 3.65,2.22 0.95,0.95 1.43,2.06 1.43,3.49 0,1.27 -0.48,2.38 -1.27,3.49 -0.95,0.95 -2.06,1.9 -3.49,2.54 -1.43,0.79 -3.01,1.42 -4.92,1.9 -1.74,0.48 -3.49,0.95 -5.39,1.27 -1.9,0.32 -3.65,0.47 -5.39,0.63 -1.59,0 -3.17,0.16 -4.44,0.16 -3.33,0 -6.5,-0.16 -9.52,-0.47 -3.17,-0.16 -6.18,-0.8 -9.04,-1.59l0 0zm20.78 -24.11c0.79,0 1.74,-0.16 2.54,-0.16 0.95,-0.15 1.74,-0.31 2.53,-0.63 0.64,-0.16 1.27,-0.48 1.75,-0.95 0.47,-0.32 0.79,-0.8 0.79,-1.27 0,-0.63 -0.32,-1.11 -0.79,-1.43 -0.48,-0.32 -1.11,-0.63 -1.75,-0.95 -0.79,-0.16 -1.58,-0.32 -2.53,-0.48 -0.8,-0.15 -1.75,-0.15 -2.54,-0.15 -0.79,0 -1.75,0 -2.7,0.15 -0.95,0 -1.74,0.16 -2.54,0.48 -0.79,0.16 -1.58,0.48 -2.06,0.79 -0.63,0.48 -0.79,0.96 -0.79,1.59 0,0.47 0.16,0.95 0.79,1.43 0.48,0.31 1.11,0.63 1.91,0.95 0.79,0.16 1.74,0.32 2.69,0.47 0.95,0 1.91,0.16 2.7,0.16zm25.37 -22.52l13.8 0 0 26.33c0,0.63 0.16,1.11 0.64,1.27 0.31,0.32 0.95,0.32 2.06,0.32l2.22 0 0 9.51 -7.93 0c-1.59,0 -3.01,-0.16 -4.44,-0.63 -1.27,-0.48 -2.38,-0.96 -3.33,-1.75 -0.95,-0.79 -1.75,-1.58 -2.22,-2.69 -0.48,-1.11 -0.8,-2.22 -0.8,-3.65l0 -28.71 0 0zm20.78 23.16c0,-2.22 0.32,-3.97 1.11,-5.55 0.79,-1.59 1.75,-2.86 3.01,-3.97 1.43,-1.11 2.86,-2.06 4.6,-2.69 1.59,-0.64 3.33,-1.27 5.24,-1.59 1.9,-0.48 3.65,-0.64 5.55,-0.79 1.74,-0.16 3.49,-0.32 5.23,-0.32 1.59,0 3.33,0.16 5.08,0.32 1.9,0.15 3.65,0.31 5.55,0.79 1.74,0.32 3.49,0.79 5.07,1.59 1.59,0.63 3.02,1.58 4.29,2.53 1.26,1.11 2.37,2.54 3.01,4.13 0.79,1.42 1.11,3.33 1.11,5.55 0,2.06 -0.32,3.96 -1.11,5.55 -0.64,1.58 -1.75,2.85 -2.86,3.96 -1.26,1.11 -2.69,2.07 -4.44,2.7 -1.58,0.79 -3.33,1.27 -5.07,1.59 -1.75,0.47 -3.65,0.63 -5.55,0.79 -1.75,0.16 -3.49,0.32 -5.08,0.32 -1.74,0 -3.49,-0.16 -5.23,-0.32 -1.9,-0.16 -3.81,-0.32 -5.55,-0.79 -1.91,-0.32 -3.65,-0.8 -5.39,-1.59 -1.59,-0.63 -3.18,-1.59 -4.45,-2.7 -1.26,-1.11 -2.22,-2.38 -3.01,-3.96 -0.79,-1.59 -1.11,-3.49 -1.11,-5.55zm24.27 4.44c0.79,0 1.74,0 2.85,0 1.27,0 2.38,-0.16 3.49,-0.48 1.11,-0.32 2.06,-0.63 2.86,-1.27 0.63,-0.63 1.11,-1.58 1.11,-2.69 0,-1.27 -0.48,-2.07 -1.11,-2.7 -0.8,-0.63 -1.75,-1.11 -2.86,-1.43 -1.11,-0.15 -2.22,-0.31 -3.49,-0.31 -1.11,0 -2.06,0 -2.85,0 -0.95,0 -1.91,0 -3.02,0 -1.11,0 -2.22,0 -3.33,0.31 -0.95,0.32 -1.9,0.8 -2.53,1.27 -0.8,0.64 -1.11,1.59 -1.11,2.86 0,1.11 0.31,2.06 1.11,2.69 0.63,0.64 1.58,1.11 2.53,1.43 1.11,0.16 2.07,0.32 3.33,0.32 1.11,0 2.07,0 3.02,0zm28.07 -18.72l13.8 0 0 3.02c2.85,-0.95 5.55,-1.75 8.4,-2.22 2.86,-0.64 5.55,-0.96 8.25,-0.96l0 10.47c-1.74,0 -3.49,0 -4.92,0 -1.58,0 -3.01,0 -4.28,0 -1.27,0 -2.54,0.16 -3.81,0.32 -1.26,0.16 -2.37,0.47 -3.64,0.79l0 17.13 -13.8 0 0 -28.55 0 0zm77.08 0l0 28.55c0,1.75 -0.32,3.33 -1.11,4.92 -0.64,1.43 -1.75,2.69 -3.17,3.65 -1.27,0.95 -3.02,1.74 -5.08,2.37 -1.9,0.48 -4.12,0.8 -6.66,0.8l-22.05 0 0 -9.36 17.45 0c2.54,0 4.44,-0.32 5.39,-0.63 0.95,-0.48 1.43,-1.43 1.59,-2.54l0 -2.54c-3.49,1.11 -6.82,2.06 -9.83,2.86 -2.86,0.63 -5.56,1.11 -8.09,1.11 -3.81,-0.16 -6.82,-1.11 -8.88,-2.86 -2.22,-1.9 -3.18,-4.6 -3.18,-8.25l0 -18.24 13.8 0 0 16.02c0,1.43 0.48,2.22 1.27,2.86 0.79,0.47 1.9,0.79 3.33,0.79 1.59,0 3.33,-0.32 5.39,-0.79 2.07,-0.64 4.13,-1.27 6.19,-1.91l0 -16.81 13.64 0 0 0z"/>
 </g>
</svg>
