<?xml version="1.0" encoding="UTF-8"?>
<!DOCTYPE svg PUBLIC "-//W3C//DTD SVG 1.1//EN" "http://www.w3.org/Graphics/SVG/1.1/DTD/svg11.dtd">
<!-- Creator: CorelDRAW 2020 (64-Bit) -->
<svg xmlns="http://www.w3.org/2000/svg" xml:space="preserve" width="560px" height="558px" version="1.1" style="shape-rendering:geometricPrecision; text-rendering:geometricPrecision; image-rendering:optimizeQuality; fill-rule:evenodd; clip-rule:evenodd"
viewBox="0 0 268.9 268.1"
 xmlns:xlink="http://www.w3.org/1999/xlink"
 xmlns:xodm="http://www.corel.com/coreldraw/odm/2003">
 <defs>
  <style type="text/css">
   <![CDATA[
    .fil0 {fill:#E4A3A0}
    .fil1 {fill:white}
    .fil2 {fill:white;fill-rule:nonzero}
   ]]>
  </style>
 </defs>
 <g id="Layer_x0020_1">
  <metadata id="CorelCorpID_0Corel-Layer"/>
  <path class="fil0" d="M62.42 3.75c23.97,-2.78 48.13,-3.76 72.18,-3.75 24.04,0.01 48.17,0.98 72.18,3.78 27.69,3.23 55.19,30.76 58.38,58.45 2.81,24.39 3.75,48.88 3.74,73.31 -0.02,24.46 -0.96,48.94 -3.77,73.31 -3.19,27.69 -30.69,54.02 -58.35,56.46 -24.04,2.12 -48.14,2.81 -72.18,2.79 -24.05,-0.01 -48.18,-0.69 -72.18,-2.81 -27.67,-2.44 -55.27,-28.75 -58.55,-56.44 -2.88,-24.36 -3.88,-48.85 -3.87,-73.31 0.01,-24.43 0.96,-48.92 3.87,-73.31 3.31,-27.7 30.85,-55.26 58.55,-58.48z"/>
  <path class="fil1" d="M150.07 113.98l16.71 -16.71 -9.49 -9.32 -16.01 16 0 0 0.17 0 0 0 0 0 0.18 0.18 0 0 0 0 0 0 0 0 0 0 0 0 0 0 0 0 0 0 0 0 0 0c0.18,0 0.18,0.17 0.35,0.17l0 0 0 0 0 0 0 0 0 0 0 0 0 0 0 0 0 0 0.18 0.18 0 0 0 0 0 0 0 0 0 0 0 0 0.17 0 0 0 0 0 0 0 0 0 0 0 0 0 0 0 0 0 0 0 0 0.18 0.18 0 0 0 0 0 0 0 0 0 0 0 0 0 0 0 0 0 0 0 0 0 0 0 0.17 0.17 0 0 0 0 0 0 0 0 0.18 0 0 0 0 0 0 0.18 0 0 0 0 0 0 0 0 0 0 0 0 0.18 0.17 0 0 0 0 0.17 0 0 0 0 0 0 0 0 0 0 0 0 0 0.18 0.18 0 0 0 0 0 0 0 0 0 0 0 0 0 0 0 0 0 0 0 0 0 0 0.17 0 0 0 0 0 0 0 0 0 0 0 0 0 0 0 0 0 0 0.18 0 0 0 0 0 0 0 0 0 0 0 0 0.18 0 0 0 0 0 0 0 0 0 0 0 0 0 0 0 0 0 0 0 0 0 0 0 0 0 0 0 0 0 0 0 0 0.17 0 0 0 0 0.18 0.18 0 0 0 0 0 0 0 0 0 0 0.17 0 0 0 0 0 0 0 0 0c0,0 0,0.17 0.18,0.17l0 0 0 0 0 0 0 0 0 0 0 0 0 0 0 0 0 0 0 0 0.17 0.18 0 0 0 0 0 0 0 0 0 0.18 0 0 0 0 0 0 0.18 0 0 0 0 0 0 0 0 0 0 0 0 0 0 0 0 0 0 0.17 0 0 0.18 0 0 0 0 0 0 0 0 0 0 0 0 0 0 0 0 0 0 0 0 0 0 0 0 0 0 0 0 0 0 0 0 0 0 0 0 0 0 0 0.17 0.18 0 0.17 0 0 0 0 0 0 0.18 0 0 0 0 0 0 0 0 0.18 0 0 0 0 0 0 0 0 0.17 0 0 0 0 0 0 0 0 0 0 0 0 0 0 0 0 0 0 0 0 0 0 0 0 0 0 0c0,0.18 0,0.18 0.18,0.18l0 0 0 0 0 0 0 0.17 0.18 0.18 0 0 0 0 0 0 0 0 0 0 0 0 0 0 0 0 0 0 0.17 0.17 0 0 0 0 0 0 0 0 0 0 0 0 0 0 0 0 0 0.18 0 0 0.18 0 0 0 0 0.17 0 0 0.17 0.18 0.18 0.18 0 0 0 0 0.17 0.17 0 0 0.18 0.35 0 0 0 0 0.18 0.18 0 0 0 0.18 0 0 0.17 0.17 0 0 0 0 0 0 0 0 0 0 0 0 0 0 0 0 0 0 0 0 0 0 0 0 0 0 0 0 0 0 0 0 0 0 0 0.18 0 0 0 0 0 0 0 0 0 0 0 0 0 0 0 0 0 0 0 0 0 0 0 0 0.18 0.17 0 0 0 0 0.17 0.18 0 0.18 0.18 0.17 0 0.18 0 0 0 0.17 0.18 0.18 0 0 0 0.18 0.17 0.17 0 0.18 0 0.17 0 0 0 0 0 0 0 0 0 0 0 0 0 0 0.18 0.18 0 0 0 0 0 0 0 0 0 0 0 0 0 0.17 0 0 0 0 0 0 0 0 0 0 0 0 0 0 0 0 0 0 0 0 0 0 0.17 0.18 0 0 0 0 0 0 0 0 0 0 0 0 0 0 0 0.18 0 0c0,0 0,0.17 0,0.17l0 0 0 0 0 0 0 0 0 0 0.18 0.18 0 0 0 0.17 0 0 0 0.18 0 0 0 0 0 0 0 0 0 0 0 0 0 0 0 0.18 0 0 0 0 0 0 0 0 0.18 0 0 0 0 0 0 0.17 0 0 0 0 0 0 0 0 0 0 0 0 0 0 0 0 0 0 0 0.18 0 0 0 0 0 0 0 0 0 0.17 0 0 0 0 0 0 0 0 0 0 0 0.18 -5.28 0c-3.52,0 -6.86,1.23 -9.33,3.17 -2.63,-1.94 -5.98,-3.17 -9.49,-3.17l-5.28 0 0 0 0 0 0 0c0,0 0,-0.18 0,-0.18l0 0 0 0 0 0 0 0 0 -0.17 0 0 0 -0.18 0 0 0.17 -0.17 0 0 0 0 0 0 0 0 0 0 0 0 0 0 0 -0.18 0 0 0 0 0 0 0 0 0 0 0 0 0 0 0 0 0 -0.18 0 0 0 0 0 0 0 0c0,0 0,-0.17 0.18,-0.17l0 0 0 0 0 -0.18 0 0 0 0 0 0 0 0 0 0 0 0 0 -0.17 0 0 0 0 0 0 0 0 0 0 0 0 0 -0.18 0.18 -0.18 0 -0.17 0 0 0.17 -0.18 0 -0.17 0 0 0 -0.18 0 0 0.18 -0.17 0 0 0 -0.18 0 0 0 -0.18 0 0 0.17 -0.17 0 -0.18 0 0 0.18 -0.17 0 0 0.18 -0.36 0 0 0 0 0 0 0 0 0 0 0 0 0 0 0 0 0 0 0 0 0 0 0 0 0.17 -0.17 0 0 0 0 0 0 0 0 0 0 0 0 0 0 0 0 0 -0.18 0.18 -0.17 0 -0.18 0 0 0 0 0 0 0 0 0.17 -0.18 0 0 0 0 0 0 0 0 0 0 0 0 0 0 0 0 0 0 0 0 0 -0.17 0 0 0.18 -0.18 0.17 -0.17 0 0 0 0 0 0 0.18 -0.18 0 -0.18 0.18 -0.17 0.17 -0.18 0 0 0 0 0 0 0.18 -0.17 0.17 -0.18 0 0 0 -0.17 0 0 0.18 -0.18 0 0 0 0 0.18 0 0 0 0 0 0 0 0 0 0 0 0 0 0 0 0 -0.18 0 0 0.17 0 0 0 0 0 0 0 0 0 0 0 0 0 0 0 0 0 0 0 0 -0.17 0.18 -0.18 0 0 0 0 0 0 0 0 0 0 0 0 0 0 0 0 0 0 0 0 0 0 0 0 0.17 0 0 0 0 0 0 -0.17 0 0 0 0 0 0 0 0 0 0 0 0 0 0 0 0 0 0 0 0 0 0 0 0 0 0 0.18 0 0 0 0 0 0 0 0 0 0 0 0 -0.18 0 0 0 0 0.18 -0.18 0 0 0 0 0 0 0 0 0 0 0 0 0 0 0 0 0 0 0 0 0 0 0 0 0.17 -0.17 0 0 0 0 0 0 0 0 0 0 0 0 0 0 0 0 0.18 0 0 0 0 0 0 0 0 0 0 0 0 0 0 0 0 0 0 0 0 -0.18 0.17 0 0 0 0 -0.17 0 0 0 0 0 0 0 0 0 0 0 0 0 0 0 0 0 0 0.18 0 0 -0.18 0 0 0 0 0 0 0 0 0 0 0.18 0 0 0 0 0 0 0 0 0 0 0 0 0 0 0 0 0 0 0 0 0 0.17 -0.18 0 0 0 0 0 0 0 0 0 0 0.18 0 0 0 0 0 0 0 0 0 0 0 0 0 0 0 0 0 0 -0.17 0 0 0 0 0.17 0 0 0 0 0 0 0 0 0 0 0 0 0 0 0 0 0 0 0 0 0 0 0 0 0 0 0 0 0 0 0 0 0 0 -0.18 0 0 0 0 0 0 0 0 0 0 0 0 0 0 0 0 0.18 0 0.17 -0.17 0 0 0 0 0 0 0 0 0 0 0 0 0 0 0 0 0 0 0 0 0 0 0 0 0 0 0 0 0 0 0.18 0 0 -0.18 0 0 0 0 0 0 0 0 0 0 0 0 0 0 0 0 0 0 0 0 0.18 0 0 0c0,0 0.17,0 0.17,-0.18l0 0 0 0 0 0 0 0 0 0 0 0 0 0 0.18 0 0 0 0 0 0 -0.17 0 0 0 0 0.17 0 0 0 0 0 0 0 0 0 0 0 0 0 0 0 0 0 0 0 0 0 0 0 0 0 0 0 0 0 0 0 0 0 0 0 0 0 0 0 0 0 0 0 0 0 0 0 0 0 -15.83 -16.01 -9.5 9.32 16.54 16.54 -23.22 0 0 13.37 27.97 0 0 0 0 0 0 0 0 0 0 0 0 0 0 0 0 0 0 0 0.17 0 0 0 0 0 0 0 0 0 0 0 0 0 0 0 0 0 0 0 0 0 0 0 0 0 0 0 0.18 0 0 0 0 0 0 0 0 0 0 0 0 0 0 0 0 0 0 0 0 0 0 0 0 0 0 0 0.18 0 0 0 0 0 0 0 0 0 0 0 0 0 0 0 0 0 0 0 0 0 0 0 0 0 0 0 0 0 0 0 0 0 0.17 0 0 0 0 0 0 0 0 0 0 0.18 0 0c1.59,0.35 2.82,1.4 3.52,2.63l0 0 0 0.18 0 0 0 0 0 0 0 0 0.18 0.18 0 0 0 0 0 0 0 0 0 0 0 0 0 0.17 0 0 0 0 0 0 0.17 0.18 0 0 0 0 0 0 0 0 0 0.17 0 0c0,0 0,0 0,0.18l0 0 0 0 0.18 0 0 0.18 0 0 0 0 0 0 0 0 0 0.17 0 0 0 0 0 0 0 0.18 0 0 0 0 0 0 0 0 0 0 0.17 0.17 0 0 0 0 0 0 0 0.18 0 0 0 0 0 0 0 0 0 0.18 0 0 0 0 0 0 0 0 0 0.17 0 0 0 0c0,0.18 0,0.18 0,0.35l0 0 0 0 0 0 0 0.18 0 0.17 0.18 0 0 0 12.67 0 0.52 0 0 0 0 0 0 0 0.18 0 0 0 0 0 0 -0.17c0,-2.64 1.76,-4.93 4.22,-5.63l0 0 0 0c0.18,0 0.53,0 0.7,0l27.98 0 0 -0.18 0 0 0 -13.19 -23.23 0 -0.35 0 0 0zm-9.5 -10.38l0 -22.52 -13.37 0 0 22.52 0 0 0 0 0.18 0 0 0 0 0 0 0 0 0 0.18 -0.17 0 0 0 0 0 0 0 0 0 0 0 0 0.17 0 0 0 0 0c0,0 0,0 0.18,-0.18l0 0 0 0 0 0 0 0 0 0 0 0 0 0c0.17,0 0.17,0 0.35,0l0 0 0 -0.18 0 0 0 0 0 0 0 0 0 0 0 0 0 0 0.35 0 0 0 0 0 0 0 0 0 0 0 0 0 0 0 0 0 0 0 0 0 0 0 0 0 0 0 0 0 0 0 0 0 0 0 0 0 0 0 0 0 0 0 0 0 0 0 0 0 0 0 0.18 0 0 0 0 0 0.17 -0.17 0 0 0 0 0 0 0 0 0 0 0 0 0 0 0 0 0 0 0 0 0 0 0.36 -0.18 0 0 0 0 0.17 0 0 0 0.35 0 0 0 0 -0.17 0 0 0.35 0 0.18 0 0.18 -0.18 0 0 0.17 0 0 0 0.18 0 0.17 0 0 0 0 0 0 0 0 0 0 0 0 0 0 0 0 0c0,0 0.18,0 0.18,0l0 0 0 0 0 0 0 -0.18 0 0 0 0 0.18 0 0 0c0,0 0.17,0 0.17,0l0 0 0 0 0 0 0.18 0 0 0 0 0 0 0 0.17 0 0 0 0 0 0 0 0 0 0 0 0 0 0 0 0 0 0.18 0 0 0 0 0 0 0 0 0 0 0 0 0 0 0 0 0 0 0c0.18,0 0.18,0 0.35,0l0 0 0 0 0 0 0 0 0 0 0 0 0 0 0 0c0.18,-0.17 0.18,-0.17 0.35,-0.17l0 0 0 0 0 0 0 0 0 0c0.18,0 0.18,0 0.36,0l0 0 0 0 0 0c0.17,0 0.35,0 0.35,0l0 0c0.17,0 0.35,0 0.52,0 0,0 0.18,0 0.36,0l0 0 0 0c0,0 0.17,0 0.35,0l0 0 0 0 0 0 0 0 0 0 0 0 0 0c0.17,0 0.17,0 0.35,0l0 0 0 0 0 0 0 0 0 0 0 0 0 0 0 0 0 0c0.18,0 0.18,0 0.35,0.17l0 0 0 0 0 0 0 0 0 0 0 0 0 0 0 0c0.18,0 0.35,0 0.35,0l0 0 0.18 0 0 0c0,0 0.18,0 0.18,0l0.17 0 0 0 0 0 0 0 0 0 0 0 0 0 0 0c0,0 0.18,0 0.35,0l0 0 0 0 0 0 0 0 0 0c0,0.18 0.18,0.18 0.36,0.18l0 0 0 0 0 0 0 0 0 0 0 0 0 0 0 0 0 0 0 0 0 0c0.17,0 0.17,0 0.35,0l0 0 0 0 0 0 0 0 0 0 0 0 0 0 0 0 0 0c0.17,0 0.17,0.18 0.35,0.18l0 0 0 0 0 0 0 0 0 0 0 0 0 0 0 0 0 0 0 0c0.17,0 0.17,0 0.35,0l0 0 0 0 0 0 0 0c0.18,0.17 0.18,0.17 0.35,0.17l0 0 0 0 0 0 0 0c0.18,0 0.18,0 0.35,0.18l0 0 0 0 0 0 0 0 0 0c0.18,0 0.18,0 0.36,0l0 0 0 0 0 0 0 0c0.17,0.17 0.17,0.17 0.35,0.17l0 0 0 0 0 0 0 0 0 0 0 0 0 0 0 0 0 0 0 0c0.17,0 0.17,0.18 0.35,0.18l0 0 0 0 0 0 0 0 0 0 0 0 0 0 0 0 0 0 0 0 0.35 0.18 0 0 0 0 0 0 0 0 0 0 0 0 0 0 0 0 0 0 0 0 0 0 0 0c0,0 0.18,0 0.18,0l0 0 0.17 0.17 0 0 0 0 0 0z"/>
  <path class="fil2" d="M35.73 187.17l0 -9.46c2.88,0.96 5.77,1.6 8.81,1.92 3.05,0.32 6.25,0.48 9.78,0.48 1.12,0 2.24,-0.16 3.37,-0.16 1.12,0 2.08,-0.16 3.04,-0.32 0.8,-0.16 1.6,-0.32 2.08,-0.48 0.49,-0.16 0.65,-0.48 0.49,-0.64 0,-0.32 -0.49,-0.48 -1.45,-0.48 -0.8,0 -1.92,0 -3.36,0 -1.45,0 -3.05,0.16 -4.65,0.16 -1.76,0.16 -3.53,0.16 -5.29,0.16 -1.92,-0.16 -3.53,-0.16 -5.29,-0.48 -1.76,-0.16 -3.21,-0.48 -4.65,-0.96 -1.28,-0.48 -2.4,-1.12 -3.2,-1.92 -0.8,-0.97 -1.13,-1.93 -1.13,-3.37 0,-0.96 0.33,-1.92 0.81,-2.73 0.64,-0.64 1.44,-1.44 2.56,-1.92 -1.12,-0.8 -2.08,-1.92 -2.72,-3.04 -0.65,-1.29 -0.97,-2.57 -0.97,-4.17 0,-1.76 0.32,-3.05 1.13,-4.33 0.64,-1.12 1.6,-2.08 2.88,-3.04 1.12,-0.81 2.41,-1.45 4.01,-1.93 1.6,-0.64 3.2,-0.96 4.97,-1.28 1.6,-0.32 3.36,-0.48 4.97,-0.64 1.76,-0.16 3.36,-0.16 4.8,-0.16l2.09 0 0 0c4.97,0 9.29,-0.16 12.82,-0.64 3.53,-0.48 6.25,-1.28 7.85,-2.25 -0.48,1.61 -1.12,3.05 -1.76,4.33 -0.64,1.12 -1.44,2.08 -2.4,2.73 1.12,0.96 1.92,1.92 2.56,3.04 0.64,1.12 0.96,2.57 0.96,4.17 0,1.6 -0.32,3.04 -0.96,4.17 -0.64,1.28 -1.6,2.24 -2.72,3.04 -1.13,0.96 -2.41,1.6 -3.85,2.09 -1.6,0.64 -3.05,0.96 -4.81,1.28 -1.6,0.32 -3.2,0.48 -4.97,0.64 -1.6,0.16 -3.2,0.16 -4.65,0.16 -1.12,0 -2.24,0 -3.52,0.16 -1.12,0 -2.41,0 -3.37,0 -1.12,0.16 -2.08,0.16 -2.72,0.32 -0.64,0 -0.96,0.32 -0.8,0.48 0,0.16 0.64,0.32 1.6,0.32 0.96,0 2.24,-0.16 3.85,-0.16 1.44,0 3.36,-0.16 5.29,-0.16 1.92,-0.16 4,-0.16 6.09,-0.16 2.08,0 4,0.16 5.93,0.32 2.08,0.32 3.68,0.64 5.29,1.12 1.6,0.64 2.72,1.29 3.68,2.25 0.96,0.96 1.45,2.08 1.45,3.52 0,1.29 -0.49,2.41 -1.29,3.53 -0.96,0.96 -2.08,1.92 -3.52,2.56 -1.45,0.81 -3.05,1.45 -4.97,1.93 -1.77,0.48 -3.53,0.96 -5.45,1.28 -1.93,0.32 -3.69,0.48 -5.45,0.64 -1.6,0 -3.21,0.16 -4.49,0.16 -3.37,0 -6.57,-0.16 -9.62,-0.48 -3.2,-0.16 -6.25,-0.8 -9.13,-1.6l0 0zm20.99 -24.37c0.81,0 1.77,-0.16 2.57,-0.16 0.96,-0.16 1.76,-0.32 2.56,-0.64 0.64,-0.16 1.29,-0.48 1.77,-0.96 0.48,-0.32 0.8,-0.8 0.8,-1.28 0,-0.64 -0.32,-1.12 -0.8,-1.44 -0.48,-0.32 -1.13,-0.64 -1.77,-0.97 -0.8,-0.16 -1.6,-0.32 -2.56,-0.48 -0.8,-0.16 -1.76,-0.16 -2.57,-0.16 -0.8,0 -1.76,0 -2.72,0.16 -0.96,0 -1.76,0.16 -2.57,0.48 -0.8,0.16 -1.6,0.49 -2.08,0.81 -0.64,0.48 -0.8,0.96 -0.8,1.6 0,0.48 0.16,0.96 0.8,1.44 0.48,0.32 1.12,0.64 1.92,0.96 0.81,0.16 1.77,0.32 2.73,0.48 0.96,0 1.92,0.16 2.72,0.16zm25.65 -22.76l13.94 0 0 26.61c0,0.64 0.16,1.12 0.65,1.28 0.32,0.32 0.96,0.32 2.08,0.32l2.24 0 0 9.62 -8.01 0c-1.6,0 -3.05,-0.16 -4.49,-0.64 -1.28,-0.48 -2.4,-0.96 -3.36,-1.76 -0.97,-0.8 -1.77,-1.61 -2.25,-2.73 -0.48,-1.12 -0.8,-2.24 -0.8,-3.68l0 -29.02 0 0zm21 23.41c0,-2.25 0.32,-4.01 1.12,-5.61 0.8,-1.61 1.76,-2.89 3.04,-4.01 1.45,-1.12 2.89,-2.09 4.65,-2.73 1.61,-0.64 3.37,-1.28 5.29,-1.6 1.93,-0.48 3.69,-0.64 5.61,-0.8 1.76,-0.16 3.53,-0.32 5.29,-0.32 1.6,0 3.37,0.16 5.13,0.32 1.92,0.16 3.69,0.32 5.61,0.8 1.76,0.32 3.53,0.8 5.13,1.6 1.6,0.64 3.04,1.61 4.33,2.57 1.28,1.12 2.4,2.56 3.04,4.17 0.8,1.44 1.12,3.36 1.12,5.61 0,2.08 -0.32,4 -1.12,5.61 -0.64,1.6 -1.76,2.88 -2.88,4 -1.29,1.12 -2.73,2.09 -4.49,2.73 -1.6,0.8 -3.37,1.28 -5.13,1.6 -1.76,0.48 -3.69,0.64 -5.61,0.8 -1.76,0.16 -3.53,0.32 -5.13,0.32 -1.76,0 -3.53,-0.16 -5.29,-0.32 -1.92,-0.16 -3.85,-0.32 -5.61,-0.8 -1.92,-0.32 -3.68,-0.8 -5.45,-1.6 -1.6,-0.64 -3.2,-1.61 -4.49,-2.73 -1.28,-1.12 -2.24,-2.4 -3.04,-4 -0.8,-1.61 -1.12,-3.53 -1.12,-5.61zm24.52 4.48c0.8,0 1.76,0 2.89,0 1.28,0 2.4,-0.16 3.52,-0.48 1.12,-0.32 2.09,-0.64 2.89,-1.28 0.64,-0.64 1.12,-1.6 1.12,-2.72 0,-1.29 -0.48,-2.09 -1.12,-2.73 -0.8,-0.64 -1.77,-1.12 -2.89,-1.44 -1.12,-0.16 -2.24,-0.32 -3.52,-0.32 -1.13,0 -2.09,0 -2.89,0 -0.96,0 -1.92,0 -3.04,0 -1.13,0 -2.25,0 -3.37,0.32 -0.96,0.32 -1.92,0.8 -2.57,1.28 -0.8,0.64 -1.12,1.6 -1.12,2.89 0,1.12 0.32,2.08 1.12,2.72 0.65,0.64 1.61,1.12 2.57,1.44 1.12,0.16 2.08,0.32 3.37,0.32 1.12,0 2.08,0 3.04,0zm28.37 -18.91l13.95 0 0 3.05c2.88,-0.97 5.61,-1.77 8.49,-2.25 2.89,-0.64 5.61,-0.96 8.34,-0.96l0 10.58c-1.77,0 -3.53,0 -4.97,0 -1.61,0 -3.05,0 -4.33,0 -1.28,0 -2.57,0.16 -3.85,0.32 -1.28,0.16 -2.4,0.48 -3.68,0.8l0 17.31 -13.95 0 0 -28.85 0 0zm77.9 0l0 28.85c0,1.76 -0.32,3.37 -1.12,4.97 -0.64,1.44 -1.77,2.72 -3.21,3.69 -1.28,0.96 -3.04,1.76 -5.13,2.4 -1.92,0.48 -4.17,0.8 -6.73,0.8l-22.28 0 0 -9.45 17.63 0c2.57,0 4.49,-0.33 5.45,-0.65 0.96,-0.48 1.44,-1.44 1.6,-2.56l0 -2.57c-3.52,1.13 -6.89,2.09 -9.93,2.89 -2.89,0.64 -5.61,1.12 -8.18,1.12 -3.84,-0.16 -6.89,-1.12 -8.97,-2.88 -2.25,-1.93 -3.21,-4.65 -3.21,-8.34l0 -18.43 13.95 0 0 16.19c0,1.44 0.48,2.24 1.28,2.88 0.8,0.48 1.92,0.8 3.36,0.8 1.61,0 3.37,-0.32 5.45,-0.8 2.09,-0.64 4.17,-1.28 6.25,-1.92l0 -16.99 13.79 0 0 0z"/>
 </g>
</svg>
