<?xml version="1.0" encoding="UTF-8"?>
<!DOCTYPE svg PUBLIC "-//W3C//DTD SVG 1.1//EN" "http://www.w3.org/Graphics/SVG/1.1/DTD/svg11.dtd">
<!-- Creator: CorelDRAW 2020 (64-Bit) -->
<svg xmlns="http://www.w3.org/2000/svg" xml:space="preserve" width="995px" height="196px" version="1.1" style="shape-rendering:geometricPrecision; text-rendering:geometricPrecision; image-rendering:optimizeQuality; fill-rule:evenodd; clip-rule:evenodd"
viewBox="0 0 6404.09 1258.98"
 xmlns:xlink="http://www.w3.org/1999/xlink"
 xmlns:xodm="http://www.corel.com/coreldraw/odm/2003">
 <defs>
  <style type="text/css">
   <![CDATA[
    .fil0 {fill:#E4A3A0}
    .fil1 {fill:#E4A3A0;fill-rule:nonzero}
   ]]>
  </style>
 </defs>
 <g id="Layer_x0020_1">
  <metadata id="CorelCorpID_0Corel-Layer"/>
  <path class="fil0" d="M1153.48 680.43l345.67 -345.67 -196.49 -192.85 -331.12 331.11 0 0 3.64 0 0 0 0 0 3.64 3.64 0 0 0 0 0 0 0 0 0 0 0 0 0 0 0 0 0 0 0 0 0 0c3.63,0 3.63,3.64 7.28,3.64l0 0 0 0 0 0 0 0 0 0 0 0 0 0 0 0 0 0 3.63 3.64 0 0 0 0 0 0 0 0 0 0 0 0 3.64 0 0 0 0 0 0 0 0 0 0 0 0 0 0 0 0 0 0 0 0 3.64 3.64 0 0 0 0 0 0 0 0 0 0 0 0 0 0 0 0 0 0 0 0 0 0 0 3.64 3.64 0 0 0 0 0 0 0 0 3.63 0 0 0 0 0 0 3.63 0 0 0 0 0 0 0 0 0 0 0 0 3.65 3.65 0 0 0 0 3.63 0 0 0 0 0 0 0 0 0 0 0 0 0 3.64 3.63 0 0 0 0 0 0 0 0 0 0 0 0 0 0 0 0 0 0 0 0 0 0 3.64 0 0 0 0 0 0 0 0 0 0 0 0 0 0 0 0 0 0 3.64 0 0 0 0 0 0 0 0 0 0 0 0 3.64 0 0 0 0 0 0 0 0 0 0 0 0 0 0 0 0 0 0 0 0 0 0 0 0 0 0 0 0 0 0 0 0 3.64 0 0 0 0 3.64 3.64 0 0 0 0 0 0 0 0 0 0 3.64 0 0 0 0 0 0 0 0 0c0,0 0,3.64 3.63,3.64l0 0 0 0 0 0 0 0 0 0 0 0 0 0 0 0 0 0 0 0 3.65 3.64 0 0 0 0 0 0 0 0 0 3.63 0 0 0 0 0 0 3.63 0 0 0 0 0 0 0 0 0 0 0 0 0 0 0 0 0 0 3.64 0 0 3.64 0 0 0 0 0 0 0 0 0 0 0 0 0 0 0 0 0 0 0 0 0 0 0 0 0 0 0 0 0 0 0 0 0 0 0 0 0 0 0 3.64 3.64 0 3.64 0 0 0 0 0 0 3.64 0 0 0 0 0 0 0 0 3.64 0 0 0 0 0 0 0 0 3.63 0 0 0 0 0 0 0 0 0 0 0 0 0 0 0 0 0 0 0 0 0 0 0 0 0 0 0c0,3.64 0,3.64 3.65,3.64l0 0 0 0 0 0 0 3.63 3.63 3.65 0 0 0 0 0 0 0 0 0 0 0 0 0 0 0 0 0 0 3.64 3.63 0 0 0 0 0 0 0 0 0 0 0 0 0 0 0 0 0 3.64 0 0 3.64 0 0 0 0 3.64 0 0 3.64 3.64 3.64 3.64 0 0 0 0 3.64 3.64 0 0 3.63 7.27 0 0 0 0 3.65 3.64 0 0 0 3.64 0 0 3.63 3.64 0 0 0 0 0 0 0 0 0 0 0 0 0 0 0 0 0 0 0 0 0 0 0 0 0 0 0 0 0 0 0 0 0 0 0 3.64 0 0 0 0 0 0 0 0 0 0 0 0 0 0 0 0 0 0 0 0 0 0 0 0 3.64 3.63 0 0 0 0 3.64 3.65 0 3.63 3.64 3.64 0 3.64 0 0 0 3.64 3.63 3.64 0 0 0 3.64 3.65 3.63 0 3.64 0 3.64 0 0 0 0 0 0 0 0 0 0 0 0 0 0 3.63 3.64 0 0 0 0 0 0 0 0 0 0 0 0 0 3.64 0 0 0 0 0 0 0 0 0 0 0 0 0 0 0 0 0 0 0 0 0 0 3.64 3.64 0 0 0 0 0 0 0 0 0 0 0 0 0 0 0 3.63 0 0c0,0 0,3.65 0,3.65l0 0 0 0 0 0 0 0 0 0 3.64 3.63 0 0 0 3.64 0 0 0 3.64 0 0 0 0 0 0 0 0 0 0 0 0 0 0 0 3.64 0 0 0 0 0 0 0 0 3.64 0 0 0 0 0 0 3.64 0 0 0 0 0 0 0 0 0 0 0 0 0 0 0 0 0 0 0 3.63 0 0 0 0 0 0 0 0 0 3.64 0 0 0 0 0 0 0 0 0 0 0 3.64 -109.16 0c-72.77,0 -141.91,25.47 -192.85,65.5 -54.58,-40.03 -123.71,-65.5 -196.49,-65.5l-109.16 0 0 0 0 0 0 0c0,0 0,-3.64 0,-3.64l0 0 0 0 0 0 0 0 0 -3.64 0 0 0 -3.63 0 0 3.64 -3.64 0 0 0 0 0 0 0 0 0 0 0 0 0 0 0 -3.64 0 0 0 0 0 0 0 0 0 0 0 0 0 0 0 0 0 -3.64 0 0 0 0 0 0 0 0c0,0 0,-3.64 3.64,-3.64l0 0 0 0 0 -3.63 0 0 0 0 0 0 0 0 0 0 0 0 0 -3.65 0 0 0 0 0 0 0 0 0 0 0 0 0 -3.63 3.63 -3.64 0 -3.64 0 0 3.64 -3.64 0 -3.64 0 0 0 -3.64 0 0 3.64 -3.63 0 0 0 -3.64 0 0 0 -3.64 0 0 3.64 -3.64 0 -3.64 0 0 3.64 -3.64 0 0 3.64 -7.28 0 0 0 0 0 0 0 0 0 0 0 0 0 0 0 0 0 0 0 0 0 0 0 0 3.63 -3.63 0 0 0 0 0 0 0 0 0 0 0 0 0 0 0 0 0 -3.64 3.65 -3.64 0 -3.64 0 0 0 0 0 0 0 0 3.63 -3.64 0 0 0 0 0 0 0 0 0 0 0 0 0 0 0 0 0 0 0 0 0 -3.64 0 0 3.64 -3.63 3.64 -3.64 0 0 0 0 0 0 3.64 -3.64 0 -3.64 3.64 -3.64 3.64 -3.64 0 0 0 0 0 0 3.63 -3.63 3.64 -3.65 0 0 0 -3.63 0 0 3.64 -3.64 0 0 0 0 3.64 0 0 0 0 0 0 0 0 0 0 0 0 0 0 0 0 -3.64 0 0 3.64 0 0 0 0 0 0 0 0 0 0 0 0 0 0 0 0 0 0 0 0 -3.64 3.64 -3.64 0 0 0 0 0 0 0 0 0 0 0 0 0 0 0 0 0 0 0 0 0 0 0 0 3.63 0 0 0 0 0 0 -3.64 0 0 0 0 0 0 0 0 0 0 0 0 0 0 0 0 0 0 0 0 0 0 0 0 0 0 3.65 0 0 0 0 0 0 0 0 0 0 0 0 -3.63 0 0 0 0 3.63 -3.64 0 0 0 0 0 0 0 0 0 0 0 0 0 0 0 0 0 0 0 0 0 0 0 0 3.64 -3.64 0 0 0 0 0 0 0 0 0 0 0 0 0 0 0 0 3.64 0 0 0 0 0 0 0 0 0 0 0 0 0 0 0 0 0 0 0 0 -3.64 3.64 0 0 0 0 -3.64 0 0 0 0 0 0 0 0 0 0 0 0 0 0 0 0 0 0 3.64 0 0 -3.64 0 0 0 0 0 0 0 0 0 0 3.64 0 0 0 0 0 0 0 0 0 0 0 0 0 0 0 0 0 0 0 0 0 3.63 -3.63 0 0 0 0 0 0 0 0 0 0 3.64 0 0 0 0 0 0 0 0 0 0 0 0 0 0 0 0 0 0 -3.65 0 0 0 0 3.64 0 0 0 0 0 0 0 0 0 0 0 0 0 0 0 0 0 0 0 0 0 0 0 0 0 0 0 0 0 0 0 0 0 0 -3.63 0 0 0 0 0 0 0 0 0 0 0 0 0 0 0 0 3.64 0 3.64 -3.64 0 0 0 0 0 0 0 0 0 0 0 0 0 0 0 0 0 0 0 0 0 0 0 0 0 0 0 0 0 0 3.64 0 0 -3.64 0 0 0 0 0 0 0 0 0 0 0 0 0 0 0 0 0 0 0 0 3.63 0 0 0c0,0 3.65,0 3.65,-3.64l0 0 0 0 0 0 0 0 0 0 0 0 0 0 3.63 0 0 0 0 0 0 -3.64 0 0 0 0 3.64 0 0 0 0 0 0 0 0 0 0 0 0 0 0 0 0 0 0 0 0 0 0 0 0 0 0 0 0 0 0 0 0 0 0 0 0 0 0 0 0 0 0 0 0 0 0 0 0 0 -327.48 -331.12 -196.49 192.85 342.04 342.04 -480.31 0 0 276.54 578.55 0 0 0 0 0 0 0 0 0 0 0 0 0 0 0 0 0 0 0 3.64 0 0 0 0 0 0 0 0 0 0 0 0 0 0 0 0 0 0 0 0 0 0 0 0 0 0 0 3.64 0 0 0 0 0 0 0 0 0 0 0 0 0 0 0 0 0 0 0 0 0 0 0 0 0 0 0 3.63 0 0 0 0 0 0 0 0 0 0 0 0 0 0 0 0 0 0 0 0 0 0 0 0 0 0 0 0 0 0 0 0 0 3.65 0 0 0 0 0 0 0 0 0 0 3.64 0 0c32.74,7.27 58.21,29.11 72.77,54.58l0 0 0 3.63 0 0 0 0 0 0 0 0 3.63 3.65 0 0 0 0 0 0 0 0 0 0 0 0 0 3.63 0 0 0 0 0 0 3.65 3.64 0 0 0 0 0 0 0 0 0 3.64 0 0c0,0 0,0 0,3.64l0 0 0 0 3.63 0 0 3.64 0 0 0 0 0 0 0 0 0 3.64 0 0 0 0 0 0 0 3.63 0 0 0 0 0 0 0 0 0 0 3.64 3.64 0 0 0 0 0 0 0 3.64 0 0 0 0 0 0 0 0 0 3.64 0 0 0 0 0 0 0 0 0 3.64 0 0 0 0c0,3.64 0,3.64 0,7.27l0 0 0 0 0 0 0 3.65 0 3.63 3.64 0 0 0 261.98 0 10.92 0 0 0 0 0 0 0 3.64 0 0 0 0 0 0 -3.63c0,-54.59 36.38,-101.89 87.33,-116.45l0 0 0 0c3.63,0 10.91,0 14.55,0l578.55 0 0 -3.63 0 0 0 -272.91 -480.3 0 -7.28 0 0.02 0.01zm-196.49 -214.68l0 -465.76 -276.54 0 0 465.76 0 0 0 0 3.63 0 0 0 0 0 0 0 0 0 3.64 -3.64 0 0 0 0 0 0 0 0 0 0 0 0 3.64 0 0 0 0 0c0,0 0,0 3.64,-3.64l0 0 0 0 0 0 0 0 0 0 0 0 0 0c3.64,0 3.64,0 7.28,0l0 0 0 -3.64 0 0 0 0 0 0 0 0 0 0 0 0 0 0 7.28 0 0 0 0 0 0 0 0 0 0 0 0 0 0 0 0 0 0 0 0 0 0 0 0 0 0 0 0 0 0 0 0 0 0 0 0 0 0 0 0 0 0 0 0 0 0 0 0 0 0 0 3.63 0 0 0 0 0 3.64 -3.64 0 0 0 0 0 0 0 0 0 0 0 0 0 0 0 0 0 0 0 0 0 0 7.28 -3.63 0 0 0 0 3.64 0 0 0 7.27 0 0 0 0 -3.65 0 0 7.28 0 3.64 0 3.64 -3.63 0 0 3.64 0 0 0 3.63 0 3.65 0 0 0 0 0 0 0 0 0 0 0 0 0 0 0 0 0c0,0 3.63,0 3.63,0l0 0 0 0 0 0 0 -3.64 0 0 0 0 3.64 0 0 0c0,0 3.64,0 3.64,0l0 0 0 0 0 0 3.64 0 0 0 0 0 0 0 3.64 0 0 0 0 0 0 0 0 0 0 0 0 0 0 0 0 0 3.64 0 0 0 0 0 0 0 0 0 0 0 0 0 0 0 0 0 0 0c3.63,0 3.63,0 7.27,0l0 0 0 0 0 0 0 0 0 0 0 0 0 0 0 0c3.64,-3.64 3.64,-3.64 7.28,-3.64l0 0 0 0 0 0 0 0 0 0c3.64,0 3.64,0 7.28,0l0 0 0 0 0 0c3.63,0 7.28,0 7.28,0l0 0c3.63,0 7.27,0 10.91,0 0,0 3.64,0 7.28,0l0 0 0 0c0,0 3.64,0 7.27,0l0 0 0 0 0 0 0 0 0 0 0 0 0 0c3.64,0 3.64,0 7.28,0l0 0 0 0 0 0 0 0 0 0 0 0 0 0 0 0 0 0c3.64,0 3.64,0 7.28,3.64l0 0 0 0 0 0 0 0 0 0 0 0 0 0 0 0c3.64,0 7.27,0 7.27,0l0 0 3.65 0 0 0c0,0 3.63,0 3.63,0l3.64 0 0 0 0 0 0 0 0 0 0 0 0 0 0 0c0,0 3.64,0 7.28,0l0 0 0 0 0 0 0 0 0 0c0,3.64 3.64,3.64 7.28,3.64l0 0 0 0 0 0 0 0 0 0 0 0 0 0 0 0 0 0 0 0 0 0c3.63,0 3.63,0 7.28,0l0 0 0 0 0 0 0 0 0 0 0 0 0 0 0 0 0 0c3.63,0 3.63,3.63 7.27,3.63l0 0 0 0 0 0 0 0 0 0 0 0 0 0 0 0 0 0 0 0c3.64,0 3.64,0 7.28,0l0 0 0 0 0 0 0 0c3.63,3.65 3.63,3.65 7.28,3.65l0 0 0 0 0 0 0 0c3.63,0 3.63,0 7.27,3.63l0 0 0 0 0 0 0 0 0 0c3.64,0 3.64,0 7.28,0l0 0 0 0 0 0 0 0c3.64,3.64 3.64,3.64 7.28,3.64l0 0 0 0 0 0 0 0 0 0 0 0 0 0 0 0 0 0 0 0c3.63,0 3.63,3.64 7.28,3.64l0 0 0 0 0 0 0 0 0 0 0 0 0 0 0 0 0 0 0 0 7.27 3.64 0 0 0 0 0 0 0 0 0 0 0 0 0 0 0 0 0 0 0 0 0 0 0 0c0,0 3.64,0 3.64,0l0 0 3.64 3.64 0 0 0 0 0.01 0z"/>
  <path class="fil1" d="M1899.4 1200.76l0 -214.68c65.5,21.83 130.99,36.39 200.13,43.66 69.14,7.28 141.92,10.92 221.96,10.92 25.47,0 50.94,-3.64 76.41,-3.64 25.47,0 47.31,-3.63 69.14,-7.28 18.19,-3.63 36.38,-7.27 47.3,-10.91 10.91,-3.64 14.56,-10.92 10.91,-14.55 0,-7.28 -10.91,-10.92 -32.74,-10.92 -18.2,0 -43.67,0 -76.41,0 -32.75,0 -69.14,3.64 -105.53,3.64 -40.02,3.63 -80.04,3.63 -120.07,3.63 -43.66,-3.63 -80.05,-3.63 -120.08,-10.91 -40.03,-3.64 -72.77,-10.92 -105.52,-21.83 -29.11,-10.92 -54.58,-25.47 -72.77,-43.67 -18.19,-21.83 -25.47,-43.66 -25.47,-76.41 0,-21.83 7.28,-43.66 18.19,-61.86 14.55,-14.55 32.75,-32.75 58.22,-43.66 -25.47,-18.19 -47.3,-43.66 -61.85,-69.13 -14.56,-29.11 -21.84,-58.22 -21.84,-94.61 0,-40.03 7.28,-69.13 25.47,-98.24 14.55,-25.48 36.39,-47.31 65.49,-69.14 25.48,-18.19 54.59,-32.75 90.97,-43.66 36.39,-14.56 72.77,-21.83 112.8,-29.11 36.39,-7.28 76.42,-10.92 112.8,-14.56 40.03,-3.64 76.42,-3.64 109.16,-3.64l47.3 0 0 0c112.8,0 211.05,-3.63 291.1,-14.55 80.05,-10.91 141.91,-29.11 178.29,-50.94 -10.91,36.38 -25.46,69.13 -40.03,98.24 -14.55,25.47 -32.74,47.31 -54.57,61.86 25.47,21.83 43.66,43.67 58.22,69.13 14.55,25.48 21.83,58.23 21.83,94.61 0,36.39 -7.28,69.13 -21.83,94.61 -14.56,29.1 -36.39,50.94 -61.86,69.13 -25.47,21.83 -54.58,36.39 -87.33,47.31 -36.38,14.55 -69.14,21.83 -109.16,29.11 -36.39,7.27 -72.78,10.91 -112.8,14.55 -36.39,3.63 -72.78,3.63 -105.52,3.63 -25.47,0 -50.95,0 -80.05,3.65 -25.47,0 -54.58,0 -76.41,0 -25.47,3.63 -47.31,3.63 -61.86,7.27 -14.55,0 -21.83,7.28 -18.19,10.92 0,3.64 14.55,7.27 36.39,7.27 21.83,0 50.94,-3.63 87.32,-3.63 32.75,0 76.42,-3.64 120.08,-3.64 43.66,-3.64 90.97,-3.64 138.27,-3.64 47.31,0 90.97,3.64 134.63,7.28 47.3,7.28 83.69,14.55 120.08,25.47 36.39,14.55 61.85,29.1 83.68,50.94 21.83,21.83 32.75,47.3 32.75,80.05 0,29.11 -10.91,54.58 -29.1,80.05 -21.84,21.83 -47.31,43.66 -80.05,58.22 -32.75,18.19 -69.14,32.75 -112.8,43.66 -40.03,10.92 -80.05,21.83 -123.71,29.11 -43.67,7.28 -83.7,10.92 -123.72,14.55 -36.39,0 -72.77,3.65 -101.88,3.65 -76.42,0 -149.19,-3.65 -218.33,-10.92 -72.77,-3.64 -141.9,-18.19 -207.4,-36.39l-0.01 0zm476.67 -553.08c18.2,0 40.03,-3.64 58.22,-3.64 21.83,-3.64 40.02,-7.28 58.22,-14.56 14.55,-3.63 29.11,-10.91 40.02,-21.83 10.92,-7.27 18.2,-18.19 18.2,-29.11 0,-14.55 -7.28,-25.46 -18.2,-32.75 -10.91,-7.27 -25.46,-14.55 -40.02,-21.82 -18.2,-3.64 -36.39,-7.28 -58.22,-10.92 -18.19,-3.63 -40.02,-3.63 -58.22,-3.63 -18.19,0 -40.03,0 -61.86,3.63 -21.83,0 -40.02,3.64 -58.22,10.92 -18.19,3.63 -36.38,10.91 -47.3,18.19 -14.55,10.91 -18.19,21.83 -18.19,36.38 0,10.92 3.64,21.84 18.19,32.76 10.92,7.27 25.47,14.55 43.67,21.83 18.19,3.63 40.02,7.27 61.85,10.91 21.83,0 43.67,3.64 61.86,3.64zm582.19 -516.69l316.56 0 0 604.02c0,14.55 3.65,25.47 14.56,29.11 7.28,7.28 21.83,7.28 47.3,7.28l50.94 0 0 218.32 -181.93 0c-36.39,0 -69.13,-3.64 -101.88,-14.56 -29.11,-10.91 -54.59,-21.83 -76.42,-40.02 -21.83,-18.2 -40.02,-36.39 -50.94,-61.86 -10.91,-25.47 -18.19,-50.94 -18.19,-83.69l0 -658.6 0 0zm476.67 531.25c0,-50.94 7.28,-90.97 25.46,-127.36 18.2,-36.38 40.03,-65.49 69.14,-90.97 32.75,-25.46 65.5,-47.29 105.52,-61.85 36.39,-14.55 76.41,-29.11 120.08,-36.39 43.66,-10.91 83.68,-14.56 127.35,-18.19 40.03,-3.64 80.05,-7.28 120.07,-7.28 36.4,0 76.42,3.64 116.45,7.28 43.66,3.63 83.69,7.28 127.35,18.19 40.02,7.28 80.05,18.2 116.43,36.39 36.39,14.56 69.14,36.39 98.25,58.22 29.11,25.47 54.58,58.22 69.14,94.6 18.19,32.75 25.46,76.42 25.46,127.36 0,47.3 -7.27,90.96 -25.46,127.35 -14.56,36.39 -40.03,65.49 -65.51,90.97 -29.1,25.46 -61.85,47.3 -101.88,61.86 -36.38,18.19 -76.41,29.11 -116.43,36.38 -40.03,10.92 -83.69,14.56 -127.35,18.19 -40.03,3.64 -80.05,7.28 -116.45,7.28 -40.02,0 -80.04,-3.64 -120.07,-7.28 -43.67,-3.63 -87.33,-7.27 -127.35,-18.19 -43.67,-7.27 -83.69,-18.19 -123.72,-36.38 -36.38,-14.56 -72.77,-36.4 -101.88,-61.86 -29.11,-25.48 -50.94,-54.58 -69.14,-90.97 -18.18,-36.39 -25.46,-80.05 -25.46,-127.35zm556.71 101.88c18.2,0 40.03,0 65.5,0 29.11,0 54.58,-3.64 80.04,-10.92 25.48,-7.27 47.31,-14.55 65.51,-29.1 14.55,-14.56 25.46,-36.39 25.46,-61.86 0,-29.11 -10.91,-47.31 -25.46,-61.86 -18.2,-14.56 -40.03,-25.47 -65.51,-32.75 -25.46,-3.64 -50.94,-7.27 -80.04,-7.27 -25.47,0 -47.3,0 -65.5,0 -21.83,0 -43.66,0 -69.13,0 -25.47,0 -50.94,0 -76.41,7.27 -21.83,7.28 -43.66,18.19 -58.22,29.11 -18.19,14.56 -25.47,36.39 -25.47,65.5 0,25.47 7.28,47.3 25.47,61.86 14.56,14.55 36.39,25.46 58.22,32.75 25.47,3.63 47.3,7.27 76.41,7.27 25.47,0 47.3,0 69.13,0zm644.05 -429.36l316.57 0 0 69.13c65.49,-21.83 127.35,-40.02 192.84,-50.94 65.5,-14.56 127.36,-21.84 189.22,-21.84l0 240.16c-40.03,0 -80.06,0 -112.8,0 -36.4,0 -69.14,0 -98.25,0 -29.11,0 -58.21,3.64 -87.33,7.27 -29.11,3.65 -54.58,10.92 -83.69,18.2l0 392.98 -316.56 0 0 -654.96 0 0zm1768.39 0l0 654.96c0,40.02 -7.28,76.41 -25.46,112.79 -14.56,32.76 -40.03,61.86 -72.78,83.7 -29.11,21.83 -69.13,40.02 -116.44,54.58 -43.66,10.91 -94.6,18.19 -152.82,18.19l-505.78 0 0 -214.68 400.26 0c58.22,0 101.88,-7.28 123.71,-14.56 21.83,-10.91 32.75,-32.75 36.39,-58.21l0 -58.22c-80.05,25.47 -156.47,47.3 -225.6,65.49 -65.5,14.56 -127.35,25.47 -185.57,25.47 -87.33,-3.64 -156.47,-25.47 -203.76,-65.49 -50.95,-43.67 -72.78,-105.53 -72.78,-189.21l0 -418.46 316.56 0 0 367.51c0,32.75 10.92,50.95 29.11,65.5 18.2,10.92 43.67,18.19 76.42,18.19 36.38,0 76.41,-7.27 123.72,-18.19 47.29,-14.55 94.6,-29.11 141.9,-43.67l0 -385.69 312.93 0 -0.01 0z"/>
 </g>
</svg>
