<?xml version="1.0" encoding="UTF-8"?>
<!DOCTYPE svg PUBLIC "-//W3C//DTD SVG 1.1//EN" "http://www.w3.org/Graphics/SVG/1.1/DTD/svg11.dtd">
<!-- Creator: CorelDRAW 2020 (64-Bit) -->
<svg xmlns="http://www.w3.org/2000/svg" xml:space="preserve" width="560px" height="558px" version="1.1" style="shape-rendering:geometricPrecision; text-rendering:geometricPrecision; image-rendering:optimizeQuality; fill-rule:evenodd; clip-rule:evenodd"
viewBox="0 0 126.88 126.5"
 xmlns:xlink="http://www.w3.org/1999/xlink"
 xmlns:xodm="http://www.corel.com/coreldraw/odm/2003">
 <defs>
  <style type="text/css">
   <![CDATA[
    .fil1 {fill:#00C478}
    .fil2 {fill:#391563;fill-rule:nonzero}
    .fil0 {fill:url(#id0)}
   ]]>
  </style>
  <linearGradient id="id0" gradientUnits="userSpaceOnUse" x1="97.57" y1="125.19" x2="29.45" y2="1.77">
   <stop offset="0" style="stop-opacity:1; stop-color:#F9EBE2"/>
   <stop offset="1" style="stop-opacity:1; stop-color:#FEFEFE"/>
  </linearGradient>
 </defs>
 <g id="Layer_x0020_1">
  <metadata id="CorelCorpID_0Corel-Layer"/>
  <path class="fil0" d="M29.45 1.77c11.32,-1.31 22.71,-1.78 34.06,-1.77 11.34,0.01 22.73,0.46 34.06,1.78 13.06,1.53 26.04,14.52 27.54,27.58 1.33,11.51 1.77,23.07 1.77,34.59 -0.01,11.54 -0.45,23.1 -1.78,34.59 -1.5,13.07 -14.48,25.5 -27.53,26.65 -11.34,1 -22.72,1.32 -34.06,1.31 -11.35,0 -22.73,-0.33 -34.06,-1.32 -13.05,-1.16 -26.08,-13.57 -27.62,-26.64 -1.36,-11.49 -1.84,-23.05 -1.83,-34.59 0.01,-11.52 0.45,-23.08 1.83,-34.59 1.56,-13.07 14.55,-26.07 27.62,-27.59z"/>
  <path class="fil1" d="M70.81 53.78l7.89 -7.88 -4.49 -4.4 -7.55 7.55 0 0 0.08 0 0 0 0 0 0.09 0.08 0 0 0 0 0 0 0 0 0 0 0 0 0 0 0 0 0 0 0 0 0 0c0.08,0 0.08,0.09 0.16,0.09l0 0 0 0 0 0 0 0 0 0 0 0 0 0 0 0 0 0 0.09 0.08 0 0 0 0 0 0 0 0 0 0 0 0 0.08 0 0 0 0 0 0 0 0 0 0 0 0 0 0 0 0 0 0 0 0 0.08 0.08 0 0 0 0 0 0 0 0 0 0 0 0 0 0 0 0 0 0 0 0 0 0 0 0.09 0.08 0 0 0 0 0 0 0 0 0.08 0 0 0 0 0 0 0.09 0 0 0 0 0 0 0 0 0 0 0 0 0.08 0.08 0 0 0 0 0.08 0 0 0 0 0 0 0 0 0 0 0 0 0 0.09 0.08 0 0 0 0 0 0 0 0 0 0 0 0 0 0 0 0 0 0 0 0 0 0 0.08 0 0 0 0 0 0 0 0 0 0 0 0 0 0 0 0 0 0 0.09 0 0 0 0 0 0 0 0 0 0 0 0 0.08 0 0 0 0 0 0 0 0 0 0 0 0 0 0 0 0 0 0 0 0 0 0 0 0 0 0 0 0 0 0 0 0 0.08 0 0 0 0 0.09 0.08 0 0 0 0 0 0 0 0 0 0 0.08 0 0 0 0 0 0 0 0 0c0,0 0,0.09 0.08,0.09l0 0 0 0 0 0 0 0 0 0 0 0 0 0 0 0 0 0 0 0 0.09 0.08 0 0 0 0 0 0 0 0 0 0.08 0 0 0 0 0 0 0.08 0 0 0 0 0 0 0 0 0 0 0 0 0 0 0 0 0 0 0.09 0 0 0.08 0 0 0 0 0 0 0 0 0 0 0 0 0 0 0 0 0 0 0 0 0 0 0 0 0 0 0 0 0 0 0 0 0 0 0 0 0 0 0 0.08 0.08 0 0.08 0 0 0 0 0 0 0.09 0 0 0 0 0 0 0 0 0.08 0 0 0 0 0 0 0 0 0.08 0 0 0 0 0 0 0 0 0 0 0 0 0 0 0 0 0 0 0 0 0 0 0 0 0 0 0c0,0.09 0,0.09 0.08,0.09l0 0 0 0 0 0 0 0.08 0.09 0.08 0 0 0 0 0 0 0 0 0 0 0 0 0 0 0 0 0 0 0.08 0.09 0 0 0 0 0 0 0 0 0 0 0 0 0 0 0 0 0 0.08 0 0 0.08 0 0 0 0 0.08 0 0 0.09 0.08 0.08 0.09 0 0 0 0 0.08 0.08 0 0 0.08 0.17 0 0 0 0 0.09 0.08 0 0 0 0.08 0 0 0.08 0.09 0 0 0 0 0 0 0 0 0 0 0 0 0 0 0 0 0 0 0 0 0 0 0 0 0 0 0 0 0 0 0 0 0 0 0 0.08 0 0 0 0 0 0 0 0 0 0 0 0 0 0 0 0 0 0 0 0 0 0 0 0 0.08 0.08 0 0 0 0 0.09 0.09 0 0.08 0.08 0.08 0 0.08 0 0 0 0.09 0.08 0.08 0 0 0 0.08 0.09 0.09 0 0.08 0 0.08 0 0 0 0 0 0 0 0 0 0 0 0 0 0 0.08 0.08 0 0 0 0 0 0 0 0 0 0 0 0 0 0.09 0 0 0 0 0 0 0 0 0 0 0 0 0 0 0 0 0 0 0 0 0 0 0.08 0.08 0 0 0 0 0 0 0 0 0 0 0 0 0 0 0 0.08 0 0c0,0 0,0.09 0,0.09l0 0 0 0 0 0 0 0 0 0 0.08 0.08 0 0 0 0.08 0 0 0 0.09 0 0 0 0 0 0 0 0 0 0 0 0 0 0 0 0.08 0 0 0 0 0 0 0 0 0.09 0 0 0 0 0 0 0.08 0 0 0 0 0 0 0 0 0 0 0 0 0 0 0 0 0 0 0 0.09 0 0 0 0 0 0 0 0 0 0.08 0 0 0 0 0 0 0 0 0 0 0 0.08 -2.49 0c-1.66,0 -3.24,0.58 -4.4,1.5 -1.25,-0.92 -2.82,-1.5 -4.48,-1.5l-2.49 0 0 0 0 0 0 0c0,0 0,-0.08 0,-0.08l0 0 0 0 0 0 0 0 0 -0.08 0 0 0 -0.09 0 0 0.08 -0.08 0 0 0 0 0 0 0 0 0 0 0 0 0 0 0 -0.08 0 0 0 0 0 0 0 0 0 0 0 0 0 0 0 0 0 -0.09 0 0 0 0 0 0 0 0c0,0 0,-0.08 0.08,-0.08l0 0 0 0 0 -0.08 0 0 0 0 0 0 0 0 0 0 0 0 0 -0.09 0 0 0 0 0 0 0 0 0 0 0 0 0 -0.08 0.08 -0.08 0 -0.09 0 0 0.09 -0.08 0 -0.08 0 0 0 -0.08 0 0 0.08 -0.09 0 0 0 -0.08 0 0 0 -0.08 0 0 0.08 -0.09 0 -0.08 0 0 0.09 -0.08 0 0 0.08 -0.17 0 0 0 0 0 0 0 0 0 0 0 0 0 0 0 0 0 0 0 0 0 0 0 0 0.08 -0.08 0 0 0 0 0 0 0 0 0 0 0 0 0 0 0 0 0 -0.08 0.09 -0.09 0 -0.08 0 0 0 0 0 0 0 0 0.08 -0.08 0 0 0 0 0 0 0 0 0 0 0 0 0 0 0 0 0 0 0 0 0 -0.09 0 0 0.08 -0.08 0.08 -0.08 0 0 0 0 0 0 0.09 -0.09 0 -0.08 0.08 -0.08 0.08 -0.08 0 0 0 0 0 0 0.09 -0.09 0.08 -0.08 0 0 0 -0.08 0 0 0.08 -0.09 0 0 0 0 0.09 0 0 0 0 0 0 0 0 0 0 0 0 0 0 0 0 -0.08 0 0 0.08 0 0 0 0 0 0 0 0 0 0 0 0 0 0 0 0 0 0 0 0 -0.08 0.08 -0.08 0 0 0 0 0 0 0 0 0 0 0 0 0 0 0 0 0 0 0 0 0 0 0 0 0.08 0 0 0 0 0 0 -0.09 0 0 0 0 0 0 0 0 0 0 0 0 0 0 0 0 0 0 0 0 0 0 0 0 0 0 0.09 0 0 0 0 0 0 0 0 0 0 0 0 -0.08 0 0 0 0 0.08 -0.08 0 0 0 0 0 0 0 0 0 0 0 0 0 0 0 0 0 0 0 0 0 0 0 0 0.08 -0.09 0 0 0 0 0 0 0 0 0 0 0 0 0 0 0 0 0.09 0 0 0 0 0 0 0 0 0 0 0 0 0 0 0 0 0 0 0 0 -0.08 0.08 0 0 0 0 -0.08 0 0 0 0 0 0 0 0 0 0 0 0 0 0 0 0 0 0 0.08 0 0 -0.09 0 0 0 0 0 0 0 0 0 0 0.09 0 0 0 0 0 0 0 0 0 0 0 0 0 0 0 0 0 0 0 0 0 0.08 -0.08 0 0 0 0 0 0 0 0 0 0 0.08 0 0 0 0 0 0 0 0 0 0 0 0 0 0 0 0 0 0 -0.08 0 0 0 0 0.08 0 0 0 0 0 0 0 0 0 0 0 0 0 0 0 0 0 0 0 0 0 0 0 0 0 0 0 0 0 0 0 0 0 0 -0.09 0 0 0 0 0 0 0 0 0 0 0 0 0 0 0 0 0.09 0 0.08 -0.08 0 0 0 0 0 0 0 0 0 0 0 0 0 0 0 0 0 0 0 0 0 0 0 0 0 0 0 0 0 0 0.08 0 0 -0.08 0 0 0 0 0 0 0 0 0 0 0 0 0 0 0 0 0 0 0 0 0.09 0 0 0c0,0 0.08,0 0.08,-0.08l0 0 0 0 0 0 0 0 0 0 0 0 0 0 0.08 0 0 0 0 0 0 -0.09 0 0 0 0 0.09 0 0 0 0 0 0 0 0 0 0 0 0 0 0 0 0 0 0 0 0 0 0 0 0 0 0 0 0 0 0 0 0 0 0 0 0 0 0 0 0 0 0 0 0 0 0 0 0 0 -7.47 -7.55 -4.49 4.4 7.81 7.8 -10.96 0 0 6.31 13.2 0 0 0 0 0 0 0 0 0 0 0 0 0 0 0 0 0 0 0 0.08 0 0 0 0 0 0 0 0 0 0 0 0 0 0 0 0 0 0 0 0 0 0 0 0 0 0 0 0.08 0 0 0 0 0 0 0 0 0 0 0 0 0 0 0 0 0 0 0 0 0 0 0 0 0 0 0 0.09 0 0 0 0 0 0 0 0 0 0 0 0 0 0 0 0 0 0 0 0 0 0 0 0 0 0 0 0 0 0 0 0 0 0.08 0 0 0 0 0 0 0 0 0 0 0.08 0 0c0.75,0.17 1.33,0.67 1.66,1.25l0 0 0 0.08 0 0 0 0 0 0 0 0 0.08 0.08 0 0 0 0 0 0 0 0 0 0 0 0 0 0.09 0 0 0 0 0 0 0.08 0.08 0 0 0 0 0 0 0 0 0 0.08 0 0c0,0 0,0 0,0.09l0 0 0 0 0.09 0 0 0.08 0 0 0 0 0 0 0 0 0 0.08 0 0 0 0 0 0 0 0.08 0 0 0 0 0 0 0 0 0 0 0.08 0.09 0 0 0 0 0 0 0 0.08 0 0 0 0 0 0 0 0 0 0.08 0 0 0 0 0 0 0 0 0 0.09 0 0 0 0c0,0.08 0,0.08 0,0.16l0 0 0 0 0 0 0 0.09 0 0.08 0.08 0 0 0 5.98 0 0.25 0 0 0 0 0 0 0 0.08 0 0 0 0 0 0 -0.08c0,-1.25 0.83,-2.33 1.99,-2.66l0 0 0 0c0.09,0 0.25,0 0.34,0l13.19 0 0 -0.08 0 0 0 -6.23 -10.95 0 -0.17 0 0 0zm-4.48 -4.9l0 -10.62 -6.31 0 0 10.62 0 0 0 0 0.08 0 0 0 0 0 0 0 0 0 0.09 -0.08 0 0 0 0 0 0 0 0 0 0 0 0 0.08 0 0 0 0 0c0,0 0,0 0.08,-0.08l0 0 0 0 0 0 0 0 0 0 0 0 0 0c0.09,0 0.09,0 0.17,0l0 0 0 -0.08 0 0 0 0 0 0 0 0 0 0 0 0 0 0 0.17 0 0 0 0 0 0 0 0 0 0 0 0 0 0 0 0 0 0 0 0 0 0 0 0 0 0 0 0 0 0 0 0 0 0 0 0 0 0 0 0 0 0 0 0 0 0 0 0 0 0 0 0.08 0 0 0 0 0 0.08 -0.09 0 0 0 0 0 0 0 0 0 0 0 0 0 0 0 0 0 0 0 0 0 0 0.17 -0.08 0 0 0 0 0.08 0 0 0 0.17 0 0 0 0 -0.08 0 0 0.16 0 0.09 0 0.08 -0.09 0 0 0.08 0 0 0 0.08 0 0.09 0 0 0 0 0 0 0 0 0 0 0 0 0 0 0 0 0c0,0 0.08,0 0.08,0l0 0 0 0 0 0 0 -0.08 0 0 0 0 0.08 0 0 0c0,0 0.09,0 0.09,0l0 0 0 0 0 0 0.08 0 0 0 0 0 0 0 0.08 0 0 0 0 0 0 0 0 0 0 0 0 0 0 0 0 0 0.09 0 0 0 0 0 0 0 0 0 0 0 0 0 0 0 0 0 0 0c0.08,0 0.08,0 0.16,0l0 0 0 0 0 0 0 0 0 0 0 0 0 0 0 0c0.08,-0.08 0.08,-0.08 0.17,-0.08l0 0 0 0 0 0 0 0 0 0c0.08,0 0.08,0 0.16,0l0 0 0 0 0 0c0.09,0 0.17,0 0.17,0l0 0c0.08,0 0.17,0 0.25,0 0,0 0.08,0 0.16,0l0 0 0 0c0,0 0.09,0 0.17,0l0 0 0 0 0 0 0 0 0 0 0 0 0 0c0.08,0 0.08,0 0.17,0l0 0 0 0 0 0 0 0 0 0 0 0 0 0 0 0 0 0c0.08,0 0.08,0 0.16,0.08l0 0 0 0 0 0 0 0 0 0 0 0 0 0 0 0c0.09,0 0.17,0 0.17,0l0 0 0.08 0 0 0c0,0 0.08,0 0.08,0l0.09 0 0 0 0 0 0 0 0 0 0 0 0 0 0 0c0,0 0.08,0 0.16,0l0 0 0 0 0 0 0 0 0 0c0,0.08 0.09,0.08 0.17,0.08l0 0 0 0 0 0 0 0 0 0 0 0 0 0 0 0 0 0 0 0 0 0c0.08,0 0.08,0 0.17,0l0 0 0 0 0 0 0 0 0 0 0 0 0 0 0 0 0 0c0.08,0 0.08,0.09 0.16,0.09l0 0 0 0 0 0 0 0 0 0 0 0 0 0 0 0 0 0 0 0c0.08,0 0.08,0 0.17,0l0 0 0 0 0 0 0 0c0.08,0.08 0.08,0.08 0.16,0.08l0 0 0 0 0 0 0 0c0.09,0 0.09,0 0.17,0.08l0 0 0 0 0 0 0 0 0 0c0.08,0 0.08,0 0.17,0l0 0 0 0 0 0 0 0c0.08,0.09 0.08,0.09 0.16,0.09l0 0 0 0 0 0 0 0 0 0 0 0 0 0 0 0 0 0 0 0c0.08,0 0.08,0.08 0.17,0.08l0 0 0 0 0 0 0 0 0 0 0 0 0 0 0 0 0 0 0 0 0.16 0.08 0 0 0 0 0 0 0 0 0 0 0 0 0 0 0 0 0 0 0 0 0 0 0 0c0,0 0.09,0 0.09,0l0 0 0.08 0.08 0 0 0 0 0 0z"/>
  <path class="fil2" d="M16.86 88.31l0 -4.46c1.36,0.46 2.72,0.76 4.16,0.91 1.43,0.15 2.95,0.23 4.61,0.23 0.53,0 1.06,-0.08 1.59,-0.08 0.53,0 0.98,-0.07 1.44,-0.15 0.37,-0.08 0.75,-0.15 0.98,-0.23 0.23,-0.07 0.3,-0.22 0.23,-0.3 0,-0.15 -0.23,-0.23 -0.68,-0.23 -0.38,0 -0.91,0 -1.59,0 -0.68,0 -1.44,0.08 -2.2,0.08 -0.83,0.07 -1.66,0.07 -2.49,0.07 -0.91,-0.07 -1.67,-0.07 -2.5,-0.22 -0.83,-0.08 -1.51,-0.23 -2.19,-0.46 -0.61,-0.22 -1.14,-0.53 -1.51,-0.9 -0.38,-0.46 -0.53,-0.91 -0.53,-1.59 0,-0.46 0.15,-0.91 0.38,-1.29 0.3,-0.3 0.68,-0.68 1.21,-0.91 -0.53,-0.37 -0.99,-0.9 -1.29,-1.43 -0.3,-0.61 -0.45,-1.21 -0.45,-1.97 0,-0.83 0.15,-1.44 0.53,-2.04 0.3,-0.53 0.75,-0.98 1.36,-1.44 0.53,-0.38 1.13,-0.68 1.89,-0.9 0.75,-0.31 1.51,-0.46 2.34,-0.61 0.76,-0.15 1.59,-0.23 2.35,-0.3 0.83,-0.08 1.58,-0.08 2.27,-0.08l0.98 0 0 0c2.34,0 4.38,-0.07 6.05,-0.3 1.66,-0.23 2.95,-0.61 3.7,-1.06 -0.22,0.76 -0.52,1.44 -0.83,2.04 -0.3,0.53 -0.68,0.99 -1.13,1.29 0.53,0.45 0.91,0.91 1.21,1.43 0.3,0.53 0.45,1.22 0.45,1.97 0,0.76 -0.15,1.44 -0.45,1.97 -0.3,0.6 -0.76,1.06 -1.29,1.43 -0.53,0.46 -1.13,0.76 -1.81,0.99 -0.76,0.3 -1.44,0.45 -2.27,0.6 -0.76,0.15 -1.51,0.23 -2.35,0.31 -0.75,0.07 -1.51,0.07 -2.19,0.07 -0.53,0 -1.06,0 -1.66,0.08 -0.53,0 -1.14,0 -1.59,0 -0.53,0.07 -0.98,0.07 -1.29,0.15 -0.3,0 -0.45,0.15 -0.38,0.22 0,0.08 0.31,0.16 0.76,0.16 0.45,0 1.06,-0.08 1.82,-0.08 0.68,0 1.58,-0.08 2.49,-0.08 0.91,-0.07 1.89,-0.07 2.88,-0.07 0.98,0 1.89,0.07 2.79,0.15 0.99,0.15 1.74,0.3 2.5,0.53 0.76,0.3 1.29,0.6 1.74,1.06 0.45,0.45 0.68,0.98 0.68,1.66 0,0.61 -0.23,1.14 -0.6,1.67 -0.46,0.45 -0.99,0.9 -1.67,1.21 -0.68,0.37 -1.44,0.68 -2.34,0.9 -0.84,0.23 -1.67,0.46 -2.57,0.61 -0.91,0.15 -1.74,0.23 -2.58,0.3 -0.75,0 -1.51,0.08 -2.11,0.08 -1.59,0 -3.1,-0.08 -4.54,-0.23 -1.51,-0.08 -2.95,-0.38 -4.31,-0.76l0 0zm9.91 -11.49c0.37,0 0.83,-0.08 1.21,-0.08 0.45,-0.07 0.83,-0.15 1.21,-0.3 0.3,-0.08 0.6,-0.23 0.83,-0.45 0.22,-0.15 0.38,-0.38 0.38,-0.61 0,-0.3 -0.16,-0.53 -0.38,-0.68 -0.23,-0.15 -0.53,-0.3 -0.83,-0.45 -0.38,-0.08 -0.76,-0.15 -1.21,-0.23 -0.38,-0.08 -0.84,-0.08 -1.21,-0.08 -0.38,0 -0.84,0 -1.29,0.08 -0.45,0 -0.83,0.08 -1.21,0.23 -0.38,0.07 -0.76,0.22 -0.98,0.38 -0.31,0.22 -0.38,0.45 -0.38,0.75 0,0.23 0.07,0.46 0.38,0.68 0.22,0.15 0.53,0.3 0.9,0.46 0.38,0.07 0.84,0.15 1.29,0.22 0.45,0 0.91,0.08 1.29,0.08zm12.1 -10.74l6.58 0 0 12.55c0,0.31 0.07,0.53 0.3,0.61 0.15,0.15 0.45,0.15 0.98,0.15l1.06 0 0 4.54 -3.78 0c-0.76,0 -1.44,-0.08 -2.12,-0.3 -0.6,-0.23 -1.13,-0.46 -1.59,-0.84 -0.45,-0.38 -0.83,-0.75 -1.06,-1.28 -0.22,-0.53 -0.37,-1.06 -0.37,-1.74l0 -13.69 0 0zm9.9 11.04c0,-1.06 0.15,-1.89 0.53,-2.65 0.38,-0.75 0.83,-1.36 1.44,-1.89 0.68,-0.53 1.36,-0.98 2.19,-1.28 0.76,-0.3 1.59,-0.61 2.5,-0.76 0.91,-0.23 1.74,-0.3 2.65,-0.38 0.83,-0.07 1.66,-0.15 2.49,-0.15 0.76,0 1.59,0.08 2.42,0.15 0.91,0.08 1.74,0.15 2.65,0.38 0.83,0.15 1.66,0.38 2.42,0.76 0.75,0.3 1.44,0.75 2.04,1.21 0.61,0.53 1.14,1.21 1.44,1.96 0.38,0.68 0.53,1.59 0.53,2.65 0,0.98 -0.15,1.89 -0.53,2.65 -0.3,0.75 -0.83,1.36 -1.36,1.89 -0.61,0.53 -1.29,0.98 -2.12,1.28 -0.76,0.38 -1.59,0.61 -2.42,0.76 -0.83,0.23 -1.74,0.3 -2.65,0.38 -0.83,0.07 -1.66,0.15 -2.42,0.15 -0.83,0 -1.66,-0.08 -2.49,-0.15 -0.91,-0.08 -1.82,-0.15 -2.65,-0.38 -0.91,-0.15 -1.74,-0.38 -2.57,-0.76 -0.76,-0.3 -1.52,-0.75 -2.12,-1.28 -0.61,-0.53 -1.06,-1.14 -1.44,-1.89 -0.38,-0.76 -0.53,-1.67 -0.53,-2.65zm11.57 2.12c0.38,0 0.84,0 1.37,0 0.6,0 1.13,-0.08 1.66,-0.23 0.53,-0.15 0.98,-0.3 1.36,-0.6 0.3,-0.31 0.53,-0.76 0.53,-1.29 0,-0.6 -0.23,-0.98 -0.53,-1.28 -0.38,-0.31 -0.83,-0.53 -1.36,-0.69 -0.53,-0.07 -1.06,-0.15 -1.66,-0.15 -0.53,0 -0.99,0 -1.37,0 -0.45,0 -0.9,0 -1.43,0 -0.53,0 -1.06,0 -1.59,0.15 -0.45,0.16 -0.91,0.38 -1.21,0.61 -0.38,0.3 -0.53,0.76 -0.53,1.36 0,0.53 0.15,0.98 0.53,1.29 0.3,0.3 0.76,0.53 1.21,0.68 0.53,0.07 0.98,0.15 1.59,0.15 0.53,0 0.98,0 1.43,0zm13.39 -8.93l6.58 0 0 1.44c1.36,-0.45 2.65,-0.83 4.01,-1.06 1.36,-0.3 2.65,-0.45 3.93,-0.45l0 4.99c-0.83,0 -1.66,0 -2.34,0 -0.76,0 -1.44,0 -2.04,0 -0.61,0 -1.21,0.08 -1.82,0.15 -0.6,0.08 -1.13,0.23 -1.74,0.38l0 8.17 -6.58 0 0 -13.62 0 0zm36.76 0l0 13.62c0,0.83 -0.15,1.59 -0.53,2.34 -0.3,0.68 -0.83,1.29 -1.52,1.74 -0.6,0.46 -1.43,0.83 -2.42,1.14 -0.9,0.22 -1.96,0.37 -3.17,0.37l-10.51 0 0 -4.46 8.32 0c1.21,0 2.11,-0.15 2.57,-0.3 0.45,-0.23 0.68,-0.68 0.75,-1.21l0 -1.21c-1.66,0.53 -3.25,0.98 -4.69,1.36 -1.36,0.3 -2.64,0.53 -3.85,0.53 -1.82,-0.08 -3.26,-0.53 -4.24,-1.36 -1.06,-0.91 -1.51,-2.19 -1.51,-3.93l0 -8.7 6.58 0 0 7.64c0,0.68 0.23,1.06 0.6,1.36 0.38,0.23 0.91,0.38 1.59,0.38 0.76,0 1.59,-0.15 2.57,-0.38 0.99,-0.3 1.97,-0.61 2.95,-0.91l0 -8.02 6.51 0 0 0z"/>
 </g>
</svg>
