<svg width="23" height="24" viewBox="0 0 23 24" fill="none" xmlns="http://www.w3.org/2000/svg">
    <path
        d="M22.726 12.2489C22.726 11.328 22.6513 10.656 22.4896 9.95911H11.9739V14.1156H18.1464C18.022 15.1485 17.3499 16.7041 15.8566 17.7494L15.8356 17.8885L19.1605 20.4643L19.3909 20.4872C21.5064 18.5334 22.726 15.6587 22.726 12.2489Z"
        fill="#4285F4" />
    <path
        d="M11.9739 23.2001C14.9979 23.2001 17.5365 22.2045 19.3909 20.4872L15.8566 17.7493C14.9108 18.4089 13.6414 18.8693 11.9739 18.8693C9.01208 18.8693 6.49829 16.9156 5.60219 14.2151L5.47084 14.2262L2.0136 16.9018L1.96838 17.0275C3.81017 20.6862 7.59334 23.2001 11.9739 23.2001Z"
        fill="#34A853" />
    <path
        d="M5.60226 14.2151C5.36582 13.5183 5.22898 12.7715 5.22898 12C5.22898 11.2284 5.36582 10.4817 5.58983 9.78485L5.58356 9.63642L2.08299 6.91785L1.96846 6.97232C1.20937 8.49059 0.773804 10.1955 0.773804 12C0.773804 13.8045 1.20937 15.5093 1.96846 17.0276L5.60226 14.2151Z"
        fill="#FBBC05" />
    <path
        d="M11.9739 5.1305C14.077 5.1305 15.4956 6.03895 16.3046 6.79813L19.4655 3.71184C17.5242 1.90738 14.9979 0.799805 11.9739 0.799805C7.59334 0.799805 3.81017 3.3136 1.96838 6.97228L5.58975 9.7848C6.49829 7.08433 9.01208 5.1305 11.9739 5.1305Z"
        fill="#EB4335" />
</svg>