<svg width="16" height="14" viewBox="0 0 16 14" fill="none" xmlns="http://www.w3.org/2000/svg">
    <path
        d="M8.03163 2.36716C8.34293 1.93666 8.67684 1.58486 9.06573 1.31076C9.69983 0.863461 10.4459 0.639755 11.4253 0.639755C12.5121 0.639755 13.5011 1.03235 14.2205 1.66615C14.9603 2.31845 15.4187 3.22587 15.4187 4.23067C15.4187 7.49167 11.923 10.5727 8.42764 13.6531L8.03163 14.002L7.63564 13.6531C4.14024 10.5727 0.644531 7.49167 0.644531 4.23067C0.644531 3.22587 1.10294 2.31845 1.84274 1.66615C2.56224 1.03235 3.55123 0.639755 4.63803 0.639755C5.61713 0.639755 6.36323 0.863461 6.99733 1.31076C7.38593 1.58486 7.72013 1.93666 8.03163 2.36716ZM9.75453 2.29036C9.30643 2.60616 8.93363 3.10506 8.55183 3.77826L8.03194 4.69496L7.51154 3.77826C7.12964 3.10506 6.75694 2.60646 6.30844 2.29036C5.88304 1.99016 5.35543 1.83997 4.63803 1.83997C3.85193 1.83997 3.14364 2.11776 2.63474 2.56586C2.14724 2.99596 1.84474 3.58527 1.84474 4.23067C1.84474 6.84257 4.87753 9.62016 8.03163 12.4042C11.1857 9.62016 14.2185 6.84257 14.2185 4.23067C14.2185 3.58527 13.9161 2.99596 13.4285 2.56586C12.92 2.11776 12.2113 1.83997 11.4253 1.83997C10.7075 1.83997 10.18 1.99016 9.75453 2.29036Z"
        fill="#E4A3A0" />
</svg>