<svg width="1280" height="840" viewBox="0 0 1280 840" fill="none" xmlns="http://www.w3.org/2000/svg">
    <path
        d="M898.79 530.057L1166.97 261.923L1015.84 110.798L758.172 368.425L758.351 368.515L758.485 368.604L758.664 368.694L758.798 368.783L762.286 370.795L762.42 370.885L762.599 370.974L762.733 371.063L762.867 371.153L763.001 371.197L763.18 371.287L763.314 371.376L763.493 371.466L763.627 371.555L763.761 371.645L763.94 371.734C765.147 372.449 766.31 373.21 767.472 373.925L767.651 374.014L767.785 374.104L767.919 374.193L768.769 374.73L768.903 374.819L769.082 374.909L769.216 374.998L769.35 375.087L769.529 375.177L771.765 376.608L771.899 376.742L772.033 376.831L772.212 376.921L772.346 377.01L772.48 377.099L772.659 377.234L772.793 377.323L772.927 377.412L773.106 377.502L773.24 377.591L773.374 377.725L773.553 377.815L773.687 377.904L773.821 377.994L774 378.083L774.134 378.217L774.269 378.307L776.638 379.872L776.772 380.006L776.906 380.095L777.041 380.185L777.219 380.274L777.354 380.408L777.488 380.497L777.667 380.587L777.801 380.676L777.935 380.81L778.069 380.9L778.248 380.989L778.516 381.213L778.65 381.302L778.829 381.392L778.963 381.526L779.097 381.615L782.004 383.672L782.138 383.761L782.272 383.896L782.406 383.985L782.585 384.074L782.719 384.209L782.853 384.298L782.987 384.387L783.3 384.611L783.434 384.7L786.564 387.07L786.698 387.159L786.832 387.294L786.967 387.383L787.145 387.472L787.28 387.607L787.414 387.696L787.548 387.83L787.682 387.92L788.174 388.322L791.08 390.558L791.169 390.647L791.214 390.692L791.304 390.736L791.393 390.826L791.482 390.871L791.84 391.184L791.93 391.228L792.019 391.318L792.377 391.586L792.466 391.675L792.555 391.72L792.645 391.809L792.734 391.899L792.824 391.944L792.869 392.033L792.958 392.122L793.047 392.167L793.137 392.257L793.226 392.301L793.316 392.391L793.405 392.48L794.925 393.687L795.015 393.777L795.104 393.866L795.194 393.911L795.283 394L795.372 394.045L795.417 394.134L795.506 394.224L795.596 394.269L795.685 394.358L795.775 394.447L795.864 394.492L795.954 394.582L796.043 394.671L796.132 394.716L796.222 394.805L796.311 394.895L796.401 394.939L796.49 395.029L796.58 395.118L796.669 395.163L796.758 395.252L796.803 395.297L797.384 395.789L797.429 395.834L800.156 398.203L800.425 398.427L800.559 398.561L800.693 398.65L800.827 398.784L800.961 398.919L801.095 399.008L801.23 399.142L801.364 399.276L801.498 399.366L801.632 399.5C802.616 400.394 803.555 401.244 804.538 402.138L804.672 402.272L804.806 402.361L804.896 402.496L805.03 402.63L805.164 402.719L805.298 402.853L805.432 402.987L805.567 403.077L805.701 403.211L805.835 403.345L808.294 405.67L808.383 405.804L808.518 405.894L808.652 406.028L808.786 406.162L809.278 406.654L809.367 406.698L809.456 406.788L809.546 406.877L809.591 406.967L809.68 407.056L809.769 407.146L809.859 407.19L809.948 407.28L810.038 407.369L810.082 407.458L810.44 407.771L810.53 407.861L812.273 409.605L812.318 409.649L812.407 409.739L812.497 409.828L812.586 409.918L812.676 410.007L812.72 410.096L812.81 410.186L812.899 410.231L812.989 410.32L813.078 410.409L813.123 410.499L813.212 410.588L813.302 410.678L813.972 411.348L814.017 411.393L814.106 411.483L814.196 411.572L814.285 411.661L814.33 411.751L814.419 411.84L814.509 411.885L816.923 414.433L817.639 415.238L817.773 415.328L817.862 415.462L817.952 415.596L818.086 415.685L818.175 415.82L818.309 415.954L818.399 416.043L820.411 418.234L820.5 418.368L820.59 418.458L820.724 418.592L820.813 418.726L820.947 418.815L821.037 418.949L821.126 419.083L821.26 419.218L821.35 419.307L821.484 419.441L821.573 419.575L821.707 419.665L821.797 419.799L821.886 419.933L822.02 420.067L822.11 420.157L822.244 420.291L822.333 420.425C823.004 421.14 823.63 421.9 824.256 422.616L824.345 422.75L824.479 422.884L824.569 423.018L825.687 424.315L827.654 426.684L827.699 426.729L827.743 426.774L827.788 426.819L827.833 426.863V426.908L827.878 426.953L827.922 426.997L827.967 427.042L828.012 427.087L829.8 429.322L829.845 429.367L829.89 429.412L829.934 429.457L829.979 429.546L830.024 429.591L830.068 429.635L830.113 429.725L830.158 429.77L831.946 432.05V432.095L833.109 433.57L833.154 433.615L834.897 435.94L834.987 436.029L837.312 439.248L838.787 441.35L838.877 441.484L840.084 443.228L841.693 445.597L841.828 445.776L844.018 449.13L845.136 450.918L845.181 450.963L846.701 453.422L846.791 453.556L847.819 455.3L847.864 455.344L849.205 457.625L849.25 457.669L849.294 457.759L849.339 457.804L849.384 457.848V457.938L849.429 457.982L849.473 458.072L849.518 458.117L849.563 458.161V458.251L849.607 458.295L849.652 458.34L849.697 458.43L849.742 458.474V458.519L849.786 458.608L849.831 458.653L851.038 460.799L851.083 460.844L851.128 460.889V460.978L851.172 461.023L851.217 461.112L851.262 461.157L851.306 461.202V461.291L851.351 461.336L851.396 461.381L851.44 461.47L851.485 461.515L852.558 463.482L852.603 463.616L853.81 465.762L855.241 468.49L856.627 471.217L858.103 474.123L859.131 476.314L859.176 476.359L860.428 479.042L861.59 481.635L861.635 481.769L863.065 484.988L863.96 487.09L865.346 490.443L865.838 491.695V491.74L865.882 491.829V491.918L865.927 491.963L865.972 492.053V492.097L866.016 492.187L867.403 495.853L867.447 495.943V495.987L867.492 496.077L867.537 496.166V496.211L867.581 496.3L868.207 498.089L868.252 498.133V498.178L868.297 498.267V498.312L868.341 498.402V498.446L868.386 498.491V498.58L868.431 498.625L868.476 498.759V498.804L869.459 501.621L869.504 501.666V501.755L869.549 501.8V501.844L869.817 502.649L869.906 502.828V502.917L869.951 503.052L869.996 503.141C870.488 504.617 870.935 506.047 871.427 507.523V507.612L871.471 507.657V507.746L871.516 507.836L871.918 509.132V509.177L873.17 513.38L873.439 514.319L873.483 514.408V514.453L873.528 514.542V514.632L873.573 514.677V514.766V514.855L874.646 518.745L874.691 518.835V518.879V518.969L874.735 519.058V519.148L874.78 519.192V519.282L875.227 520.936V521.026V521.07L875.272 521.115V521.204V521.249L875.316 521.294V521.383L875.361 521.473V521.562L876.077 524.424V524.468L876.121 524.692L876.166 524.781L876.211 524.96L876.479 526.123V526.212L876.524 526.302V526.391V526.48L876.568 526.525L877.328 530.013L791.393 530.057C734.565 530.057 681.939 548.926 639.464 580.715C597.122 549.373 544.899 530.817 488.473 530.817H401.375V530.773V530.683L401.42 530.639C401.688 529.342 401.956 528.135 402.224 526.883V526.793L402.269 526.749V526.659L402.314 526.525L402.671 524.871L402.716 524.781L403.61 521.07V521.026L404.102 519.148V519.058L404.147 518.969V518.924L404.192 518.835L404.281 518.522V518.432L404.326 518.343L405.175 515.213V515.168L405.22 515.079V514.99L405.265 514.945V514.855V514.811L405.309 514.721V514.632L405.622 513.648L405.667 513.514V513.425L405.712 513.335V513.291C406.114 511.815 406.561 510.34 407.009 508.864L407.053 508.819V508.73L407.098 508.641L407.187 508.372V508.283L407.232 508.193L407.277 508.104V508.015L407.322 507.97L408.618 503.946V503.856L408.663 503.767L408.708 503.722V503.633L408.752 503.543V503.499L409.334 501.8L410.675 497.954L411.211 496.434L411.256 496.39L412.776 492.366L413.492 490.622V490.577L414.922 487.09L415.772 485.078V485.033L417.337 481.501L417.382 481.367L418.097 479.802L418.142 479.712L419.751 476.225L420.556 474.526L422.434 470.77L423.328 469.071L425.206 465.494L425.564 464.779L425.653 464.6L425.698 464.555L425.743 464.51L425.787 464.421V464.376L425.832 464.331L425.877 464.242L425.921 464.197V464.153L425.966 464.063L426.011 464.019L427.576 461.202L427.621 461.112L427.665 461.068L427.71 461.023V460.933L427.755 460.889L427.799 460.799L427.844 460.755V460.71L429.185 458.385L430.706 455.881L431.823 453.958L431.913 453.869V453.78L431.958 453.735L432.002 453.69L433.746 450.918V450.873L433.791 450.829L433.835 450.784L433.88 450.694V450.65L433.925 450.605L433.97 450.56L434.014 450.516L434.059 450.471V450.382L435.132 448.727H435.177L436.965 445.955L438.798 443.228L438.888 443.138L440.408 440.903L440.497 440.813L442.062 438.622L443.359 436.834L445.595 433.838L447.383 431.469L447.472 431.379L448.993 429.457L450.647 427.4L452.838 424.762L452.882 424.672L454.805 422.437L454.895 422.347L456.504 420.47L457.89 418.905L457.935 418.86L458.024 418.771L458.069 418.726L458.114 418.681L458.158 418.592L458.203 418.547L458.248 418.502L458.293 418.413L460.483 416.043L460.528 415.954L460.796 415.685L460.841 415.641L460.931 415.551L460.975 415.507L461.02 415.462L461.065 415.372L461.109 415.328L461.154 415.283L461.244 415.194L461.288 415.149L462.54 413.808L464.597 411.661L465.715 410.499L465.804 410.409L465.849 410.365L465.938 410.32L465.983 410.231L466.028 410.186L466.117 410.096L466.162 410.052L466.251 410.007L466.296 409.918L466.341 409.873L466.43 409.783L466.475 409.739L466.519 409.694L466.609 409.605L468.442 407.771L468.531 407.682L468.576 407.637L468.666 407.593L468.71 407.503L468.755 407.458L468.844 407.369L468.889 407.324L468.979 407.28L469.023 407.19L469.113 407.146L469.157 407.056L469.202 407.011L469.292 406.967L469.336 406.877L469.426 406.833L469.47 406.743L469.515 406.698L469.605 406.654L469.649 406.564L469.739 406.52L470.633 405.625L470.722 405.536L472.913 403.434L474.031 402.406L474.12 402.361L474.165 402.272L474.255 402.227L474.299 402.138L474.389 402.093L474.433 402.048L474.523 401.959L474.568 401.914L474.657 401.825L474.702 401.78L474.791 401.691L477.116 399.589L477.206 399.545L477.34 399.41L477.384 399.366L477.474 399.276L477.563 399.232L477.608 399.142L477.697 399.097L477.742 399.053L477.832 398.963L477.876 398.919L477.966 398.829L478.01 398.784L478.1 398.74L478.189 398.65L478.234 398.606L478.323 398.516L478.368 398.471L478.457 398.427L479.307 397.667L481.677 395.61L482.839 394.582L482.929 394.537L482.973 394.492L483.063 394.447L483.107 394.403L483.197 394.358L483.286 394.224L483.376 394.179L483.42 394.134L483.51 394.09L483.555 394.045L485.969 392.033L486.014 391.988L486.103 391.944L486.148 391.899L486.237 391.854L486.282 391.765L486.371 391.72L486.416 391.675L486.505 391.631L486.55 391.586L486.595 391.541L486.684 391.496L486.729 391.452L486.818 391.362L486.863 391.318L486.953 391.273L488.339 390.155L490.753 388.233L490.887 388.143L491.692 387.517L491.781 387.472L491.871 387.383L491.96 387.338L492.05 387.249L492.094 387.204L492.184 387.115L492.273 387.07L492.363 386.981L492.452 386.936L492.542 386.846L492.631 386.802L492.72 386.712L492.81 386.668L492.899 386.578L492.989 386.534L494.911 385.058L495.001 385.013L495.09 384.924L495.18 384.879L495.269 384.79L495.358 384.745L495.448 384.656L495.537 384.611L495.627 384.522L495.716 384.477L495.805 384.387L495.895 384.343L495.984 384.253L496.163 384.119L496.253 384.074L496.431 383.94L496.521 383.896L496.7 383.761L496.789 383.672L496.968 383.538L497.057 383.493L497.147 383.448L497.236 383.359L497.326 383.314L497.415 383.225L497.46 383.18L500.277 381.213L501.35 380.453L501.439 380.408L501.484 380.363L501.573 380.319L501.618 380.274L501.707 380.229L501.752 380.185L501.842 380.14L501.886 380.095L501.976 380.05L502.02 380.006L502.11 379.961L502.155 379.916L502.244 379.872L502.289 379.827L502.378 379.782L504.748 378.172L504.837 378.128L505.016 377.994L505.061 377.949L505.15 377.904L505.195 377.859L505.284 377.815L505.374 377.77L505.418 377.725H505.508L505.553 377.681L505.642 377.636L507.386 376.473C508.235 375.892 509.085 375.4 509.934 374.864L511.365 373.925L511.454 373.88L511.544 373.835L511.589 373.791L511.678 373.746L511.767 373.701L511.857 373.612L511.946 373.567L511.991 373.522L512.08 373.478L514.495 372.002L514.584 371.958L514.674 371.913L514.763 371.868L514.808 371.823L514.897 371.779L514.987 371.689L515.076 371.645L515.166 371.6L515.255 371.555L515.344 371.51L515.389 371.466L515.479 371.421L515.568 371.376L515.657 371.332L515.747 371.287L515.836 371.197L515.881 371.153L515.97 371.108L516.06 371.063L516.149 371.019L516.239 370.974L516.328 370.929L516.373 370.885L516.462 370.84L516.552 370.795L516.641 370.75L517.043 370.482L259.774 113.212L108.694 264.337L375.085 530.773L0 530.728V744.449H450.021H450.2L450.379 744.494L450.602 744.538L451.362 744.628L451.541 744.672H451.765L451.944 744.717L452.122 744.762H452.301L452.525 744.807L452.704 744.851L452.882 744.896H453.061L453.464 744.985L453.643 745.03L453.821 745.075H454.045L454.224 745.12L454.403 745.164L454.582 745.209H454.626L455.163 745.298L455.342 745.343L455.52 745.388L455.923 745.432L456.102 745.477L456.281 745.522H456.325L456.459 745.567L456.683 745.611L456.862 745.656L457.041 745.701H457.22L457.622 745.79L457.801 745.835L457.98 745.88L458.158 745.924L458.337 745.969L458.516 746.014L458.74 746.058L458.919 746.103L459.097 746.148L459.276 746.193L459.455 746.237L459.634 746.282L459.813 746.327L460.036 746.371L460.215 746.416L460.394 746.461H460.439L460.573 746.506L460.752 746.55L460.931 746.595L461.109 746.64L461.288 746.684L461.512 746.729L461.691 746.819L461.87 746.863L462.048 746.908C486.505 753.615 507.028 770.113 519.011 791.888L519.055 792.022L519.324 792.514L519.681 793.14L519.994 793.766L520.039 793.855L520.352 794.436L520.665 795.062L520.978 795.688L521.291 796.314L521.872 797.566L521.917 797.611L522.498 798.907L522.722 799.444L522.766 799.578L523.079 800.249L523.348 800.875L523.527 801.367L523.616 801.545L524.153 802.887L524.331 803.289L524.421 803.557L524.689 804.228C525.002 805.122 525.315 806.017 525.628 806.956L525.717 807.224L525.852 807.626L526.299 809.012L526.388 809.236V809.28L526.925 811.069L526.969 811.248L527.148 811.784L527.461 813.036L527.506 813.17L527.551 813.26L527.685 813.886L528.042 815.317L528.49 817.284V817.373L528.534 817.418V817.463L528.847 819.206L528.937 819.475V819.609L528.981 819.788L529.205 821.04L529.294 821.531L529.339 821.755V821.844L529.563 823.23L529.607 823.678L529.652 823.946L529.831 825.421L529.876 825.779L529.92 826.181L530.099 827.657V827.925L530.144 828.372C530.278 829.624 530.367 830.876 530.412 832.128V832.262L530.502 834.364V834.453V836.644V839.908H531.843V838.969H737.516H745.564V839.908H746.995V838.209H748.157V839.192H749.454V835.929C749.454 793.363 778.382 757.236 817.549 746.282L817.505 746.327L817.415 746.371C820.724 745.567 824.077 744.896 827.52 744.449H1279.96V743.689H1280V529.968H904.871H898.79V530.057ZM744.67 361.361H744.58L744.491 361.316L744.267 361.182H744.178C742.792 360.511 741.406 359.841 740.02 359.215L739.93 359.17L739.841 359.125H739.751L739.707 359.081L739.528 358.991L739.394 358.947L739.304 358.902L739.215 358.857L739.17 358.812H739.081L738.991 358.768L738.902 358.723L734.699 356.89L734.609 356.845L734.565 356.8L734.475 356.756L734.118 356.622H734.073L733.715 356.443L733.626 356.398H733.536L733.492 356.353L733.402 356.309C731.971 355.727 730.585 355.146 729.155 354.565H729.065L729.021 354.52L728.931 354.475H728.842L728.618 354.341L728.35 354.252L728.26 354.207H728.171L728.126 354.162L728.037 354.118C726.472 353.492 724.907 352.91 723.297 352.329L723.208 352.285L723.074 352.24L722.895 352.15L722.716 352.106C721.062 351.524 719.452 350.943 717.798 350.362L717.619 350.317L717.44 350.273L717.306 350.228L717.127 350.138C715.473 349.602 713.819 349.065 712.12 348.529L711.762 348.395H711.672L711.494 348.305L711.315 348.261C709.66 347.769 708.006 347.277 706.397 346.785L706.218 346.74L706.039 346.696L705.86 346.651L705.681 346.606C704.072 346.159 702.462 345.712 700.852 345.31L700.673 345.265L700.495 345.22L700.316 345.175L700.226 345.131L700.092 345.086H700.003L699.913 345.041H699.824L699.734 344.997H699.645C698.035 344.594 696.381 344.192 694.727 343.789H694.682L694.548 343.745H694.503L694.369 343.7L694.235 343.655H694.146H694.056L694.011 343.611H693.922C692.312 343.253 690.747 342.895 689.183 342.582L689.093 342.537H689.004L688.914 342.493H688.825L688.735 342.448L688.467 342.403L688.244 342.359H688.154L688.065 342.314H687.975H687.886C686.187 341.956 684.443 341.598 682.699 341.285H682.61H682.521L682.431 341.241H682.342H682.252C680.553 340.928 678.81 340.615 677.066 340.347H676.976L676.797 340.302H676.708H676.619L676.485 340.257H676.44H676.35L676.261 340.212C674.473 339.944 672.639 339.721 670.851 339.452H670.761L670.448 339.408H670.27C668.347 339.139 666.38 338.916 664.457 338.737H664.368H664.323H664.234H664.144H664.055L663.965 338.692H663.876C662.087 338.513 660.299 338.379 658.511 338.245H658.421L658.332 338.2H658.242H658.198H658.153H658.063H657.974H657.885L657.795 338.156C656.051 338.066 654.263 337.932 652.519 337.843H652.385H652.296H652.206L652.027 337.798H651.804H651.58H651.401C649.568 337.709 647.735 337.619 645.857 337.574H645.768H645.678C643.622 337.53 641.565 337.485 639.508 337.485C637.407 337.485 635.305 337.53 633.204 337.574C631.281 337.619 629.314 337.709 627.391 337.798H627.168H626.989L626.765 337.843C624.798 337.932 622.875 338.066 620.908 338.2H620.774H620.64L620.55 338.245H620.461H620.372C618.673 338.379 617.018 338.513 615.364 338.692H615.275H615.185H615.096H615.006L614.917 338.737H614.827H614.649L614.246 338.782C612.681 338.916 611.161 339.139 609.641 339.318H609.552H609.507H609.417L609.328 339.363H609.238H609.149H609.06H609.015L608.926 339.408L607.897 339.497L607.852 339.542H607.763H607.674H607.629H607.539L607.45 339.586H607.316H607.227L603.202 340.168H603.158H603.068H603.024L602.085 340.347H601.995H601.906L601.816 340.391C600.252 340.615 598.642 340.883 597.077 341.151H596.988L596.943 341.196H596.853L596.496 341.241L595.959 341.375H595.87H595.825H595.736C594.484 341.643 593.187 341.867 591.98 342.135H591.89H591.801L591.756 342.18H591.667H591.622L591.533 342.224H591.443H591.399L589.431 342.627L585.72 343.432H585.676L583.395 343.968L583.306 344.013L580.221 344.773L577.672 345.399L574.095 346.383H574.006L571.636 347.098L568.462 348.037L565.868 348.842L565.69 348.886L563.275 349.691H563.186L559.564 350.943L557.91 351.524H557.82L557.776 351.569H557.686L557.641 351.614L557.552 351.659H557.507L557.418 351.703H557.373L557.284 351.748L554.646 352.687L554.556 352.732L554.422 352.776L554.378 352.821H554.288L554.243 352.866H554.154L554.109 352.911H554.02L553.93 352.955L553.886 353H553.796L553.752 353.045H553.662L553.617 353.089L553.528 353.134L552.544 353.492L552.455 353.536H552.41L552.321 353.581H552.276L552.187 353.626L552.142 353.671H552.053L551.963 353.715H551.918L551.829 353.76L551.695 353.805L551.65 353.849L548.654 355.012H548.61L548.52 355.057L548.476 355.101H548.386L548.341 355.146L548.252 355.191H548.163L546.598 355.861L546.329 355.951C545.167 356.443 544.004 356.935 542.887 357.426L542.618 357.516L542.395 357.65L542.127 357.739L541.903 357.829L541.635 357.963L541.411 358.052L541.143 358.186C540.115 358.634 539.042 359.125 537.968 359.617L537.745 359.707L537.521 359.841L537.253 359.93L537.029 360.064L536.761 360.154L536.538 360.288L536.269 360.377L536.046 360.511L535.822 360.646L532.692 362.121L532.424 362.255L532.201 362.389L531.977 362.479L531.709 362.613L531.485 362.747L531.262 362.836L530.993 362.971V0.0922852H744.714V361.361H744.67Z"
        fill="#FEFEFE" />
</svg>