<svg width="23" height="15" viewBox="0 0 23 15" fill="none" xmlns="http://www.w3.org/2000/svg">
<path d="M12.9195 6.56001L12.8695 6.51001H12.8195L12.7195 6.46001C12.7195 6.46001 12.6695 6.41001 12.6195 6.41001C12.6195 6.41001 12.5862 6.39334 12.5195 6.36001H12.4295C12.3962 6.32668 12.3629 6.31001 12.3295 6.31001C12.2962 6.31001 12.2629 6.29334 12.2295 6.26001H12.1295C12.0795 6.26001 12.0795 6.21001 12.0295 6.21001H11.9295C11.9295 6.21001 11.8295 6.21001 11.8295 6.16001H11.4895C11.4895 6.16001 11.4395 6.11001 11.3895 6.11001H10.7495C10.7162 6.11001 10.6829 6.12668 10.6495 6.16001H10.3095V6.21001H10.1095L10.0595 6.26001H9.90953V6.31001H9.75953L9.65953 6.36001L9.60953 6.41001H9.45953V6.46001H9.35953L9.30953 6.51001H9.25953L9.20953 6.56001H9.15953V0.26001H12.8995V6.56001H12.9195ZM15.5795 9.46001L20.2595 4.78001L17.5995 2.17001L13.1195 6.65001H13.1695L13.2195 6.70001C13.2195 6.70001 13.2695 6.75001 13.3095 6.75001L13.3595 6.80001H13.4095V6.85001H13.4595L13.5095 6.90001H13.5595V6.95001L13.6095 7.00001H13.6595L13.7095 7.05001H13.7595V7.10001H13.8095V7.15001L13.8595 7.20001H13.9095C13.9095 7.20001 13.9095 7.25001 13.9595 7.25001L14.0095 7.30001V7.35001H14.0595V7.40001H14.1095L14.1595 7.45001V7.50001H14.2095V7.55001H14.2595C14.2595 7.55001 14.2595 7.60001 14.3095 7.60001V7.65001L14.3595 7.70001L14.4095 7.75001V7.80001H14.4595V7.85001L14.5095 7.90001L14.5595 7.95001L14.6095 8.00001L14.6595 8.09001L14.7095 8.14001V8.19001L14.7595 8.24001V8.29001L14.8095 8.34001L14.8595 8.39001V8.44001L14.9095 8.49001V8.59001L14.9595 8.64001V8.69001L15.0095 8.74001V8.84001L15.0595 8.89001V8.94001L15.1095 8.99001V9.09001L15.1595 9.14001V9.29001H15.2095V9.49001H13.7295C12.7395 9.49001 11.8095 9.83001 11.1195 10.38C10.3795 9.84001 9.44953 9.49001 8.45953 9.49001H6.97953V9.34001L7.02953 9.29001V9.19001C7.02953 9.19001 7.02953 9.14001 7.07953 9.14001V8.99001L7.12953 8.94001V8.89001L7.17953 8.84001V8.74001L7.22953 8.69001V8.59001L7.27953 8.54001V8.49001L7.32953 8.44001L7.37953 8.35001L7.42953 8.30001V8.25001L7.47953 8.20001V8.15001L7.52953 8.10001V8.05001L7.57953 8.00001L7.62953 7.95001L7.67953 7.90001V7.85001L7.72953 7.80001L7.77953 7.75001L7.82953 7.70001L7.87953 7.65001V7.60001L7.92953 7.55001H7.97953V7.50001H8.02953V7.45001L8.07953 7.40001H8.12953V7.35001H8.17953V7.30001L8.22953 7.25001L8.27953 7.20001H8.32953V7.15001H8.37953V7.10001H8.42953V7.05001H8.47953L8.52953 7.00001H8.57953V6.95001H8.62953V6.90001H8.67953L8.72953 6.85001H8.77953V6.80001H8.82953C8.82953 6.80001 8.87953 6.80001 8.87953 6.75001H8.92953V6.70001H8.97953L4.54953 2.22001L1.89953 4.83001L6.51953 9.46001H0.0195312V13.2H8.03953V13.25C8.47953 13.35 8.82953 13.64 9.02953 13.98V14.03L9.07953 14.08V14.13L9.12953 14.18V14.28H9.17953V14.43L9.22953 14.48V14.82H13.0195V14.77C13.0195 14.04 13.5195 13.39 14.1995 13.2H22.2195V9.46001H15.6195H15.5795Z" fill="#E4A3A0"/>
</svg>
