<svg width="15" height="16" viewBox="0 0 15 16" fill="none" xmlns="http://www.w3.org/2000/svg">
<path fill-rule="evenodd" clip-rule="evenodd" d="M10.9666 1.52209C10.4176 1.23309 9.75561 1.61914 9.75561 2.23914C9.75561 2.55514 9.94264 2.83011 10.2206 2.97711C12.2636 4.06211 13.5746 6.34711 13.1986 8.88611C12.8286 11.4021 10.7346 13.4161 8.2066 13.6981C4.7646 14.0811 1.84265 11.3871 1.84265 8.02411C1.84265 5.82311 3.09165 3.91213 4.92065 2.95813C5.17765 2.82413 5.34961 2.57013 5.34961 2.28113V2.2121C5.34961 1.6041 4.70266 1.23011 4.16266 1.51111C1.57366 2.86011 -0.108384 5.70509 0.260616 8.89709C0.646616 12.2401 3.36665 14.9471 6.70965 15.3191C11.1427 15.8111 14.8946 12.3571 14.8946 8.02313C14.8946 5.20013 13.3026 2.75009 10.9666 1.52209ZM6.8186 7.28912V1.41711C6.8186 1.01011 7.14561 0.683105 7.55261 0.683105C7.95661 0.683105 8.28564 1.01011 8.28564 1.41711V7.28912C8.28564 7.69512 7.95661 8.02411 7.55261 8.02411C7.14561 8.02411 6.8186 7.69512 6.8186 7.28912Z" fill="#E3A29F"/>
</svg>
