<svg width="17" height="4" viewBox="0 0 17 4" fill="none" xmlns="http://www.w3.org/2000/svg">
<path d="M1.86836 3.78999C2.86247 3.78999 3.66836 2.98412 3.66836 1.99001C3.66836 0.995893 2.86247 0.190002 1.86836 0.190002C0.87425 0.190002 0.0683594 0.995893 0.0683594 1.99001C0.0683594 2.98412 0.87425 3.78999 1.86836 3.78999Z" fill="white"/>
<path d="M8.46797 3.78999C9.46208 3.78999 10.268 2.98412 10.268 1.99001C10.268 0.995893 9.46208 0.190002 8.46797 0.190002C7.47386 0.190002 6.66797 0.995893 6.66797 1.99001C6.66797 2.98412 7.47386 3.78999 8.46797 3.78999Z" fill="white"/>
<path d="M14.5695 3.78999C15.5636 3.78999 16.3695 2.98412 16.3695 1.99001C16.3695 0.995893 15.5636 0.190002 14.5695 0.190002C13.5754 0.190002 12.7695 0.995893 12.7695 1.99001C12.7695 2.98412 13.5754 3.78999 14.5695 3.78999Z" fill="white"/>
</svg>
