<svg width="12" height="16" viewBox="0 0 12 16" fill="none" xmlns="http://www.w3.org/2000/svg">
    <path opacity="0.9" fill-rule="evenodd" clip-rule="evenodd"
        d="M3.98639 13.994H7.66437C7.66437 15.009 6.84138 15.8329 5.82538 15.8329C4.80938 15.8329 3.98639 15.009 3.98639 13.994ZM9.83038 9.26093V6.10193C9.83038 4.25093 8.56335 2.70495 6.85535 2.24695C6.85835 2.21395 6.87439 2.18494 6.87439 2.15094V1.83295C6.87439 1.25295 6.40434 0.782959 5.82434 0.782959C5.24434 0.782959 4.77435 1.25295 4.77435 1.83295V2.15094C4.77435 2.18494 4.7904 2.21395 4.7934 2.24695C3.0854 2.70495 1.81836 4.25093 1.81836 6.10193V9.26196C0.979359 9.78596 0.444336 10.7199 0.444336 11.7319V12.567C0.444336 13.002 0.797361 13.3549 1.23236 13.3549H10.4174C10.8524 13.3549 11.2054 13.002 11.2054 12.567V11.7319C11.2054 10.7189 10.6714 9.78592 9.83038 9.26093Z"
        fill="#E3A29F" />
</svg>