<?xml version="1.0" encoding="UTF-8"?>
<svg version="1.1" xmlns="http://www.w3.org/2000/svg" width="512" height="512">
<path d="M0 0 C0.64738787 -0.00235223 1.29477573 -0.00470446 1.96178141 -0.00712797 C4.12805956 -0.0137775 6.29427716 -0.01336098 8.46056461 -0.01294994 C10.03072722 -0.0162511 11.60088897 -0.0199772 13.17104965 -0.02409142 C17.48393684 -0.03409102 21.79681011 -0.03782493 26.10970724 -0.04048073 C30.76228987 -0.04438987 35.41486155 -0.0539678 40.06743717 -0.0626936 C51.30277627 -0.08244114 62.53811624 -0.09252219 73.77346835 -0.10142139 C79.06780928 -0.10580722 84.36214922 -0.11117327 89.65648937 -0.11641026 C107.26206695 -0.13342107 124.86764392 -0.14791439 142.47322845 -0.155159 C147.04030133 -0.15706881 151.6073742 -0.15898915 156.17444706 -0.16094494 C157.87707783 -0.16167055 157.87707783 -0.16167055 159.61410517 -0.16241082 C177.99442268 -0.17070796 196.37467504 -0.19604023 214.75496411 -0.22852562 C233.63660499 -0.26162432 252.51821281 -0.27961031 271.39988285 -0.28280324 C281.99675478 -0.28496576 292.59353172 -0.29367667 303.19037533 -0.31926441 C312.21668047 -0.34100983 321.24286754 -0.34900295 330.26919591 -0.33929763 C334.87056868 -0.33476403 339.47169803 -0.33658424 344.07303715 -0.35605907 C348.29453556 -0.37377112 352.51561441 -0.37262847 356.73711777 -0.35716178 C358.25536999 -0.35479784 359.77365189 -0.35904549 361.29185896 -0.37099043 C383.21459801 -0.53263687 400.60012791 6.78603687 416.46277714 21.88422108 C431.66151501 37.50710977 435.65189812 55.97350212 435.60520267 77.03500843 C435.60894386 78.64091021 435.61354724 80.24681016 435.61893332 81.85270727 C435.63112102 86.24585881 435.63090786 90.63893396 435.62854457 95.03209853 C435.62813533 99.77802458 435.63918584 104.52392649 435.64865971 109.26984119 C435.66524779 118.56100534 435.67076827 127.85214411 435.67188446 137.14332183 C435.67283604 144.69920482 435.67695181 152.25507946 435.68328571 159.81095982 C435.70089266 181.25246804 435.71012552 202.69395627 435.70862477 224.13547178 C435.70854485 225.29054244 435.70846494 226.44561311 435.70838261 227.63568592 C435.70830085 228.7921737 435.70821908 229.94866148 435.70813484 231.14019434 C435.70732225 249.87524432 435.72645472 268.61021384 435.75465934 287.34524055 C435.78341826 306.60105143 435.79719796 325.85682311 435.79547179 345.112656 C435.79480889 355.91573287 435.80025695 366.7187254 435.82182789 377.52178288 C435.84007935 386.72107586 435.84435456 395.92024629 435.83080904 405.11954959 C435.82429921 409.808154 435.82409005 414.49652356 435.84151554 419.18510532 C435.85733974 423.48730302 435.85428828 427.78908148 435.83694728 432.09126954 C435.83389779 433.63768037 435.83743125 435.18412323 435.84866743 436.73049624 C435.99959901 458.99860261 429.05551287 476.88575445 413.71277714 493.19672108 C401.77819149 504.78928994 385.57088476 512.24236555 368.7986021 512.26844215 C368.15236808 512.27079438 367.50613406 512.27314661 366.84031719 512.27557012 C364.67194255 512.28223422 362.50362818 512.28180269 360.33524418 512.2813921 C358.76594463 512.28469235 357.19664593 512.28841826 355.6273483 512.29253358 C351.31220177 512.30254361 346.99706915 512.30626878 342.68191266 512.30892289 C338.02863077 512.31282898 333.37535987 512.32240722 328.722085 512.33113575 C317.48187881 512.35089313 306.24167172 512.36096616 295.00145251 512.36986354 C289.70561512 512.37424826 284.40977874 512.37961465 279.11394215 512.38485241 C261.50411595 512.40186514 243.89429036 512.41635816 226.28445721 512.42360115 C221.71515369 512.42551099 217.14585017 512.42743133 212.57654667 512.42938709 C211.44089399 512.42987083 210.30524131 512.43035457 209.13517492 512.43085297 C190.74832731 512.43914895 172.36154485 512.46447839 153.97472568 512.49696777 C135.0885964 512.53006672 116.20250019 512.54805254 97.31634176 512.55124539 C86.71610148 512.55340802 76.11595617 512.56212042 65.51574421 512.58770657 C56.48575506 512.60945243 47.45588393 512.61744494 38.42587157 512.60773978 C33.82248052 512.60320614 29.21933279 512.60502656 24.61597538 512.62450123 C20.39258671 512.64221323 16.16961741 512.64107064 11.94622378 512.62560394 C10.42726873 512.62323997 8.90828402 512.62748777 7.38937409 512.63943259 C-14.5360366 512.80102194 -31.92229783 505.48457141 -47.78722286 490.38422108 C-63.00098688 474.7458869 -66.97623953 456.26825041 -66.9296484 435.18874073 C-66.93338955 433.57800147 -66.93799291 431.96726402 -66.94337904 430.35652941 C-66.95556706 425.95004575 -66.95535355 421.54363824 -66.95299029 417.13714159 C-66.95258106 412.37691964 -66.96363141 407.61672176 -66.97310543 402.85651112 C-66.98969338 393.53760851 -66.99521398 384.2187312 -66.99633019 374.89981506 C-66.99728171 367.32199366 -67.00139722 359.74418058 -67.00773144 352.16636181 C-67.02533787 330.66445041 -67.03457125 309.16255894 -67.03307049 287.66064028 C-67.03299058 286.50231989 -67.03291066 285.3439995 -67.03282833 284.1505785 C-67.03274657 282.99083779 -67.03266481 281.83109709 -67.03258057 280.63621273 C-67.03176785 261.84552183 -67.05090355 243.05491111 -67.07910506 224.2642434 C-67.10785823 204.95306676 -67.12164402 185.6419292 -67.11991751 166.33073062 C-67.11925445 155.49582766 -67.12471001 144.66100878 -67.14627361 133.82612514 C-67.16451742 124.60045326 -67.16880648 115.37490355 -67.15525477 106.1492214 C-67.14874127 101.44656428 -67.14854921 96.74414136 -67.16596127 92.04150677 C-67.1817689 87.72764231 -67.17875058 83.41419625 -67.161393 79.10034152 C-67.15833994 77.54856495 -67.16189083 75.99675655 -67.17311315 74.44501755 C-67.30332967 55.14511492 -62.08559343 37.544397 -49.23644161 22.73187733 C-36.09726951 9.47307695 -18.9573433 0.02948354 0 0 Z " fill="#49566D" transform="translate(71.66222286224365,-0.13422107696533203)"/>
<path d="M0 0 C3.34390899 1.45491694 5.538388 3.29022744 8.10668945 5.86376953 C9.30362175 7.05608688 9.30362175 7.05608688 10.5247345 8.27249146 C11.37895493 9.1338974 12.23317535 9.99530334 13.11328125 10.8828125 C14.00105759 11.77104706 14.88883392 12.65928162 15.80351257 13.57443237 C17.68286635 15.45680804 19.56020483 17.34095403 21.43432617 19.22851562 C23.81617385 21.62724222 26.20443896 24.01944559 28.59512043 26.4093647 C30.89564 28.71022486 33.19188681 31.01533629 35.48828125 33.3203125 C36.76050285 34.59420334 36.76050285 34.59420334 38.0584259 35.89382935 C41.60511218 39.46854016 45.01083203 42.98932806 48.12207031 46.94946289 C51.28609306 50.63024629 55.00212317 53.18353634 59.03686523 55.81762695 C83.85483622 72.03493697 114.88599054 94.49722775 121.53915244 125.14707226 C125.95661516 148.27798743 125.23239895 172.32614354 124.5 195.75 C124.4752968 196.5841885 124.4505936 197.41837701 124.42514181 198.27784395 C121.82537188 285.28415989 121.82537188 285.28415989 95.78515625 310.578125 C84.17737652 320.67184651 68.93428575 327.11016381 53.46082497 327.13422108 C52.81459094 327.13657331 52.16835692 327.13892554 51.50254005 327.14134905 C49.33416541 327.14801315 47.16585105 327.14758161 44.99746704 327.14717102 C43.42816749 327.15047128 41.85886879 327.15419719 40.28957117 327.1583125 C35.97442464 327.16832253 31.65929202 327.1720477 27.34413552 327.17470181 C22.69085364 327.17860791 18.03758273 327.18818614 13.38430786 327.19691467 C2.14410167 327.21667205 -9.09610542 327.22674508 -20.33632463 327.23564246 C-25.63216201 327.24002718 -30.9279984 327.24539357 -36.22383499 327.25063133 C-53.83366119 327.26764406 -71.44348677 327.28213709 -89.05331993 327.28938007 C-93.62262345 327.29128991 -98.19192697 327.29321025 -102.76123047 327.29516602 C-103.89688315 327.29564976 -105.03253583 327.2961335 -106.20260222 327.2966319 C-124.58944983 327.30492788 -142.97623229 327.33025731 -161.36305146 327.36274669 C-180.24918074 327.39584565 -199.13527695 327.41383146 -218.02143538 327.41702431 C-228.62167565 327.41918695 -239.22182097 327.42789934 -249.82203293 327.45348549 C-258.85202208 327.47523136 -267.8818932 327.48322386 -276.91190557 327.47351871 C-281.51529662 327.46898506 -286.11844435 327.47080549 -290.72180176 327.49028015 C-294.94519043 327.50799216 -299.16815973 327.50684956 -303.39155336 327.49138286 C-304.91050841 327.48901889 -306.42949312 327.49326669 -307.94840305 327.50521151 C-329.87381374 327.66680086 -347.26007497 320.35035033 -363.125 305.25 C-372.14966082 295.97348818 -378.4676604 284.68891809 -380.77612305 271.8684082 C-381.5347388 267.93712074 -382.51543597 264.12004638 -383.62217426 260.27275467 C-386.84718961 248.91134456 -388.79058494 237.49334576 -390 225.75 C-390.1576181 224.24012575 -390.1576181 224.24012575 -390.31842041 222.69974899 C-392.76298702 196.01494067 -386.534918 174.62464584 -369.625 154.17822266 C-354.01125098 135.63642663 -336.59079261 118.70345683 -319 102.0625 C-318.24739395 101.3497032 -317.4947879 100.63690639 -316.71937561 99.90250969 C-296.88717193 81.14121309 -276.64543611 62.86131154 -256 45 C-252.55530082 46.48380236 -250.32441693 48.42850741 -247.68463135 51.07485962 C-246.82930313 51.92743851 -245.97397491 52.7800174 -245.09272766 53.65843201 C-244.15319666 54.60504063 -243.21376201 55.55174489 -242.27441406 56.49853516 C-241.2791925 57.49432102 -240.28353002 58.48966639 -239.28746033 59.48460388 C-236.58700572 62.18448469 -233.89276184 64.89048736 -231.19958591 67.59762621 C-228.38311612 70.42659877 -225.56098129 73.24990833 -222.73944092 76.07382202 C-217.39836959 81.42110945 -212.06241696 86.77347467 -206.72828174 92.12768018 C-200.65486497 98.22345189 -194.575768 104.31354534 -188.49618578 110.40316701 C-175.99112352 122.9291342 -163.4932171 135.46221915 -151 148 C-147.74098054 146.57082967 -145.58378585 144.8294079 -143.08013916 142.31391907 C-141.92807983 141.16381599 -141.92807983 141.16381599 -140.75274658 139.99047852 C-139.9194281 139.14839844 -139.08610962 138.30631836 -138.22753906 137.4387207 C-137.34247681 136.55234421 -136.45741455 135.66596771 -135.54553223 134.75273132 C-133.6225867 132.82552036 -131.70156679 130.89659528 -129.78357697 128.96447182 C-126.74488655 125.90346685 -123.69907991 122.8496095 -120.65228271 119.79667664 C-115.82740396 114.96041683 -111.0072172 110.11951159 -106.18905997 105.27655619 C-97.57849027 96.62172919 -88.96246739 87.97234031 -80.34105849 79.32831067 C-77.31994366 76.29883768 -74.30166166 73.26657939 -71.28569841 70.23197806 C-69.85583188 68.79397878 -68.42480572 67.35714517 -66.99328613 65.92079163 C-65.25667554 64.17821132 -63.52187893 62.43382032 -61.78936768 60.68716431 C-57.58207376 56.47168785 -53.29317969 52.43559359 -48.77865219 48.55127048 C-46.34432917 46.42814969 -44.05780869 44.177531 -41.77734375 41.89086914 C-41.08796471 41.20170914 -41.08796471 41.20170914 -40.38465881 40.49862671 C-38.89988307 39.01316674 -37.41865884 37.52422185 -35.9375 36.03515625 C-34.8954026 34.99118934 -33.85308091 33.94744628 -32.81054688 32.90391541 C-30.09255554 30.18214078 -27.3775831 27.45737477 -24.66326904 24.73193359 C-21.88282982 21.94118927 -19.09948971 19.15334129 -16.31640625 16.36523438 C-10.87479158 10.91295642 -5.43636897 5.45750891 0 0 Z " fill="#00B493" transform="translate(387,185)"/>
<path d="M0 0 C10.6436027 6.21996989 17.28393759 15.40930687 21.40234375 26.98828125 C24.22192331 38.97149437 22.98959545 50.65522639 17.08203125 61.38671875 C10.20253431 72.40143242 0.87622714 80.07220096 -11.73828125 83.48046875 C-24.26601629 85.70533973 -35.80074768 83.89462988 -46.53515625 77.05078125 C-49.89235953 74.6372243 -52.82425932 72.0698334 -55.59765625 68.98828125 C-56.83515625 67.71984375 -56.83515625 67.71984375 -58.09765625 66.42578125 C-66.47847411 56.21497468 -67.53067669 42.61691 -66.59765625 29.98828125 C-65.72408786 26.34924494 -64.36553706 23.27620911 -62.59765625 19.98828125 C-62.17355469 19.14652344 -61.74945313 18.30476563 -61.3125 17.4375 C-55.280131 6.36415411 -45.89208976 -0.50883387 -34.04150391 -4.35913086 C-22.38487008 -7.47183638 -10.54383735 -5.47647641 0 0 Z " fill="#FDCB03" transform="translate(256.59765625,130.01171875)"/>
</svg>
