<svg width="19" height="23" viewBox="0 0 19 23" fill="none" xmlns="http://www.w3.org/2000/svg">
    <path
        d="M15.1598 14.7873L18.1971 18.6109C18.2467 18.6736 18.281 18.745 18.2995 18.8187C18.3176 18.893 18.3207 18.9712 18.3068 19.0495C18.2927 19.1277 18.2615 19.2005 18.2181 19.2635C18.1742 19.327 18.1161 19.382 18.0492 19.4219L13.5106 22.1338C13.467 22.1593 13.421 22.1789 13.3754 22.1917C13.3244 22.2053 13.2753 22.2124 13.2297 22.2124L13.1651 22.2075L13.0956 22.1951C13.0248 22.1775 12.9584 22.1452 12.9017 22.1029C12.845 22.0607 12.7963 22.0068 12.7589 21.9448L9.27311 16.0779L5.78761 21.9431C5.75051 22.0054 5.7009 22.0599 5.6448 22.1021C5.5884 22.1449 5.52261 22.1766 5.45121 22.1948L5.38141 22.2078L5.31681 22.2124C5.27001 22.2124 5.22071 22.2053 5.17111 22.1917C5.12401 22.1786 5.07841 22.1593 5.03591 22.1338L0.497305 19.4219C0.430105 19.382 0.372605 19.3275 0.328405 19.2635C0.285005 19.2003 0.253806 19.1277 0.239706 19.0512C0.225206 18.9732 0.228004 18.8936 0.246504 18.8193C0.265504 18.7445 0.300609 18.6725 0.349409 18.6109L3.3873 14.7873C3.4009 13.3705 3.32831 11.6553 3.43181 10.2765C3.49751 9.55279 3.61691 8.8359 3.78691 8.133C3.95761 7.4274 4.1801 6.73579 4.4517 6.06389C4.7229 5.39239 5.04501 4.7402 5.41321 4.1129C5.78081 3.4873 6.19381 2.8891 6.64791 2.3248L7.6336 1.10049C7.8002 0.893595 8.01911 0.751297 8.25891 0.683197C8.49841 0.615196 8.7595 0.620899 9.0095 0.709C9.0889 0.737099 9.16431 0.772499 9.23481 0.814499L9.27311 0.837997L9.31191 0.814194C9.38171 0.772793 9.45741 0.737099 9.53641 0.709C9.78621 0.620899 10.0475 0.614897 10.2873 0.683197C10.5269 0.751297 10.7457 0.893595 10.9124 1.10049L11.8986 2.3248C12.3532 2.8891 12.7657 3.4873 13.133 4.11259C13.5016 4.73989 13.823 5.3919 14.0946 6.0631C14.3658 6.7358 14.5884 7.4277 14.759 8.133C14.9294 8.8359 15.0487 9.55249 15.1145 10.2765C15.2417 11.5498 15.1468 13.4448 15.1598 14.7873ZM9.253 7.01239L9.27231 7.0269L9.37201 6.9586L9.49561 6.8902L9.33091 5.84619L9.18721 6.96759L9.253 7.01239ZM1.5963 18.8028L5.12601 20.9121L8.71041 14.8805C8.71041 12.7342 8.56931 10.1164 8.71581 8.02919C8.69461 7.97929 8.66051 7.93619 8.61831 7.90419C8.56671 7.86589 8.50211 7.8427 8.43241 7.8427C8.34791 7.8427 8.2711 7.8767 8.2166 7.9314C8.1614 7.9878 8.12681 8.06459 8.12681 8.14879V12.3645C8.12681 12.515 8.06501 12.6522 7.96521 12.7517C7.86661 12.8515 7.72881 12.913 7.57741 12.913C7.42611 12.913 7.28891 12.8515 7.18961 12.7523C7.09041 12.6531 7.02891 12.5159 7.02891 12.3645V8.14879C7.02891 7.78709 7.16751 7.45579 7.39431 7.20599C7.58031 7.00139 7.82721 6.85139 8.10641 6.78479L8.72151 1.98489C8.71041 1.91349 8.70991 1.8636 8.71441 1.7899L8.69311 1.7692C8.67471 1.7547 8.6546 1.7462 8.6447 1.7428C8.62961 1.7374 8.59221 1.72749 8.5542 1.73799C8.5344 1.74339 8.51121 1.75809 8.48761 1.78729L7.50151 3.0116C6.65281 4.0664 5.9702 5.2303 5.46931 6.4673C4.96901 7.7029 4.64901 9.0108 4.52451 10.355L4.48001 14.9857C4.47921 15.0492 4.4681 15.1096 4.4488 15.164C4.429 15.2207 4.3992 15.274 4.3612 15.3216L1.5963 18.8028ZM9.83611 14.8805L13.4202 20.9118L16.9496 18.8028L14.1847 15.3216C14.147 15.2743 14.1167 15.2196 14.0968 15.1632C14.0778 15.1073 14.0665 15.0469 14.0662 14.9857L14.022 10.355C13.8976 9.0106 13.5775 7.70269 13.0769 6.46669C12.5758 5.22969 11.8935 4.0661 11.0445 3.0116L10.0589 1.78729C10.0351 1.75809 10.0124 1.7434 9.99251 1.7374C9.95461 1.7275 9.91691 1.73739 9.90161 1.74249C9.89161 1.74619 9.87151 1.7547 9.85311 1.7692L9.83211 1.7896C9.83611 1.857 9.83641 1.9041 9.82781 1.9704L10.5949 6.8313C10.8401 6.9214 11.0541 7.079 11.214 7.2811C11.4036 7.521 11.517 7.82259 11.517 8.14879V12.3645C11.517 12.5159 11.4555 12.6531 11.3563 12.7523C11.2565 12.8512 11.119 12.913 10.9688 12.913C10.8171 12.913 10.6799 12.8515 10.5807 12.7523C10.4815 12.6531 10.42 12.5159 10.42 12.3645V8.14879C10.42 8.06439 10.386 7.98779 10.3316 7.93309C10.2766 7.87779 10.2006 7.8427 10.1176 7.8416L10.1096 7.8427C10.0421 7.8427 9.97811 7.8668 9.92711 7.9059C9.88511 7.9385 9.85141 7.98129 9.83011 8.03059L9.83611 8.14879V14.8805Z"
        fill="#E4A3A0" />
</svg>