<svg width="34" height="34" viewBox="0 0 34 34" fill="none" xmlns="http://www.w3.org/2000/svg">
    <path fill-rule="evenodd" clip-rule="evenodd"
        d="M32.9029 8.93129C33.8403 13.6186 33.8403 21.1191 32.9029 25.8065C32.9029 30.4939 30.0901 33.3067 25.4027 33.3067C20.7153 34.2441 13.2149 34.2441 8.52747 33.3067C3.84007 33.3067 1.02727 30.4939 1.02727 25.8065C0.0898688 21.1191 0.0898688 13.6186 1.02727 8.93129C1.02727 4.24389 3.84007 1.43111 8.52747 1.43111C13.2149 0.493706 20.7153 0.493706 25.4027 1.43111C30.0901 1.43111 32.9029 4.24389 32.9029 8.93129Z"
        fill="#EADDFF" />
    <path
        d="M25.2647 24.6089C24.384 24.6089 23.6668 25.3261 23.6668 26.2068C23.6668 26.5504 23.7757 26.8687 23.9599 27.1287H19.467C19.4715 23.203 19.4763 19.2758 19.4812 15.3501C19.4826 14.8614 19.4386 14.2894 19.0273 14.0278C18.764 13.8591 18.4253 13.8781 18.1163 13.924C18.0409 13.9348 17.9635 13.9476 17.8878 13.9617C17.6948 13.998 17.5034 14.0434 17.3146 14.0967V12.8369C20.1952 11.4026 16.8792 6.81699 19.3261 4.59549C16.4158 4.03479 11.6899 9.63576 16.3152 12.7819V14.4637C15.92 14.6454 15.5419 14.8643 15.1898 15.12C14.8638 15.3564 14.5486 15.637 14.3862 16.0072C14.2331 16.357 14.23 16.7527 14.23 17.1357C14.23 18.9955 14.23 20.855 14.2286 22.7145V26.9744C14.2286 27.0139 14.2255 27.0674 14.2189 27.1289L9.52734 27.1287C9.52904 27.4597 9.55113 27.7843 9.59193 28.1043C9.59363 28.1137 9.59515 28.1247 9.59685 28.1341C9.62825 28.3691 9.66905 28.599 9.72295 28.826C9.72605 28.8371 9.72744 28.8464 9.73064 28.8575C9.78194 29.0761 9.84284 29.2909 9.91234 29.5015H24.4166C24.4863 29.2909 24.547 29.0761 24.5983 28.8575C24.6014 28.8464 24.6031 28.8371 24.6062 28.826C24.6598 28.599 24.7009 28.3688 24.7323 28.1341C24.7338 28.1247 24.7355 28.1137 24.7369 28.1043C24.7528 27.9796 24.7652 27.8538 24.7749 27.7276C24.9291 27.7781 25.0946 27.8047 25.265 27.8047C26.1474 27.8047 26.8629 27.0878 26.8629 26.2068C26.8629 25.3258 26.1474 24.6089 25.2647 24.6089ZM25.2647 27.1743C24.7321 27.1743 24.2972 26.7409 24.2972 26.2068C24.2972 25.6725 24.7321 25.2391 25.2647 25.2391C25.799 25.2391 26.2324 25.6725 26.2324 26.2068C26.2324 26.7409 25.799 27.1743 25.2647 27.1743Z"
        fill="#391563" />
</svg>