<svg width="160" height="94" viewBox="0 0 160 94" fill="none" xmlns="http://www.w3.org/2000/svg">
    <path
        d="M55.7532 1.45593L56.5534 0.0057373H57.2133L57.5733 5.76575H56.9333C56.4466 4.11265 55.87 2.9158 55.2067 2.1759C54.3634 1.2357 53.3934 0.765747 52.3034 0.765747C51.4633 0.765747 50.7132 1.00243 50.0499 1.47583C49.3866 1.94923 48.88 2.6592 48.5232 3.6026C48.17 4.5491 47.9934 5.88254 47.9934 7.59924C47.9934 9.26264 48.17 10.5659 48.5232 11.5059C48.88 12.4459 49.3667 13.1358 49.9932 13.5792C50.6165 14.0225 51.3467 14.2459 52.1867 14.2459C53.3233 14.2459 54.2032 13.9292 54.8234 13.296C55.4434 12.6624 55.7532 11.8458 55.7532 10.8426V9.49579C55.7532 9.28239 55.6699 9.11571 55.5035 8.99921C55.3399 8.88241 55.0667 8.82574 54.6899 8.82574H53.4733V8.146H59.5335V8.82574H58.71C58.3466 8.82574 58.0833 8.88923 57.9268 9.01593C57.7701 9.14263 57.6932 9.32582 57.6932 9.56592V15.0659H57.0467C56.8134 14.2127 56.5667 13.3926 56.3133 12.6091C55.8266 13.406 55.2433 14.0058 54.57 14.406C53.8968 14.806 53.1334 15.0058 52.2799 15.0058C51.0633 15.0058 49.9365 14.6926 48.8968 14.0693C47.8599 13.4459 47.0401 12.5658 46.4366 11.4325C45.8334 10.2958 45.5332 9.01592 45.5332 7.58252C45.5332 6.14592 45.8365 4.85923 46.44 3.72253C47.0466 2.58243 47.8732 1.67902 48.9265 1.00922C49.9768 0.339116 51.04 0.0057373 52.1132 0.0057373C52.7233 0.0057373 53.31 0.109196 53.8633 0.315796C54.4201 0.522496 55.0499 0.902332 55.7532 1.45593Z"
        fill="#391563" />
    <path
        d="M63.1269 0.126099C63.4203 0.126099 63.6771 0.236129 63.8971 0.459229C64.1204 0.679428 64.2304 0.939419 64.2304 1.23932C64.2304 1.53272 64.1235 1.78919 63.907 2.00269C63.6935 2.21919 63.4336 2.32611 63.1371 2.32611C62.8369 2.32611 62.577 2.21613 62.357 1.99933C62.1404 1.77933 62.0302 1.52283 62.0302 1.22943C62.0302 0.936031 62.1404 0.679428 62.3635 0.459229C62.5838 0.236129 62.8403 0.126099 63.1269 0.126099ZM60.5703 5.58588L64.2304 5.48621V13.3529C64.2304 13.566 64.2837 13.7194 64.3869 13.8095C64.5371 13.9394 64.727 14.006 64.9535 14.006H65.9904V14.7461H60.7702V14.006H61.7402C62.027 14.006 62.2371 13.936 62.3703 13.7962C62.5035 13.6562 62.5704 13.4526 62.5704 13.1862V7.42932C62.5704 7.06592 62.467 6.78922 62.2569 6.60272C62.0469 6.41932 61.7371 6.32611 61.3269 6.32611H60.5703V5.58588Z"
        fill="#391563" />
    <path
        d="M66.6289 5.58575H71.1289V6.24597C70.5291 6.25927 70.149 6.3126 69.9823 6.4093C69.8156 6.5026 69.7323 6.6392 69.7323 6.8161C69.7323 6.9592 69.7657 7.10269 69.829 7.24579L72.2591 12.6461L74.4823 7.42267C74.5158 7.32907 74.5325 7.2359 74.5325 7.146C74.5325 6.6627 74.0656 6.36587 73.1291 6.24597V5.58575H76.9091V6.24597C76.5258 6.28597 76.2191 6.38916 75.9923 6.55927C75.7658 6.72927 75.589 6.95919 75.4656 7.24579L72.0989 15.0059H71.5691L67.9757 7.03259C67.8456 6.74269 67.6891 6.54246 67.5023 6.42596C67.3189 6.31256 67.0258 6.25247 66.6289 6.24597V5.58575Z"
        fill="#391563" />
    <path
        d="M86.3332 10.2259H79.7934C79.8265 11.6194 80.0865 12.6061 80.5732 13.1793C81.1333 13.8227 81.8431 14.1459 82.7099 14.1459C83.9832 14.1459 85.0065 13.4194 85.7798 11.9661L86.4134 12.2393C85.4632 14.0827 84.0898 15.0059 82.2966 15.0059C81.0732 15.0059 80.0431 14.5626 79.2066 13.6793C78.3698 12.796 77.9531 11.6659 77.9531 10.2894C77.9531 8.80597 78.3633 7.60916 79.1865 6.69586C80.0099 5.78256 81.0233 5.32587 82.2266 5.32587C83.1099 5.32587 83.8733 5.55268 84.5198 6.00928C85.1633 6.46258 85.6466 7.11596 85.9732 7.96606C86.1999 8.56246 86.3198 9.31589 86.3332 10.2259ZM79.7934 9.526H83.7534C83.9866 9.526 84.17 9.44609 84.2999 9.28589C84.43 9.12939 84.4932 8.85925 84.4932 8.47595C84.4932 7.76255 84.2698 7.15588 83.8265 6.65588C83.38 6.15588 82.8565 5.90588 82.2499 5.90588C81.5732 5.90588 80.9998 6.20607 80.5298 6.80927C80.0598 7.41247 79.8132 8.3193 79.7934 9.526Z"
        fill="#391563" />
    <path
        d="M106.646 11.3059C107.05 12.4227 107.51 13.1926 108.033 13.6226C108.556 14.0526 109.2 14.2661 109.966 14.2661C110.673 14.2661 111.216 14.1127 111.596 13.8026C111.976 13.4959 112.166 13.1027 112.166 12.6294C112.166 12.3561 112.096 12.1194 111.956 11.9159C111.816 11.7092 111.623 11.5559 111.376 11.4561C111.126 11.356 110.486 11.2092 109.453 11.0128C108.463 10.8194 107.773 10.6159 107.383 10.3993C106.993 10.1859 106.69 9.89245 106.473 9.51605C106.256 9.13925 106.146 8.72918 106.146 8.28918C106.146 7.61938 106.37 7.0125 106.819 6.466C107.4 5.7726 108.213 5.42596 109.256 5.42596C110.05 5.42596 110.786 5.67259 111.466 6.16919L112.113 5.48608H112.513L112.766 8.74585H112.106C111.819 7.82265 111.433 7.15928 110.943 6.75598C110.453 6.34918 109.85 6.146 109.133 6.146C108.513 6.146 108.026 6.29588 107.673 6.59918C107.323 6.89938 107.146 7.2659 107.146 7.7027C107.146 8.0826 107.31 8.40259 107.636 8.65259C107.953 8.91259 108.579 9.1158 109.513 9.2627C110.593 9.4427 111.296 9.59598 111.623 9.71588C112.156 9.91258 112.573 10.2125 112.866 10.6227C113.16 11.0292 113.306 11.5258 113.306 12.1126C113.306 12.9193 112.99 13.6059 112.353 14.166C111.72 14.7259 110.913 15.0059 109.936 15.0059C109.03 15.0059 108.189 14.7125 107.413 14.1261L106.7 14.9461H106.183L105.986 11.3059H106.646Z"
        fill="#391563" />
    <path
        d="M96.449 5.42621V11.4995C96.449 12.243 96.6358 12.8161 97.0123 13.2195C97.3856 13.6228 97.8692 13.8261 98.4625 13.8261C99.189 13.8261 99.8123 13.5297 100.322 12.9395C100.832 12.3496 101.089 11.6094 101.089 10.7227V7.28632C101.089 6.97272 100.976 6.72955 100.749 6.55615C100.526 6.38295 100.092 6.28621 99.4489 6.26611V5.586L102.669 5.42621V12.9329C102.669 13.2761 102.766 13.5429 102.959 13.7294C103.156 13.9128 103.426 14.0061 103.776 14.0061H104.349V14.6663L101.289 14.7261L101.089 12.9462C100.542 13.5897 99.9923 14.073 99.439 14.3995C98.8857 14.7229 98.3258 14.8862 97.7592 14.8862C96.9323 14.8862 96.239 14.6096 95.6791 14.0562C95.1125 13.5063 94.829 12.5763 94.829 11.2661V7.2829C94.829 6.9328 94.689 6.66291 94.4089 6.48291C94.2156 6.34941 93.8156 6.27941 93.209 6.26611V5.586L96.449 5.42621Z"
        fill="#391563" />
    <path
        d="M52.7755 37.7592L53.1253 38.3058C52.6454 38.7959 52.1153 39.0391 51.532 39.0391C51.0855 39.0391 50.7122 38.9191 50.4055 38.679C50.1022 38.4358 49.8354 38.0157 49.6053 37.4091C48.9887 38.0591 48.4487 38.4926 47.9821 38.7125C47.5153 38.9291 46.9554 39.0391 46.302 39.0391C45.3686 39.0391 44.6588 38.8358 44.1755 38.4325C43.6888 38.0291 43.4453 37.5123 43.4453 36.8824C43.4453 35.9325 44.002 35.1426 45.1121 34.5124C46.2221 33.8857 47.6987 33.4659 49.5454 33.2592V31.8824C49.5454 31.3923 49.3487 30.9724 48.9522 30.6224C48.5553 30.2723 48.0522 30.0992 47.4421 30.0992C46.8786 30.0992 46.3919 30.2156 45.982 30.4523C45.692 30.6258 45.5455 30.7991 45.5455 30.9691C45.5455 31.0658 45.6254 31.2191 45.7822 31.4291C45.9721 31.689 46.0654 31.919 46.0654 32.1226C46.0654 32.4157 45.9721 32.6558 45.7822 32.8392C45.5954 33.0257 45.3488 33.1192 45.0454 33.1192C44.7186 33.1192 44.4488 33.0092 44.2319 32.7859C44.0153 32.5659 43.9054 32.2789 43.9054 31.9357C43.9054 31.2891 44.2688 30.6959 44.9953 30.1624C45.7221 29.6258 46.6754 29.3591 47.852 29.3591C48.942 29.3591 49.7719 29.5924 50.3454 30.0623C50.9188 30.5357 51.2054 31.1126 51.2054 31.7892V36.7823C51.2054 37.2223 51.2754 37.5492 51.4189 37.7558C51.562 37.9724 51.7488 38.0793 51.9753 38.0793C52.2287 38.0793 52.4955 37.9724 52.7755 37.7592ZM49.5454 33.899C47.9019 34.1258 46.7386 34.4991 46.052 35.0125C45.5421 35.4059 45.2853 35.9592 45.2853 36.6758C45.2853 37.1793 45.4188 37.5689 45.6821 37.8524C45.9489 38.1356 46.2952 38.2791 46.7221 38.2791C47.4855 38.2791 48.1454 37.9856 48.7053 37.4023C49.2654 36.8192 49.5454 36.0891 49.5454 35.2092V33.899Z"
        fill="#391563" />
    <path
        d="M78.3322 37.7592L78.682 38.3058C78.2021 38.7959 77.672 39.0391 77.0887 39.0391C76.6422 39.0391 76.2689 38.9191 75.9622 38.679C75.6589 38.4358 75.392 38.0157 75.1618 37.4091C74.5454 38.0591 74.0054 38.4926 73.5388 38.7125C73.072 38.9291 72.5121 39.0391 71.8587 39.0391C70.9253 39.0391 70.2155 38.8358 69.7322 38.4325C69.2455 38.0291 69.002 37.5123 69.002 36.8824C69.002 35.9325 69.5587 35.1426 70.6687 34.5124C71.7788 33.8857 73.2554 33.4659 75.1021 33.2592V31.8824C75.1021 31.3923 74.9054 30.9724 74.5088 30.6224C74.112 30.2723 73.6087 30.0992 72.9987 30.0992C72.4352 30.0992 71.9486 30.2156 71.5387 30.4523C71.2487 30.6258 71.1022 30.7991 71.1022 30.9691C71.1022 31.0658 71.1821 31.2191 71.3389 31.4291C71.5288 31.689 71.6219 31.919 71.6219 32.1226C71.6219 32.4157 71.5288 32.6558 71.3389 32.8392C71.1521 33.0257 70.9054 33.1192 70.6021 33.1192C70.2753 33.1192 70.0054 33.0092 69.7886 32.7859C69.572 32.5659 69.462 32.2789 69.462 31.9357C69.462 31.2891 69.8254 30.6959 70.552 30.1624C71.2788 29.6258 72.2321 29.3591 73.4087 29.3591C74.4986 29.3591 75.3286 29.5924 75.9021 30.0623C76.4755 30.5357 76.7621 31.1126 76.7621 31.7892V36.7823C76.7621 37.2223 76.832 37.5492 76.9754 37.7558C77.1186 37.9724 77.3055 38.0793 77.532 38.0793C77.7854 38.0793 78.0521 37.9724 78.3322 37.7592ZM75.1021 33.899C73.4586 34.1258 72.2953 34.4991 71.6087 35.0125C71.0988 35.4059 70.8419 35.9592 70.8419 36.6758C70.8419 37.1793 70.9755 37.5689 71.2388 37.8524C71.5055 38.1356 71.8519 38.2791 72.2788 38.2791C73.0422 38.2791 73.7021 37.9856 74.2619 37.4023C74.8221 36.8192 75.1021 36.0891 75.1021 35.2092V33.899Z"
        fill="#391563" />
    <path
        d="M82.2272 25.8993H82.8871V29.6192H85.847V30.5193H82.8871V36.4028C82.8871 36.9127 83.007 37.3028 83.2437 37.5726C83.4804 37.8428 83.7837 37.9794 84.1505 37.9794C84.587 37.9794 84.9604 37.7728 85.2671 37.3595C85.5772 36.9493 85.7572 36.2693 85.8071 35.3194H86.467C86.427 36.5394 86.1503 37.4428 85.637 38.0327C85.1236 38.6226 84.4572 38.9194 83.6371 38.9194C82.8837 38.9194 82.2938 38.7127 81.8672 38.2994C81.4403 37.8859 81.2271 37.3428 81.2271 36.6692V30.5193H79.627V29.836C80.3603 29.7127 80.9204 29.4094 81.3037 28.9292C81.8737 28.2092 82.1804 27.1993 82.2272 25.8993Z"
        fill="#391563" />
    <path
        d="M89.9862 24.1593C90.2796 24.1593 90.5364 24.2693 90.7564 24.4924C90.9798 24.7126 91.0898 24.9725 91.0898 25.2725C91.0898 25.5658 90.9829 25.8224 90.7663 26.0358C90.5529 26.2524 90.2929 26.3593 89.9964 26.3593C89.6963 26.3593 89.4363 26.2493 89.2163 26.0324C88.9998 25.8125 88.8895 25.5559 88.8895 25.2625C88.8895 24.9691 88.9998 24.7126 89.2229 24.4924C89.4431 24.2693 89.6997 24.1593 89.9862 24.1593ZM87.4297 29.6191L91.0898 29.5193V37.386C91.0898 37.5992 91.1431 37.7525 91.2462 37.8427C91.3965 37.9725 91.5864 38.0391 91.8129 38.0391H92.8498V38.7793H87.6295V38.0391H88.5995C88.8864 38.0391 89.0964 37.9691 89.2297 37.8294C89.3629 37.6893 89.4298 37.4858 89.4298 37.2193V31.4625C89.4298 31.0991 89.3263 30.8224 89.1163 30.6359C88.9062 30.4525 88.5964 30.3592 88.1862 30.3592H87.4297V29.6191Z"
        fill="#391563" />
    <path
        d="M93.8887 29.5993L96.9289 29.4391C97.0556 30.0125 97.1489 30.6858 97.209 31.4559C97.6189 30.7892 98.1022 30.2926 98.6589 29.9593C99.2156 29.6259 99.8455 29.4592 100.549 29.4592C101.152 29.4592 101.662 29.5791 102.072 29.8158C102.482 30.0525 102.809 30.4292 103.059 30.9426C103.305 31.4559 103.429 32.0325 103.429 32.6692V37.1227C103.429 37.4526 103.502 37.6893 103.652 37.8294C103.802 37.9691 104.052 38.0391 104.406 38.0391H105.049V38.7793H100.229V38.0391H100.686C101.112 38.0391 101.409 37.9725 101.575 37.8359C101.745 37.6993 101.829 37.4926 101.829 37.2193V33.3092C101.829 32.456 101.699 31.8259 101.439 31.416C101.075 30.8326 100.522 30.5392 99.7823 30.5392C99.0489 30.5392 98.4355 30.836 97.9454 31.4259C97.4556 32.0192 97.209 32.7891 97.209 33.7393V37.1227C97.209 37.4526 97.2855 37.6893 97.4389 37.8294C97.5922 37.9691 97.8422 38.0391 98.1954 38.0391H98.829V38.7793H93.9888V38.0391H94.6189C94.9356 38.0391 95.1754 37.9725 95.3421 37.8427C95.5056 37.7126 95.589 37.5493 95.589 37.3526V31.4324C95.589 31.0427 95.4821 30.7459 95.2721 30.5426C95.0589 30.3391 94.7556 30.2393 94.3587 30.2393H93.8887V29.5993Z"
        fill="#391563" />
    <path
        d="M113.12 30.1492C113.77 29.4893 114.37 29.1593 114.916 29.1593C115.24 29.1593 115.509 29.2625 115.723 29.4725C115.939 29.6826 116.046 29.9357 116.046 30.2359C116.046 30.4791 115.973 30.6793 115.826 30.8391C115.679 30.9993 115.509 31.0792 115.316 31.0792C114.946 31.0792 114.696 30.8493 114.566 30.3927C114.513 30.1959 114.426 30.0993 114.303 30.0993C114.08 30.0993 113.84 30.2458 113.576 30.5426C113.856 30.9259 114.046 31.2592 114.15 31.5424C114.253 31.8259 114.306 32.1292 114.306 32.456C114.306 33.0227 114.169 33.5227 113.896 33.9524C113.623 34.3858 113.166 34.7694 112.533 35.1024C111.896 35.4327 111.289 35.5993 110.71 35.5993H109.643C108.886 35.5993 108.386 35.6759 108.136 35.8326C107.89 35.9959 107.766 36.236 107.766 36.5458C107.766 36.8027 107.866 36.996 108.07 37.1326C108.269 37.2692 108.653 37.3393 109.213 37.3393L111.626 37.2792C112.846 37.2792 113.723 37.4827 114.26 37.8892C114.796 38.2993 115.066 38.8558 115.066 39.5693C115.066 40.3525 114.76 41.0093 114.146 41.5459C113.293 42.3027 112.019 42.6792 110.326 42.6792C108.926 42.6792 107.886 42.4226 107.206 41.9059C106.673 41.5025 106.406 41.0492 106.406 40.5492C106.406 40.1626 106.579 39.8125 106.923 39.4925C107.266 39.1727 107.843 38.936 108.65 38.7793C108.006 38.6225 107.519 38.3926 107.193 38.0893C106.869 37.7891 106.706 37.4127 106.706 36.9625C106.706 36.5458 106.839 36.1824 107.103 35.8726C107.366 35.5659 107.826 35.2992 108.476 35.0792C107.923 34.7725 107.506 34.4026 107.226 33.9691C106.946 33.5391 106.806 33.0425 106.806 32.4827C106.806 31.596 107.156 30.8559 107.853 30.2558C108.55 29.6591 109.456 29.3592 110.569 29.3592C111.026 29.3592 111.466 29.4258 111.89 29.5559C112.313 29.686 112.723 29.8824 113.12 30.1492ZM110.553 29.9791C109.969 29.9791 109.493 30.1925 109.113 30.6192C108.736 31.0458 108.546 31.6425 108.546 32.4126C108.546 33.2324 108.736 33.8694 109.113 34.3192C109.493 34.7725 109.973 34.9993 110.563 34.9993C111.149 34.9993 111.63 34.7793 112.003 34.3393C112.379 33.8991 112.566 33.2693 112.566 32.4492C112.566 31.6892 112.376 31.0857 111.993 30.6424C111.613 30.1991 111.133 29.9791 110.553 29.9791ZM111.116 38.7793C109.916 38.7793 109.063 38.9459 108.553 39.2793C108.043 39.6126 107.786 40.0126 107.786 40.4826C107.786 40.9259 107.979 41.276 108.363 41.5291C108.87 41.8693 109.593 42.0394 110.53 42.0394C111.649 42.0394 112.489 41.8526 113.056 41.4827C113.623 41.1093 113.906 40.696 113.906 40.2394C113.906 39.9692 113.819 39.7192 113.643 39.4893C113.466 39.256 113.186 39.0826 112.803 38.9593C112.42 38.8393 111.856 38.7793 111.116 38.7793Z"
        fill="#391563" />
    <path
        d="M59.6465 29.6191L62.9466 29.4592V33.1525C63.2998 31.9359 63.7233 31.0191 64.2165 30.3958C64.7131 29.7725 65.3231 29.4592 66.0531 29.4592C66.5497 29.4592 66.9465 29.6092 67.243 29.9125C67.5398 30.2127 67.6864 30.6192 67.6864 31.1226C67.6864 31.5325 67.5866 31.8525 67.3899 32.0793C67.1898 32.3058 66.9431 32.4192 66.6432 32.4192C66.3498 32.4192 66.1132 32.3225 65.9332 32.1258C65.7566 31.9325 65.6664 31.6691 65.6664 31.3358C65.6664 31.1226 65.7166 30.9225 65.8198 30.7325C65.9164 30.5625 65.9666 30.4624 65.9666 30.4292C65.9666 30.3326 65.9031 30.2824 65.7798 30.2824C65.5131 30.2824 65.2132 30.4392 64.8733 30.7527C64.4064 31.1892 64.0464 31.7893 63.7933 32.5493C63.4032 33.7359 63.2065 34.6826 63.2065 35.3927V37.356C63.2065 37.5759 63.283 37.746 63.4398 37.8625C63.5966 37.9793 63.8664 38.0391 64.2431 38.0391H65.4065V38.7793H59.7066V38.0391H60.6165C60.9232 38.0391 61.1565 37.9793 61.3132 37.8591C61.4697 37.7392 61.5465 37.5927 61.5465 37.4226V31.5991C61.5465 31.1558 61.453 30.8326 61.2631 30.626C61.0732 30.4224 60.803 30.3193 60.4498 30.3193H59.6465V29.6191Z"
        fill="#391563" />
    <path fill-rule="evenodd" clip-rule="evenodd"
        d="M7.56197 42.7695C7.33117 42.2884 7.02787 41.4604 6.99047 40.3853C6.92837 38.6258 7.58037 36.2053 10.4298 33.5594C10.4298 33.5594 12.9597 39.0249 8.26608 42.9004L8.26547 42.9016C8.13997 43.5283 8.02397 44.1548 7.91767 44.7846C7.80887 45.4315 7.71107 46.0798 7.62377 46.7292L7.61407 46.8026C7.74397 46.5098 7.91117 46.1983 8.12607 45.8808C9.07337 44.481 10.9474 42.9713 14.6565 42.5291C14.6565 42.5291 13.4906 48.3855 7.40887 48.5661C7.20477 50.6095 7.12567 52.5754 7.15547 54.4666C7.23847 53.9692 7.41707 53.3129 7.79977 52.6134C8.61077 51.13 10.3337 49.4485 13.9839 48.6579C13.9839 48.6579 13.3668 54.7036 7.17847 55.3735C7.24417 57.254 7.41797 59.0579 7.68467 60.7851C7.73857 60.3721 7.84567 59.8941 8.04587 59.3831C8.66237 57.8093 10.1588 55.9237 13.6791 54.6773C13.6791 54.6773 13.8299 60.6572 7.91967 62.1644C8.26377 64.0018 8.71277 65.7505 9.24517 67.4125C9.25277 67.0692 9.29078 66.6871 9.37897 66.2778C9.73497 64.6246 10.9091 62.5236 14.1848 60.7292C14.1848 60.7292 15.2804 66.5445 9.79087 69.0027C10.3853 70.6292 11.0594 72.1662 11.7935 73.6198C11.755 73.2382 11.7493 72.798 11.8063 72.3144C12.0064 70.636 12.979 68.4344 16.0724 66.3415C16.0724 66.3415 17.7007 72.0035 12.5073 74.9699C13.3602 76.5179 14.277 77.9593 15.2291 79.2973C15.1118 78.9033 15.0168 78.4319 14.991 77.8939C14.908 76.2053 15.4998 73.8718 18.2001 71.2931C18.2001 71.2931 20.77 76.6452 16.0699 80.4397C17.121 81.8247 18.2044 83.0895 19.2847 84.2361C19.1458 83.8965 19.023 83.5005 18.9414 83.0506C18.6403 81.3876 18.9249 78.9968 21.2692 76.0893C21.2692 76.0893 24.4814 81.0208 20.3941 85.3785C21.5974 86.5767 22.7789 87.6289 23.8878 88.5402C23.6846 88.1785 23.4862 87.7329 23.341 87.206C22.8923 85.5763 22.9615 83.17 25.0364 80.0641C25.0364 80.0641 28.6877 84.7013 24.982 89.4136C28.2382 91.9378 30.63 93.1295 30.63 93.1295L30.9501 93.2885L30.632 93.9292L30.3114 93.7696C30.3114 93.7696 27.8646 92.5529 24.5381 89.9743C19.2691 93.2942 15.0316 88.9351 15.0316 88.9351C18.3838 87.289 20.7782 87.5379 22.3345 88.1981C22.3617 88.2089 22.3883 88.2208 22.415 88.2324C21.6008 87.5271 20.7587 86.751 19.9066 85.904C14.3498 88.7616 10.5097 84.0286 10.5097 84.0286C13.9963 82.6898 16.359 83.151 17.8495 83.9481C17.9966 84.0272 18.1352 84.1085 18.2659 84.1922C17.335 83.174 16.4055 82.0696 15.4984 80.8765C9.66978 82.914 6.50437 77.772 6.50437 77.772C10.1341 76.8949 12.4172 77.6592 13.7925 78.6425C13.8685 78.6964 13.9422 78.7522 14.0125 78.8066C13.2712 77.7119 12.5566 76.5528 11.8797 75.3277C5.74017 76.4198 3.45907 70.7772 3.45907 70.7772C7.18467 70.5192 9.30837 71.6528 10.5004 72.8516C10.5829 72.9346 10.66 73.0177 10.7337 73.0999C10.1526 71.8867 9.61277 70.6156 9.12607 69.2862C2.94717 69.7684 1.21237 63.9653 1.21237 63.9653C4.94617 64.0565 6.95387 65.3846 8.02907 66.6891C8.18297 66.8767 8.31847 67.0635 8.43647 67.2466C7.94807 65.6746 7.53477 64.0273 7.21297 62.3027C1.12927 61.7313 0.355469 55.7913 0.355469 55.7913C4.02577 56.4792 5.79537 58.1123 6.64697 59.5733C6.71407 59.6898 6.77677 59.8046 6.83317 59.918C6.64067 58.455 6.51317 56.9393 6.45987 55.3706C0.64087 53.9697 0.626472 48.0774 0.626472 48.0774C4.17967 49.2254 5.72817 51.0685 6.38837 52.6247C6.40737 52.6684 6.42437 52.712 6.44167 52.7551L6.44367 52.6956C6.45757 52.0189 6.48417 51.3429 6.52477 50.6674C6.56527 49.9723 6.62167 49.2778 6.68887 48.5848L6.69197 48.5524C0.860271 46.6637 1.41417 40.6852 1.41417 40.6852C4.84327 42.164 6.20987 44.1466 6.71917 45.7578C6.81247 46.0523 6.87707 46.3355 6.92017 46.6005L6.92727 46.5512C7.01227 45.9259 7.10667 45.3005 7.21097 44.6783C7.31247 44.0746 7.42447 43.4733 7.54357 42.8727L7.56197 42.7695Z"
        fill="#CC918E" />
    <path fill-rule="evenodd" clip-rule="evenodd"
        d="M152.32 42.7695C152.551 42.2884 152.854 41.4604 152.892 40.3853C152.954 38.6258 152.302 36.2053 149.452 33.5594C149.452 33.5594 146.923 39.0249 151.617 42.9004V42.9016C151.741 43.5283 151.859 44.1548 151.965 44.7846C152.073 45.4315 152.171 46.0798 152.258 46.7292L152.268 46.8026C152.138 46.5098 151.971 46.1983 151.757 45.8808C150.809 44.481 148.935 42.9713 145.226 42.5291C145.226 42.5291 146.392 48.3855 152.473 48.5661C152.677 50.6095 152.756 52.5754 152.726 54.4666C152.643 53.9692 152.465 53.3129 152.082 52.6134C151.271 51.13 149.548 49.4485 145.899 48.6579C145.899 48.6579 146.515 54.7036 152.704 55.3735C152.638 57.254 152.464 59.0579 152.197 60.7851C152.143 60.3721 152.036 59.8941 151.836 59.3831C151.22 57.8093 149.723 55.9237 146.203 54.6773C146.203 54.6773 146.052 60.6572 151.962 62.1644C151.618 64.0018 151.17 65.7505 150.637 67.4125C150.63 67.0692 150.591 66.6871 150.503 66.2778C150.148 64.6246 148.973 62.5236 145.697 60.7292C145.697 60.7292 144.602 66.5445 150.091 69.0027C149.497 70.6292 148.823 72.1662 148.088 73.6198C148.126 73.2382 148.134 72.798 148.076 72.3144C147.876 70.636 146.903 68.4344 143.81 66.3415C143.81 66.3415 142.181 72.0035 147.375 74.9699C146.523 76.5179 145.605 77.9593 144.653 79.2973C144.77 78.9033 144.865 78.4319 144.891 77.8939C144.974 76.2053 144.382 73.8718 141.682 71.2931C141.682 71.2931 139.112 76.6452 143.813 80.4397C142.761 81.8247 141.677 83.0895 140.598 84.2361C140.735 83.8965 140.86 83.5005 140.941 83.0506C141.241 81.3876 140.957 78.9968 138.612 76.0893C138.612 76.0893 135.4 81.0208 139.487 85.3785C138.283 86.5767 137.102 87.6289 135.993 88.5402C136.197 88.1785 136.395 87.7329 136.541 87.206C136.989 85.5763 136.919 83.17 134.844 80.0641C134.844 80.0641 131.194 84.7013 134.899 89.4136C131.643 91.9378 129.252 93.1295 129.252 93.1295L128.932 93.2885L129.25 93.9292L129.57 93.7696C129.57 93.7696 132.017 92.5529 135.344 89.9743C140.613 93.2942 144.851 88.9351 144.851 88.9351C141.498 87.289 139.104 87.5379 137.547 88.1981C137.521 88.2089 137.493 88.2208 137.467 88.2324C138.281 87.5271 139.123 86.751 139.975 85.904C145.532 88.7616 149.372 84.0286 149.372 84.0286C145.886 82.6898 143.523 83.151 142.032 83.9481C141.885 84.0272 141.747 84.1085 141.617 84.1922C142.548 83.174 143.478 82.0696 144.384 80.8765C150.213 82.914 153.378 77.772 153.378 77.772C149.748 76.8949 147.465 77.6592 146.09 78.6425C146.014 78.6964 145.94 78.7522 145.87 78.8066C146.611 77.7119 147.327 76.5528 148.003 75.3277C154.142 76.4198 156.423 70.7772 156.423 70.7772C152.698 70.5192 150.575 71.6528 149.382 72.8516C149.3 72.9346 149.223 73.0177 149.149 73.0999C149.73 71.8867 150.27 70.6156 150.757 69.2862C156.935 69.7684 158.671 63.9653 158.671 63.9653C154.937 64.0565 152.93 65.3846 151.855 66.6891C151.701 66.8767 151.565 67.0635 151.447 67.2466C151.936 65.6746 152.349 64.0273 152.671 62.3027C158.755 61.7313 159.529 55.7913 159.529 55.7913C155.858 56.4792 154.089 58.1123 153.238 59.5733C153.17 59.6898 153.107 59.8046 153.051 59.918C153.244 58.455 153.371 56.9393 153.424 55.3706C159.243 53.9697 159.259 48.0774 159.259 48.0774C155.705 49.2254 154.156 51.0685 153.496 52.6247C153.478 52.6684 153.46 52.712 153.443 52.7551L153.442 52.6956C153.428 52.0189 153.401 51.3429 153.361 50.6674C153.32 49.9723 153.264 49.2778 153.196 48.5848L153.193 48.5524C159.024 46.6637 158.472 40.6852 158.472 40.6852C155.042 42.164 153.676 44.1466 153.166 45.7578C153.073 46.0523 153.008 46.3355 152.965 46.6005L152.959 46.5512C152.874 45.9259 152.779 45.3005 152.674 44.6783C152.573 44.0746 152.461 43.4733 152.342 42.8727L152.32 42.7695Z"
        fill="#CC918E" />
    <path fill-rule="evenodd" clip-rule="evenodd"
        d="M39.7359 55.078L42.3279 59.69L47.5147 60.7297L43.9297 64.62L44.5434 69.874L39.7356 67.6667L34.9283 69.874L35.542 64.6197L31.957 60.7297L37.1441 59.6897L39.7359 55.078Z"
        fill="#E4A3A0" />
    <path fill-rule="evenodd" clip-rule="evenodd"
        d="M60.859 55.078L63.4512 59.69L68.6378 60.7297L65.0528 64.62L65.6668 69.874L60.859 67.6667L56.0514 69.874L56.6654 64.6197L53.0801 60.7297L58.2672 59.6897L60.859 55.078Z"
        fill="#E4A3A0" />
    <path fill-rule="evenodd" clip-rule="evenodd"
        d="M80.1186 55.078L82.7106 59.69L87.8975 60.7297L84.3125 64.62L84.9262 69.874L80.1184 67.6667L75.3111 69.874L75.9248 64.6197L72.3398 60.7297L77.5269 59.6897L80.1186 55.078Z"
        fill="#E4A3A0" />
    <path fill-rule="evenodd" clip-rule="evenodd"
        d="M99.3784 55.078L101.971 59.69L107.157 60.7297L103.572 64.62L104.186 69.874L99.3784 67.6667L94.5709 69.874L95.1849 64.6197L91.5996 60.7297L96.7867 59.6897L99.3784 55.078Z"
        fill="#E4A3A0" />
    <path fill-rule="evenodd" clip-rule="evenodd"
        d="M118.638 55.078L121.23 59.69L126.417 60.7297L122.832 64.62L123.446 69.874L118.638 67.6667L113.831 69.874L114.444 64.6197L110.859 60.7297L116.046 59.6897L118.638 55.078Z"
        fill="#E4A3A0" />
</svg>