<svg width="63" height="63" viewBox="0 0 63 63" fill="none" xmlns="http://www.w3.org/2000/svg">
<g clip-path="url(#clip0_483_498)">
<path fill-rule="evenodd" clip-rule="evenodd" d="M61.7896 15.2401C63.0196 25.1601 63.0196 37.5601 61.7896 47.4701C60.6796 56.4701 56.4696 60.6701 47.4696 61.7901C37.5496 63.0201 25.1496 63.0201 15.2396 61.7901C6.23957 60.6801 2.03957 56.4701 0.91957 47.4701C-0.31043 37.5501 -0.31043 25.1501 0.91957 15.2401C2.02957 6.24006 6.23957 2.03006 15.2396 0.920059C25.1496 -0.309941 37.5496 -0.309941 47.4696 0.920059C56.4696 2.03006 60.6696 6.24006 61.7896 15.2401Z" fill="#E3A2A0"/>
<path fill-rule="evenodd" clip-rule="evenodd" d="M44.0096 29.5301C41.2396 43.1401 21.7296 43.4901 18.5196 29.9601C18.0896 28.2301 15.3996 28.8301 15.8296 30.5701C19.7296 46.9501 43.3096 46.5201 46.6896 30.1401C46.8596 29.3601 46.3396 28.6701 45.6496 28.4901C44.8696 28.3201 44.1796 28.8401 43.9996 29.5301" fill="#F2D3C3"/>
<path fill-rule="evenodd" clip-rule="evenodd" d="M25.2493 24.24C26.3393 24.24 27.2193 23.35 27.2193 22.2701C27.2193 21.1901 26.3293 20.3 25.2493 20.3C24.1693 20.3 23.2793 21.1901 23.2793 22.2701C23.2793 23.35 24.1693 24.24 25.2493 24.24Z" fill="#F2D3C3"/>
<path fill-rule="evenodd" clip-rule="evenodd" d="M37.1399 24.3801C38.2299 24.3801 39.1099 23.4901 39.1099 22.4101C39.1099 21.3301 38.2199 20.4401 37.1399 20.4401C36.0599 20.4401 35.1699 21.3301 35.1699 22.4101C35.1699 23.4901 36.0599 24.3801 37.1399 24.3801Z" fill="#F2D3C3"/>
</g>
<defs>
<clipPath id="clip0_483_498">
<rect width="62.71" height="62.71" fill="white"/>
</clipPath>
</defs>
</svg>
