<svg width="19" height="20" viewBox="0 0 19 20" fill="none" xmlns="http://www.w3.org/2000/svg">
    <path opacity="0.9" fill-rule="evenodd" clip-rule="evenodd"
        d="M18.8859 11.554V7.80493L16.5419 7.17194C16.4509 6.91294 16.3469 6.66095 16.2299 6.41595L17.4859 4.32996L14.8349 1.67896L12.7279 2.88995C12.4689 2.76395 12.2019 2.65197 11.9259 2.55597L11.2929 0.211914H7.54391L6.95691 2.57391C6.69891 2.66591 6.44792 2.77195 6.20392 2.88995L4.09592 1.67896L1.44492 4.32996L2.7019 6.41595C2.5849 6.66095 2.48092 6.91294 2.38992 7.17194L0.0449219 7.80493V11.554L2.40692 12.1409C2.49892 12.3989 2.6039 12.6499 2.7229 12.8939L1.51089 15.0029L4.1619 17.6539L6.24789 16.3979C6.47789 16.5079 6.7139 16.606 6.9559 16.692L7.54291 19.054H11.2919L11.9249 16.71C12.1839 16.62 12.4369 16.5149 12.6819 16.3979L14.7679 17.6539L17.4189 15.0029L16.2079 12.895C16.3269 12.651 16.4319 12.4 16.5249 12.142L18.8859 11.554ZM14.2669 9.63196C14.2669 12.28 12.1129 14.4349 9.4649 14.4349C6.8159 14.4349 4.6619 12.28 4.6619 9.63196C4.6619 6.98396 6.81691 4.82892 9.4649 4.82892C12.1129 4.82892 14.2669 6.98396 14.2669 9.63196Z"
        fill="#E3A29F" />
</svg>