<svg width="20" height="21" viewBox="0 0 20 21" fill="none" xmlns="http://www.w3.org/2000/svg">
<path fill-rule="evenodd" clip-rule="evenodd" d="M15.618 13.0419C14.632 13.0419 13.742 13.4448 13.1 14.0948L7.742 11.1649C7.798 10.9139 7.82999 10.6549 7.82999 10.3869C7.82999 10.1189 7.798 9.85989 7.742 9.60889L13.076 6.69189C13.719 7.35689 14.62 7.77185 15.618 7.77185C17.573 7.77185 19.158 6.18687 19.158 4.23187C19.158 2.27687 17.573 0.691895 15.618 0.691895C13.663 0.691895 12.078 2.27687 12.078 4.23187C12.078 4.48687 12.106 4.73485 12.157 4.97485L6.80801 7.8999C6.16601 7.2499 5.27601 6.84686 4.29001 6.84686C2.33501 6.84686 0.75 8.4319 0.75 10.3869C0.75 12.3419 2.33501 13.9269 4.29001 13.9269C5.27601 13.9269 6.16601 13.5229 6.80801 12.8739L12.166 15.8049C12.11 16.0549 12.077 16.3148 12.077 16.5818C12.077 18.5368 13.662 20.1219 15.617 20.1219C17.572 20.1219 19.157 18.5368 19.157 16.5818C19.158 14.6268 17.573 13.0419 15.618 13.0419Z" fill="#E3A29F"/>
</svg>
