<svg width="58" height="58" viewBox="0 0 58 58" fill="none" xmlns="http://www.w3.org/2000/svg">
    <path fill-rule="evenodd" clip-rule="evenodd"
        d="M56.4716 14.5314C58.0896 22.6211 58.0896 35.5658 56.4716 43.6556C56.4716 51.7454 51.6175 56.5995 43.5277 56.5995C35.4379 58.2175 22.4933 58.2175 14.4035 56.5995C6.31369 56.5995 1.45959 51.7454 1.45959 43.6556C-0.158406 35.5658 -0.158406 22.6211 1.45959 14.5314C1.45959 6.4416 6.31369 1.58749 14.4035 1.58749C22.4933 -0.0305061 35.4379 -0.0305061 43.5277 1.58749C51.6175 1.58749 56.4716 6.4416 56.4716 14.5314Z"
        fill="#00C478" />
    <path
        d="M43.2874 41.5889C41.7672 41.5889 40.5296 42.8265 40.5296 44.3467C40.5296 44.9397 40.7172 45.4891 41.0356 45.9378H33.2811C33.2893 39.1627 33.2975 32.3848 33.3058 25.6097C33.3083 24.7664 33.2323 23.7791 32.5225 23.3275C32.0682 23.0367 31.4837 23.0693 30.9505 23.1484C30.8201 23.1674 30.6865 23.1892 30.5562 23.2136C30.2231 23.276 29.8926 23.3542 29.5666 23.4466V21.2724C34.538 18.7969 28.8154 10.8832 33.0385 7.04898C28.0152 6.08098 19.8593 15.7474 27.8417 21.1775V24.0801C27.16 24.3934 26.5071 24.7712 25.8997 25.2126C25.3367 25.6208 24.7928 26.1049 24.5124 26.7439C24.2488 27.3476 24.2431 28.0305 24.2431 28.6913C24.2431 31.9009 24.2431 35.1103 24.2406 38.3197V45.6714C24.2406 45.7394 24.2352 45.8318 24.2241 45.9381L16.127 45.9378C16.1298 46.509 16.1678 47.0694 16.2386 47.6216C16.2412 47.6377 16.244 47.6567 16.2469 47.6732C16.301 48.0785 16.3719 48.4757 16.4643 48.8671C16.4697 48.8861 16.4725 48.9026 16.4779 48.9216C16.5663 49.2986 16.6712 49.6693 16.7914 50.033H41.8236C41.9438 49.6693 42.0487 49.2986 42.1371 48.9216C42.1425 48.9026 42.1453 48.8861 42.1507 48.8671C42.2434 48.4757 42.314 48.0783 42.3684 47.6732C42.371 47.6567 42.3738 47.6377 42.3763 47.6216C42.4038 47.4064 42.4254 47.189 42.4418 46.9713C42.7083 47.0583 42.994 47.1048 43.2877 47.1048C44.8107 47.1048 46.0455 45.8672 46.0455 44.3467C46.0455 42.8265 44.8107 41.5889 43.2874 41.5889ZM43.2874 46.0166C42.3681 46.0166 41.6175 45.2686 41.6175 44.3467C41.6175 43.4246 42.3681 42.6768 43.2874 42.6768C44.2095 42.6768 44.9576 43.4246 44.9576 44.3467C44.9576 45.2686 44.2095 46.0166 43.2874 46.0166Z"
        fill="white" />
</svg>