<svg width="63" height="63" viewBox="0 0 63 63" fill="none" xmlns="http://www.w3.org/2000/svg">
<g clip-path="url(#clip0_483_504)">
<path fill-rule="evenodd" clip-rule="evenodd" d="M61.7896 15.2401C63.0196 25.1601 63.0196 37.5601 61.7896 47.4701C60.6796 56.4701 56.4696 60.6701 47.4696 61.7901C37.5496 63.0201 25.1496 63.0201 15.2396 61.7901C6.23957 60.6801 2.03957 56.4701 0.91957 47.4701C-0.31043 37.5501 -0.31043 25.1501 0.91957 15.2401C2.02957 6.24006 6.23957 2.03006 15.2396 0.920059C25.1496 -0.309941 37.5496 -0.309941 47.4696 0.920059C56.4696 2.03006 60.6696 6.24006 61.7896 15.2401Z" fill="#E3A2A0"/>
<path fill-rule="evenodd" clip-rule="evenodd" d="M29.44 20.2901C29.44 25.6601 21.29 25.6601 21.29 20.2901C21.29 18.5601 23.97 18.5601 23.97 20.2901C23.97 22.1101 26.66 22.1101 26.66 20.2901C26.66 18.5601 29.43 18.5601 29.43 20.2901" fill="#F2D3C3"/>
<path fill-rule="evenodd" clip-rule="evenodd" d="M41.2291 20.2901C41.2291 25.6601 33.0791 25.6601 33.0791 20.2901C33.0791 18.5601 35.7691 18.5601 35.7691 20.2901C35.7691 22.1101 38.5391 22.1101 38.5391 20.2901C38.5391 18.4701 41.2291 18.5601 41.2291 20.2901Z" fill="#F2D3C3"/>
<path fill-rule="evenodd" clip-rule="evenodd" d="M44.0096 29.5301C41.2396 43.1401 21.7296 43.4901 18.5196 29.9601C18.0896 28.2301 15.3996 28.8301 15.8296 30.5701C19.7296 46.9501 43.3096 46.5201 46.6896 30.1401C46.8596 29.3601 46.3396 28.6701 45.6496 28.4901C44.8696 28.3201 44.1796 28.8401 43.9996 29.5301" fill="#F2D3C3"/>
</g>
<defs>
<clipPath id="clip0_483_504">
<rect width="62.71" height="62.71" fill="white"/>
</clipPath>
</defs>
</svg>
