<svg width="63" height="63" viewBox="0 0 63 63" fill="none" xmlns="http://www.w3.org/2000/svg">
<g clip-path="url(#clip0_483_170)">
<path fill-rule="evenodd" clip-rule="evenodd" d="M61.7896 15.2401C63.0196 25.1601 63.0196 37.5601 61.7896 47.4701C60.6796 56.4701 56.4696 60.6701 47.4696 61.7901C37.5496 63.0201 25.1496 63.0201 15.2396 61.7901C6.23957 60.6801 2.03957 56.4701 0.91957 47.4701C-0.31043 37.5501 -0.31043 25.1501 0.91957 15.2401C2.02957 6.24006 6.23957 2.03006 15.2396 0.920059C25.1496 -0.309941 37.5496 -0.309941 47.4696 0.920059C56.4696 2.03006 60.6696 6.24006 61.7896 15.2401Z" fill="#381562"/>
<path fill-rule="evenodd" clip-rule="evenodd" d="M44.0096 29.5301C41.2396 43.1401 21.7296 43.4901 18.5196 29.9601C18.0896 28.2301 15.3996 28.8301 15.8296 30.5701C19.7296 46.9501 43.3096 46.5201 46.6896 30.1401C46.8596 29.3601 46.3396 28.6701 45.6496 28.4901C44.8696 28.3201 44.1796 28.8401 43.9996 29.5301" fill="#23FFA6"/>
<path fill-rule="evenodd" clip-rule="evenodd" d="M28.5195 21.0201C28.9295 20.6101 28.6995 19.8801 28.1395 19.8001L26.7094 19.5801C26.4894 19.5501 26.2895 19.4001 26.1895 19.1901L25.5494 17.8401C25.4194 17.5701 25.1795 17.4401 24.9295 17.4401C24.6795 17.4401 24.4395 17.5701 24.3095 17.8401L23.6695 19.1901C23.5695 19.4001 23.3795 19.5501 23.1495 19.5801L21.7194 19.8001C21.1594 19.8901 20.9295 20.6101 21.3395 21.0201L22.3794 22.0701C22.5394 22.2301 22.6195 22.4701 22.5795 22.7001L22.3295 24.1901C22.2495 24.6501 22.6095 25.0301 23.0095 25.0301C23.1195 25.0301 23.2295 25.0001 23.3295 24.9501L24.6095 24.2501C24.7095 24.2001 24.8195 24.1701 24.9295 24.1701C25.0395 24.1701 25.1495 24.2001 25.2495 24.2501L26.5295 24.9501C26.6395 25.0101 26.7395 25.0301 26.8495 25.0301C27.2495 25.0301 27.5995 24.6501 27.5295 24.1901L27.2895 22.7001C27.2495 22.4701 27.3195 22.2301 27.4895 22.0701L28.5295 21.0201H28.5195Z" fill="#23FFA6"/>
<path fill-rule="evenodd" clip-rule="evenodd" d="M40.4296 20.7601C40.8396 20.3501 40.6096 19.6301 40.0496 19.5401L38.6196 19.3201C38.3996 19.2901 38.1996 19.1401 38.0996 18.9301L37.4596 17.5801C37.3296 17.3101 37.0896 17.1801 36.8396 17.1801C36.5896 17.1801 36.3496 17.3101 36.2196 17.5801L35.5796 18.9301C35.4796 19.1401 35.2896 19.2901 35.0596 19.3201L33.6296 19.5401C33.0696 19.6301 32.8396 20.3501 33.2496 20.7601L34.2896 21.8101C34.4496 21.9701 34.5296 22.2101 34.4896 22.4401L34.2396 23.9301C34.1596 24.3901 34.5196 24.7701 34.9196 24.7701C35.0296 24.7701 35.1396 24.7401 35.2396 24.6901L36.5196 23.9901C36.6196 23.9401 36.7296 23.9101 36.8396 23.9101C36.9496 23.9101 37.0596 23.9401 37.1596 23.9901L38.4396 24.6901C38.5496 24.7501 38.6496 24.7701 38.7596 24.7701C39.1596 24.7701 39.5096 24.3901 39.4396 23.9301L39.1996 22.4401C39.1596 22.2101 39.2296 21.9701 39.3996 21.8101L40.4396 20.7601H40.4296Z" fill="#23FFA6"/>
</g>
<defs>
<clipPath id="clip0_483_170">
<rect width="62.71" height="62.71" fill="white"/>
</clipPath>
</defs>
</svg>
