<svg width="14" height="14" viewBox="0 0 14 14" fill="none" xmlns="http://www.w3.org/2000/svg">
    <path fill-rule="evenodd" clip-rule="evenodd"
        d="M10.0933 7.38293C9.4503 8.03693 9.15726 8.97794 9.30826 9.90094L9.59128 11.618L8.11228 10.808C7.72028 10.594 7.28231 10.4799 6.84031 10.4799C6.39931 10.4799 5.96029 10.594 5.57029 10.808L4.09031 11.618L4.37327 9.90094C4.52427 8.97794 4.23029 8.03693 3.58829 7.38293L2.39127 6.16693L4.04526 5.91592C4.93526 5.78192 5.70326 5.19993 6.10026 4.36093L6.84031 2.79794L7.5803 4.36093C7.9783 5.19993 8.74729 5.78292 9.63529 5.91592L11.2893 6.16693L10.0933 7.38293ZM12.9473 6.75494C13.6413 6.04994 13.2583 4.82194 12.2993 4.67694L9.86027 4.30695C9.47927 4.24895 9.14928 4.00093 8.97928 3.64093L7.88926 1.33893C7.67426 0.885928 7.25731 0.658936 6.84031 0.658936C6.42231 0.658936 6.0063 0.885928 5.7913 1.33893L4.70127 3.64093C4.53127 4.00093 4.20125 4.24995 3.81925 4.30695L1.38126 4.67694C0.421262 4.82194 0.0382749 6.04994 0.732275 6.75494L2.49625 8.54794C2.77225 8.82694 2.89926 9.23095 2.83426 9.62595L2.4163 12.1559C2.2873 12.9439 2.88725 13.584 3.56925 13.584C3.74925 13.584 3.93529 13.5389 4.11429 13.4419L6.29429 12.2469C6.46529 12.1549 6.65327 12.1059 6.83927 12.1059C7.02527 12.1059 7.21328 12.1549 7.38328 12.2469L9.56626 13.4419C9.74526 13.5399 9.93027 13.584 10.1103 13.584C10.7923 13.584 11.3913 12.9439 11.2613 12.1559L10.8463 9.62595C10.7803 9.23095 10.9063 8.82694 11.1813 8.54794L12.9473 6.75494Z"
        fill="#E3A29F" />
</svg>