<svg width="63" height="63" viewBox="0 0 63 63" fill="none" xmlns="http://www.w3.org/2000/svg">
<g clip-path="url(#clip0_483_510)">
<path fill-rule="evenodd" clip-rule="evenodd" d="M61.7896 15.2401C63.0196 25.1601 63.0196 37.5601 61.7896 47.4701C60.6796 56.4701 56.4696 60.6701 47.4696 61.7901C37.5496 63.0201 25.1496 63.0201 15.2396 61.7901C6.23957 60.6801 2.03957 56.4701 0.91957 47.4701C-0.31043 37.5501 -0.31043 25.1501 0.91957 15.2401C2.02957 6.24006 6.23957 2.03006 15.2396 0.920059C25.1496 -0.309941 37.5496 -0.309941 47.4696 0.920059C56.4696 2.03006 60.6696 6.24006 61.7896 15.2401Z" fill="#E3A2A0"/>
<path fill-rule="evenodd" clip-rule="evenodd" d="M29.44 23.0201C29.44 17.6501 21.29 17.6501 21.29 23.0201C21.29 24.7501 23.97 24.7501 23.97 23.0201C23.97 21.2001 26.66 21.2001 26.66 23.0201C26.66 24.7501 29.43 24.7501 29.43 23.0201" fill="#F2D3C3"/>
<path fill-rule="evenodd" clip-rule="evenodd" d="M41.2291 23.0201C41.2291 17.6501 33.0791 17.6501 33.0791 23.0201C33.0791 24.7501 35.7691 24.7501 35.7691 23.0201C35.7691 21.2001 38.5391 21.2001 38.5391 23.0201C38.5391 24.8401 41.2291 24.7501 41.2291 23.0201Z" fill="#F2D3C3"/>
<path fill-rule="evenodd" clip-rule="evenodd" d="M19.2195 38.05H44.4595C45.3995 38.05 46.1595 38.82 46.1595 39.75C46.1595 40.69 45.3895 41.4501 44.4595 41.4501H19.2195C18.2795 41.4501 17.5195 40.68 17.5195 39.75C17.5195 38.81 18.2895 38.05 19.2195 38.05Z" fill="#F2D3C3"/>
</g>
<defs>
<clipPath id="clip0_483_510">
<rect width="62.71" height="62.71" fill="white"/>
</clipPath>
</defs>
</svg>
